G04 EAGLE Gerber RS-274X export*
G75*
%MOMM*%
%FSLAX34Y34*%
%LPD*%
%INSolderpaste Top*%
%IPPOS*%
%AMOC8*
5,1,8,0,0,1.08239X$1,22.5*%
G01*
%ADD10R,0.600000X2.200000*%
%ADD11R,1.100000X1.000000*%
%ADD12R,2.100000X1.400000*%
%ADD13R,1.000000X1.600000*%
%ADD14R,0.800000X0.800000*%
%ADD15R,1.550000X0.600000*%
%ADD16R,1.000000X1.100000*%
%ADD17R,1.127200X0.783900*%
%ADD18R,1.000000X1.400000*%
%ADD19R,0.249200X0.804800*%
%ADD20R,0.804800X0.249200*%
%ADD21R,1.550000X1.550000*%
%ADD22R,0.558800X1.320800*%
%ADD23R,1.600000X1.800000*%


D10*
X402670Y381680D03*
X402670Y329680D03*
X415370Y381680D03*
X389970Y381680D03*
X377270Y381680D03*
X415370Y329680D03*
X389970Y329680D03*
X377270Y329680D03*
D11*
X442040Y379260D03*
X442040Y362260D03*
D12*
X25700Y804900D03*
X25700Y759900D03*
X116700Y759900D03*
X116700Y804900D03*
D13*
X188040Y786240D03*
X213040Y786240D03*
X163040Y786240D03*
X163040Y758240D03*
X188040Y758240D03*
X213040Y758240D03*
D11*
X396240Y733180D03*
X396240Y750180D03*
X304800Y733180D03*
X304800Y750180D03*
X365760Y733180D03*
X365760Y750180D03*
D14*
X396240Y774070D03*
X396240Y790570D03*
X304800Y774070D03*
X304800Y790570D03*
X365760Y774070D03*
X365760Y790570D03*
D15*
X179200Y443230D03*
X179200Y455930D03*
X179200Y468630D03*
X179200Y481330D03*
X125800Y481330D03*
X125800Y468630D03*
X125800Y455930D03*
X125800Y443230D03*
X179200Y494030D03*
X179200Y506730D03*
X179200Y519430D03*
X179200Y532130D03*
X125800Y532130D03*
X125800Y519430D03*
X125800Y506730D03*
X125800Y494030D03*
D16*
X472440Y379340D03*
X472440Y362340D03*
D11*
X486020Y340360D03*
X469020Y340360D03*
X452120Y348860D03*
X452120Y331860D03*
D10*
X417830Y219040D03*
X417830Y167040D03*
X430530Y219040D03*
X405130Y219040D03*
X392430Y219040D03*
X430530Y167040D03*
X405130Y167040D03*
X392430Y167040D03*
D16*
X397900Y132080D03*
X414900Y132080D03*
D17*
X499815Y233680D03*
X465385Y233680D03*
X499815Y208280D03*
X465385Y208280D03*
D11*
X536820Y208280D03*
X519820Y208280D03*
D16*
X536820Y182880D03*
X519820Y182880D03*
D18*
X533400Y143080D03*
X542900Y121080D03*
X523900Y121080D03*
D19*
X327780Y579836D03*
X332780Y579836D03*
X337780Y579836D03*
X342780Y579836D03*
D20*
X349804Y586860D03*
X349804Y591860D03*
X349804Y596860D03*
X349804Y601860D03*
D19*
X342780Y608884D03*
X337780Y608884D03*
X332780Y608884D03*
X327780Y608884D03*
D20*
X320756Y601860D03*
X320756Y596860D03*
X320756Y591860D03*
X320756Y586860D03*
D21*
X335280Y594360D03*
D11*
X274320Y733180D03*
X274320Y750180D03*
D14*
X274320Y774070D03*
X274320Y790570D03*
D16*
X267580Y670560D03*
X250580Y670560D03*
X303140Y670560D03*
X286140Y670560D03*
X287900Y543560D03*
X270900Y543560D03*
X298060Y502920D03*
X281060Y502920D03*
X298060Y477520D03*
X281060Y477520D03*
D10*
X300990Y432400D03*
X300990Y380400D03*
X313690Y432400D03*
X288290Y432400D03*
X275590Y432400D03*
X313690Y380400D03*
X288290Y380400D03*
X275590Y380400D03*
D11*
X441960Y504580D03*
X441960Y521580D03*
X441960Y469020D03*
X441960Y486020D03*
X441960Y433460D03*
X441960Y450460D03*
D16*
X441960Y414900D03*
X441960Y397900D03*
D11*
X414900Y447040D03*
X397900Y447040D03*
X414900Y482600D03*
X397900Y482600D03*
D16*
X396240Y601100D03*
X396240Y618100D03*
D11*
X250580Y650240D03*
X267580Y650240D03*
X270900Y568960D03*
X287900Y568960D03*
D16*
X501260Y121920D03*
X484260Y121920D03*
D11*
X335280Y733180D03*
X335280Y750180D03*
D14*
X335280Y774070D03*
X335280Y790570D03*
D22*
X248260Y505714D03*
X238760Y505714D03*
X229260Y505714D03*
X229260Y479806D03*
X238760Y479806D03*
X248260Y479806D03*
D16*
X270900Y619760D03*
X287900Y619760D03*
D11*
X360680Y662060D03*
X360680Y679060D03*
D16*
X330200Y662060D03*
X330200Y679060D03*
X287900Y594360D03*
X270900Y594360D03*
D23*
X407640Y553720D03*
X435640Y553720D03*
X435640Y579120D03*
X407640Y579120D03*
X468600Y508000D03*
X496600Y508000D03*
D11*
X326780Y462280D03*
X343780Y462280D03*
M02*
