G04 EAGLE Gerber RS-274X export*
G75*
%MOMM*%
%FSLAX34Y34*%
%LPD*%
%INInner Copper Layer 2*%
%IPPOS*%
%AMOC8*
5,1,8,0,0,1.08239X$1,22.5*%
G01*
%ADD10C,4.000000*%
%ADD11C,1.524000*%
%ADD12C,4.200000*%
%ADD13C,1.981200*%
%ADD14C,1.200000*%
%ADD15C,1.219200*%
%ADD16C,1.500000*%
%ADD17C,2.667000*%
%ADD18C,0.750000*%
%ADD19C,0.254000*%
%ADD20C,0.508000*%
%ADD21C,0.203200*%
%ADD22C,0.406400*%
%ADD23C,0.200000*%
%ADD24C,0.400000*%

G36*
X530021Y5003D02*
X530021Y5003D01*
X530083Y5003D01*
X533180Y5206D01*
X533224Y5215D01*
X533268Y5215D01*
X533426Y5247D01*
X539410Y6850D01*
X539489Y6883D01*
X539571Y6906D01*
X539694Y6967D01*
X539704Y6970D01*
X539707Y6973D01*
X539716Y6977D01*
X545081Y10074D01*
X545149Y10126D01*
X545223Y10170D01*
X545325Y10260D01*
X545334Y10267D01*
X545337Y10270D01*
X545343Y10276D01*
X549724Y14657D01*
X549776Y14724D01*
X549836Y14785D01*
X549912Y14899D01*
X549919Y14908D01*
X549920Y14912D01*
X549926Y14919D01*
X553023Y20284D01*
X553056Y20363D01*
X553098Y20438D01*
X553142Y20568D01*
X553146Y20577D01*
X553147Y20582D01*
X553150Y20590D01*
X554753Y26574D01*
X554759Y26618D01*
X554773Y26660D01*
X554794Y26820D01*
X554856Y27767D01*
X554997Y29917D01*
X554995Y29938D01*
X554999Y30000D01*
X554999Y820000D01*
X554997Y820020D01*
X554997Y820083D01*
X554794Y823180D01*
X554785Y823224D01*
X554785Y823268D01*
X554753Y823426D01*
X553150Y829410D01*
X553117Y829489D01*
X553094Y829571D01*
X553033Y829694D01*
X553030Y829704D01*
X553027Y829707D01*
X553023Y829716D01*
X549926Y835081D01*
X549874Y835149D01*
X549830Y835223D01*
X549740Y835325D01*
X549733Y835334D01*
X549730Y835337D01*
X549724Y835343D01*
X545343Y839724D01*
X545276Y839776D01*
X545215Y839836D01*
X545101Y839912D01*
X545092Y839919D01*
X545088Y839920D01*
X545081Y839926D01*
X539716Y843023D01*
X539637Y843056D01*
X539562Y843098D01*
X539432Y843142D01*
X539423Y843146D01*
X539418Y843147D01*
X539410Y843150D01*
X533426Y844753D01*
X533382Y844759D01*
X533340Y844773D01*
X533180Y844794D01*
X530083Y844997D01*
X530062Y844995D01*
X530000Y844999D01*
X30000Y844999D01*
X29979Y844997D01*
X29917Y844997D01*
X26820Y844794D01*
X26776Y844785D01*
X26732Y844785D01*
X26574Y844753D01*
X20590Y843150D01*
X20511Y843117D01*
X20429Y843094D01*
X20306Y843033D01*
X20296Y843030D01*
X20293Y843027D01*
X20284Y843023D01*
X14919Y839926D01*
X14851Y839874D01*
X14777Y839830D01*
X14675Y839740D01*
X14666Y839733D01*
X14663Y839730D01*
X14657Y839724D01*
X10276Y835343D01*
X10224Y835276D01*
X10164Y835215D01*
X10088Y835100D01*
X10081Y835092D01*
X10080Y835088D01*
X10074Y835081D01*
X6977Y829716D01*
X6944Y829637D01*
X6902Y829562D01*
X6879Y829493D01*
X6869Y829474D01*
X6866Y829456D01*
X6858Y829432D01*
X6854Y829423D01*
X6853Y829418D01*
X6850Y829410D01*
X5247Y823426D01*
X5241Y823382D01*
X5227Y823340D01*
X5206Y823180D01*
X5003Y820083D01*
X5005Y820062D01*
X5001Y820000D01*
X5001Y151333D01*
X5018Y151195D01*
X5031Y151056D01*
X5038Y151037D01*
X5041Y151017D01*
X5092Y150888D01*
X5139Y150757D01*
X5150Y150740D01*
X5158Y150721D01*
X5239Y150609D01*
X5317Y150494D01*
X5333Y150480D01*
X5344Y150464D01*
X5452Y150375D01*
X5556Y150283D01*
X5574Y150274D01*
X5589Y150261D01*
X5715Y150202D01*
X5839Y150139D01*
X5859Y150134D01*
X5877Y150126D01*
X6014Y150100D01*
X6149Y150069D01*
X6170Y150070D01*
X6189Y150066D01*
X6328Y150075D01*
X6467Y150079D01*
X6487Y150084D01*
X6507Y150086D01*
X6639Y150128D01*
X6773Y150167D01*
X6790Y150177D01*
X6809Y150184D01*
X6927Y150258D01*
X7047Y150329D01*
X7068Y150347D01*
X7078Y150354D01*
X7092Y150369D01*
X7167Y150435D01*
X8743Y152010D01*
X9301Y152569D01*
X9362Y152647D01*
X9430Y152719D01*
X9459Y152772D01*
X9496Y152820D01*
X9535Y152911D01*
X9583Y152998D01*
X9598Y153056D01*
X9622Y153112D01*
X9638Y153210D01*
X9663Y153306D01*
X9669Y153406D01*
X9672Y153426D01*
X9671Y153438D01*
X9673Y153466D01*
X9673Y153533D01*
X9723Y153653D01*
X9749Y153750D01*
X9784Y153843D01*
X9801Y153940D01*
X9807Y153960D01*
X9807Y153973D01*
X9812Y154002D01*
X9826Y154131D01*
X9926Y154314D01*
X9958Y154394D01*
X9998Y154469D01*
X10039Y154600D01*
X10043Y154610D01*
X10043Y154615D01*
X10046Y154623D01*
X11577Y160900D01*
X11585Y160971D01*
X11603Y161040D01*
X11613Y161201D01*
X11613Y161888D01*
X12074Y163001D01*
X12078Y163017D01*
X12087Y163032D01*
X12135Y163186D01*
X12180Y163374D01*
X12201Y163403D01*
X12236Y163465D01*
X12279Y163522D01*
X12350Y163667D01*
X13237Y165809D01*
X16239Y168811D01*
X20160Y170435D01*
X24404Y170435D01*
X28325Y168811D01*
X29075Y168061D01*
X29184Y167976D01*
X29291Y167887D01*
X29310Y167879D01*
X29326Y167866D01*
X29454Y167811D01*
X29579Y167752D01*
X29599Y167748D01*
X29618Y167740D01*
X29756Y167718D01*
X29892Y167692D01*
X29912Y167693D01*
X29932Y167690D01*
X30071Y167703D01*
X30209Y167712D01*
X30228Y167718D01*
X30248Y167720D01*
X30380Y167767D01*
X30511Y167810D01*
X30529Y167821D01*
X30548Y167828D01*
X30663Y167906D01*
X30780Y167980D01*
X30794Y167995D01*
X30811Y168006D01*
X30903Y168110D01*
X30998Y168212D01*
X31008Y168229D01*
X31021Y168245D01*
X31084Y168368D01*
X31152Y168490D01*
X31157Y168510D01*
X31166Y168528D01*
X31196Y168664D01*
X31231Y168798D01*
X31233Y168826D01*
X31236Y168838D01*
X31235Y168859D01*
X31241Y168959D01*
X31241Y169573D01*
X31229Y169672D01*
X31226Y169771D01*
X31209Y169829D01*
X31201Y169889D01*
X31165Y169981D01*
X31137Y170076D01*
X31107Y170128D01*
X31084Y170185D01*
X31026Y170265D01*
X30976Y170350D01*
X30910Y170425D01*
X30898Y170442D01*
X30888Y170450D01*
X30870Y170471D01*
X29267Y172073D01*
X29194Y172130D01*
X29128Y172194D01*
X29069Y172227D01*
X29016Y172268D01*
X28931Y172305D01*
X28851Y172350D01*
X28740Y172388D01*
X28724Y172394D01*
X28716Y172396D01*
X28698Y172402D01*
X28454Y172467D01*
X28452Y172467D01*
X28449Y172468D01*
X28291Y172500D01*
X27635Y172586D01*
X27454Y172690D01*
X27375Y172724D01*
X27300Y172766D01*
X27171Y172809D01*
X27161Y172814D01*
X27156Y172814D01*
X27148Y172817D01*
X21039Y174454D01*
X20954Y174466D01*
X20871Y174487D01*
X20735Y174496D01*
X20724Y174497D01*
X20719Y174497D01*
X20710Y174497D01*
X20160Y174497D01*
X18922Y175010D01*
X18920Y175011D01*
X18918Y175012D01*
X18765Y175063D01*
X18447Y175148D01*
X18414Y175173D01*
X18340Y175217D01*
X18272Y175268D01*
X18149Y175328D01*
X18140Y175334D01*
X18136Y175335D01*
X18127Y175339D01*
X16239Y176121D01*
X13237Y179123D01*
X11613Y183044D01*
X11613Y187288D01*
X13237Y191209D01*
X16239Y194211D01*
X20160Y195835D01*
X24404Y195835D01*
X28325Y194211D01*
X31327Y191209D01*
X32109Y189320D01*
X32151Y189246D01*
X32185Y189167D01*
X32261Y189053D01*
X32267Y189044D01*
X32270Y189041D01*
X32275Y189033D01*
X32300Y189001D01*
X32385Y188683D01*
X32386Y188681D01*
X32386Y188678D01*
X32438Y188526D01*
X32951Y187288D01*
X32951Y186738D01*
X32961Y186653D01*
X32962Y186567D01*
X32989Y186433D01*
X32991Y186422D01*
X32992Y186418D01*
X32994Y186409D01*
X34631Y180300D01*
X34663Y180221D01*
X34686Y180138D01*
X34747Y180016D01*
X34751Y180006D01*
X34754Y180002D01*
X34758Y179994D01*
X34862Y179813D01*
X34948Y179157D01*
X34949Y179154D01*
X34949Y179152D01*
X34981Y178994D01*
X35046Y178750D01*
X35081Y178664D01*
X35107Y178576D01*
X35141Y178518D01*
X35166Y178455D01*
X35221Y178381D01*
X35268Y178302D01*
X35346Y178214D01*
X35356Y178200D01*
X35363Y178195D01*
X35375Y178181D01*
X36977Y176578D01*
X39879Y173677D01*
X39879Y169981D01*
X39885Y169932D01*
X39883Y169882D01*
X39899Y169804D01*
X39901Y169766D01*
X39909Y169742D01*
X39919Y169666D01*
X39937Y169619D01*
X39947Y169571D01*
X39995Y169472D01*
X40036Y169370D01*
X40065Y169330D01*
X40087Y169285D01*
X40158Y169201D01*
X40222Y169113D01*
X40261Y169081D01*
X40293Y169043D01*
X40383Y168980D01*
X40467Y168910D01*
X40512Y168889D01*
X40553Y168860D01*
X40656Y168821D01*
X40755Y168774D01*
X40804Y168765D01*
X40850Y168747D01*
X40960Y168735D01*
X41067Y168714D01*
X41117Y168718D01*
X41166Y168712D01*
X41275Y168727D01*
X41385Y168734D01*
X41432Y168749D01*
X41481Y168756D01*
X41634Y168808D01*
X45560Y170435D01*
X49804Y170435D01*
X53725Y168811D01*
X56727Y165809D01*
X58351Y161888D01*
X58351Y157644D01*
X56727Y153723D01*
X53725Y150721D01*
X49804Y149097D01*
X45560Y149097D01*
X41634Y150724D01*
X41586Y150737D01*
X41541Y150758D01*
X41433Y150778D01*
X41327Y150807D01*
X41277Y150808D01*
X41228Y150818D01*
X41119Y150811D01*
X41009Y150813D01*
X40961Y150801D01*
X40911Y150798D01*
X40807Y150764D01*
X40700Y150738D01*
X40656Y150715D01*
X40609Y150700D01*
X40516Y150641D01*
X40419Y150590D01*
X40382Y150556D01*
X40340Y150530D01*
X40265Y150450D01*
X40183Y150376D01*
X40156Y150334D01*
X40122Y150298D01*
X40069Y150202D01*
X40009Y150110D01*
X39992Y150063D01*
X39968Y150020D01*
X39941Y149913D01*
X39905Y149809D01*
X39901Y149760D01*
X39889Y149712D01*
X39879Y149551D01*
X39879Y144581D01*
X39885Y144532D01*
X39883Y144482D01*
X39900Y144398D01*
X39901Y144381D01*
X39906Y144367D01*
X39919Y144266D01*
X39937Y144219D01*
X39947Y144171D01*
X39995Y144072D01*
X40036Y143970D01*
X40065Y143930D01*
X40087Y143885D01*
X40158Y143801D01*
X40222Y143713D01*
X40261Y143681D01*
X40293Y143643D01*
X40383Y143580D01*
X40467Y143510D01*
X40512Y143489D01*
X40553Y143460D01*
X40656Y143421D01*
X40755Y143374D01*
X40804Y143365D01*
X40850Y143347D01*
X40960Y143335D01*
X41067Y143314D01*
X41117Y143318D01*
X41166Y143312D01*
X41275Y143327D01*
X41385Y143334D01*
X41432Y143349D01*
X41481Y143356D01*
X41634Y143408D01*
X45560Y145035D01*
X49804Y145035D01*
X52659Y143852D01*
X52703Y143840D01*
X52745Y143820D01*
X52759Y143816D01*
X52835Y143779D01*
X53725Y143410D01*
X54382Y142754D01*
X54419Y142725D01*
X54450Y142691D01*
X54578Y142594D01*
X54630Y142559D01*
X59604Y139257D01*
X59609Y139254D01*
X59613Y139251D01*
X59659Y139228D01*
X60135Y138908D01*
X60176Y138887D01*
X60213Y138860D01*
X60358Y138789D01*
X60789Y138610D01*
X60813Y138592D01*
X60904Y138552D01*
X60990Y138504D01*
X61049Y138489D01*
X61105Y138465D01*
X61203Y138450D01*
X61298Y138425D01*
X61398Y138419D01*
X61419Y138415D01*
X61431Y138417D01*
X61459Y138415D01*
X71203Y138415D01*
X71301Y138427D01*
X71400Y138430D01*
X71459Y138447D01*
X71519Y138455D01*
X71611Y138491D01*
X71706Y138519D01*
X71758Y138549D01*
X71814Y138572D01*
X71894Y138630D01*
X71980Y138680D01*
X72055Y138746D01*
X72072Y138758D01*
X72080Y138768D01*
X72101Y138786D01*
X81940Y148625D01*
X82000Y148704D01*
X82068Y148776D01*
X82097Y148829D01*
X82134Y148877D01*
X82174Y148968D01*
X82222Y149054D01*
X82237Y149113D01*
X82261Y149168D01*
X82276Y149266D01*
X82301Y149362D01*
X82307Y149462D01*
X82311Y149483D01*
X82309Y149495D01*
X82311Y149523D01*
X82311Y174397D01*
X99923Y192009D01*
X250597Y192009D01*
X280705Y161900D01*
X280784Y161840D01*
X280856Y161772D01*
X280909Y161743D01*
X280957Y161706D01*
X281048Y161666D01*
X281134Y161618D01*
X281193Y161603D01*
X281248Y161579D01*
X281346Y161564D01*
X281442Y161539D01*
X281542Y161533D01*
X281563Y161529D01*
X281575Y161531D01*
X281603Y161529D01*
X378797Y161529D01*
X378895Y161541D01*
X378994Y161544D01*
X379053Y161561D01*
X379113Y161569D01*
X379205Y161605D01*
X379300Y161633D01*
X379352Y161663D01*
X379408Y161686D01*
X379488Y161744D01*
X379574Y161794D01*
X379649Y161860D01*
X379666Y161872D01*
X379674Y161882D01*
X379695Y161900D01*
X396884Y179089D01*
X396944Y179168D01*
X397012Y179240D01*
X397041Y179293D01*
X397078Y179341D01*
X397118Y179432D01*
X397166Y179518D01*
X397181Y179577D01*
X397205Y179632D01*
X397220Y179730D01*
X397245Y179826D01*
X397251Y179926D01*
X397255Y179947D01*
X397253Y179959D01*
X397255Y179987D01*
X397255Y377604D01*
X407044Y387392D01*
X407104Y387470D01*
X407172Y387542D01*
X407201Y387595D01*
X407238Y387643D01*
X407278Y387734D01*
X407326Y387821D01*
X407341Y387879D01*
X407365Y387935D01*
X407380Y388033D01*
X407405Y388129D01*
X407411Y388226D01*
X407413Y388234D01*
X407413Y388236D01*
X407415Y388249D01*
X407413Y388261D01*
X407415Y388289D01*
X407415Y585884D01*
X483244Y661712D01*
X483304Y661790D01*
X483372Y661862D01*
X483401Y661915D01*
X483438Y661963D01*
X483478Y662054D01*
X483526Y662141D01*
X483541Y662199D01*
X483565Y662255D01*
X483580Y662353D01*
X483605Y662449D01*
X483611Y662549D01*
X483615Y662569D01*
X483613Y662581D01*
X483615Y662609D01*
X483615Y733204D01*
X493404Y742992D01*
X493464Y743070D01*
X493532Y743142D01*
X493561Y743195D01*
X493598Y743243D01*
X493638Y743334D01*
X493686Y743421D01*
X493701Y743479D01*
X493725Y743535D01*
X493740Y743633D01*
X493765Y743729D01*
X493771Y743829D01*
X493775Y743849D01*
X493773Y743861D01*
X493775Y743889D01*
X493775Y786544D01*
X496528Y789296D01*
X509990Y802759D01*
X510075Y802868D01*
X510164Y802975D01*
X510173Y802994D01*
X510185Y803010D01*
X510241Y803138D01*
X510300Y803263D01*
X510303Y803283D01*
X510311Y803302D01*
X510333Y803439D01*
X510359Y803576D01*
X510358Y803596D01*
X510361Y803616D01*
X510348Y803755D01*
X510340Y803893D01*
X510333Y803912D01*
X510331Y803932D01*
X510284Y804064D01*
X510242Y804195D01*
X510231Y804213D01*
X510224Y804232D01*
X510146Y804347D01*
X510071Y804464D01*
X510057Y804478D01*
X510045Y804495D01*
X509941Y804587D01*
X509840Y804682D01*
X509822Y804692D01*
X509807Y804705D01*
X509683Y804768D01*
X509561Y804836D01*
X509542Y804841D01*
X509524Y804850D01*
X509388Y804880D01*
X509253Y804915D01*
X509225Y804917D01*
X509213Y804920D01*
X509193Y804919D01*
X509093Y804925D01*
X473887Y804925D01*
X473750Y804908D01*
X473611Y804895D01*
X473592Y804888D01*
X473572Y804885D01*
X473443Y804834D01*
X473312Y804787D01*
X473295Y804776D01*
X473276Y804768D01*
X473164Y804687D01*
X473049Y804609D01*
X473035Y804593D01*
X473019Y804582D01*
X472930Y804474D01*
X472838Y804370D01*
X472829Y804352D01*
X472816Y804337D01*
X472757Y804211D01*
X472694Y804087D01*
X472689Y804067D01*
X472680Y804049D01*
X472654Y803913D01*
X472624Y803777D01*
X472624Y803756D01*
X472621Y803737D01*
X472629Y803598D01*
X472634Y803459D01*
X472639Y803439D01*
X472640Y803419D01*
X472683Y803287D01*
X472722Y803153D01*
X472732Y803136D01*
X472738Y803117D01*
X472813Y802999D01*
X472883Y802879D01*
X472902Y802858D01*
X472909Y802848D01*
X472924Y802834D01*
X472990Y802759D01*
X475120Y800629D01*
X475622Y800126D01*
X475707Y800060D01*
X475787Y799987D01*
X475832Y799963D01*
X475874Y799931D01*
X475972Y799888D01*
X476067Y799838D01*
X476145Y799814D01*
X476165Y799805D01*
X476182Y799802D01*
X476221Y799790D01*
X478184Y799314D01*
X478254Y799307D01*
X478323Y799289D01*
X478483Y799279D01*
X478872Y799279D01*
X479543Y799001D01*
X479560Y798996D01*
X479576Y798988D01*
X479730Y798940D01*
X480779Y798686D01*
X480811Y798645D01*
X480897Y798538D01*
X480898Y798537D01*
X481038Y798431D01*
X481151Y798346D01*
X481152Y798346D01*
X481152Y798345D01*
X481297Y798274D01*
X481371Y798244D01*
X483284Y796331D01*
X484319Y793832D01*
X484319Y791128D01*
X483284Y788629D01*
X481371Y786716D01*
X478872Y785681D01*
X476168Y785681D01*
X473669Y786716D01*
X471756Y788629D01*
X471726Y788703D01*
X471725Y788704D01*
X471655Y788826D01*
X471568Y788979D01*
X471568Y788980D01*
X471567Y788980D01*
X471474Y789077D01*
X471347Y789208D01*
X471346Y789208D01*
X471346Y789209D01*
X471311Y789233D01*
X471060Y790271D01*
X471053Y790287D01*
X471051Y790305D01*
X470999Y790458D01*
X470721Y791128D01*
X470721Y791517D01*
X470712Y791586D01*
X470713Y791657D01*
X470686Y791815D01*
X470533Y792446D01*
X470392Y793026D01*
X470392Y793027D01*
X470210Y793779D01*
X470172Y793880D01*
X470142Y793983D01*
X470115Y794028D01*
X470097Y794076D01*
X470035Y794164D01*
X469980Y794257D01*
X469926Y794318D01*
X469914Y794336D01*
X469901Y794347D01*
X469874Y794378D01*
X469371Y794880D01*
X466048Y798204D01*
X465970Y798264D01*
X465898Y798332D01*
X465845Y798361D01*
X465797Y798398D01*
X465706Y798438D01*
X465619Y798486D01*
X465561Y798501D01*
X465505Y798525D01*
X465407Y798540D01*
X465311Y798565D01*
X465211Y798571D01*
X465191Y798575D01*
X465179Y798573D01*
X465151Y798575D01*
X424678Y798575D01*
X424655Y798581D01*
X424555Y798587D01*
X424535Y798591D01*
X424523Y798589D01*
X424495Y798591D01*
X403545Y798591D01*
X403447Y798579D01*
X403348Y798576D01*
X403346Y798575D01*
X235889Y798575D01*
X235791Y798563D01*
X235692Y798560D01*
X235634Y798543D01*
X235574Y798535D01*
X235482Y798499D01*
X235387Y798471D01*
X235335Y798441D01*
X235278Y798418D01*
X235198Y798360D01*
X235113Y798310D01*
X235037Y798244D01*
X235021Y798232D01*
X235013Y798222D01*
X234992Y798204D01*
X227956Y791168D01*
X227896Y791090D01*
X227828Y791018D01*
X227799Y790965D01*
X227762Y790917D01*
X227722Y790826D01*
X227674Y790739D01*
X227659Y790681D01*
X227635Y790625D01*
X227620Y790527D01*
X227595Y790431D01*
X227589Y790331D01*
X227585Y790311D01*
X227587Y790299D01*
X227585Y790271D01*
X227585Y745076D01*
X224950Y742442D01*
X224930Y742430D01*
X224855Y742364D01*
X224838Y742352D01*
X224830Y742342D01*
X224809Y742324D01*
X198198Y715713D01*
X198138Y715634D01*
X198070Y715562D01*
X198041Y715509D01*
X198004Y715461D01*
X197964Y715370D01*
X197916Y715284D01*
X197901Y715225D01*
X197877Y715170D01*
X197862Y715072D01*
X197837Y714976D01*
X197831Y714876D01*
X197827Y714855D01*
X197829Y714843D01*
X197827Y714815D01*
X197827Y500781D01*
X197839Y500683D01*
X197842Y500584D01*
X197859Y500525D01*
X197867Y500465D01*
X197903Y500373D01*
X197931Y500278D01*
X197961Y500226D01*
X197984Y500170D01*
X198042Y500090D01*
X198092Y500004D01*
X198158Y499929D01*
X198170Y499912D01*
X198180Y499904D01*
X198198Y499883D01*
X210953Y487129D01*
X211447Y486635D01*
X211534Y486567D01*
X211615Y486494D01*
X211659Y486470D01*
X211698Y486440D01*
X211799Y486396D01*
X211896Y486345D01*
X211970Y486322D01*
X211990Y486314D01*
X212007Y486311D01*
X212050Y486298D01*
X213638Y485919D01*
X214014Y485829D01*
X214082Y485822D01*
X214148Y485805D01*
X214309Y485795D01*
X214712Y485795D01*
X215369Y485523D01*
X215389Y485517D01*
X215407Y485508D01*
X215561Y485461D01*
X216589Y485215D01*
X216614Y485184D01*
X216710Y485064D01*
X216711Y485063D01*
X216712Y485062D01*
X216839Y484967D01*
X216964Y484873D01*
X216966Y484872D01*
X216967Y484871D01*
X216970Y484870D01*
X217109Y484802D01*
X217211Y484760D01*
X219124Y482847D01*
X220159Y480348D01*
X220159Y477644D01*
X219124Y475145D01*
X217211Y473232D01*
X214712Y472197D01*
X212008Y472197D01*
X209509Y473232D01*
X207596Y475145D01*
X207554Y475247D01*
X207481Y475375D01*
X207398Y475521D01*
X207397Y475522D01*
X207396Y475523D01*
X207286Y475637D01*
X207178Y475750D01*
X207176Y475751D01*
X207175Y475752D01*
X207172Y475754D01*
X207138Y475778D01*
X206895Y476796D01*
X206888Y476814D01*
X206885Y476835D01*
X206833Y476987D01*
X206561Y477644D01*
X206561Y478047D01*
X206553Y478115D01*
X206554Y478183D01*
X206527Y478342D01*
X206236Y479561D01*
X206236Y479562D01*
X206058Y480306D01*
X206020Y480409D01*
X205989Y480514D01*
X205964Y480557D01*
X205946Y480604D01*
X205883Y480694D01*
X205828Y480788D01*
X205776Y480846D01*
X205764Y480864D01*
X205751Y480875D01*
X205721Y480909D01*
X205227Y481403D01*
X194175Y492455D01*
X194066Y492540D01*
X193959Y492629D01*
X193940Y492637D01*
X193924Y492650D01*
X193796Y492705D01*
X193671Y492764D01*
X193651Y492768D01*
X193632Y492776D01*
X193494Y492798D01*
X193358Y492824D01*
X193338Y492823D01*
X193318Y492826D01*
X193179Y492813D01*
X193041Y492804D01*
X193022Y492798D01*
X193002Y492796D01*
X192870Y492749D01*
X192739Y492706D01*
X192721Y492695D01*
X192702Y492688D01*
X192587Y492610D01*
X192470Y492536D01*
X192456Y492521D01*
X192439Y492510D01*
X192347Y492406D01*
X192252Y492304D01*
X192242Y492287D01*
X192229Y492271D01*
X192165Y492147D01*
X192098Y492026D01*
X192093Y492006D01*
X192084Y491988D01*
X192054Y491852D01*
X192019Y491718D01*
X192017Y491690D01*
X192014Y491678D01*
X192015Y491657D01*
X192009Y491557D01*
X192009Y479723D01*
X192021Y479625D01*
X192024Y479526D01*
X192041Y479467D01*
X192049Y479407D01*
X192085Y479315D01*
X192113Y479220D01*
X192143Y479168D01*
X192166Y479112D01*
X192224Y479032D01*
X192274Y478946D01*
X192340Y478871D01*
X192352Y478854D01*
X192362Y478846D01*
X192380Y478825D01*
X200793Y470413D01*
X201287Y469919D01*
X201374Y469852D01*
X201411Y469817D01*
X201441Y469789D01*
X201444Y469788D01*
X201455Y469778D01*
X201499Y469754D01*
X201538Y469724D01*
X201639Y469680D01*
X201719Y469636D01*
X201726Y469634D01*
X201736Y469629D01*
X201810Y469606D01*
X201830Y469598D01*
X201847Y469595D01*
X201890Y469582D01*
X203477Y469203D01*
X203478Y469203D01*
X203854Y469113D01*
X203922Y469106D01*
X203988Y469089D01*
X204149Y469079D01*
X204552Y469079D01*
X205209Y468807D01*
X205229Y468801D01*
X205247Y468792D01*
X205401Y468745D01*
X206429Y468499D01*
X206448Y468477D01*
X206550Y468348D01*
X206551Y468347D01*
X206552Y468346D01*
X206677Y468253D01*
X206804Y468157D01*
X206806Y468156D01*
X206807Y468155D01*
X206810Y468154D01*
X206949Y468086D01*
X207051Y468044D01*
X208964Y466131D01*
X209999Y463632D01*
X209999Y460928D01*
X208964Y458429D01*
X207051Y456516D01*
X204552Y455481D01*
X201848Y455481D01*
X199349Y456516D01*
X197436Y458429D01*
X197394Y458531D01*
X197317Y458666D01*
X197238Y458805D01*
X197237Y458806D01*
X197236Y458808D01*
X197133Y458915D01*
X197018Y459034D01*
X197016Y459035D01*
X197015Y459036D01*
X197013Y459038D01*
X196978Y459062D01*
X196735Y460079D01*
X196728Y460098D01*
X196725Y460118D01*
X196673Y460271D01*
X196401Y460928D01*
X196401Y461331D01*
X196393Y461399D01*
X196394Y461467D01*
X196367Y461626D01*
X196076Y462845D01*
X196076Y462846D01*
X195898Y463590D01*
X195860Y463693D01*
X195829Y463798D01*
X195804Y463841D01*
X195786Y463888D01*
X195723Y463977D01*
X195668Y464072D01*
X195616Y464130D01*
X195604Y464148D01*
X195591Y464159D01*
X195561Y464193D01*
X183911Y475843D01*
X183911Y723037D01*
X214004Y753129D01*
X214064Y753208D01*
X214132Y753280D01*
X214161Y753333D01*
X214198Y753381D01*
X214238Y753472D01*
X214286Y753558D01*
X214301Y753617D01*
X214325Y753672D01*
X214340Y753770D01*
X214365Y753866D01*
X214371Y753966D01*
X214375Y753987D01*
X214373Y753999D01*
X214375Y754027D01*
X214375Y799244D01*
X228186Y813055D01*
X509763Y813055D01*
X509825Y813063D01*
X509887Y813061D01*
X509982Y813082D01*
X510079Y813095D01*
X510137Y813117D01*
X510197Y813131D01*
X510284Y813176D01*
X510375Y813212D01*
X510425Y813248D01*
X510480Y813276D01*
X510607Y813376D01*
X510763Y813514D01*
X510805Y813535D01*
X510809Y813538D01*
X510811Y813539D01*
X510817Y813544D01*
X510934Y813631D01*
X516039Y817983D01*
X516054Y817999D01*
X516113Y818051D01*
X517265Y819203D01*
X521142Y820809D01*
X525338Y820809D01*
X529215Y819203D01*
X532183Y816235D01*
X533789Y812358D01*
X533789Y808162D01*
X532183Y804285D01*
X529215Y801317D01*
X526538Y800208D01*
X526494Y800183D01*
X526446Y800166D01*
X526410Y800144D01*
X526259Y800093D01*
X525338Y799711D01*
X524467Y799711D01*
X524416Y799705D01*
X524365Y799707D01*
X524206Y799684D01*
X518710Y798531D01*
X518381Y798462D01*
X518233Y798411D01*
X518210Y798403D01*
X517755Y798317D01*
X517707Y798302D01*
X517657Y798295D01*
X517504Y798243D01*
X517099Y798075D01*
X517047Y798068D01*
X516955Y798032D01*
X516860Y798004D01*
X516807Y797974D01*
X516751Y797951D01*
X516671Y797893D01*
X516586Y797843D01*
X516510Y797776D01*
X516494Y797764D01*
X516486Y797755D01*
X516465Y797736D01*
X502276Y783548D01*
X502216Y783470D01*
X502148Y783398D01*
X502119Y783345D01*
X502082Y783297D01*
X502042Y783206D01*
X501994Y783119D01*
X501979Y783061D01*
X501955Y783005D01*
X501940Y782907D01*
X501915Y782811D01*
X501909Y782711D01*
X501905Y782691D01*
X501907Y782679D01*
X501905Y782651D01*
X501905Y746937D01*
X501922Y746800D01*
X501935Y746661D01*
X501942Y746642D01*
X501945Y746622D01*
X501996Y746493D01*
X502043Y746362D01*
X502054Y746345D01*
X502062Y746326D01*
X502143Y746214D01*
X502221Y746099D01*
X502237Y746085D01*
X502248Y746069D01*
X502356Y745980D01*
X502460Y745888D01*
X502478Y745879D01*
X502493Y745866D01*
X502619Y745807D01*
X502743Y745744D01*
X502763Y745739D01*
X502781Y745730D01*
X502917Y745704D01*
X503053Y745674D01*
X503074Y745674D01*
X503093Y745671D01*
X503232Y745679D01*
X503371Y745684D01*
X503391Y745689D01*
X503411Y745690D01*
X503543Y745733D01*
X503677Y745772D01*
X503694Y745782D01*
X503713Y745788D01*
X503831Y745863D01*
X503951Y745933D01*
X503972Y745952D01*
X503982Y745959D01*
X503996Y745974D01*
X504071Y746040D01*
X510716Y752685D01*
X510777Y752763D01*
X510845Y752835D01*
X510874Y752888D01*
X510911Y752936D01*
X510951Y753027D01*
X510998Y753114D01*
X511014Y753172D01*
X511038Y753228D01*
X511051Y753309D01*
X511223Y753724D01*
X511236Y753773D01*
X511258Y753819D01*
X511297Y753975D01*
X511378Y754404D01*
X511399Y754446D01*
X511400Y754451D01*
X511401Y754454D01*
X511403Y754461D01*
X511442Y754601D01*
X512664Y760426D01*
X512668Y760477D01*
X512681Y760526D01*
X512691Y760687D01*
X512691Y761558D01*
X513073Y762479D01*
X513083Y762515D01*
X513099Y762549D01*
X513117Y762613D01*
X513188Y762758D01*
X514297Y765435D01*
X517265Y768403D01*
X521142Y770009D01*
X525338Y770009D01*
X529215Y768403D01*
X532183Y765435D01*
X533789Y761558D01*
X533789Y757362D01*
X532183Y753485D01*
X529215Y750517D01*
X526538Y749408D01*
X526494Y749383D01*
X526446Y749366D01*
X526410Y749344D01*
X526259Y749293D01*
X525338Y748911D01*
X524467Y748911D01*
X524416Y748905D01*
X524365Y748907D01*
X524206Y748884D01*
X518381Y747662D01*
X518235Y747611D01*
X518210Y747603D01*
X517755Y747517D01*
X517707Y747502D01*
X517657Y747495D01*
X517504Y747443D01*
X517099Y747275D01*
X517047Y747268D01*
X516955Y747232D01*
X516860Y747204D01*
X516807Y747174D01*
X516751Y747151D01*
X516671Y747093D01*
X516586Y747043D01*
X516510Y746976D01*
X516494Y746964D01*
X516486Y746955D01*
X516465Y746936D01*
X497196Y727668D01*
X497136Y727590D01*
X497068Y727518D01*
X497039Y727465D01*
X497002Y727417D01*
X496962Y727326D01*
X496914Y727239D01*
X496899Y727181D01*
X496875Y727125D01*
X496860Y727027D01*
X496835Y726931D01*
X496829Y726831D01*
X496825Y726811D01*
X496827Y726799D01*
X496825Y726771D01*
X496825Y653636D01*
X420996Y577808D01*
X420936Y577730D01*
X420868Y577658D01*
X420839Y577605D01*
X420802Y577557D01*
X420762Y577466D01*
X420714Y577379D01*
X420699Y577321D01*
X420675Y577265D01*
X420660Y577167D01*
X420635Y577071D01*
X420629Y576971D01*
X420625Y576951D01*
X420627Y576939D01*
X420625Y576911D01*
X420625Y379316D01*
X410836Y369528D01*
X410776Y369450D01*
X410708Y369378D01*
X410679Y369325D01*
X410642Y369277D01*
X410602Y369186D01*
X410554Y369099D01*
X410539Y369041D01*
X410515Y368985D01*
X410500Y368887D01*
X410475Y368791D01*
X410469Y368691D01*
X410465Y368671D01*
X410467Y368659D01*
X410465Y368631D01*
X410465Y171036D01*
X407830Y168402D01*
X407810Y168390D01*
X407735Y168324D01*
X407718Y168312D01*
X407710Y168302D01*
X407689Y168284D01*
X387757Y148351D01*
X382488Y148351D01*
X382350Y148334D01*
X382211Y148321D01*
X382192Y148314D01*
X382172Y148311D01*
X382043Y148260D01*
X381912Y148213D01*
X381895Y148202D01*
X381877Y148194D01*
X381764Y148113D01*
X381649Y148035D01*
X381636Y148019D01*
X381619Y148008D01*
X381530Y147900D01*
X381439Y147796D01*
X381429Y147778D01*
X381416Y147763D01*
X381357Y147637D01*
X381294Y147513D01*
X381289Y147493D01*
X381281Y147475D01*
X381255Y147338D01*
X381224Y147203D01*
X381225Y147182D01*
X381221Y147163D01*
X381230Y147024D01*
X381234Y146885D01*
X381240Y146865D01*
X381241Y146845D01*
X381284Y146713D01*
X381322Y146579D01*
X381333Y146562D01*
X381339Y146543D01*
X381413Y146425D01*
X381484Y146305D01*
X381502Y146284D01*
X381509Y146274D01*
X381524Y146260D01*
X381590Y146184D01*
X381684Y146091D01*
X382719Y143592D01*
X382719Y140888D01*
X381684Y138389D01*
X379771Y136476D01*
X377272Y135441D01*
X374601Y135441D01*
X374496Y135428D01*
X374390Y135424D01*
X374307Y135404D01*
X374287Y135402D01*
X374149Y135475D01*
X374109Y135491D01*
X374072Y135513D01*
X373961Y135548D01*
X373852Y135589D01*
X373810Y135594D01*
X373768Y135607D01*
X373652Y135612D01*
X373536Y135626D01*
X373494Y135620D01*
X373451Y135622D01*
X373337Y135599D01*
X373221Y135583D01*
X373181Y135566D01*
X373139Y135558D01*
X373035Y135507D01*
X372927Y135463D01*
X372892Y135437D01*
X372854Y135418D01*
X372765Y135342D01*
X372672Y135273D01*
X372644Y135240D01*
X372612Y135212D01*
X372545Y135116D01*
X372471Y135026D01*
X372453Y134987D01*
X372429Y134952D01*
X372387Y134843D01*
X372339Y134737D01*
X372331Y134694D01*
X372316Y134654D01*
X372303Y134539D01*
X372282Y134424D01*
X372285Y134381D01*
X372281Y134338D01*
X372297Y134223D01*
X372305Y134107D01*
X372319Y134066D01*
X372325Y134023D01*
X372377Y133871D01*
X372559Y133432D01*
X372559Y130728D01*
X371524Y128229D01*
X369611Y126316D01*
X367112Y125281D01*
X364441Y125281D01*
X364336Y125268D01*
X364230Y125264D01*
X364147Y125244D01*
X364127Y125242D01*
X363785Y125425D01*
X363717Y125451D01*
X363654Y125486D01*
X363570Y125508D01*
X363488Y125539D01*
X363416Y125547D01*
X363346Y125565D01*
X363185Y125575D01*
X362800Y125575D01*
X362343Y126032D01*
X362336Y126038D01*
X362330Y126045D01*
X362210Y126135D01*
X362092Y126227D01*
X362083Y126231D01*
X362076Y126236D01*
X361931Y126307D01*
X361909Y126316D01*
X361796Y126429D01*
X361712Y126494D01*
X361635Y126566D01*
X361562Y126611D01*
X361545Y126624D01*
X361530Y126631D01*
X361498Y126651D01*
X359707Y127611D01*
X359639Y127637D01*
X359576Y127672D01*
X359491Y127693D01*
X359410Y127725D01*
X359338Y127733D01*
X359268Y127751D01*
X359107Y127761D01*
X358196Y127761D01*
X358195Y127761D01*
X337595Y127761D01*
X337496Y127749D01*
X337397Y127746D01*
X337339Y127729D01*
X337279Y127721D01*
X337187Y127685D01*
X337092Y127657D01*
X337040Y127627D01*
X336983Y127604D01*
X336903Y127546D01*
X336818Y127496D01*
X336743Y127430D01*
X336726Y127418D01*
X336718Y127408D01*
X336697Y127390D01*
X324730Y115423D01*
X324670Y115345D01*
X324602Y115272D01*
X324573Y115219D01*
X324536Y115172D01*
X324496Y115081D01*
X324448Y114994D01*
X324433Y114935D01*
X324409Y114880D01*
X324394Y114782D01*
X324369Y114686D01*
X324363Y114586D01*
X324359Y114566D01*
X324361Y114553D01*
X324359Y114525D01*
X324359Y64251D01*
X281189Y21081D01*
X104891Y21081D01*
X64623Y61350D01*
X64545Y61410D01*
X64472Y61478D01*
X64419Y61507D01*
X64372Y61544D01*
X64281Y61584D01*
X64194Y61632D01*
X64135Y61647D01*
X64080Y61671D01*
X63982Y61686D01*
X63886Y61711D01*
X63786Y61717D01*
X63766Y61721D01*
X63753Y61719D01*
X63725Y61721D01*
X18531Y61721D01*
X8743Y71510D01*
X7167Y73085D01*
X7058Y73170D01*
X6951Y73259D01*
X6932Y73267D01*
X6916Y73280D01*
X6788Y73335D01*
X6663Y73394D01*
X6643Y73398D01*
X6624Y73406D01*
X6486Y73428D01*
X6350Y73454D01*
X6330Y73453D01*
X6310Y73456D01*
X6171Y73443D01*
X6033Y73434D01*
X6014Y73428D01*
X5994Y73426D01*
X5862Y73379D01*
X5731Y73336D01*
X5713Y73326D01*
X5694Y73319D01*
X5579Y73241D01*
X5462Y73166D01*
X5448Y73151D01*
X5431Y73140D01*
X5339Y73036D01*
X5244Y72935D01*
X5234Y72917D01*
X5221Y72902D01*
X5157Y72778D01*
X5090Y72656D01*
X5085Y72636D01*
X5076Y72618D01*
X5046Y72483D01*
X5011Y72348D01*
X5009Y72320D01*
X5006Y72308D01*
X5007Y72288D01*
X5001Y72187D01*
X5001Y30000D01*
X5003Y29979D01*
X5003Y29917D01*
X5206Y26820D01*
X5215Y26776D01*
X5215Y26732D01*
X5247Y26574D01*
X6850Y20590D01*
X6883Y20511D01*
X6906Y20429D01*
X6967Y20306D01*
X6970Y20296D01*
X6973Y20293D01*
X6977Y20284D01*
X10074Y14919D01*
X10126Y14851D01*
X10170Y14777D01*
X10260Y14675D01*
X10267Y14666D01*
X10270Y14663D01*
X10276Y14657D01*
X14657Y10276D01*
X14724Y10224D01*
X14785Y10164D01*
X14899Y10088D01*
X14908Y10081D01*
X14912Y10080D01*
X14919Y10074D01*
X20284Y6977D01*
X20363Y6944D01*
X20438Y6902D01*
X20568Y6858D01*
X20577Y6854D01*
X20582Y6853D01*
X20590Y6850D01*
X26574Y5247D01*
X26618Y5241D01*
X26660Y5227D01*
X26820Y5206D01*
X29917Y5003D01*
X29938Y5005D01*
X30000Y5001D01*
X530000Y5001D01*
X530021Y5003D01*
G37*
G36*
X272104Y34811D02*
X272104Y34811D01*
X272203Y34814D01*
X272261Y34831D01*
X272321Y34839D01*
X272413Y34875D01*
X272508Y34903D01*
X272560Y34933D01*
X272617Y34956D01*
X272697Y35014D01*
X272782Y35064D01*
X272857Y35130D01*
X272874Y35142D01*
X272882Y35152D01*
X272903Y35170D01*
X310270Y72537D01*
X310330Y72615D01*
X310398Y72688D01*
X310427Y72741D01*
X310464Y72788D01*
X310504Y72879D01*
X310552Y72966D01*
X310567Y73025D01*
X310591Y73080D01*
X310606Y73178D01*
X310631Y73274D01*
X310637Y73374D01*
X310641Y73394D01*
X310639Y73407D01*
X310641Y73435D01*
X310641Y123709D01*
X313543Y126610D01*
X333117Y146185D01*
X333202Y146294D01*
X333291Y146401D01*
X333299Y146420D01*
X333312Y146436D01*
X333367Y146564D01*
X333426Y146689D01*
X333430Y146709D01*
X333438Y146728D01*
X333460Y146866D01*
X333486Y147002D01*
X333485Y147022D01*
X333488Y147042D01*
X333475Y147181D01*
X333466Y147319D01*
X333460Y147338D01*
X333458Y147358D01*
X333411Y147490D01*
X333368Y147621D01*
X333358Y147639D01*
X333351Y147658D01*
X333273Y147773D01*
X333198Y147890D01*
X333183Y147904D01*
X333172Y147921D01*
X333068Y148013D01*
X332967Y148108D01*
X332949Y148118D01*
X332934Y148131D01*
X332810Y148194D01*
X332688Y148262D01*
X332668Y148267D01*
X332650Y148276D01*
X332515Y148306D01*
X332380Y148341D01*
X332352Y148343D01*
X332340Y148346D01*
X332320Y148345D01*
X332219Y148351D01*
X272643Y148351D01*
X269900Y151094D01*
X269900Y151095D01*
X242535Y178460D01*
X242456Y178520D01*
X242384Y178588D01*
X242331Y178617D01*
X242283Y178654D01*
X242192Y178694D01*
X242106Y178742D01*
X242047Y178757D01*
X241992Y178781D01*
X241894Y178796D01*
X241798Y178821D01*
X241698Y178827D01*
X241677Y178831D01*
X241665Y178829D01*
X241637Y178831D01*
X108883Y178831D01*
X108785Y178819D01*
X108686Y178816D01*
X108627Y178799D01*
X108567Y178791D01*
X108475Y178755D01*
X108380Y178727D01*
X108328Y178697D01*
X108272Y178674D01*
X108192Y178616D01*
X108106Y178566D01*
X108031Y178500D01*
X108014Y178488D01*
X108006Y178478D01*
X107985Y178460D01*
X95860Y166335D01*
X95800Y166256D01*
X95732Y166184D01*
X95703Y166131D01*
X95666Y166083D01*
X95626Y165992D01*
X95578Y165906D01*
X95563Y165847D01*
X95539Y165792D01*
X95524Y165694D01*
X95499Y165598D01*
X95493Y165498D01*
X95489Y165477D01*
X95491Y165465D01*
X95489Y165437D01*
X95489Y140563D01*
X77877Y122951D01*
X67919Y122951D01*
X67821Y122939D01*
X67722Y122936D01*
X67663Y122919D01*
X67603Y122911D01*
X67511Y122875D01*
X67416Y122847D01*
X67364Y122817D01*
X67308Y122794D01*
X67228Y122736D01*
X67142Y122686D01*
X67067Y122620D01*
X67050Y122608D01*
X67042Y122598D01*
X67021Y122580D01*
X60143Y115701D01*
X60060Y115594D01*
X59973Y115490D01*
X59963Y115469D01*
X59948Y115450D01*
X59894Y115325D01*
X59836Y115203D01*
X59827Y115171D01*
X59822Y115158D01*
X59818Y115137D01*
X59795Y115048D01*
X59597Y114039D01*
X59570Y113938D01*
X58388Y108086D01*
X58376Y108024D01*
X58372Y107978D01*
X58361Y107933D01*
X58351Y107773D01*
X58351Y106844D01*
X57982Y105953D01*
X57971Y105912D01*
X57952Y105874D01*
X57947Y105855D01*
X57909Y105778D01*
X56707Y102874D01*
X56635Y102789D01*
X56627Y102770D01*
X56615Y102754D01*
X56559Y102627D01*
X56500Y102501D01*
X56496Y102481D01*
X56488Y102463D01*
X56466Y102325D01*
X56440Y102188D01*
X56441Y102168D01*
X56438Y102148D01*
X56451Y102010D01*
X56460Y101871D01*
X56466Y101852D01*
X56468Y101832D01*
X56515Y101701D01*
X56558Y101569D01*
X56569Y101552D01*
X56576Y101533D01*
X56654Y101417D01*
X56728Y101300D01*
X56743Y101286D01*
X56754Y101269D01*
X56858Y101177D01*
X56960Y101082D01*
X56977Y101072D01*
X56992Y101059D01*
X57116Y100996D01*
X57238Y100928D01*
X57258Y100923D01*
X57276Y100914D01*
X57411Y100884D01*
X57546Y100849D01*
X57574Y100847D01*
X57586Y100845D01*
X57606Y100845D01*
X57707Y100839D01*
X67829Y100839D01*
X70730Y97937D01*
X72537Y96130D01*
X75439Y93229D01*
X75439Y73435D01*
X75451Y73336D01*
X75454Y73237D01*
X75471Y73179D01*
X75479Y73119D01*
X75515Y73027D01*
X75543Y72932D01*
X75573Y72880D01*
X75596Y72823D01*
X75654Y72743D01*
X75704Y72658D01*
X75770Y72583D01*
X75782Y72566D01*
X75792Y72558D01*
X75810Y72537D01*
X113177Y35170D01*
X113255Y35110D01*
X113328Y35042D01*
X113381Y35013D01*
X113428Y34976D01*
X113519Y34936D01*
X113606Y34888D01*
X113665Y34873D01*
X113720Y34849D01*
X113818Y34834D01*
X113914Y34809D01*
X114014Y34803D01*
X114034Y34799D01*
X114047Y34801D01*
X114075Y34799D01*
X272005Y34799D01*
X272104Y34811D01*
G37*
%LPC*%
G36*
X45560Y199897D02*
X45560Y199897D01*
X41639Y201521D01*
X38637Y204523D01*
X37013Y208444D01*
X37013Y212688D01*
X38637Y216609D01*
X41639Y219611D01*
X45560Y221235D01*
X49804Y221235D01*
X52659Y220052D01*
X52704Y220040D01*
X52745Y220020D01*
X52760Y220016D01*
X52835Y219979D01*
X53725Y219611D01*
X54382Y218954D01*
X54419Y218925D01*
X54449Y218891D01*
X54578Y218794D01*
X54630Y218759D01*
X59604Y215457D01*
X59609Y215454D01*
X59613Y215451D01*
X59659Y215428D01*
X60135Y215108D01*
X60176Y215087D01*
X60213Y215060D01*
X60358Y214989D01*
X60789Y214810D01*
X60813Y214792D01*
X60904Y214752D01*
X60990Y214704D01*
X61049Y214689D01*
X61105Y214665D01*
X61203Y214650D01*
X61298Y214625D01*
X61398Y214619D01*
X61419Y214615D01*
X61431Y214617D01*
X61459Y214615D01*
X81363Y214615D01*
X81461Y214627D01*
X81560Y214630D01*
X81619Y214647D01*
X81679Y214655D01*
X81771Y214691D01*
X81866Y214719D01*
X81918Y214749D01*
X81974Y214772D01*
X82054Y214830D01*
X82140Y214880D01*
X82215Y214946D01*
X82232Y214958D01*
X82240Y214968D01*
X82261Y214986D01*
X102260Y234985D01*
X102320Y235064D01*
X102388Y235136D01*
X102417Y235189D01*
X102454Y235237D01*
X102494Y235328D01*
X102542Y235414D01*
X102557Y235473D01*
X102581Y235528D01*
X102596Y235626D01*
X102621Y235722D01*
X102627Y235822D01*
X102631Y235843D01*
X102629Y235855D01*
X102631Y235883D01*
X102631Y246241D01*
X102614Y246379D01*
X102601Y246518D01*
X102594Y246537D01*
X102591Y246557D01*
X102540Y246686D01*
X102493Y246817D01*
X102482Y246834D01*
X102474Y246852D01*
X102393Y246965D01*
X102315Y247080D01*
X102299Y247093D01*
X102288Y247110D01*
X102180Y247198D01*
X102076Y247291D01*
X102058Y247300D01*
X102043Y247313D01*
X101917Y247372D01*
X101793Y247435D01*
X101773Y247440D01*
X101755Y247448D01*
X101619Y247474D01*
X101483Y247505D01*
X101462Y247504D01*
X101443Y247508D01*
X101304Y247499D01*
X101165Y247495D01*
X101145Y247489D01*
X101125Y247488D01*
X100993Y247445D01*
X100859Y247407D01*
X100842Y247396D01*
X100823Y247390D01*
X100705Y247316D01*
X100585Y247245D01*
X100564Y247227D01*
X100554Y247220D01*
X100540Y247205D01*
X100465Y247139D01*
X85243Y231917D01*
X61459Y231917D01*
X61361Y231905D01*
X61261Y231902D01*
X61203Y231885D01*
X61143Y231877D01*
X61051Y231841D01*
X60956Y231813D01*
X60904Y231783D01*
X60848Y231760D01*
X60803Y231728D01*
X60358Y231543D01*
X60317Y231520D01*
X60274Y231505D01*
X60135Y231424D01*
X59695Y231128D01*
X59604Y231075D01*
X55754Y228520D01*
X55754Y228519D01*
X54630Y227773D01*
X54578Y227738D01*
X54543Y227708D01*
X54503Y227685D01*
X54382Y227578D01*
X53725Y226921D01*
X52835Y226553D01*
X52798Y226532D01*
X52758Y226518D01*
X52740Y226508D01*
X52659Y226480D01*
X49804Y225297D01*
X45560Y225297D01*
X41639Y226921D01*
X38637Y229923D01*
X37013Y233844D01*
X37013Y238088D01*
X38637Y242009D01*
X41639Y245011D01*
X45560Y246635D01*
X49804Y246635D01*
X52659Y245452D01*
X52703Y245440D01*
X52745Y245420D01*
X52759Y245416D01*
X52835Y245379D01*
X53725Y245010D01*
X54382Y244354D01*
X54419Y244325D01*
X54449Y244291D01*
X54578Y244194D01*
X59604Y240857D01*
X59609Y240854D01*
X59614Y240850D01*
X59660Y240828D01*
X60135Y240508D01*
X60176Y240487D01*
X60213Y240460D01*
X60358Y240389D01*
X60789Y240210D01*
X60812Y240192D01*
X60903Y240152D01*
X60990Y240104D01*
X61049Y240089D01*
X61104Y240065D01*
X61202Y240050D01*
X61298Y240025D01*
X61398Y240019D01*
X61418Y240015D01*
X61431Y240017D01*
X61459Y240015D01*
X81363Y240015D01*
X81461Y240027D01*
X81560Y240030D01*
X81619Y240047D01*
X81679Y240055D01*
X81771Y240091D01*
X81866Y240119D01*
X81918Y240149D01*
X81974Y240172D01*
X82054Y240230D01*
X82140Y240280D01*
X82215Y240346D01*
X82232Y240358D01*
X82240Y240368D01*
X82261Y240386D01*
X97180Y255305D01*
X97240Y255384D01*
X97308Y255456D01*
X97337Y255509D01*
X97374Y255557D01*
X97414Y255648D01*
X97462Y255734D01*
X97477Y255793D01*
X97501Y255848D01*
X97516Y255946D01*
X97541Y256042D01*
X97547Y256142D01*
X97551Y256163D01*
X97549Y256175D01*
X97551Y256203D01*
X97551Y266561D01*
X97534Y266699D01*
X97521Y266838D01*
X97514Y266857D01*
X97511Y266877D01*
X97460Y267006D01*
X97413Y267137D01*
X97402Y267154D01*
X97394Y267172D01*
X97313Y267285D01*
X97235Y267400D01*
X97219Y267413D01*
X97208Y267430D01*
X97100Y267518D01*
X96996Y267611D01*
X96978Y267620D01*
X96963Y267633D01*
X96837Y267692D01*
X96713Y267755D01*
X96693Y267760D01*
X96675Y267768D01*
X96539Y267794D01*
X96403Y267825D01*
X96382Y267824D01*
X96363Y267828D01*
X96224Y267819D01*
X96085Y267815D01*
X96065Y267809D01*
X96045Y267808D01*
X95913Y267765D01*
X95779Y267727D01*
X95762Y267716D01*
X95743Y267710D01*
X95625Y267636D01*
X95505Y267565D01*
X95484Y267547D01*
X95474Y267540D01*
X95460Y267525D01*
X95385Y267459D01*
X85243Y257317D01*
X61459Y257317D01*
X61361Y257305D01*
X61262Y257302D01*
X61204Y257285D01*
X61144Y257277D01*
X61051Y257241D01*
X60956Y257213D01*
X60904Y257183D01*
X60848Y257160D01*
X60803Y257128D01*
X60358Y256943D01*
X60317Y256920D01*
X60274Y256905D01*
X60135Y256824D01*
X59695Y256528D01*
X59604Y256475D01*
X55754Y253920D01*
X55754Y253919D01*
X54630Y253173D01*
X54578Y253138D01*
X54543Y253108D01*
X54503Y253085D01*
X54382Y252978D01*
X53725Y252322D01*
X52835Y251953D01*
X52798Y251932D01*
X52758Y251918D01*
X52740Y251908D01*
X52659Y251880D01*
X49804Y250697D01*
X45560Y250697D01*
X41639Y252321D01*
X38637Y255323D01*
X37013Y259244D01*
X37013Y263488D01*
X38637Y267409D01*
X41639Y270411D01*
X45560Y272035D01*
X49804Y272035D01*
X52659Y270852D01*
X52704Y270840D01*
X52745Y270820D01*
X52760Y270816D01*
X52835Y270779D01*
X53725Y270410D01*
X54382Y269754D01*
X54419Y269725D01*
X54450Y269691D01*
X54578Y269594D01*
X54630Y269559D01*
X59604Y266257D01*
X59609Y266254D01*
X59613Y266251D01*
X59659Y266228D01*
X60135Y265908D01*
X60176Y265887D01*
X60213Y265860D01*
X60358Y265789D01*
X60789Y265610D01*
X60813Y265592D01*
X60904Y265552D01*
X60990Y265504D01*
X61049Y265489D01*
X61105Y265465D01*
X61203Y265450D01*
X61298Y265425D01*
X61398Y265419D01*
X61419Y265415D01*
X61431Y265417D01*
X61459Y265415D01*
X81363Y265415D01*
X81461Y265427D01*
X81560Y265430D01*
X81619Y265447D01*
X81679Y265455D01*
X81771Y265491D01*
X81866Y265519D01*
X81918Y265549D01*
X81974Y265572D01*
X82054Y265630D01*
X82140Y265680D01*
X82215Y265746D01*
X82232Y265758D01*
X82240Y265768D01*
X82261Y265786D01*
X92100Y275625D01*
X92160Y275704D01*
X92228Y275776D01*
X92257Y275829D01*
X92294Y275877D01*
X92334Y275968D01*
X92382Y276054D01*
X92397Y276113D01*
X92421Y276168D01*
X92436Y276266D01*
X92461Y276362D01*
X92467Y276462D01*
X92471Y276483D01*
X92469Y276495D01*
X92471Y276523D01*
X92471Y382677D01*
X115163Y405369D01*
X226397Y405369D01*
X226495Y405381D01*
X226594Y405384D01*
X226653Y405401D01*
X226713Y405409D01*
X226805Y405445D01*
X226900Y405473D01*
X226952Y405503D01*
X227008Y405526D01*
X227088Y405584D01*
X227174Y405634D01*
X227249Y405700D01*
X227266Y405712D01*
X227274Y405722D01*
X227295Y405740D01*
X249580Y428025D01*
X249640Y428104D01*
X249708Y428176D01*
X249737Y428229D01*
X249774Y428277D01*
X249814Y428368D01*
X249862Y428454D01*
X249876Y428510D01*
X249889Y428537D01*
X249890Y428544D01*
X249901Y428568D01*
X249916Y428666D01*
X249941Y428762D01*
X249946Y428833D01*
X249949Y428850D01*
X249948Y428865D01*
X249951Y428883D01*
X249949Y428895D01*
X249951Y428923D01*
X249951Y464659D01*
X249934Y464796D01*
X249921Y464935D01*
X249914Y464954D01*
X249911Y464974D01*
X249860Y465103D01*
X249813Y465234D01*
X249802Y465251D01*
X249794Y465270D01*
X249713Y465382D01*
X249635Y465497D01*
X249619Y465511D01*
X249608Y465527D01*
X249500Y465616D01*
X249396Y465708D01*
X249378Y465717D01*
X249363Y465730D01*
X249237Y465789D01*
X249113Y465852D01*
X249093Y465857D01*
X249075Y465866D01*
X248939Y465892D01*
X248803Y465922D01*
X248782Y465922D01*
X248763Y465925D01*
X248624Y465917D01*
X248485Y465912D01*
X248465Y465907D01*
X248445Y465906D01*
X248313Y465863D01*
X248179Y465824D01*
X248162Y465814D01*
X248143Y465808D01*
X248025Y465733D01*
X247905Y465663D01*
X247884Y465644D01*
X247874Y465637D01*
X247860Y465623D01*
X247785Y465556D01*
X238234Y456005D01*
X238149Y455896D01*
X238060Y455789D01*
X238051Y455770D01*
X238039Y455754D01*
X237983Y455626D01*
X237924Y455501D01*
X237921Y455481D01*
X237913Y455462D01*
X237891Y455324D01*
X237865Y455188D01*
X237866Y455168D01*
X237863Y455148D01*
X237876Y455009D01*
X237884Y454871D01*
X237891Y454852D01*
X237893Y454832D01*
X237940Y454700D01*
X237982Y454569D01*
X237993Y454551D01*
X238000Y454532D01*
X238078Y454417D01*
X238153Y454300D01*
X238167Y454286D01*
X238179Y454269D01*
X238283Y454177D01*
X238384Y454082D01*
X238402Y454072D01*
X238417Y454059D01*
X238541Y453995D01*
X238663Y453928D01*
X238682Y453923D01*
X238700Y453914D01*
X238836Y453884D01*
X238971Y453849D01*
X238999Y453847D01*
X239011Y453844D01*
X239031Y453845D01*
X239131Y453839D01*
X240112Y453839D01*
X242611Y452804D01*
X244524Y450891D01*
X245559Y448392D01*
X245559Y445688D01*
X244524Y443189D01*
X242611Y441276D01*
X240112Y440241D01*
X237408Y440241D01*
X234909Y441276D01*
X232996Y443189D01*
X231961Y445688D01*
X231961Y448392D01*
X232996Y450891D01*
X233074Y450968D01*
X233159Y451078D01*
X233248Y451185D01*
X233256Y451204D01*
X233269Y451220D01*
X233324Y451347D01*
X233383Y451473D01*
X233387Y451493D01*
X233395Y451512D01*
X233417Y451649D01*
X233443Y451786D01*
X233442Y451806D01*
X233445Y451826D01*
X233432Y451964D01*
X233423Y452103D01*
X233417Y452122D01*
X233415Y452142D01*
X233368Y452273D01*
X233325Y452405D01*
X233314Y452423D01*
X233307Y452442D01*
X233229Y452557D01*
X233155Y452674D01*
X233140Y452688D01*
X233129Y452705D01*
X233025Y452797D01*
X232923Y452892D01*
X232906Y452902D01*
X232890Y452915D01*
X232767Y452978D01*
X232645Y453046D01*
X232625Y453051D01*
X232607Y453060D01*
X232471Y453090D01*
X232337Y453125D01*
X232309Y453127D01*
X232297Y453130D01*
X232276Y453129D01*
X232176Y453135D01*
X225729Y453135D01*
X225631Y453123D01*
X225532Y453120D01*
X225474Y453103D01*
X225414Y453095D01*
X225322Y453059D01*
X225227Y453031D01*
X225175Y453001D01*
X225118Y452978D01*
X225038Y452920D01*
X224953Y452870D01*
X224877Y452804D01*
X224861Y452792D01*
X224853Y452782D01*
X224832Y452764D01*
X209964Y437895D01*
X145636Y437895D01*
X140928Y442604D01*
X140850Y442664D01*
X140778Y442732D01*
X140725Y442761D01*
X140677Y442798D01*
X140586Y442838D01*
X140499Y442886D01*
X140441Y442901D01*
X140385Y442925D01*
X140287Y442940D01*
X140191Y442965D01*
X140091Y442971D01*
X140071Y442975D01*
X140059Y442973D01*
X140031Y442975D01*
X64356Y442975D01*
X61604Y445728D01*
X54856Y452476D01*
X54844Y452485D01*
X54834Y452497D01*
X54718Y452582D01*
X54605Y452671D01*
X54590Y452677D01*
X54578Y452686D01*
X54445Y452740D01*
X54313Y452797D01*
X54297Y452799D01*
X54283Y452805D01*
X54125Y452836D01*
X53503Y452919D01*
X53489Y452925D01*
X53488Y452925D01*
X53487Y452925D01*
X53329Y452959D01*
X47389Y453827D01*
X46998Y453884D01*
X46986Y453884D01*
X46975Y453887D01*
X46814Y453897D01*
X45560Y453897D01*
X41639Y455521D01*
X38637Y458523D01*
X37013Y462444D01*
X37013Y466688D01*
X38637Y470609D01*
X41639Y473611D01*
X45560Y475235D01*
X49804Y475235D01*
X53725Y473611D01*
X56727Y470609D01*
X57570Y468573D01*
X57612Y468499D01*
X57645Y468421D01*
X57722Y468306D01*
X57728Y468297D01*
X57729Y468296D01*
X57786Y468080D01*
X57787Y468077D01*
X57788Y468074D01*
X57840Y467921D01*
X58351Y466688D01*
X58351Y466133D01*
X58361Y466048D01*
X58362Y465963D01*
X58389Y465827D01*
X58391Y465817D01*
X58392Y465813D01*
X58394Y465805D01*
X59864Y460299D01*
X59865Y460298D01*
X59865Y460297D01*
X59910Y460186D01*
X60186Y459095D01*
X60188Y459090D01*
X60190Y459078D01*
X60263Y458807D01*
X60298Y458721D01*
X60323Y458632D01*
X60357Y458574D01*
X60383Y458512D01*
X60438Y458438D01*
X60485Y458358D01*
X60562Y458271D01*
X60572Y458257D01*
X60579Y458251D01*
X60591Y458237D01*
X67352Y451476D01*
X67430Y451416D01*
X67502Y451348D01*
X67555Y451319D01*
X67603Y451282D01*
X67694Y451242D01*
X67781Y451194D01*
X67839Y451179D01*
X67895Y451155D01*
X67993Y451140D01*
X68089Y451115D01*
X68189Y451109D01*
X68209Y451105D01*
X68221Y451107D01*
X68249Y451105D01*
X143924Y451105D01*
X148632Y446396D01*
X148710Y446336D01*
X148782Y446268D01*
X148835Y446239D01*
X148883Y446202D01*
X148974Y446162D01*
X149061Y446114D01*
X149119Y446099D01*
X149175Y446075D01*
X149273Y446060D01*
X149369Y446035D01*
X149469Y446029D01*
X149489Y446025D01*
X149501Y446027D01*
X149529Y446025D01*
X206071Y446025D01*
X206169Y446037D01*
X206268Y446040D01*
X206326Y446057D01*
X206386Y446065D01*
X206478Y446101D01*
X206573Y446129D01*
X206625Y446159D01*
X206682Y446182D01*
X206762Y446240D01*
X206847Y446290D01*
X206923Y446356D01*
X206939Y446368D01*
X206947Y446378D01*
X206968Y446396D01*
X221836Y461265D01*
X231471Y461265D01*
X231569Y461277D01*
X231668Y461280D01*
X231726Y461297D01*
X231786Y461305D01*
X231878Y461341D01*
X231973Y461369D01*
X232025Y461399D01*
X232082Y461422D01*
X232162Y461480D01*
X232247Y461530D01*
X232323Y461596D01*
X232339Y461608D01*
X232347Y461618D01*
X232368Y461636D01*
X244484Y473752D01*
X244544Y473830D01*
X244612Y473902D01*
X244641Y473955D01*
X244678Y474003D01*
X244718Y474094D01*
X244766Y474181D01*
X244781Y474239D01*
X244805Y474295D01*
X244820Y474393D01*
X244845Y474489D01*
X244851Y474589D01*
X244855Y474609D01*
X244853Y474621D01*
X244855Y474649D01*
X244855Y500733D01*
X244843Y500831D01*
X244840Y500930D01*
X244823Y500989D01*
X244815Y501049D01*
X244779Y501141D01*
X244751Y501236D01*
X244721Y501288D01*
X244698Y501344D01*
X244640Y501424D01*
X244590Y501510D01*
X244524Y501585D01*
X244512Y501602D01*
X244502Y501610D01*
X244484Y501631D01*
X227311Y518804D01*
X227232Y518864D01*
X227160Y518932D01*
X227159Y518933D01*
X224535Y521556D01*
X224535Y702724D01*
X227170Y705358D01*
X227190Y705370D01*
X227265Y705436D01*
X227282Y705448D01*
X227290Y705458D01*
X227311Y705476D01*
X242163Y720329D01*
X267566Y720329D01*
X267675Y720342D01*
X267784Y720348D01*
X267832Y720362D01*
X267881Y720369D01*
X267983Y720409D01*
X268088Y720441D01*
X268157Y720478D01*
X268177Y720486D01*
X268191Y720496D01*
X268231Y720517D01*
X268301Y720560D01*
X269951Y721575D01*
X270004Y721617D01*
X270063Y721652D01*
X270183Y721758D01*
X270469Y722044D01*
X271126Y722316D01*
X271143Y722326D01*
X271163Y722332D01*
X271305Y722407D01*
X271617Y722599D01*
X272206Y722961D01*
X272235Y722958D01*
X272398Y722940D01*
X272399Y722940D01*
X272401Y722940D01*
X272555Y722962D01*
X272713Y722984D01*
X272715Y722985D01*
X272716Y722985D01*
X272719Y722986D01*
X272865Y723036D01*
X272968Y723079D01*
X275672Y723079D01*
X278171Y722044D01*
X280084Y720131D01*
X281119Y717632D01*
X281119Y714928D01*
X280084Y712429D01*
X278171Y710516D01*
X275672Y709481D01*
X272968Y709481D01*
X272868Y709522D01*
X272868Y709523D01*
X272865Y709524D01*
X272717Y709564D01*
X272562Y709607D01*
X272560Y709607D01*
X272558Y709608D01*
X272398Y709610D01*
X272244Y709613D01*
X272242Y709613D01*
X272240Y709613D01*
X272238Y709612D01*
X272196Y709605D01*
X272047Y709697D01*
X272046Y709697D01*
X271305Y710153D01*
X271286Y710161D01*
X271270Y710173D01*
X271126Y710244D01*
X270469Y710516D01*
X270184Y710802D01*
X270130Y710843D01*
X270082Y710892D01*
X269951Y710985D01*
X268496Y711880D01*
X268231Y712043D01*
X268131Y712088D01*
X268034Y712142D01*
X267986Y712154D01*
X267941Y712174D01*
X267833Y712194D01*
X267726Y712221D01*
X267649Y712226D01*
X267628Y712230D01*
X267610Y712228D01*
X267566Y712231D01*
X266868Y712231D01*
X266867Y712231D01*
X246043Y712231D01*
X245945Y712219D01*
X245846Y712216D01*
X245787Y712199D01*
X245727Y712191D01*
X245635Y712155D01*
X245540Y712127D01*
X245488Y712097D01*
X245432Y712074D01*
X245352Y712016D01*
X245266Y711966D01*
X245191Y711900D01*
X245174Y711888D01*
X245166Y711878D01*
X245145Y711860D01*
X233036Y699751D01*
X232976Y699672D01*
X232908Y699600D01*
X232879Y699547D01*
X232842Y699499D01*
X232802Y699408D01*
X232754Y699322D01*
X232739Y699263D01*
X232715Y699208D01*
X232700Y699110D01*
X232675Y699014D01*
X232669Y698914D01*
X232665Y698893D01*
X232667Y698881D01*
X232665Y698853D01*
X232665Y525427D01*
X232677Y525329D01*
X232680Y525230D01*
X232697Y525171D01*
X232705Y525111D01*
X232741Y525019D01*
X232769Y524924D01*
X232799Y524872D01*
X232822Y524816D01*
X232880Y524736D01*
X232930Y524650D01*
X232996Y524575D01*
X233008Y524558D01*
X233018Y524550D01*
X233036Y524529D01*
X247785Y509781D01*
X247894Y509696D01*
X248001Y509607D01*
X248020Y509599D01*
X248036Y509586D01*
X248164Y509531D01*
X248289Y509472D01*
X248309Y509468D01*
X248328Y509460D01*
X248466Y509438D01*
X248602Y509412D01*
X248622Y509413D01*
X248642Y509410D01*
X248781Y509423D01*
X248919Y509432D01*
X248938Y509438D01*
X248958Y509440D01*
X249090Y509487D01*
X249221Y509530D01*
X249239Y509541D01*
X249258Y509548D01*
X249373Y509626D01*
X249490Y509700D01*
X249504Y509715D01*
X249521Y509726D01*
X249613Y509830D01*
X249708Y509932D01*
X249718Y509949D01*
X249731Y509965D01*
X249795Y510088D01*
X249862Y510210D01*
X249867Y510230D01*
X249876Y510248D01*
X249906Y510384D01*
X249941Y510518D01*
X249943Y510546D01*
X249946Y510558D01*
X249945Y510579D01*
X249951Y510679D01*
X249951Y599412D01*
X249934Y599550D01*
X249921Y599689D01*
X249914Y599708D01*
X249911Y599728D01*
X249860Y599857D01*
X249813Y599988D01*
X249802Y600005D01*
X249794Y600023D01*
X249713Y600136D01*
X249635Y600251D01*
X249619Y600264D01*
X249608Y600281D01*
X249500Y600370D01*
X249396Y600461D01*
X249378Y600471D01*
X249363Y600484D01*
X249237Y600543D01*
X249113Y600606D01*
X249093Y600610D01*
X249075Y600619D01*
X248938Y600645D01*
X248803Y600676D01*
X248782Y600675D01*
X248763Y600679D01*
X248624Y600670D01*
X248485Y600666D01*
X248465Y600660D01*
X248445Y600659D01*
X248313Y600616D01*
X248179Y600578D01*
X248162Y600567D01*
X248143Y600561D01*
X248025Y600487D01*
X247905Y600416D01*
X247884Y600398D01*
X247874Y600391D01*
X247860Y600376D01*
X247785Y600310D01*
X246231Y598756D01*
X243732Y597721D01*
X241028Y597721D01*
X238529Y598756D01*
X236616Y600669D01*
X235581Y603168D01*
X235581Y605872D01*
X236616Y608371D01*
X238529Y610284D01*
X241028Y611319D01*
X243732Y611319D01*
X246231Y610284D01*
X247785Y608730D01*
X247894Y608645D01*
X248001Y608556D01*
X248020Y608548D01*
X248036Y608535D01*
X248164Y608480D01*
X248289Y608421D01*
X248309Y608417D01*
X248328Y608409D01*
X248466Y608387D01*
X248602Y608361D01*
X248622Y608362D01*
X248642Y608359D01*
X248781Y608372D01*
X248919Y608381D01*
X248938Y608387D01*
X248958Y608389D01*
X249090Y608436D01*
X249221Y608479D01*
X249239Y608490D01*
X249258Y608497D01*
X249373Y608575D01*
X249490Y608649D01*
X249504Y608664D01*
X249521Y608675D01*
X249613Y608779D01*
X249708Y608881D01*
X249718Y608898D01*
X249731Y608914D01*
X249795Y609038D01*
X249862Y609159D01*
X249867Y609179D01*
X249876Y609197D01*
X249906Y609333D01*
X249941Y609467D01*
X249943Y609495D01*
X249946Y609507D01*
X249945Y609528D01*
X249951Y609628D01*
X249951Y668335D01*
X249939Y668433D01*
X249936Y668532D01*
X249935Y668534D01*
X249935Y672244D01*
X285124Y707432D01*
X285184Y707510D01*
X285252Y707582D01*
X285281Y707635D01*
X285318Y707683D01*
X285358Y707774D01*
X285406Y707861D01*
X285421Y707919D01*
X285445Y707975D01*
X285460Y708073D01*
X285485Y708169D01*
X285491Y708269D01*
X285495Y708289D01*
X285493Y708301D01*
X285495Y708329D01*
X285495Y728124D01*
X308196Y750825D01*
X387764Y750825D01*
X400305Y738284D01*
X400305Y723028D01*
X400318Y722922D01*
X400323Y722814D01*
X400338Y722765D01*
X400345Y722713D01*
X400384Y722613D01*
X400415Y722510D01*
X400454Y722438D01*
X400462Y722417D01*
X400471Y722404D01*
X400490Y722368D01*
X401542Y720643D01*
X401586Y720588D01*
X401622Y720527D01*
X401729Y720406D01*
X402004Y720131D01*
X402281Y719461D01*
X402290Y719445D01*
X402295Y719428D01*
X402370Y719286D01*
X402933Y718364D01*
X402926Y718303D01*
X402911Y718175D01*
X402912Y718175D01*
X402911Y718174D01*
X402936Y718001D01*
X402956Y717860D01*
X402956Y717859D01*
X403008Y717707D01*
X403039Y717632D01*
X403039Y714928D01*
X402004Y712429D01*
X400091Y710516D01*
X397592Y709481D01*
X394888Y709481D01*
X392389Y710516D01*
X390476Y712429D01*
X389441Y714928D01*
X389441Y717632D01*
X389472Y717706D01*
X389472Y717707D01*
X389472Y717708D01*
X389514Y717860D01*
X389556Y718013D01*
X389556Y718014D01*
X389558Y718164D01*
X389561Y718331D01*
X389561Y718332D01*
X389553Y718374D01*
X389656Y718541D01*
X389700Y718639D01*
X389752Y718734D01*
X389765Y718784D01*
X389786Y718831D01*
X389804Y718937D01*
X389831Y719042D01*
X389836Y719123D01*
X389840Y719145D01*
X389839Y719161D01*
X389841Y719202D01*
X389841Y719387D01*
X390221Y719767D01*
X390227Y719774D01*
X390234Y719780D01*
X390324Y719901D01*
X390416Y720018D01*
X390420Y720027D01*
X390425Y720035D01*
X390469Y720124D01*
X390751Y720406D01*
X390795Y720462D01*
X390845Y720511D01*
X390937Y720643D01*
X391586Y721706D01*
X391586Y721707D01*
X391990Y722367D01*
X392034Y722466D01*
X392086Y722560D01*
X392099Y722610D01*
X392120Y722658D01*
X392138Y722764D01*
X392165Y722868D01*
X392170Y722949D01*
X392174Y722971D01*
X392173Y722987D01*
X392175Y723028D01*
X392175Y723739D01*
X392175Y734391D01*
X392163Y734489D01*
X392160Y734588D01*
X392143Y734646D01*
X392135Y734706D01*
X392099Y734798D01*
X392071Y734893D01*
X392041Y734945D01*
X392018Y735002D01*
X391960Y735082D01*
X391910Y735167D01*
X391844Y735243D01*
X391832Y735259D01*
X391822Y735267D01*
X391804Y735288D01*
X384768Y742324D01*
X384690Y742384D01*
X384618Y742452D01*
X384565Y742481D01*
X384517Y742518D01*
X384426Y742558D01*
X384339Y742606D01*
X384281Y742621D01*
X384225Y742645D01*
X384127Y742660D01*
X384031Y742685D01*
X383931Y742691D01*
X383911Y742695D01*
X383899Y742693D01*
X383871Y742695D01*
X312089Y742695D01*
X311991Y742683D01*
X311892Y742680D01*
X311834Y742663D01*
X311774Y742655D01*
X311682Y742619D01*
X311587Y742591D01*
X311535Y742561D01*
X311478Y742538D01*
X311398Y742480D01*
X311313Y742430D01*
X311237Y742364D01*
X311221Y742352D01*
X311213Y742342D01*
X311192Y742324D01*
X293996Y725128D01*
X293936Y725050D01*
X293868Y724978D01*
X293839Y724925D01*
X293802Y724877D01*
X293762Y724786D01*
X293714Y724699D01*
X293699Y724641D01*
X293675Y724585D01*
X293660Y724487D01*
X293635Y724391D01*
X293629Y724291D01*
X293625Y724271D01*
X293627Y724259D01*
X293625Y724231D01*
X293625Y704436D01*
X290872Y701684D01*
X276140Y686951D01*
X276055Y686842D01*
X275966Y686735D01*
X275957Y686716D01*
X275945Y686700D01*
X275889Y686572D01*
X275830Y686447D01*
X275827Y686427D01*
X275819Y686408D01*
X275797Y686270D01*
X275771Y686134D01*
X275772Y686114D01*
X275769Y686094D01*
X275782Y685955D01*
X275790Y685817D01*
X275797Y685798D01*
X275799Y685778D01*
X275846Y685646D01*
X275888Y685515D01*
X275899Y685497D01*
X275906Y685478D01*
X275984Y685363D01*
X276059Y685246D01*
X276073Y685232D01*
X276085Y685215D01*
X276189Y685123D01*
X276290Y685028D01*
X276308Y685018D01*
X276323Y685005D01*
X276447Y684941D01*
X276569Y684874D01*
X276588Y684869D01*
X276606Y684860D01*
X276742Y684830D01*
X276877Y684795D01*
X276905Y684793D01*
X276917Y684790D01*
X276937Y684791D01*
X277037Y684785D01*
X343231Y684785D01*
X343329Y684797D01*
X343428Y684800D01*
X343486Y684817D01*
X343546Y684825D01*
X343638Y684861D01*
X343733Y684889D01*
X343785Y684919D01*
X343842Y684942D01*
X343922Y685000D01*
X344007Y685050D01*
X344083Y685116D01*
X344099Y685128D01*
X344107Y685138D01*
X344128Y685156D01*
X361324Y702352D01*
X361384Y702430D01*
X361452Y702502D01*
X361481Y702555D01*
X361518Y702603D01*
X361558Y702694D01*
X361606Y702781D01*
X361621Y702839D01*
X361645Y702895D01*
X361660Y702993D01*
X361685Y703089D01*
X361691Y703189D01*
X361695Y703209D01*
X361693Y703221D01*
X361695Y703249D01*
X361695Y708821D01*
X361695Y709532D01*
X361682Y709638D01*
X361677Y709746D01*
X361662Y709795D01*
X361655Y709847D01*
X361616Y709947D01*
X361584Y710050D01*
X361546Y710123D01*
X361538Y710143D01*
X361529Y710156D01*
X361510Y710193D01*
X361152Y710779D01*
X361106Y710853D01*
X360461Y711911D01*
X360461Y711912D01*
X360459Y711914D01*
X360455Y711921D01*
X360413Y711974D01*
X360378Y712033D01*
X360271Y712154D01*
X359983Y712442D01*
X359932Y712528D01*
X359859Y712657D01*
X359852Y712664D01*
X359847Y712672D01*
X359741Y712793D01*
X359361Y713173D01*
X359361Y713358D01*
X359348Y713465D01*
X359343Y713572D01*
X359328Y713622D01*
X359321Y713673D01*
X359282Y713773D01*
X359250Y713876D01*
X359212Y713949D01*
X359204Y713969D01*
X359195Y713982D01*
X359175Y714019D01*
X359067Y714196D01*
X359072Y714240D01*
X359088Y714385D01*
X359088Y714386D01*
X359066Y714545D01*
X359044Y714700D01*
X359044Y714701D01*
X358992Y714853D01*
X358961Y714928D01*
X358961Y717632D01*
X359996Y720131D01*
X361909Y722044D01*
X364408Y723079D01*
X367112Y723079D01*
X369611Y722044D01*
X371524Y720131D01*
X372559Y717632D01*
X372559Y714928D01*
X372528Y714853D01*
X372527Y714852D01*
X372485Y714695D01*
X372444Y714547D01*
X372444Y714546D01*
X372444Y714545D01*
X372441Y714379D01*
X372439Y714229D01*
X372439Y714228D01*
X372439Y714227D01*
X372446Y714186D01*
X371890Y713274D01*
X371883Y713258D01*
X371872Y713244D01*
X371801Y713099D01*
X371524Y712429D01*
X371249Y712154D01*
X371205Y712098D01*
X371155Y712049D01*
X371063Y711917D01*
X370010Y710192D01*
X369966Y710094D01*
X369914Y710000D01*
X369901Y709950D01*
X369880Y709902D01*
X369862Y709796D01*
X369835Y709692D01*
X369830Y709610D01*
X369826Y709589D01*
X369827Y709573D01*
X369825Y709531D01*
X369825Y699356D01*
X352324Y681855D01*
X352239Y681746D01*
X352150Y681639D01*
X352141Y681620D01*
X352129Y681604D01*
X352073Y681476D01*
X352014Y681351D01*
X352011Y681331D01*
X352003Y681312D01*
X351981Y681174D01*
X351955Y681038D01*
X351956Y681018D01*
X351953Y680998D01*
X351966Y680859D01*
X351974Y680721D01*
X351981Y680702D01*
X351983Y680682D01*
X352030Y680550D01*
X352072Y680419D01*
X352083Y680401D01*
X352090Y680382D01*
X352168Y680267D01*
X352243Y680150D01*
X352257Y680136D01*
X352269Y680119D01*
X352373Y680027D01*
X352474Y679932D01*
X352492Y679922D01*
X352507Y679909D01*
X352631Y679845D01*
X352753Y679778D01*
X352772Y679773D01*
X352790Y679764D01*
X352926Y679734D01*
X353061Y679699D01*
X353089Y679697D01*
X353101Y679694D01*
X353121Y679695D01*
X353221Y679689D01*
X363557Y679689D01*
X363655Y679701D01*
X363754Y679704D01*
X363813Y679721D01*
X363873Y679729D01*
X363965Y679765D01*
X364060Y679793D01*
X364112Y679823D01*
X364168Y679846D01*
X364249Y679904D01*
X364334Y679954D01*
X364409Y680020D01*
X364426Y680032D01*
X364434Y680042D01*
X364455Y680060D01*
X376580Y692185D01*
X376640Y692264D01*
X376708Y692336D01*
X376737Y692389D01*
X376774Y692437D01*
X376814Y692528D01*
X376862Y692614D01*
X376877Y692673D01*
X376901Y692728D01*
X376916Y692826D01*
X376941Y692922D01*
X376947Y693022D01*
X376951Y693043D01*
X376949Y693055D01*
X376951Y693083D01*
X376951Y719157D01*
X376939Y719255D01*
X376936Y719354D01*
X376919Y719413D01*
X376911Y719473D01*
X376875Y719565D01*
X376847Y719660D01*
X376817Y719712D01*
X376794Y719768D01*
X376736Y719848D01*
X376686Y719934D01*
X376620Y720009D01*
X376608Y720026D01*
X376598Y720034D01*
X376580Y720055D01*
X369535Y727100D01*
X369456Y727160D01*
X369384Y727228D01*
X369331Y727257D01*
X369283Y727294D01*
X369192Y727334D01*
X369106Y727382D01*
X369047Y727397D01*
X368992Y727421D01*
X368894Y727436D01*
X368798Y727461D01*
X368698Y727467D01*
X368678Y727471D01*
X368665Y727469D01*
X368637Y727471D01*
X322243Y727471D01*
X322145Y727459D01*
X322046Y727456D01*
X321987Y727439D01*
X321927Y727431D01*
X321835Y727395D01*
X321740Y727367D01*
X321688Y727337D01*
X321632Y727314D01*
X321552Y727256D01*
X321466Y727206D01*
X321391Y727140D01*
X321374Y727128D01*
X321366Y727118D01*
X321345Y727100D01*
X312439Y718193D01*
X312372Y718106D01*
X312298Y718025D01*
X312274Y717981D01*
X312244Y717942D01*
X312200Y717841D01*
X312149Y717744D01*
X312126Y717670D01*
X312118Y717650D01*
X312115Y717633D01*
X312102Y717590D01*
X311924Y716846D01*
X311924Y716845D01*
X311633Y715626D01*
X311626Y715558D01*
X311609Y715492D01*
X311599Y715331D01*
X311599Y714928D01*
X311327Y714271D01*
X311321Y714251D01*
X311312Y714233D01*
X311265Y714079D01*
X311019Y713051D01*
X310990Y713027D01*
X310868Y712930D01*
X310867Y712929D01*
X310866Y712928D01*
X310770Y712799D01*
X310677Y712676D01*
X310676Y712674D01*
X310675Y712673D01*
X310674Y712670D01*
X310606Y712531D01*
X310564Y712429D01*
X308651Y710516D01*
X306152Y709481D01*
X303448Y709481D01*
X300949Y710516D01*
X299036Y712429D01*
X298001Y714928D01*
X298001Y717632D01*
X299036Y720131D01*
X300949Y722044D01*
X301051Y722086D01*
X301186Y722163D01*
X301325Y722242D01*
X301326Y722243D01*
X301328Y722244D01*
X301438Y722350D01*
X301554Y722462D01*
X301555Y722464D01*
X301556Y722465D01*
X301558Y722468D01*
X301582Y722502D01*
X302599Y722745D01*
X302618Y722752D01*
X302638Y722755D01*
X302791Y722807D01*
X303448Y723079D01*
X303851Y723079D01*
X303919Y723087D01*
X303987Y723086D01*
X304146Y723113D01*
X305365Y723404D01*
X305366Y723404D01*
X306110Y723582D01*
X306213Y723620D01*
X306318Y723651D01*
X306361Y723676D01*
X306408Y723694D01*
X306498Y723757D01*
X306592Y723812D01*
X306650Y723864D01*
X306668Y723876D01*
X306679Y723889D01*
X306713Y723919D01*
X315620Y732825D01*
X318363Y735569D01*
X372517Y735569D01*
X375260Y732826D01*
X375260Y732825D01*
X382305Y725780D01*
X385049Y723037D01*
X385049Y689203D01*
X370180Y674335D01*
X367437Y671591D01*
X281603Y671591D01*
X281505Y671579D01*
X281406Y671576D01*
X281347Y671559D01*
X281287Y671551D01*
X281195Y671515D01*
X281100Y671487D01*
X281048Y671457D01*
X280992Y671434D01*
X280912Y671376D01*
X280826Y671326D01*
X280751Y671260D01*
X280734Y671248D01*
X280726Y671238D01*
X280705Y671220D01*
X268580Y659095D01*
X268520Y659016D01*
X268452Y658944D01*
X268423Y658891D01*
X268386Y658843D01*
X268346Y658752D01*
X268298Y658666D01*
X268283Y658607D01*
X268259Y658552D01*
X268244Y658454D01*
X268219Y658358D01*
X268213Y658258D01*
X268209Y658238D01*
X268211Y658225D01*
X268209Y658197D01*
X268209Y414883D01*
X240437Y387111D01*
X129203Y387111D01*
X129105Y387099D01*
X129006Y387096D01*
X128947Y387079D01*
X128887Y387071D01*
X128795Y387035D01*
X128700Y387007D01*
X128648Y386977D01*
X128592Y386954D01*
X128512Y386896D01*
X128426Y386846D01*
X128351Y386780D01*
X128334Y386768D01*
X128326Y386758D01*
X128305Y386740D01*
X111100Y369535D01*
X111040Y369456D01*
X110972Y369384D01*
X110943Y369331D01*
X110906Y369283D01*
X110866Y369192D01*
X110818Y369106D01*
X110803Y369047D01*
X110779Y368992D01*
X110764Y368894D01*
X110739Y368798D01*
X110733Y368698D01*
X110729Y368677D01*
X110731Y368665D01*
X110729Y368637D01*
X110729Y232003D01*
X85243Y206517D01*
X61459Y206517D01*
X61361Y206505D01*
X61262Y206502D01*
X61204Y206485D01*
X61144Y206477D01*
X61051Y206441D01*
X60956Y206413D01*
X60904Y206383D01*
X60848Y206360D01*
X60803Y206328D01*
X60358Y206143D01*
X60317Y206120D01*
X60274Y206105D01*
X60135Y206024D01*
X59695Y205728D01*
X59604Y205675D01*
X55754Y203120D01*
X55754Y203119D01*
X54630Y202373D01*
X54578Y202338D01*
X54543Y202308D01*
X54503Y202285D01*
X54382Y202178D01*
X53725Y201521D01*
X52835Y201153D01*
X52798Y201132D01*
X52758Y201118D01*
X52740Y201107D01*
X52659Y201080D01*
X49804Y199897D01*
X45560Y199897D01*
G37*
%LPD*%
%LPC*%
G36*
X20160Y530097D02*
X20160Y530097D01*
X16239Y531721D01*
X13237Y534723D01*
X11613Y538644D01*
X11613Y542888D01*
X13237Y546809D01*
X16239Y549811D01*
X19025Y550965D01*
X19067Y550988D01*
X19112Y551005D01*
X19136Y551019D01*
X19248Y551057D01*
X20160Y551435D01*
X21066Y551435D01*
X21114Y551441D01*
X21162Y551438D01*
X21322Y551461D01*
X27248Y552681D01*
X27249Y552681D01*
X27363Y552720D01*
X28372Y552914D01*
X28503Y552956D01*
X28636Y552995D01*
X28654Y553006D01*
X28674Y553012D01*
X28791Y553086D01*
X28909Y553156D01*
X28932Y553176D01*
X28943Y553183D01*
X28957Y553198D01*
X29030Y553263D01*
X30800Y555032D01*
X33552Y557785D01*
X38721Y557785D01*
X38760Y557790D01*
X38800Y557787D01*
X38918Y557810D01*
X39037Y557825D01*
X39073Y557839D01*
X39113Y557847D01*
X39221Y557898D01*
X39332Y557942D01*
X39364Y557965D01*
X39400Y557982D01*
X39493Y558058D01*
X39590Y558128D01*
X39615Y558159D01*
X39646Y558184D01*
X39716Y558281D01*
X39792Y558373D01*
X39809Y558409D01*
X39833Y558442D01*
X39877Y558553D01*
X39928Y558661D01*
X39935Y558700D01*
X39950Y558737D01*
X39965Y558856D01*
X39988Y558973D01*
X39985Y559013D01*
X39990Y559053D01*
X39975Y559172D01*
X39968Y559291D01*
X39956Y559329D01*
X39951Y559368D01*
X39907Y559480D01*
X39870Y559593D01*
X39849Y559627D01*
X39834Y559664D01*
X39748Y559800D01*
X38992Y560841D01*
X38266Y562266D01*
X37823Y563627D01*
X46412Y563627D01*
X46530Y563642D01*
X46649Y563649D01*
X46687Y563662D01*
X46727Y563667D01*
X46838Y563710D01*
X46951Y563747D01*
X46985Y563769D01*
X47023Y563784D01*
X47119Y563854D01*
X47220Y563917D01*
X47248Y563947D01*
X47280Y563970D01*
X47356Y564062D01*
X47438Y564149D01*
X47457Y564184D01*
X47483Y564215D01*
X47534Y564323D01*
X47591Y564427D01*
X47602Y564467D01*
X47619Y564503D01*
X47641Y564620D01*
X47671Y564735D01*
X47675Y564796D01*
X47679Y564816D01*
X47677Y564836D01*
X47681Y564896D01*
X47681Y567436D01*
X47666Y567554D01*
X47659Y567673D01*
X47646Y567711D01*
X47641Y567751D01*
X47597Y567862D01*
X47561Y567975D01*
X47539Y568010D01*
X47524Y568047D01*
X47454Y568143D01*
X47391Y568244D01*
X47361Y568272D01*
X47337Y568305D01*
X47246Y568380D01*
X47159Y568462D01*
X47124Y568482D01*
X47092Y568507D01*
X46985Y568558D01*
X46880Y568616D01*
X46841Y568626D01*
X46805Y568643D01*
X46688Y568665D01*
X46573Y568695D01*
X46512Y568699D01*
X46492Y568703D01*
X46472Y568701D01*
X46412Y568705D01*
X37823Y568705D01*
X38266Y570066D01*
X38992Y571491D01*
X39932Y572786D01*
X39952Y572821D01*
X39977Y572851D01*
X40028Y572960D01*
X40086Y573065D01*
X40095Y573103D01*
X40112Y573139D01*
X40135Y573256D01*
X40165Y573373D01*
X40165Y573413D01*
X40172Y573452D01*
X40165Y573571D01*
X40165Y573691D01*
X40155Y573729D01*
X40152Y573769D01*
X40116Y573883D01*
X40086Y573999D01*
X40067Y574034D01*
X40054Y574071D01*
X39990Y574173D01*
X39933Y574278D01*
X39906Y574307D01*
X39884Y574340D01*
X39797Y574422D01*
X39715Y574509D01*
X39682Y574531D01*
X39653Y574558D01*
X39548Y574616D01*
X39447Y574680D01*
X39409Y574692D01*
X39374Y574712D01*
X39258Y574741D01*
X39144Y574779D01*
X39105Y574781D01*
X39066Y574791D01*
X38906Y574801D01*
X37551Y574801D01*
X37452Y574789D01*
X37353Y574786D01*
X37295Y574769D01*
X37235Y574761D01*
X37143Y574725D01*
X37048Y574697D01*
X36996Y574667D01*
X36939Y574644D01*
X36859Y574586D01*
X36774Y574536D01*
X36699Y574470D01*
X36682Y574458D01*
X36674Y574448D01*
X36653Y574430D01*
X35375Y573151D01*
X35318Y573078D01*
X35254Y573012D01*
X35221Y572953D01*
X35180Y572900D01*
X35143Y572815D01*
X35098Y572735D01*
X35060Y572624D01*
X35054Y572608D01*
X35052Y572600D01*
X35046Y572582D01*
X34981Y572338D01*
X34981Y572336D01*
X34980Y572333D01*
X34948Y572175D01*
X34862Y571519D01*
X34758Y571338D01*
X34724Y571259D01*
X34682Y571184D01*
X34639Y571055D01*
X34634Y571045D01*
X34634Y571040D01*
X34631Y571032D01*
X32994Y564923D01*
X32982Y564838D01*
X32961Y564755D01*
X32952Y564619D01*
X32951Y564608D01*
X32951Y564603D01*
X32951Y564594D01*
X32951Y564044D01*
X32438Y562806D01*
X32437Y562804D01*
X32436Y562802D01*
X32385Y562649D01*
X32299Y562331D01*
X32275Y562299D01*
X32231Y562225D01*
X32180Y562156D01*
X32120Y562033D01*
X32114Y562024D01*
X32113Y562020D01*
X32109Y562012D01*
X31327Y560123D01*
X28325Y557121D01*
X24404Y555497D01*
X20160Y555497D01*
X16239Y557121D01*
X13237Y560123D01*
X11613Y564044D01*
X11613Y568288D01*
X13237Y572209D01*
X16239Y575211D01*
X18128Y575993D01*
X18202Y576035D01*
X18281Y576069D01*
X18394Y576145D01*
X18404Y576150D01*
X18407Y576154D01*
X18415Y576159D01*
X18447Y576183D01*
X18765Y576269D01*
X18767Y576270D01*
X18770Y576270D01*
X18922Y576322D01*
X20160Y576835D01*
X20710Y576835D01*
X20795Y576845D01*
X20881Y576846D01*
X21015Y576873D01*
X21026Y576875D01*
X21030Y576876D01*
X21039Y576878D01*
X27148Y578515D01*
X27227Y578547D01*
X27309Y578570D01*
X27432Y578631D01*
X27442Y578635D01*
X27446Y578638D01*
X27454Y578642D01*
X27635Y578746D01*
X28291Y578832D01*
X28294Y578833D01*
X28296Y578833D01*
X28454Y578865D01*
X28698Y578930D01*
X28784Y578965D01*
X28872Y578991D01*
X28930Y579025D01*
X28993Y579050D01*
X29067Y579106D01*
X29146Y579152D01*
X29234Y579230D01*
X29248Y579240D01*
X29253Y579247D01*
X29267Y579259D01*
X30546Y580537D01*
X33447Y583439D01*
X78965Y583439D01*
X79064Y583451D01*
X79163Y583454D01*
X79221Y583471D01*
X79281Y583479D01*
X79373Y583515D01*
X79468Y583543D01*
X79520Y583573D01*
X79577Y583596D01*
X79657Y583654D01*
X79742Y583704D01*
X79817Y583770D01*
X79834Y583782D01*
X79842Y583792D01*
X79863Y583810D01*
X91830Y595777D01*
X91890Y595855D01*
X91958Y595928D01*
X91987Y595981D01*
X92024Y596028D01*
X92064Y596119D01*
X92112Y596206D01*
X92127Y596265D01*
X92151Y596320D01*
X92166Y596418D01*
X92191Y596514D01*
X92197Y596614D01*
X92201Y596634D01*
X92199Y596647D01*
X92201Y596675D01*
X92201Y724125D01*
X92189Y724224D01*
X92186Y724323D01*
X92169Y724381D01*
X92161Y724441D01*
X92125Y724533D01*
X92097Y724628D01*
X92067Y724680D01*
X92044Y724737D01*
X91986Y724817D01*
X91936Y724902D01*
X91870Y724977D01*
X91858Y724994D01*
X91848Y725002D01*
X91830Y725023D01*
X79863Y736990D01*
X79785Y737050D01*
X79712Y737118D01*
X79659Y737147D01*
X79612Y737184D01*
X79521Y737224D01*
X79434Y737272D01*
X79375Y737287D01*
X79320Y737311D01*
X79222Y737326D01*
X79126Y737351D01*
X79026Y737357D01*
X79006Y737361D01*
X78993Y737359D01*
X78965Y737361D01*
X32965Y737361D01*
X32964Y737361D01*
X32053Y737361D01*
X31981Y737352D01*
X31909Y737353D01*
X31824Y737332D01*
X31737Y737321D01*
X31670Y737295D01*
X31600Y737278D01*
X31453Y737211D01*
X30652Y736781D01*
X30651Y736781D01*
X29693Y736267D01*
X29662Y736251D01*
X29576Y736190D01*
X29485Y736136D01*
X29421Y736079D01*
X29403Y736067D01*
X29393Y736055D01*
X29364Y736029D01*
X29251Y735916D01*
X29229Y735907D01*
X29221Y735902D01*
X29212Y735900D01*
X29082Y735824D01*
X28953Y735750D01*
X28946Y735743D01*
X28938Y735738D01*
X28817Y735632D01*
X28360Y735175D01*
X27975Y735175D01*
X27903Y735166D01*
X27830Y735167D01*
X27746Y735146D01*
X27659Y735136D01*
X27592Y735109D01*
X27521Y735092D01*
X27375Y735025D01*
X27025Y734837D01*
X26982Y734845D01*
X26880Y734871D01*
X26794Y734876D01*
X26773Y734880D01*
X26757Y734879D01*
X26719Y734881D01*
X24048Y734881D01*
X21549Y735916D01*
X19636Y737829D01*
X18601Y740328D01*
X18601Y743032D01*
X19636Y745531D01*
X21549Y747444D01*
X24048Y748479D01*
X26719Y748479D01*
X26824Y748492D01*
X26930Y748496D01*
X27013Y748516D01*
X27033Y748518D01*
X27375Y748335D01*
X27443Y748309D01*
X27506Y748274D01*
X27590Y748252D01*
X27672Y748221D01*
X27744Y748213D01*
X27814Y748195D01*
X27975Y748185D01*
X28360Y748185D01*
X28817Y747728D01*
X28824Y747723D01*
X28830Y747715D01*
X28950Y747625D01*
X29068Y747533D01*
X29077Y747530D01*
X29084Y747524D01*
X29229Y747453D01*
X29251Y747444D01*
X29364Y747331D01*
X29448Y747266D01*
X29525Y747194D01*
X29598Y747149D01*
X29616Y747136D01*
X29630Y747129D01*
X29662Y747109D01*
X31453Y746149D01*
X31521Y746123D01*
X31584Y746088D01*
X31669Y746067D01*
X31750Y746035D01*
X31822Y746027D01*
X31892Y746009D01*
X32053Y745999D01*
X83069Y745999D01*
X85970Y743097D01*
X97937Y731130D01*
X98342Y730726D01*
X98436Y730652D01*
X98526Y730574D01*
X98561Y730555D01*
X98593Y730531D01*
X98702Y730483D01*
X98809Y730429D01*
X98848Y730420D01*
X98885Y730404D01*
X99003Y730386D01*
X99119Y730359D01*
X99159Y730361D01*
X99199Y730354D01*
X99318Y730366D01*
X99437Y730369D01*
X99476Y730380D01*
X99516Y730384D01*
X99628Y730424D01*
X99742Y730458D01*
X99777Y730478D01*
X99815Y730492D01*
X99914Y730559D01*
X100016Y730619D01*
X100061Y730659D01*
X100078Y730670D01*
X100092Y730686D01*
X100137Y730726D01*
X100288Y730876D01*
X112404Y742992D01*
X115156Y745745D01*
X180671Y745745D01*
X180769Y745757D01*
X180868Y745760D01*
X180926Y745777D01*
X180986Y745785D01*
X181078Y745821D01*
X181173Y745849D01*
X181225Y745879D01*
X181282Y745902D01*
X181362Y745960D01*
X181447Y746010D01*
X181523Y746076D01*
X181539Y746088D01*
X181547Y746098D01*
X181568Y746116D01*
X188604Y753152D01*
X188664Y753230D01*
X188732Y753302D01*
X188761Y753355D01*
X188798Y753403D01*
X188838Y753494D01*
X188886Y753581D01*
X188901Y753639D01*
X188925Y753695D01*
X188940Y753793D01*
X188965Y753889D01*
X188971Y753989D01*
X188975Y754009D01*
X188973Y754021D01*
X188975Y754049D01*
X188975Y795181D01*
X188975Y795892D01*
X188962Y795998D01*
X188957Y796106D01*
X188942Y796155D01*
X188935Y796207D01*
X188896Y796307D01*
X188864Y796410D01*
X188826Y796483D01*
X188818Y796503D01*
X188809Y796516D01*
X188790Y796553D01*
X188432Y797139D01*
X188386Y797213D01*
X187741Y798271D01*
X187740Y798273D01*
X187736Y798280D01*
X187693Y798334D01*
X187658Y798393D01*
X187551Y798514D01*
X187263Y798802D01*
X187213Y798887D01*
X187139Y799017D01*
X187132Y799024D01*
X187127Y799032D01*
X187021Y799153D01*
X186641Y799533D01*
X186641Y799718D01*
X186628Y799825D01*
X186623Y799932D01*
X186608Y799982D01*
X186601Y800033D01*
X186562Y800133D01*
X186530Y800236D01*
X186492Y800309D01*
X186484Y800329D01*
X186475Y800342D01*
X186455Y800379D01*
X186347Y800556D01*
X186352Y800596D01*
X186368Y800745D01*
X186368Y800746D01*
X186346Y800905D01*
X186324Y801060D01*
X186324Y801061D01*
X186272Y801214D01*
X186241Y801288D01*
X186241Y803992D01*
X187276Y806491D01*
X189189Y808404D01*
X191688Y809439D01*
X194392Y809439D01*
X196891Y808404D01*
X198804Y806491D01*
X199839Y803992D01*
X199839Y801288D01*
X199808Y801214D01*
X199808Y801213D01*
X199807Y801212D01*
X199763Y801048D01*
X199724Y800907D01*
X199724Y800906D01*
X199724Y800905D01*
X199721Y800745D01*
X199719Y800589D01*
X199719Y800588D01*
X199719Y800587D01*
X199726Y800546D01*
X199170Y799634D01*
X199163Y799618D01*
X199152Y799604D01*
X199081Y799459D01*
X198804Y798789D01*
X198529Y798514D01*
X198485Y798458D01*
X198435Y798409D01*
X198343Y798277D01*
X197290Y796552D01*
X197246Y796454D01*
X197194Y796360D01*
X197181Y796310D01*
X197160Y796262D01*
X197142Y796156D01*
X197115Y796052D01*
X197110Y795970D01*
X197106Y795949D01*
X197107Y795933D01*
X197105Y795891D01*
X197105Y750156D01*
X184564Y737615D01*
X119049Y737615D01*
X118951Y737603D01*
X118852Y737600D01*
X118794Y737583D01*
X118734Y737575D01*
X118642Y737539D01*
X118547Y737511D01*
X118495Y737481D01*
X118438Y737458D01*
X118358Y737400D01*
X118273Y737350D01*
X118197Y737284D01*
X118181Y737272D01*
X118173Y737262D01*
X118152Y737244D01*
X106036Y725128D01*
X105976Y725050D01*
X105908Y724978D01*
X105879Y724925D01*
X105842Y724877D01*
X105802Y724786D01*
X105754Y724699D01*
X105739Y724641D01*
X105715Y724585D01*
X105700Y724487D01*
X105675Y724391D01*
X105669Y724291D01*
X105665Y724271D01*
X105667Y724259D01*
X105665Y724231D01*
X105665Y577436D01*
X102912Y574684D01*
X77884Y549655D01*
X56945Y549655D01*
X56807Y549638D01*
X56668Y549625D01*
X56649Y549618D01*
X56629Y549615D01*
X56500Y549564D01*
X56369Y549517D01*
X56352Y549506D01*
X56334Y549498D01*
X56221Y549417D01*
X56106Y549339D01*
X56093Y549323D01*
X56076Y549312D01*
X55987Y549204D01*
X55896Y549100D01*
X55886Y549082D01*
X55873Y549067D01*
X55814Y548941D01*
X55751Y548817D01*
X55747Y548797D01*
X55738Y548779D01*
X55712Y548642D01*
X55681Y548507D01*
X55682Y548486D01*
X55678Y548467D01*
X55687Y548328D01*
X55691Y548189D01*
X55697Y548169D01*
X55698Y548149D01*
X55741Y548017D01*
X55779Y547883D01*
X55790Y547866D01*
X55796Y547847D01*
X55870Y547729D01*
X55941Y547609D01*
X55960Y547588D01*
X55966Y547578D01*
X55981Y547564D01*
X56047Y547489D01*
X56727Y546809D01*
X58351Y542888D01*
X58351Y538644D01*
X56727Y534723D01*
X53725Y531721D01*
X49804Y530097D01*
X45560Y530097D01*
X41639Y531721D01*
X38637Y534723D01*
X37013Y538644D01*
X37013Y542888D01*
X38637Y546809D01*
X39317Y547489D01*
X39402Y547598D01*
X39491Y547705D01*
X39499Y547724D01*
X39512Y547740D01*
X39567Y547868D01*
X39626Y547993D01*
X39630Y548013D01*
X39638Y548032D01*
X39660Y548170D01*
X39686Y548306D01*
X39685Y548326D01*
X39688Y548346D01*
X39675Y548485D01*
X39666Y548623D01*
X39660Y548642D01*
X39658Y548662D01*
X39611Y548793D01*
X39568Y548925D01*
X39557Y548943D01*
X39550Y548962D01*
X39472Y549076D01*
X39398Y549194D01*
X39383Y549208D01*
X39372Y549225D01*
X39268Y549317D01*
X39166Y549412D01*
X39149Y549422D01*
X39133Y549435D01*
X39010Y549498D01*
X38888Y549566D01*
X38868Y549571D01*
X38850Y549580D01*
X38714Y549610D01*
X38580Y549645D01*
X38552Y549647D01*
X38540Y549650D01*
X38519Y549649D01*
X38419Y549655D01*
X37445Y549655D01*
X37347Y549643D01*
X37248Y549640D01*
X37190Y549623D01*
X37130Y549615D01*
X37038Y549579D01*
X36943Y549551D01*
X36891Y549521D01*
X36834Y549498D01*
X36754Y549440D01*
X36669Y549390D01*
X36593Y549324D01*
X36577Y549312D01*
X36569Y549302D01*
X36548Y549284D01*
X34779Y547514D01*
X34694Y547405D01*
X34606Y547299D01*
X34597Y547280D01*
X34584Y547263D01*
X34529Y547136D01*
X34470Y547012D01*
X34463Y546983D01*
X34457Y546971D01*
X34454Y546950D01*
X34430Y546856D01*
X34247Y545903D01*
X34240Y545889D01*
X34240Y545888D01*
X34239Y545887D01*
X34197Y545732D01*
X32977Y539806D01*
X32973Y539757D01*
X32961Y539711D01*
X32951Y539550D01*
X32951Y538644D01*
X32573Y537732D01*
X32563Y537694D01*
X32545Y537658D01*
X32534Y537618D01*
X32481Y537509D01*
X31327Y534723D01*
X28325Y531721D01*
X24404Y530097D01*
X20160Y530097D01*
G37*
%LPD*%
%LPC*%
G36*
X45560Y479297D02*
X45560Y479297D01*
X41639Y480921D01*
X38637Y483923D01*
X37013Y487844D01*
X37013Y492088D01*
X38637Y496009D01*
X41639Y499011D01*
X45560Y500635D01*
X49804Y500635D01*
X53725Y499011D01*
X55079Y497657D01*
X55089Y497649D01*
X55111Y497626D01*
X55956Y496838D01*
X60733Y492383D01*
X60802Y492333D01*
X60866Y492275D01*
X60982Y492203D01*
X60991Y492197D01*
X60995Y492195D01*
X61003Y492190D01*
X61084Y492147D01*
X61150Y492122D01*
X61211Y492088D01*
X61298Y492066D01*
X61381Y492034D01*
X61451Y492027D01*
X61519Y492009D01*
X61680Y491999D01*
X99285Y491999D01*
X99384Y492011D01*
X99483Y492014D01*
X99541Y492031D01*
X99601Y492039D01*
X99693Y492075D01*
X99788Y492103D01*
X99840Y492133D01*
X99897Y492156D01*
X99977Y492214D01*
X100062Y492264D01*
X100137Y492330D01*
X100154Y492342D01*
X100162Y492352D01*
X100183Y492370D01*
X132470Y524657D01*
X132530Y524735D01*
X132598Y524808D01*
X132627Y524861D01*
X132664Y524908D01*
X132704Y524999D01*
X132752Y525086D01*
X132767Y525145D01*
X132791Y525200D01*
X132806Y525298D01*
X132831Y525394D01*
X132837Y525494D01*
X132841Y525514D01*
X132839Y525527D01*
X132841Y525555D01*
X132841Y718875D01*
X132841Y718876D01*
X132841Y719787D01*
X132832Y719859D01*
X132833Y719931D01*
X132812Y720016D01*
X132801Y720102D01*
X132775Y720170D01*
X132758Y720240D01*
X132691Y720387D01*
X131731Y722178D01*
X131669Y722264D01*
X131616Y722355D01*
X131559Y722419D01*
X131547Y722437D01*
X131535Y722447D01*
X131509Y722476D01*
X131396Y722589D01*
X131387Y722611D01*
X131382Y722619D01*
X131380Y722628D01*
X131367Y722649D01*
X131362Y722666D01*
X131298Y722766D01*
X131229Y722888D01*
X131223Y722894D01*
X131218Y722902D01*
X131198Y722925D01*
X131192Y722935D01*
X131178Y722948D01*
X131112Y723023D01*
X130655Y723480D01*
X130655Y723865D01*
X130646Y723937D01*
X130647Y724010D01*
X130626Y724094D01*
X130616Y724181D01*
X130589Y724248D01*
X130572Y724319D01*
X130505Y724465D01*
X130317Y724815D01*
X130325Y724858D01*
X130351Y724960D01*
X130356Y725046D01*
X130360Y725067D01*
X130359Y725083D01*
X130361Y725121D01*
X130361Y727792D01*
X131396Y730291D01*
X133309Y732204D01*
X135808Y733239D01*
X138512Y733239D01*
X141011Y732204D01*
X142924Y730291D01*
X143959Y727792D01*
X143959Y725121D01*
X143972Y725016D01*
X143976Y724910D01*
X143996Y724827D01*
X143998Y724807D01*
X143815Y724465D01*
X143789Y724397D01*
X143754Y724334D01*
X143732Y724250D01*
X143701Y724168D01*
X143693Y724096D01*
X143675Y724026D01*
X143665Y723865D01*
X143665Y723480D01*
X143208Y723023D01*
X143202Y723016D01*
X143195Y723010D01*
X143115Y722903D01*
X143036Y722808D01*
X143027Y722790D01*
X143013Y722772D01*
X143009Y722763D01*
X143004Y722756D01*
X142933Y722611D01*
X142924Y722589D01*
X142811Y722476D01*
X142746Y722392D01*
X142674Y722315D01*
X142629Y722242D01*
X142616Y722224D01*
X142609Y722210D01*
X142589Y722178D01*
X141629Y720387D01*
X141603Y720319D01*
X141568Y720256D01*
X141547Y720171D01*
X141515Y720090D01*
X141507Y720018D01*
X141489Y719948D01*
X141479Y719787D01*
X141479Y521451D01*
X103389Y483361D01*
X61748Y483361D01*
X61628Y483346D01*
X61507Y483338D01*
X61470Y483326D01*
X61432Y483321D01*
X61320Y483277D01*
X61205Y483239D01*
X61172Y483219D01*
X61136Y483204D01*
X61038Y483133D01*
X60936Y483068D01*
X60934Y483066D01*
X60720Y482969D01*
X60648Y482924D01*
X60570Y482887D01*
X60459Y482807D01*
X60450Y482802D01*
X60447Y482799D01*
X60439Y482793D01*
X60278Y482660D01*
X59645Y482467D01*
X59643Y482466D01*
X59640Y482465D01*
X59490Y482408D01*
X58887Y482133D01*
X58679Y482126D01*
X58594Y482112D01*
X58508Y482109D01*
X58376Y482077D01*
X58365Y482075D01*
X58361Y482074D01*
X58352Y482071D01*
X52105Y480162D01*
X51349Y479931D01*
X51331Y479923D01*
X51234Y479890D01*
X49804Y479297D01*
X45560Y479297D01*
G37*
%LPD*%
%LPC*%
G36*
X342863Y58165D02*
X342863Y58165D01*
X338102Y60137D01*
X334457Y63782D01*
X332485Y68543D01*
X332485Y73697D01*
X334457Y78458D01*
X338102Y82103D01*
X342863Y84075D01*
X348017Y84075D01*
X352778Y82103D01*
X356423Y78458D01*
X356967Y77143D01*
X357036Y77022D01*
X357101Y76899D01*
X357115Y76884D01*
X357125Y76867D01*
X357222Y76766D01*
X357315Y76664D01*
X357332Y76653D01*
X357346Y76638D01*
X357465Y76565D01*
X357581Y76489D01*
X357600Y76482D01*
X357617Y76472D01*
X357750Y76431D01*
X357882Y76386D01*
X357902Y76384D01*
X357921Y76378D01*
X358060Y76372D01*
X358199Y76361D01*
X358219Y76364D01*
X358239Y76363D01*
X358375Y76391D01*
X358512Y76415D01*
X358531Y76423D01*
X358550Y76427D01*
X358676Y76489D01*
X358802Y76546D01*
X358818Y76558D01*
X358836Y76567D01*
X358942Y76657D01*
X359050Y76744D01*
X359063Y76760D01*
X359078Y76773D01*
X359158Y76887D01*
X359242Y76998D01*
X359254Y77023D01*
X359261Y77034D01*
X359268Y77053D01*
X359313Y77143D01*
X359858Y78458D01*
X363502Y82103D01*
X368263Y84075D01*
X373417Y84075D01*
X378178Y82103D01*
X381822Y78458D01*
X382367Y77143D01*
X382436Y77022D01*
X382501Y76899D01*
X382515Y76884D01*
X382525Y76867D01*
X382622Y76767D01*
X382715Y76664D01*
X382732Y76653D01*
X382746Y76638D01*
X382864Y76566D01*
X382981Y76489D01*
X383000Y76482D01*
X383017Y76472D01*
X383150Y76431D01*
X383282Y76386D01*
X383302Y76384D01*
X383321Y76378D01*
X383460Y76372D01*
X383599Y76361D01*
X383619Y76364D01*
X383639Y76363D01*
X383775Y76391D01*
X383912Y76415D01*
X383931Y76423D01*
X383950Y76427D01*
X384075Y76489D01*
X384202Y76546D01*
X384218Y76558D01*
X384236Y76567D01*
X384341Y76657D01*
X384450Y76744D01*
X384463Y76760D01*
X384478Y76773D01*
X384558Y76887D01*
X384642Y76998D01*
X384654Y77023D01*
X384661Y77034D01*
X384668Y77053D01*
X384713Y77143D01*
X385257Y78458D01*
X388902Y82103D01*
X393663Y84075D01*
X398817Y84075D01*
X403578Y82103D01*
X407223Y78458D01*
X408046Y76469D01*
X408091Y76391D01*
X408126Y76309D01*
X408169Y76254D01*
X408204Y76193D01*
X408266Y76128D01*
X408321Y76058D01*
X408377Y76015D01*
X408425Y75964D01*
X408502Y75918D01*
X408572Y75863D01*
X408637Y75835D01*
X408696Y75798D01*
X408782Y75772D01*
X408864Y75736D01*
X408933Y75725D01*
X409000Y75704D01*
X409090Y75700D01*
X409178Y75686D01*
X409248Y75693D01*
X409318Y75689D01*
X409406Y75707D01*
X409495Y75716D01*
X409561Y75739D01*
X409629Y75754D01*
X409710Y75793D01*
X409794Y75823D01*
X409852Y75862D01*
X409915Y75893D01*
X409983Y75951D01*
X410057Y76002D01*
X410104Y76054D01*
X410157Y76100D01*
X410209Y76173D01*
X410268Y76240D01*
X410332Y76347D01*
X410340Y76360D01*
X410343Y76366D01*
X410350Y76378D01*
X410995Y77644D01*
X412146Y79228D01*
X413532Y80614D01*
X415116Y81765D01*
X416862Y82655D01*
X418725Y83260D01*
X419101Y83320D01*
X419101Y72390D01*
X419116Y72272D01*
X419123Y72153D01*
X419136Y72115D01*
X419141Y72075D01*
X419184Y71964D01*
X419221Y71851D01*
X419243Y71817D01*
X419258Y71779D01*
X419328Y71683D01*
X419391Y71582D01*
X419421Y71554D01*
X419444Y71522D01*
X419536Y71446D01*
X419623Y71364D01*
X419658Y71345D01*
X419689Y71319D01*
X419797Y71268D01*
X419901Y71211D01*
X419941Y71200D01*
X419977Y71183D01*
X420094Y71161D01*
X420209Y71131D01*
X420270Y71127D01*
X420290Y71123D01*
X420310Y71125D01*
X420370Y71121D01*
X422910Y71121D01*
X423028Y71136D01*
X423147Y71143D01*
X423185Y71156D01*
X423225Y71161D01*
X423336Y71205D01*
X423449Y71241D01*
X423484Y71263D01*
X423521Y71278D01*
X423617Y71348D01*
X423718Y71411D01*
X423746Y71441D01*
X423779Y71465D01*
X423854Y71556D01*
X423936Y71643D01*
X423956Y71678D01*
X423981Y71710D01*
X424032Y71817D01*
X424090Y71922D01*
X424100Y71961D01*
X424117Y71997D01*
X424139Y72114D01*
X424169Y72229D01*
X424173Y72290D01*
X424177Y72310D01*
X424175Y72330D01*
X424179Y72390D01*
X424179Y83320D01*
X424555Y83260D01*
X426418Y82655D01*
X428164Y81765D01*
X428668Y81399D01*
X429748Y80614D01*
X431134Y79228D01*
X432285Y77644D01*
X432930Y76378D01*
X432980Y76305D01*
X433022Y76225D01*
X433069Y76173D01*
X433109Y76115D01*
X433176Y76056D01*
X433236Y75990D01*
X433295Y75951D01*
X433347Y75905D01*
X433427Y75864D01*
X433502Y75815D01*
X433568Y75792D01*
X433631Y75761D01*
X433718Y75741D01*
X433803Y75712D01*
X433873Y75706D01*
X433941Y75691D01*
X434030Y75694D01*
X434120Y75687D01*
X434189Y75699D01*
X434259Y75701D01*
X434345Y75726D01*
X434433Y75741D01*
X434497Y75770D01*
X434564Y75789D01*
X434641Y75835D01*
X434723Y75872D01*
X434778Y75916D01*
X434838Y75951D01*
X434901Y76014D01*
X434971Y76070D01*
X435014Y76126D01*
X435063Y76176D01*
X435109Y76253D01*
X435163Y76324D01*
X435218Y76437D01*
X435225Y76449D01*
X435227Y76456D01*
X435234Y76469D01*
X436057Y78458D01*
X439702Y82103D01*
X444463Y84075D01*
X449617Y84075D01*
X454378Y82103D01*
X458023Y78458D01*
X459995Y73697D01*
X459995Y68543D01*
X458023Y63782D01*
X454378Y60137D01*
X449617Y58165D01*
X444463Y58165D01*
X439702Y60137D01*
X436057Y63782D01*
X435234Y65771D01*
X435189Y65849D01*
X435154Y65931D01*
X435111Y65986D01*
X435076Y66047D01*
X435014Y66112D01*
X434959Y66182D01*
X434903Y66225D01*
X434855Y66276D01*
X434778Y66322D01*
X434708Y66377D01*
X434643Y66405D01*
X434584Y66442D01*
X434498Y66468D01*
X434416Y66504D01*
X434347Y66515D01*
X434280Y66536D01*
X434190Y66540D01*
X434102Y66554D01*
X434032Y66547D01*
X433962Y66551D01*
X433874Y66533D01*
X433785Y66524D01*
X433719Y66501D01*
X433651Y66486D01*
X433570Y66447D01*
X433486Y66417D01*
X433428Y66378D01*
X433365Y66347D01*
X433297Y66289D01*
X433223Y66238D01*
X433176Y66186D01*
X433123Y66140D01*
X433071Y66067D01*
X433012Y66000D01*
X432948Y65893D01*
X432940Y65880D01*
X432937Y65874D01*
X432930Y65862D01*
X432285Y64596D01*
X431134Y63012D01*
X429748Y61626D01*
X428164Y60475D01*
X426418Y59585D01*
X424555Y58980D01*
X424179Y58920D01*
X424179Y69850D01*
X424164Y69968D01*
X424157Y70087D01*
X424144Y70125D01*
X424139Y70165D01*
X424096Y70276D01*
X424059Y70389D01*
X424037Y70423D01*
X424022Y70461D01*
X423952Y70557D01*
X423889Y70658D01*
X423859Y70686D01*
X423835Y70718D01*
X423744Y70794D01*
X423657Y70876D01*
X423622Y70895D01*
X423591Y70921D01*
X423483Y70972D01*
X423379Y71029D01*
X423339Y71040D01*
X423303Y71057D01*
X423186Y71079D01*
X423071Y71109D01*
X423010Y71113D01*
X422990Y71117D01*
X422970Y71115D01*
X422910Y71119D01*
X420370Y71119D01*
X420252Y71104D01*
X420133Y71097D01*
X420095Y71084D01*
X420054Y71079D01*
X419944Y71035D01*
X419831Y70999D01*
X419796Y70977D01*
X419759Y70962D01*
X419663Y70892D01*
X419562Y70829D01*
X419534Y70799D01*
X419501Y70775D01*
X419426Y70684D01*
X419344Y70597D01*
X419324Y70562D01*
X419299Y70530D01*
X419248Y70423D01*
X419190Y70318D01*
X419180Y70279D01*
X419163Y70243D01*
X419141Y70126D01*
X419111Y70011D01*
X419107Y69950D01*
X419103Y69930D01*
X419105Y69910D01*
X419101Y69850D01*
X419101Y58920D01*
X418725Y58980D01*
X416862Y59585D01*
X415116Y60475D01*
X413532Y61626D01*
X412146Y63012D01*
X410995Y64596D01*
X410350Y65862D01*
X410300Y65935D01*
X410258Y66015D01*
X410211Y66067D01*
X410171Y66125D01*
X410104Y66184D01*
X410044Y66250D01*
X409985Y66289D01*
X409933Y66335D01*
X409853Y66376D01*
X409778Y66425D01*
X409712Y66448D01*
X409649Y66479D01*
X409562Y66499D01*
X409477Y66528D01*
X409407Y66534D01*
X409339Y66549D01*
X409250Y66546D01*
X409160Y66553D01*
X409091Y66541D01*
X409021Y66539D01*
X408935Y66514D01*
X408847Y66499D01*
X408783Y66470D01*
X408716Y66451D01*
X408639Y66405D01*
X408557Y66368D01*
X408502Y66324D01*
X408442Y66289D01*
X408379Y66226D01*
X408309Y66170D01*
X408266Y66114D01*
X408217Y66064D01*
X408171Y65987D01*
X408117Y65916D01*
X408062Y65803D01*
X408055Y65791D01*
X408053Y65784D01*
X408046Y65771D01*
X407223Y63782D01*
X403578Y60137D01*
X398817Y58165D01*
X393663Y58165D01*
X388902Y60137D01*
X385257Y63782D01*
X384713Y65097D01*
X384644Y65218D01*
X384579Y65341D01*
X384565Y65356D01*
X384555Y65373D01*
X384458Y65474D01*
X384365Y65576D01*
X384348Y65587D01*
X384334Y65602D01*
X384215Y65675D01*
X384099Y65751D01*
X384080Y65758D01*
X384063Y65768D01*
X383930Y65809D01*
X383798Y65854D01*
X383778Y65856D01*
X383759Y65862D01*
X383620Y65868D01*
X383481Y65879D01*
X383461Y65876D01*
X383441Y65877D01*
X383305Y65849D01*
X383168Y65825D01*
X383149Y65817D01*
X383130Y65813D01*
X383004Y65751D01*
X382878Y65694D01*
X382862Y65682D01*
X382844Y65673D01*
X382738Y65583D01*
X382630Y65496D01*
X382617Y65480D01*
X382602Y65467D01*
X382522Y65353D01*
X382438Y65242D01*
X382426Y65217D01*
X382419Y65206D01*
X382412Y65187D01*
X382367Y65097D01*
X381822Y63782D01*
X378178Y60137D01*
X373417Y58165D01*
X368263Y58165D01*
X363502Y60137D01*
X359858Y63782D01*
X359313Y65097D01*
X359244Y65218D01*
X359179Y65341D01*
X359165Y65356D01*
X359155Y65373D01*
X359058Y65473D01*
X358965Y65576D01*
X358948Y65587D01*
X358934Y65602D01*
X358816Y65674D01*
X358699Y65751D01*
X358680Y65758D01*
X358663Y65768D01*
X358530Y65809D01*
X358398Y65854D01*
X358378Y65856D01*
X358359Y65862D01*
X358220Y65868D01*
X358081Y65879D01*
X358061Y65876D01*
X358041Y65877D01*
X357905Y65849D01*
X357768Y65825D01*
X357749Y65817D01*
X357730Y65813D01*
X357605Y65751D01*
X357478Y65694D01*
X357462Y65682D01*
X357444Y65673D01*
X357338Y65583D01*
X357230Y65496D01*
X357217Y65480D01*
X357202Y65467D01*
X357122Y65353D01*
X357038Y65242D01*
X357026Y65217D01*
X357019Y65206D01*
X357012Y65187D01*
X356967Y65097D01*
X356423Y63782D01*
X352778Y60137D01*
X348017Y58165D01*
X342863Y58165D01*
G37*
%LPD*%
%LPC*%
G36*
X342863Y27685D02*
X342863Y27685D01*
X338102Y29657D01*
X334457Y33302D01*
X332485Y38063D01*
X332485Y43217D01*
X334457Y47978D01*
X338102Y51623D01*
X342863Y53595D01*
X348017Y53595D01*
X352778Y51623D01*
X356422Y47978D01*
X356967Y46663D01*
X357036Y46542D01*
X357101Y46419D01*
X357115Y46404D01*
X357125Y46387D01*
X357222Y46287D01*
X357315Y46184D01*
X357332Y46173D01*
X357346Y46158D01*
X357464Y46086D01*
X357581Y46009D01*
X357600Y46002D01*
X357617Y45992D01*
X357750Y45951D01*
X357882Y45906D01*
X357902Y45904D01*
X357921Y45898D01*
X358060Y45892D01*
X358199Y45881D01*
X358219Y45884D01*
X358239Y45883D01*
X358375Y45911D01*
X358512Y45935D01*
X358531Y45943D01*
X358550Y45947D01*
X358675Y46009D01*
X358802Y46066D01*
X358818Y46078D01*
X358836Y46087D01*
X358941Y46177D01*
X359050Y46264D01*
X359063Y46280D01*
X359078Y46293D01*
X359158Y46407D01*
X359242Y46518D01*
X359254Y46543D01*
X359261Y46554D01*
X359268Y46573D01*
X359313Y46663D01*
X359857Y47978D01*
X363502Y51623D01*
X368263Y53595D01*
X373417Y53595D01*
X378178Y51623D01*
X381823Y47978D01*
X382367Y46663D01*
X382436Y46542D01*
X382501Y46419D01*
X382515Y46404D01*
X382525Y46387D01*
X382622Y46286D01*
X382715Y46184D01*
X382732Y46173D01*
X382746Y46158D01*
X382865Y46085D01*
X382981Y46009D01*
X383000Y46002D01*
X383017Y45992D01*
X383150Y45951D01*
X383282Y45906D01*
X383302Y45904D01*
X383321Y45898D01*
X383460Y45892D01*
X383599Y45881D01*
X383619Y45884D01*
X383639Y45883D01*
X383775Y45911D01*
X383912Y45935D01*
X383931Y45943D01*
X383950Y45947D01*
X384076Y46009D01*
X384202Y46066D01*
X384218Y46078D01*
X384236Y46087D01*
X384342Y46177D01*
X384450Y46264D01*
X384463Y46280D01*
X384478Y46293D01*
X384558Y46407D01*
X384642Y46518D01*
X384654Y46543D01*
X384661Y46554D01*
X384668Y46573D01*
X384713Y46663D01*
X385258Y47978D01*
X388902Y51623D01*
X393663Y53595D01*
X398817Y53595D01*
X403578Y51623D01*
X407223Y47978D01*
X408046Y45989D01*
X408091Y45911D01*
X408126Y45829D01*
X408169Y45774D01*
X408204Y45713D01*
X408266Y45648D01*
X408321Y45578D01*
X408377Y45535D01*
X408425Y45484D01*
X408502Y45438D01*
X408572Y45383D01*
X408637Y45355D01*
X408696Y45318D01*
X408782Y45292D01*
X408864Y45256D01*
X408933Y45245D01*
X409000Y45224D01*
X409090Y45220D01*
X409178Y45206D01*
X409248Y45213D01*
X409318Y45209D01*
X409406Y45227D01*
X409495Y45236D01*
X409561Y45259D01*
X409629Y45274D01*
X409710Y45313D01*
X409794Y45343D01*
X409852Y45382D01*
X409915Y45413D01*
X409983Y45471D01*
X410057Y45522D01*
X410104Y45574D01*
X410157Y45620D01*
X410209Y45693D01*
X410268Y45760D01*
X410332Y45867D01*
X410340Y45880D01*
X410343Y45886D01*
X410350Y45898D01*
X410995Y47164D01*
X412146Y48748D01*
X413532Y50134D01*
X415116Y51285D01*
X416862Y52175D01*
X418725Y52780D01*
X419101Y52840D01*
X419101Y41910D01*
X419116Y41792D01*
X419123Y41673D01*
X419136Y41635D01*
X419141Y41595D01*
X419184Y41484D01*
X419221Y41371D01*
X419243Y41337D01*
X419258Y41299D01*
X419328Y41203D01*
X419391Y41102D01*
X419421Y41074D01*
X419444Y41042D01*
X419536Y40966D01*
X419623Y40884D01*
X419658Y40865D01*
X419689Y40839D01*
X419797Y40788D01*
X419901Y40731D01*
X419941Y40720D01*
X419977Y40703D01*
X420094Y40681D01*
X420209Y40651D01*
X420270Y40647D01*
X420290Y40643D01*
X420310Y40645D01*
X420370Y40641D01*
X422910Y40641D01*
X423028Y40656D01*
X423147Y40663D01*
X423185Y40676D01*
X423225Y40681D01*
X423336Y40725D01*
X423449Y40761D01*
X423484Y40783D01*
X423521Y40798D01*
X423617Y40868D01*
X423718Y40931D01*
X423746Y40961D01*
X423779Y40985D01*
X423854Y41076D01*
X423936Y41163D01*
X423956Y41198D01*
X423981Y41230D01*
X424032Y41337D01*
X424090Y41442D01*
X424100Y41481D01*
X424117Y41517D01*
X424139Y41634D01*
X424169Y41749D01*
X424173Y41810D01*
X424177Y41830D01*
X424175Y41850D01*
X424179Y41910D01*
X424179Y52840D01*
X424555Y52780D01*
X426418Y52175D01*
X428164Y51285D01*
X429748Y50134D01*
X431134Y48748D01*
X432285Y47164D01*
X432930Y45898D01*
X432980Y45825D01*
X433022Y45745D01*
X433069Y45693D01*
X433109Y45635D01*
X433176Y45576D01*
X433236Y45510D01*
X433295Y45471D01*
X433347Y45425D01*
X433427Y45384D01*
X433502Y45335D01*
X433568Y45312D01*
X433631Y45281D01*
X433718Y45261D01*
X433803Y45232D01*
X433873Y45226D01*
X433941Y45211D01*
X434030Y45214D01*
X434120Y45207D01*
X434189Y45219D01*
X434259Y45221D01*
X434345Y45246D01*
X434433Y45261D01*
X434497Y45290D01*
X434564Y45309D01*
X434641Y45355D01*
X434723Y45392D01*
X434778Y45436D01*
X434838Y45471D01*
X434901Y45534D01*
X434971Y45590D01*
X435014Y45646D01*
X435063Y45696D01*
X435109Y45773D01*
X435163Y45844D01*
X435218Y45957D01*
X435225Y45969D01*
X435227Y45976D01*
X435234Y45989D01*
X436057Y47978D01*
X439702Y51623D01*
X444463Y53595D01*
X449617Y53595D01*
X454378Y51623D01*
X458023Y47978D01*
X459995Y43217D01*
X459995Y38063D01*
X458023Y33302D01*
X454378Y29657D01*
X449617Y27685D01*
X444463Y27685D01*
X439702Y29657D01*
X436057Y33302D01*
X435234Y35291D01*
X435189Y35369D01*
X435154Y35451D01*
X435111Y35506D01*
X435076Y35567D01*
X435014Y35632D01*
X434959Y35702D01*
X434903Y35745D01*
X434855Y35796D01*
X434778Y35842D01*
X434708Y35897D01*
X434643Y35925D01*
X434584Y35962D01*
X434498Y35988D01*
X434416Y36024D01*
X434347Y36035D01*
X434280Y36056D01*
X434190Y36060D01*
X434102Y36074D01*
X434032Y36067D01*
X433962Y36071D01*
X433874Y36053D01*
X433785Y36044D01*
X433719Y36021D01*
X433651Y36006D01*
X433570Y35967D01*
X433486Y35937D01*
X433428Y35898D01*
X433365Y35867D01*
X433297Y35809D01*
X433223Y35758D01*
X433176Y35706D01*
X433123Y35660D01*
X433071Y35587D01*
X433012Y35520D01*
X432948Y35413D01*
X432940Y35400D01*
X432937Y35394D01*
X432930Y35382D01*
X432285Y34116D01*
X431134Y32532D01*
X429748Y31146D01*
X428164Y29995D01*
X426418Y29105D01*
X424555Y28500D01*
X424179Y28440D01*
X424179Y39370D01*
X424164Y39488D01*
X424157Y39607D01*
X424144Y39645D01*
X424139Y39685D01*
X424096Y39796D01*
X424059Y39909D01*
X424037Y39943D01*
X424022Y39981D01*
X423952Y40077D01*
X423889Y40178D01*
X423859Y40206D01*
X423835Y40238D01*
X423744Y40314D01*
X423657Y40396D01*
X423622Y40415D01*
X423591Y40441D01*
X423483Y40492D01*
X423379Y40549D01*
X423339Y40560D01*
X423303Y40577D01*
X423186Y40599D01*
X423071Y40629D01*
X423010Y40633D01*
X422990Y40637D01*
X422970Y40635D01*
X422910Y40639D01*
X420370Y40639D01*
X420252Y40624D01*
X420133Y40617D01*
X420095Y40604D01*
X420054Y40599D01*
X419944Y40555D01*
X419831Y40519D01*
X419796Y40497D01*
X419759Y40482D01*
X419663Y40412D01*
X419562Y40349D01*
X419534Y40319D01*
X419501Y40295D01*
X419426Y40204D01*
X419344Y40117D01*
X419324Y40082D01*
X419299Y40050D01*
X419248Y39943D01*
X419190Y39838D01*
X419180Y39799D01*
X419163Y39763D01*
X419141Y39646D01*
X419111Y39531D01*
X419107Y39470D01*
X419103Y39450D01*
X419105Y39430D01*
X419101Y39370D01*
X419101Y28440D01*
X418725Y28500D01*
X416862Y29105D01*
X415116Y29995D01*
X413532Y31146D01*
X412146Y32532D01*
X410995Y34116D01*
X410350Y35382D01*
X410300Y35455D01*
X410258Y35535D01*
X410211Y35587D01*
X410171Y35645D01*
X410104Y35704D01*
X410044Y35770D01*
X409985Y35809D01*
X409933Y35855D01*
X409853Y35896D01*
X409778Y35945D01*
X409712Y35968D01*
X409649Y35999D01*
X409562Y36019D01*
X409477Y36048D01*
X409407Y36054D01*
X409339Y36069D01*
X409250Y36066D01*
X409160Y36073D01*
X409091Y36061D01*
X409021Y36059D01*
X408935Y36034D01*
X408847Y36019D01*
X408783Y35990D01*
X408716Y35971D01*
X408639Y35925D01*
X408557Y35888D01*
X408502Y35844D01*
X408442Y35809D01*
X408379Y35746D01*
X408309Y35690D01*
X408266Y35634D01*
X408217Y35584D01*
X408171Y35507D01*
X408117Y35436D01*
X408062Y35323D01*
X408055Y35311D01*
X408053Y35304D01*
X408046Y35291D01*
X407223Y33302D01*
X403578Y29657D01*
X398817Y27685D01*
X393663Y27685D01*
X388902Y29657D01*
X385258Y33302D01*
X384713Y34617D01*
X384644Y34738D01*
X384579Y34861D01*
X384565Y34876D01*
X384555Y34893D01*
X384458Y34993D01*
X384365Y35096D01*
X384348Y35107D01*
X384334Y35122D01*
X384216Y35194D01*
X384099Y35271D01*
X384080Y35278D01*
X384063Y35288D01*
X383930Y35329D01*
X383798Y35374D01*
X383778Y35376D01*
X383759Y35382D01*
X383620Y35388D01*
X383481Y35399D01*
X383461Y35396D01*
X383441Y35397D01*
X383305Y35369D01*
X383168Y35345D01*
X383149Y35337D01*
X383130Y35333D01*
X383005Y35271D01*
X382878Y35214D01*
X382862Y35202D01*
X382844Y35193D01*
X382738Y35103D01*
X382630Y35016D01*
X382617Y35000D01*
X382602Y34987D01*
X382522Y34873D01*
X382438Y34762D01*
X382426Y34737D01*
X382419Y34726D01*
X382412Y34707D01*
X382367Y34617D01*
X381823Y33302D01*
X378178Y29657D01*
X373417Y27685D01*
X368263Y27685D01*
X363502Y29657D01*
X359857Y33302D01*
X359313Y34617D01*
X359244Y34738D01*
X359179Y34861D01*
X359165Y34876D01*
X359155Y34893D01*
X359058Y34994D01*
X358965Y35096D01*
X358948Y35107D01*
X358934Y35122D01*
X358815Y35195D01*
X358699Y35271D01*
X358680Y35278D01*
X358663Y35288D01*
X358530Y35329D01*
X358398Y35374D01*
X358378Y35376D01*
X358359Y35382D01*
X358220Y35388D01*
X358081Y35399D01*
X358061Y35396D01*
X358041Y35397D01*
X357905Y35369D01*
X357768Y35345D01*
X357749Y35337D01*
X357730Y35333D01*
X357604Y35271D01*
X357478Y35214D01*
X357462Y35202D01*
X357444Y35193D01*
X357338Y35103D01*
X357230Y35016D01*
X357217Y35000D01*
X357202Y34987D01*
X357121Y34872D01*
X357038Y34762D01*
X357026Y34737D01*
X357019Y34726D01*
X357012Y34707D01*
X356967Y34617D01*
X356422Y33302D01*
X352778Y29657D01*
X348017Y27685D01*
X342863Y27685D01*
G37*
%LPD*%
%LPC*%
G36*
X129115Y113031D02*
X129115Y113031D01*
X120644Y116540D01*
X114160Y123024D01*
X110651Y131495D01*
X110651Y140665D01*
X114160Y149136D01*
X120644Y155620D01*
X129115Y159129D01*
X138285Y159129D01*
X146756Y155620D01*
X153240Y149136D01*
X156749Y140665D01*
X156749Y131495D01*
X153240Y123024D01*
X146756Y116540D01*
X138285Y113031D01*
X129115Y113031D01*
G37*
%LPD*%
%LPC*%
G36*
X308528Y450401D02*
X308528Y450401D01*
X306029Y451436D01*
X304116Y453349D01*
X303081Y455848D01*
X303081Y458552D01*
X304116Y461051D01*
X305190Y462124D01*
X305250Y462203D01*
X305318Y462275D01*
X305347Y462328D01*
X305384Y462376D01*
X305424Y462467D01*
X305472Y462553D01*
X305487Y462612D01*
X305511Y462667D01*
X305526Y462765D01*
X305551Y462861D01*
X305557Y462961D01*
X305561Y462982D01*
X305559Y462994D01*
X305561Y463022D01*
X305561Y622355D01*
X305561Y622356D01*
X305561Y623267D01*
X305552Y623339D01*
X305553Y623411D01*
X305532Y623496D01*
X305521Y623582D01*
X305495Y623650D01*
X305478Y623720D01*
X305411Y623867D01*
X304451Y625658D01*
X304390Y625744D01*
X304336Y625835D01*
X304279Y625899D01*
X304266Y625917D01*
X304255Y625927D01*
X304229Y625956D01*
X304116Y626069D01*
X304107Y626091D01*
X304102Y626099D01*
X304100Y626108D01*
X304024Y626237D01*
X303950Y626368D01*
X303943Y626374D01*
X303938Y626382D01*
X303832Y626503D01*
X303375Y626960D01*
X303375Y627345D01*
X303366Y627417D01*
X303367Y627490D01*
X303346Y627574D01*
X303336Y627661D01*
X303309Y627728D01*
X303292Y627799D01*
X303225Y627945D01*
X303037Y628295D01*
X303045Y628338D01*
X303071Y628440D01*
X303076Y628526D01*
X303080Y628547D01*
X303079Y628563D01*
X303081Y628601D01*
X303081Y631272D01*
X304116Y633771D01*
X306029Y635684D01*
X308528Y636719D01*
X311232Y636719D01*
X313731Y635684D01*
X315644Y633771D01*
X316679Y631272D01*
X316679Y628601D01*
X316692Y628496D01*
X316696Y628390D01*
X316716Y628307D01*
X316718Y628287D01*
X316535Y627945D01*
X316509Y627877D01*
X316474Y627814D01*
X316452Y627730D01*
X316421Y627648D01*
X316413Y627576D01*
X316395Y627506D01*
X316385Y627345D01*
X316385Y626960D01*
X315928Y626503D01*
X315922Y626496D01*
X315915Y626490D01*
X315825Y626371D01*
X315733Y626252D01*
X315730Y626243D01*
X315724Y626236D01*
X315653Y626091D01*
X315644Y626069D01*
X315530Y625956D01*
X315466Y625872D01*
X315394Y625795D01*
X315349Y625722D01*
X315336Y625704D01*
X315329Y625690D01*
X315309Y625658D01*
X314954Y624994D01*
X314349Y623867D01*
X314323Y623799D01*
X314288Y623736D01*
X314267Y623651D01*
X314235Y623570D01*
X314227Y623498D01*
X314209Y623428D01*
X314199Y623267D01*
X314199Y463022D01*
X314211Y462924D01*
X314214Y462825D01*
X314231Y462766D01*
X314239Y462706D01*
X314275Y462614D01*
X314303Y462519D01*
X314333Y462467D01*
X314356Y462411D01*
X314414Y462331D01*
X314464Y462245D01*
X314530Y462170D01*
X314542Y462153D01*
X314552Y462146D01*
X314570Y462124D01*
X315644Y461051D01*
X316679Y458552D01*
X316679Y455848D01*
X315644Y453349D01*
X313731Y451436D01*
X311232Y450401D01*
X308528Y450401D01*
G37*
%LPD*%
%LPC*%
G36*
X110408Y409761D02*
X110408Y409761D01*
X107909Y410796D01*
X106836Y411869D01*
X106758Y411930D01*
X106685Y411998D01*
X106632Y412027D01*
X106584Y412064D01*
X106494Y412104D01*
X106407Y412152D01*
X106348Y412167D01*
X106293Y412191D01*
X106195Y412206D01*
X106099Y412231D01*
X105999Y412237D01*
X105978Y412241D01*
X105966Y412239D01*
X105938Y412241D01*
X68499Y412241D01*
X54667Y426073D01*
X54594Y426130D01*
X54528Y426194D01*
X54469Y426227D01*
X54416Y426268D01*
X54331Y426305D01*
X54251Y426350D01*
X54140Y426388D01*
X54124Y426394D01*
X54116Y426396D01*
X54098Y426402D01*
X53854Y426467D01*
X53852Y426467D01*
X53849Y426468D01*
X53691Y426500D01*
X53035Y426586D01*
X52854Y426690D01*
X52775Y426724D01*
X52700Y426766D01*
X52571Y426809D01*
X52561Y426814D01*
X52556Y426814D01*
X52548Y426817D01*
X46439Y428454D01*
X46354Y428466D01*
X46271Y428487D01*
X46135Y428496D01*
X46124Y428497D01*
X46119Y428497D01*
X46110Y428497D01*
X45560Y428497D01*
X44322Y429010D01*
X44320Y429011D01*
X44318Y429012D01*
X44165Y429063D01*
X43847Y429148D01*
X43815Y429173D01*
X43741Y429217D01*
X43672Y429268D01*
X43550Y429328D01*
X43540Y429334D01*
X43536Y429335D01*
X43528Y429339D01*
X41639Y430121D01*
X38637Y433123D01*
X37013Y437044D01*
X37013Y441288D01*
X38637Y445209D01*
X41639Y448211D01*
X45560Y449835D01*
X49804Y449835D01*
X53725Y448211D01*
X56727Y445209D01*
X57509Y443320D01*
X57551Y443246D01*
X57585Y443167D01*
X57661Y443053D01*
X57667Y443044D01*
X57670Y443041D01*
X57675Y443033D01*
X57700Y443001D01*
X57785Y442683D01*
X57786Y442681D01*
X57786Y442678D01*
X57838Y442526D01*
X58351Y441288D01*
X58351Y440738D01*
X58361Y440653D01*
X58362Y440567D01*
X58389Y440433D01*
X58391Y440422D01*
X58392Y440418D01*
X58394Y440409D01*
X60031Y434300D01*
X60063Y434221D01*
X60086Y434138D01*
X60147Y434016D01*
X60151Y434006D01*
X60154Y434002D01*
X60158Y433994D01*
X60262Y433813D01*
X60348Y433157D01*
X60349Y433154D01*
X60349Y433152D01*
X60381Y432994D01*
X60446Y432750D01*
X60481Y432664D01*
X60507Y432576D01*
X60541Y432518D01*
X60566Y432455D01*
X60622Y432381D01*
X60668Y432302D01*
X60746Y432214D01*
X60756Y432200D01*
X60763Y432195D01*
X60775Y432181D01*
X71705Y421250D01*
X71783Y421190D01*
X71856Y421122D01*
X71909Y421093D01*
X71956Y421056D01*
X72047Y421016D01*
X72134Y420968D01*
X72193Y420953D01*
X72248Y420929D01*
X72346Y420914D01*
X72442Y420889D01*
X72542Y420883D01*
X72562Y420879D01*
X72575Y420881D01*
X72603Y420879D01*
X105938Y420879D01*
X106036Y420891D01*
X106135Y420894D01*
X106194Y420911D01*
X106254Y420919D01*
X106346Y420955D01*
X106441Y420983D01*
X106493Y421013D01*
X106549Y421036D01*
X106630Y421094D01*
X106715Y421144D01*
X106790Y421210D01*
X106807Y421222D01*
X106815Y421232D01*
X106836Y421251D01*
X107909Y422324D01*
X109559Y423007D01*
X109680Y423076D01*
X109803Y423141D01*
X109818Y423155D01*
X109836Y423165D01*
X109936Y423262D01*
X110038Y423355D01*
X110050Y423372D01*
X110064Y423386D01*
X110137Y423504D01*
X110213Y423621D01*
X110220Y423640D01*
X110230Y423657D01*
X110271Y423790D01*
X110316Y423922D01*
X110318Y423942D01*
X110324Y423961D01*
X110331Y424100D01*
X110342Y424239D01*
X110338Y424259D01*
X110339Y424279D01*
X110311Y424415D01*
X110287Y424552D01*
X110279Y424571D01*
X110275Y424590D01*
X110214Y424715D01*
X110157Y424842D01*
X110144Y424858D01*
X110135Y424876D01*
X110045Y424982D01*
X109958Y425090D01*
X109942Y425103D01*
X109929Y425118D01*
X109815Y425198D01*
X109704Y425282D01*
X109679Y425294D01*
X109669Y425301D01*
X109649Y425308D01*
X109559Y425353D01*
X107909Y426036D01*
X105996Y427949D01*
X104961Y430448D01*
X104961Y433152D01*
X105996Y435651D01*
X107909Y437564D01*
X110408Y438599D01*
X113112Y438599D01*
X115611Y437564D01*
X117524Y435651D01*
X118559Y433152D01*
X118559Y430448D01*
X117524Y427949D01*
X115611Y426036D01*
X113961Y425353D01*
X113840Y425284D01*
X113717Y425219D01*
X113702Y425205D01*
X113684Y425195D01*
X113584Y425098D01*
X113482Y425005D01*
X113470Y424988D01*
X113456Y424974D01*
X113383Y424855D01*
X113307Y424739D01*
X113300Y424720D01*
X113290Y424703D01*
X113249Y424570D01*
X113204Y424438D01*
X113202Y424418D01*
X113196Y424399D01*
X113189Y424260D01*
X113178Y424121D01*
X113182Y424101D01*
X113181Y424081D01*
X113209Y423945D01*
X113233Y423808D01*
X113241Y423789D01*
X113245Y423770D01*
X113306Y423644D01*
X113363Y423518D01*
X113376Y423502D01*
X113385Y423484D01*
X113475Y423378D01*
X113562Y423270D01*
X113578Y423257D01*
X113591Y423242D01*
X113705Y423162D01*
X113816Y423078D01*
X113841Y423066D01*
X113851Y423059D01*
X113870Y423052D01*
X113961Y423007D01*
X115611Y422324D01*
X117524Y420411D01*
X118559Y417912D01*
X118559Y415208D01*
X117524Y412709D01*
X115611Y410796D01*
X113112Y409761D01*
X110408Y409761D01*
G37*
%LPD*%
%LPC*%
G36*
X499661Y420496D02*
X499661Y420496D01*
X493639Y422991D01*
X489031Y427599D01*
X486536Y433621D01*
X486536Y440139D01*
X489031Y446161D01*
X493639Y450769D01*
X499661Y453264D01*
X506179Y453264D01*
X512201Y450769D01*
X516809Y446161D01*
X519304Y440139D01*
X519304Y433621D01*
X516809Y427599D01*
X512201Y422991D01*
X506179Y420496D01*
X499661Y420496D01*
G37*
%LPD*%
G36*
X74089Y557797D02*
X74089Y557797D01*
X74188Y557800D01*
X74246Y557817D01*
X74306Y557825D01*
X74398Y557861D01*
X74493Y557889D01*
X74545Y557919D01*
X74602Y557942D01*
X74682Y558000D01*
X74767Y558050D01*
X74843Y558116D01*
X74859Y558128D01*
X74867Y558138D01*
X74888Y558156D01*
X97164Y580432D01*
X97224Y580510D01*
X97292Y580582D01*
X97321Y580635D01*
X97358Y580683D01*
X97398Y580774D01*
X97446Y580861D01*
X97461Y580919D01*
X97485Y580975D01*
X97500Y581073D01*
X97525Y581169D01*
X97531Y581269D01*
X97535Y581289D01*
X97533Y581301D01*
X97535Y581329D01*
X97535Y586203D01*
X97518Y586341D01*
X97505Y586480D01*
X97498Y586499D01*
X97495Y586519D01*
X97444Y586648D01*
X97397Y586779D01*
X97386Y586796D01*
X97378Y586815D01*
X97297Y586927D01*
X97219Y587042D01*
X97203Y587056D01*
X97192Y587072D01*
X97084Y587161D01*
X96980Y587253D01*
X96962Y587262D01*
X96947Y587275D01*
X96821Y587334D01*
X96697Y587397D01*
X96677Y587402D01*
X96659Y587410D01*
X96523Y587436D01*
X96387Y587467D01*
X96366Y587466D01*
X96347Y587470D01*
X96208Y587461D01*
X96069Y587457D01*
X96049Y587452D01*
X96029Y587450D01*
X95897Y587408D01*
X95763Y587369D01*
X95746Y587359D01*
X95727Y587352D01*
X95609Y587278D01*
X95489Y587207D01*
X95468Y587189D01*
X95458Y587182D01*
X95444Y587167D01*
X95369Y587101D01*
X83069Y574801D01*
X56458Y574801D01*
X56419Y574796D01*
X56379Y574799D01*
X56262Y574776D01*
X56143Y574761D01*
X56106Y574747D01*
X56067Y574739D01*
X55958Y574688D01*
X55847Y574644D01*
X55815Y574621D01*
X55779Y574604D01*
X55687Y574528D01*
X55590Y574458D01*
X55564Y574427D01*
X55534Y574402D01*
X55464Y574305D01*
X55387Y574213D01*
X55370Y574177D01*
X55347Y574144D01*
X55302Y574033D01*
X55252Y573925D01*
X55244Y573886D01*
X55229Y573849D01*
X55214Y573730D01*
X55192Y573613D01*
X55194Y573573D01*
X55189Y573533D01*
X55204Y573414D01*
X55212Y573295D01*
X55224Y573257D01*
X55229Y573218D01*
X55273Y573106D01*
X55310Y572993D01*
X55331Y572959D01*
X55345Y572922D01*
X55432Y572786D01*
X56372Y571491D01*
X57098Y570066D01*
X57541Y568705D01*
X48952Y568705D01*
X48834Y568690D01*
X48715Y568683D01*
X48677Y568670D01*
X48637Y568665D01*
X48526Y568622D01*
X48413Y568585D01*
X48379Y568563D01*
X48341Y568548D01*
X48245Y568478D01*
X48144Y568415D01*
X48116Y568385D01*
X48084Y568361D01*
X48008Y568270D01*
X47926Y568183D01*
X47907Y568148D01*
X47881Y568117D01*
X47830Y568009D01*
X47773Y567905D01*
X47762Y567865D01*
X47745Y567829D01*
X47723Y567712D01*
X47693Y567597D01*
X47689Y567536D01*
X47685Y567516D01*
X47687Y567496D01*
X47683Y567436D01*
X47683Y564896D01*
X47698Y564778D01*
X47705Y564659D01*
X47718Y564621D01*
X47723Y564580D01*
X47767Y564470D01*
X47803Y564357D01*
X47825Y564322D01*
X47840Y564285D01*
X47910Y564189D01*
X47973Y564088D01*
X48003Y564060D01*
X48027Y564027D01*
X48118Y563952D01*
X48205Y563870D01*
X48240Y563850D01*
X48272Y563825D01*
X48379Y563774D01*
X48484Y563716D01*
X48523Y563706D01*
X48559Y563689D01*
X48676Y563667D01*
X48791Y563637D01*
X48852Y563633D01*
X48872Y563629D01*
X48892Y563631D01*
X48952Y563627D01*
X57541Y563627D01*
X57098Y562266D01*
X56372Y560841D01*
X55616Y559800D01*
X55597Y559765D01*
X55572Y559735D01*
X55521Y559626D01*
X55463Y559521D01*
X55453Y559483D01*
X55436Y559447D01*
X55414Y559330D01*
X55384Y559213D01*
X55384Y559173D01*
X55376Y559134D01*
X55384Y559015D01*
X55384Y558895D01*
X55394Y558857D01*
X55396Y558817D01*
X55433Y558703D01*
X55463Y558587D01*
X55482Y558552D01*
X55494Y558515D01*
X55558Y558413D01*
X55616Y558309D01*
X55643Y558280D01*
X55664Y558246D01*
X55752Y558164D01*
X55833Y558077D01*
X55867Y558055D01*
X55896Y558028D01*
X56001Y557970D01*
X56102Y557906D01*
X56140Y557894D01*
X56174Y557874D01*
X56290Y557845D01*
X56404Y557807D01*
X56444Y557805D01*
X56482Y557795D01*
X56643Y557785D01*
X73991Y557785D01*
X74089Y557797D01*
G37*
%LPC*%
G36*
X530823Y296925D02*
X530823Y296925D01*
X526062Y298897D01*
X522417Y302542D01*
X520445Y307303D01*
X520445Y312457D01*
X522417Y317218D01*
X526062Y320863D01*
X530823Y322835D01*
X535977Y322835D01*
X540738Y320863D01*
X544383Y317218D01*
X546355Y312457D01*
X546355Y307303D01*
X544383Y302542D01*
X540738Y298897D01*
X535977Y296925D01*
X530823Y296925D01*
G37*
%LPD*%
%LPC*%
G36*
X530823Y225805D02*
X530823Y225805D01*
X526062Y227777D01*
X522417Y231422D01*
X520445Y236183D01*
X520445Y241337D01*
X522417Y246098D01*
X526062Y249743D01*
X530823Y251715D01*
X535977Y251715D01*
X540738Y249743D01*
X544383Y246098D01*
X546355Y241337D01*
X546355Y236183D01*
X544383Y231422D01*
X540738Y227777D01*
X535977Y225805D01*
X530823Y225805D01*
G37*
%LPD*%
%LPC*%
G36*
X495263Y159765D02*
X495263Y159765D01*
X490502Y161737D01*
X486857Y165382D01*
X484885Y170143D01*
X484885Y175297D01*
X486857Y180058D01*
X490502Y183703D01*
X495263Y185675D01*
X500417Y185675D01*
X505178Y183703D01*
X508823Y180058D01*
X510795Y175297D01*
X510795Y170143D01*
X508823Y165382D01*
X505178Y161737D01*
X500417Y159765D01*
X495263Y159765D01*
G37*
%LPD*%
%LPC*%
G36*
X45560Y276097D02*
X45560Y276097D01*
X41639Y277721D01*
X38637Y280723D01*
X37013Y284644D01*
X37013Y288888D01*
X38637Y292809D01*
X41639Y295811D01*
X45560Y297435D01*
X49804Y297435D01*
X53725Y295811D01*
X56727Y292809D01*
X58351Y288888D01*
X58351Y284644D01*
X56727Y280723D01*
X53725Y277721D01*
X49804Y276097D01*
X45560Y276097D01*
G37*
%LPD*%
%LPC*%
G36*
X20160Y504697D02*
X20160Y504697D01*
X16239Y506321D01*
X13237Y509323D01*
X11613Y513244D01*
X11613Y517488D01*
X13237Y521409D01*
X16239Y524411D01*
X20160Y526035D01*
X24404Y526035D01*
X28325Y524411D01*
X31327Y521409D01*
X32951Y517488D01*
X32951Y513244D01*
X31327Y509323D01*
X28325Y506321D01*
X24404Y504697D01*
X20160Y504697D01*
G37*
%LPD*%
%LPC*%
G36*
X20160Y199897D02*
X20160Y199897D01*
X16239Y201521D01*
X13237Y204523D01*
X11613Y208444D01*
X11613Y212688D01*
X13237Y216609D01*
X16239Y219611D01*
X20160Y221235D01*
X24404Y221235D01*
X28325Y219611D01*
X31327Y216609D01*
X32951Y212688D01*
X32951Y208444D01*
X31327Y204523D01*
X28325Y201521D01*
X24404Y199897D01*
X20160Y199897D01*
G37*
%LPD*%
%LPC*%
G36*
X20160Y453897D02*
X20160Y453897D01*
X16239Y455521D01*
X13237Y458523D01*
X11613Y462444D01*
X11613Y466688D01*
X13237Y470609D01*
X16239Y473611D01*
X20160Y475235D01*
X24404Y475235D01*
X28325Y473611D01*
X31327Y470609D01*
X32951Y466688D01*
X32951Y462444D01*
X31327Y458523D01*
X28325Y455521D01*
X24404Y453897D01*
X20160Y453897D01*
G37*
%LPD*%
%LPC*%
G36*
X20160Y352297D02*
X20160Y352297D01*
X16239Y353921D01*
X13237Y356923D01*
X11613Y360844D01*
X11613Y365088D01*
X13237Y369009D01*
X16239Y372011D01*
X20160Y373635D01*
X24404Y373635D01*
X28325Y372011D01*
X31327Y369009D01*
X32951Y365088D01*
X32951Y360844D01*
X31327Y356923D01*
X28325Y353921D01*
X24404Y352297D01*
X20160Y352297D01*
G37*
%LPD*%
%LPC*%
G36*
X45560Y326897D02*
X45560Y326897D01*
X41639Y328521D01*
X38637Y331523D01*
X37013Y335444D01*
X37013Y339688D01*
X38637Y343609D01*
X41639Y346611D01*
X45560Y348235D01*
X49804Y348235D01*
X53725Y346611D01*
X56727Y343609D01*
X58351Y339688D01*
X58351Y335444D01*
X56727Y331523D01*
X53725Y328521D01*
X49804Y326897D01*
X45560Y326897D01*
G37*
%LPD*%
%LPC*%
G36*
X20160Y326897D02*
X20160Y326897D01*
X16239Y328521D01*
X13237Y331523D01*
X11613Y335444D01*
X11613Y339688D01*
X13237Y343609D01*
X16239Y346611D01*
X20160Y348235D01*
X24404Y348235D01*
X28325Y346611D01*
X31327Y343609D01*
X32951Y339688D01*
X32951Y335444D01*
X31327Y331523D01*
X28325Y328521D01*
X24404Y326897D01*
X20160Y326897D01*
G37*
%LPD*%
%LPC*%
G36*
X45560Y301497D02*
X45560Y301497D01*
X41639Y303121D01*
X38637Y306123D01*
X37013Y310044D01*
X37013Y314288D01*
X38637Y318209D01*
X41639Y321211D01*
X45560Y322835D01*
X49804Y322835D01*
X53725Y321211D01*
X56727Y318209D01*
X58351Y314288D01*
X58351Y310044D01*
X56727Y306123D01*
X53725Y303121D01*
X49804Y301497D01*
X45560Y301497D01*
G37*
%LPD*%
%LPC*%
G36*
X45560Y403097D02*
X45560Y403097D01*
X41639Y404721D01*
X38637Y407723D01*
X37013Y411644D01*
X37013Y415888D01*
X38637Y419809D01*
X41639Y422811D01*
X45560Y424435D01*
X49804Y424435D01*
X53725Y422811D01*
X56727Y419809D01*
X58351Y415888D01*
X58351Y411644D01*
X56727Y407723D01*
X53725Y404721D01*
X49804Y403097D01*
X45560Y403097D01*
G37*
%LPD*%
%LPC*%
G36*
X20160Y250697D02*
X20160Y250697D01*
X16239Y252321D01*
X13237Y255323D01*
X11613Y259244D01*
X11613Y263488D01*
X13237Y267409D01*
X16239Y270411D01*
X20160Y272035D01*
X24404Y272035D01*
X28325Y270411D01*
X31327Y267409D01*
X32951Y263488D01*
X32951Y259244D01*
X31327Y255323D01*
X28325Y252321D01*
X24404Y250697D01*
X20160Y250697D01*
G37*
%LPD*%
%LPC*%
G36*
X45560Y504697D02*
X45560Y504697D01*
X41639Y506321D01*
X38637Y509323D01*
X37013Y513244D01*
X37013Y517488D01*
X38637Y521409D01*
X41639Y524411D01*
X45560Y526035D01*
X49804Y526035D01*
X53725Y524411D01*
X56727Y521409D01*
X58351Y517488D01*
X58351Y513244D01*
X56727Y509323D01*
X53725Y506321D01*
X49804Y504697D01*
X45560Y504697D01*
G37*
%LPD*%
%LPC*%
G36*
X20160Y377697D02*
X20160Y377697D01*
X16239Y379321D01*
X13237Y382323D01*
X11613Y386244D01*
X11613Y390488D01*
X13237Y394409D01*
X16239Y397411D01*
X20160Y399035D01*
X24404Y399035D01*
X28325Y397411D01*
X31327Y394409D01*
X32951Y390488D01*
X32951Y386244D01*
X31327Y382323D01*
X28325Y379321D01*
X24404Y377697D01*
X20160Y377697D01*
G37*
%LPD*%
%LPC*%
G36*
X45560Y352297D02*
X45560Y352297D01*
X41639Y353921D01*
X38637Y356923D01*
X37013Y360844D01*
X37013Y365088D01*
X38637Y369009D01*
X41639Y372011D01*
X45560Y373635D01*
X49804Y373635D01*
X53725Y372011D01*
X56727Y369009D01*
X58351Y365088D01*
X58351Y360844D01*
X56727Y356923D01*
X53725Y353921D01*
X49804Y352297D01*
X45560Y352297D01*
G37*
%LPD*%
%LPC*%
G36*
X20160Y301497D02*
X20160Y301497D01*
X16239Y303121D01*
X13237Y306123D01*
X11613Y310044D01*
X11613Y314288D01*
X13237Y318209D01*
X16239Y321211D01*
X20160Y322835D01*
X24404Y322835D01*
X28325Y321211D01*
X31327Y318209D01*
X32951Y314288D01*
X32951Y310044D01*
X31327Y306123D01*
X28325Y303121D01*
X24404Y301497D01*
X20160Y301497D01*
G37*
%LPD*%
%LPC*%
G36*
X20160Y403097D02*
X20160Y403097D01*
X16239Y404721D01*
X13237Y407723D01*
X11613Y411644D01*
X11613Y415888D01*
X13237Y419809D01*
X16239Y422811D01*
X20160Y424435D01*
X24404Y424435D01*
X28325Y422811D01*
X31327Y419809D01*
X32951Y415888D01*
X32951Y411644D01*
X31327Y407723D01*
X28325Y404721D01*
X24404Y403097D01*
X20160Y403097D01*
G37*
%LPD*%
%LPC*%
G36*
X521142Y672711D02*
X521142Y672711D01*
X517265Y674317D01*
X514297Y677285D01*
X512691Y681162D01*
X512691Y685358D01*
X514297Y689235D01*
X517265Y692203D01*
X521142Y693809D01*
X525338Y693809D01*
X529215Y692203D01*
X532183Y689235D01*
X533789Y685358D01*
X533789Y681162D01*
X532183Y677285D01*
X529215Y674317D01*
X525338Y672711D01*
X521142Y672711D01*
G37*
%LPD*%
%LPC*%
G36*
X521142Y723511D02*
X521142Y723511D01*
X517265Y725117D01*
X514297Y728085D01*
X512691Y731962D01*
X512691Y736158D01*
X514297Y740035D01*
X517265Y743003D01*
X521142Y744609D01*
X525338Y744609D01*
X529215Y743003D01*
X532183Y740035D01*
X533789Y736158D01*
X533789Y731962D01*
X532183Y728085D01*
X529215Y725117D01*
X525338Y723511D01*
X521142Y723511D01*
G37*
%LPD*%
%LPC*%
G36*
X37539Y617539D02*
X37539Y617539D01*
X37539Y638404D01*
X38949Y638245D01*
X41527Y637656D01*
X44023Y636783D01*
X46405Y635636D01*
X48644Y634229D01*
X50711Y632581D01*
X52581Y630711D01*
X54229Y628644D01*
X55636Y626405D01*
X56783Y624023D01*
X57656Y621527D01*
X58245Y618949D01*
X58404Y617539D01*
X37539Y617539D01*
G37*
%LPD*%
%LPC*%
G36*
X37539Y37539D02*
X37539Y37539D01*
X37539Y58404D01*
X38949Y58245D01*
X41527Y57656D01*
X44023Y56783D01*
X46405Y55636D01*
X48644Y54229D01*
X50711Y52581D01*
X52581Y50711D01*
X54229Y48644D01*
X55636Y46405D01*
X56783Y44023D01*
X57656Y41527D01*
X58245Y38949D01*
X58404Y37539D01*
X37539Y37539D01*
G37*
%LPD*%
%LPC*%
G36*
X527539Y37539D02*
X527539Y37539D01*
X527539Y58404D01*
X528949Y58245D01*
X531527Y57656D01*
X534023Y56783D01*
X536405Y55636D01*
X538644Y54229D01*
X540711Y52581D01*
X542581Y50711D01*
X544229Y48644D01*
X545636Y46405D01*
X546783Y44023D01*
X547656Y41527D01*
X548245Y38949D01*
X548404Y37539D01*
X527539Y37539D01*
G37*
%LPD*%
%LPC*%
G36*
X527539Y617539D02*
X527539Y617539D01*
X527539Y638404D01*
X528949Y638245D01*
X531527Y637656D01*
X534023Y636783D01*
X536405Y635636D01*
X538644Y634229D01*
X540711Y632581D01*
X542581Y630711D01*
X544229Y628644D01*
X545636Y626405D01*
X546783Y624023D01*
X547656Y621527D01*
X548245Y618949D01*
X548404Y617539D01*
X527539Y617539D01*
G37*
%LPD*%
%LPC*%
G36*
X527539Y612461D02*
X527539Y612461D01*
X548404Y612461D01*
X548245Y611051D01*
X547656Y608473D01*
X546783Y605977D01*
X545636Y603595D01*
X545575Y603498D01*
X544778Y602229D01*
X544777Y602229D01*
X544229Y601356D01*
X542581Y599289D01*
X540711Y597419D01*
X538644Y595771D01*
X536405Y594364D01*
X534023Y593217D01*
X531527Y592344D01*
X528949Y591755D01*
X527539Y591596D01*
X527539Y612461D01*
G37*
%LPD*%
%LPC*%
G36*
X37539Y612461D02*
X37539Y612461D01*
X58404Y612461D01*
X58245Y611051D01*
X57656Y608473D01*
X56783Y605977D01*
X55636Y603595D01*
X55575Y603498D01*
X54778Y602229D01*
X54777Y602229D01*
X54229Y601356D01*
X52581Y599289D01*
X50711Y597419D01*
X48644Y595771D01*
X46405Y594364D01*
X44023Y593217D01*
X41527Y592344D01*
X38949Y591755D01*
X37539Y591596D01*
X37539Y612461D01*
G37*
%LPD*%
%LPC*%
G36*
X11596Y37539D02*
X11596Y37539D01*
X11755Y38949D01*
X12344Y41527D01*
X13217Y44023D01*
X14364Y46405D01*
X15771Y48644D01*
X17419Y50711D01*
X19289Y52581D01*
X21356Y54229D01*
X23595Y55636D01*
X25977Y56783D01*
X28473Y57656D01*
X31051Y58245D01*
X32461Y58404D01*
X32461Y37539D01*
X11596Y37539D01*
G37*
%LPD*%
%LPC*%
G36*
X501596Y37539D02*
X501596Y37539D01*
X501755Y38949D01*
X502344Y41527D01*
X503217Y44023D01*
X504364Y46405D01*
X505771Y48644D01*
X507419Y50711D01*
X509289Y52581D01*
X511356Y54229D01*
X513595Y55636D01*
X515977Y56783D01*
X518473Y57656D01*
X521051Y58245D01*
X522461Y58404D01*
X522461Y37539D01*
X501596Y37539D01*
G37*
%LPD*%
%LPC*%
G36*
X501596Y617539D02*
X501596Y617539D01*
X501755Y618949D01*
X502344Y621527D01*
X503217Y624023D01*
X504364Y626405D01*
X505771Y628644D01*
X507419Y630711D01*
X509289Y632581D01*
X511356Y634229D01*
X513595Y635636D01*
X515977Y636783D01*
X518473Y637656D01*
X521051Y638245D01*
X522461Y638404D01*
X522461Y617539D01*
X501596Y617539D01*
G37*
%LPD*%
%LPC*%
G36*
X11596Y617539D02*
X11596Y617539D01*
X11755Y618949D01*
X12344Y621527D01*
X13217Y624023D01*
X14364Y626405D01*
X15771Y628644D01*
X17419Y630711D01*
X19289Y632581D01*
X21356Y634229D01*
X23595Y635636D01*
X25977Y636783D01*
X28473Y637656D01*
X31051Y638245D01*
X32461Y638404D01*
X32461Y617539D01*
X11596Y617539D01*
G37*
%LPD*%
%LPC*%
G36*
X527539Y32461D02*
X527539Y32461D01*
X548404Y32461D01*
X548245Y31051D01*
X547656Y28473D01*
X546783Y25977D01*
X545636Y23595D01*
X544748Y22182D01*
X544748Y22181D01*
X544229Y21356D01*
X542581Y19289D01*
X540711Y17419D01*
X538644Y15771D01*
X536405Y14364D01*
X534023Y13217D01*
X531527Y12344D01*
X528949Y11755D01*
X527539Y11596D01*
X527539Y32461D01*
G37*
%LPD*%
%LPC*%
G36*
X37539Y32461D02*
X37539Y32461D01*
X58404Y32461D01*
X58245Y31051D01*
X57656Y28473D01*
X56783Y25977D01*
X55636Y23595D01*
X54748Y22182D01*
X54748Y22181D01*
X54229Y21356D01*
X52581Y19289D01*
X50711Y17419D01*
X48644Y15771D01*
X46405Y14364D01*
X44023Y13217D01*
X41527Y12344D01*
X38949Y11755D01*
X37539Y11596D01*
X37539Y32461D01*
G37*
%LPD*%
%LPC*%
G36*
X31051Y11755D02*
X31051Y11755D01*
X28473Y12344D01*
X25977Y13217D01*
X23595Y14364D01*
X21356Y15771D01*
X19289Y17419D01*
X17419Y19289D01*
X15771Y21356D01*
X14364Y23595D01*
X13217Y25977D01*
X12344Y28473D01*
X11755Y31051D01*
X11596Y32461D01*
X32461Y32461D01*
X32461Y11596D01*
X31051Y11755D01*
G37*
%LPD*%
%LPC*%
G36*
X31051Y591755D02*
X31051Y591755D01*
X28473Y592344D01*
X25977Y593217D01*
X23595Y594364D01*
X21356Y595771D01*
X19289Y597419D01*
X17419Y599289D01*
X15771Y601356D01*
X14364Y603595D01*
X13217Y605977D01*
X12344Y608473D01*
X11755Y611051D01*
X11596Y612461D01*
X32461Y612461D01*
X32461Y591596D01*
X31051Y591755D01*
G37*
%LPD*%
%LPC*%
G36*
X521051Y591755D02*
X521051Y591755D01*
X518473Y592344D01*
X515977Y593217D01*
X513595Y594364D01*
X511356Y595771D01*
X509289Y597419D01*
X507419Y599289D01*
X505771Y601356D01*
X504364Y603595D01*
X503217Y605977D01*
X502344Y608473D01*
X501755Y611051D01*
X501596Y612461D01*
X522461Y612461D01*
X522461Y591596D01*
X521051Y591755D01*
G37*
%LPD*%
%LPC*%
G36*
X521051Y11755D02*
X521051Y11755D01*
X518473Y12344D01*
X515977Y13217D01*
X513595Y14364D01*
X511356Y15771D01*
X509289Y17419D01*
X507419Y19289D01*
X505771Y21356D01*
X504364Y23595D01*
X503217Y25977D01*
X502344Y28473D01*
X501755Y31051D01*
X501596Y32461D01*
X522461Y32461D01*
X522461Y11596D01*
X521051Y11755D01*
G37*
%LPD*%
%LPC*%
G36*
X136239Y79619D02*
X136239Y79619D01*
X136239Y99477D01*
X137482Y99337D01*
X139950Y98774D01*
X142340Y97938D01*
X144621Y96839D01*
X146764Y95492D01*
X148744Y93914D01*
X150534Y92124D01*
X152112Y90144D01*
X153459Y88001D01*
X154558Y85720D01*
X155394Y83330D01*
X155957Y80862D01*
X156097Y79619D01*
X136239Y79619D01*
G37*
%LPD*%
%LPC*%
G36*
X183239Y108619D02*
X183239Y108619D01*
X183239Y128477D01*
X184482Y128337D01*
X186950Y127774D01*
X189340Y126938D01*
X191621Y125839D01*
X193764Y124492D01*
X195744Y122914D01*
X197534Y121124D01*
X199112Y119144D01*
X200459Y117001D01*
X201558Y114720D01*
X202394Y112330D01*
X202957Y109862D01*
X203097Y108619D01*
X183239Y108619D01*
G37*
%LPD*%
%LPC*%
G36*
X111303Y79619D02*
X111303Y79619D01*
X111443Y80862D01*
X112006Y83330D01*
X112842Y85720D01*
X113941Y88001D01*
X113997Y88090D01*
X113997Y88091D01*
X115288Y90144D01*
X116866Y92124D01*
X118656Y93914D01*
X120636Y95492D01*
X122779Y96839D01*
X125060Y97938D01*
X127450Y98774D01*
X129918Y99337D01*
X131161Y99477D01*
X131161Y79619D01*
X111303Y79619D01*
G37*
%LPD*%
%LPC*%
G36*
X136239Y74541D02*
X136239Y74541D01*
X156097Y74541D01*
X155957Y73298D01*
X155394Y70830D01*
X154558Y68440D01*
X153459Y66159D01*
X152942Y65336D01*
X152144Y64067D01*
X152112Y64016D01*
X150534Y62036D01*
X148744Y60246D01*
X146764Y58668D01*
X144621Y57321D01*
X142340Y56222D01*
X139950Y55386D01*
X137482Y54823D01*
X136239Y54683D01*
X136239Y74541D01*
G37*
%LPD*%
%LPC*%
G36*
X183239Y103541D02*
X183239Y103541D01*
X203097Y103541D01*
X202957Y102298D01*
X202394Y99830D01*
X201558Y97440D01*
X200459Y95159D01*
X199112Y93016D01*
X197534Y91036D01*
X195744Y89246D01*
X193764Y87668D01*
X191621Y86321D01*
X189340Y85222D01*
X186950Y84386D01*
X184482Y83823D01*
X183239Y83683D01*
X183239Y103541D01*
G37*
%LPD*%
%LPC*%
G36*
X158303Y108619D02*
X158303Y108619D01*
X158443Y109862D01*
X159006Y112330D01*
X159842Y114720D01*
X160941Y117001D01*
X161916Y118553D01*
X162288Y119144D01*
X163866Y121124D01*
X165656Y122914D01*
X167636Y124492D01*
X169779Y125839D01*
X172060Y126938D01*
X174450Y127774D01*
X176918Y128337D01*
X178161Y128477D01*
X178161Y108619D01*
X158303Y108619D01*
G37*
%LPD*%
%LPC*%
G36*
X129918Y54823D02*
X129918Y54823D01*
X127450Y55386D01*
X125060Y56222D01*
X122779Y57321D01*
X120636Y58668D01*
X118656Y60246D01*
X116866Y62036D01*
X115288Y64016D01*
X113941Y66159D01*
X112842Y68440D01*
X112006Y70830D01*
X111443Y73298D01*
X111303Y74541D01*
X131161Y74541D01*
X131161Y54683D01*
X129918Y54823D01*
G37*
%LPD*%
%LPC*%
G36*
X176918Y83823D02*
X176918Y83823D01*
X174450Y84386D01*
X172060Y85222D01*
X169779Y86321D01*
X167636Y87668D01*
X165656Y89246D01*
X163866Y91036D01*
X162288Y93016D01*
X160941Y95159D01*
X159842Y97440D01*
X159006Y99830D01*
X158443Y102298D01*
X158303Y103541D01*
X178161Y103541D01*
X178161Y83683D01*
X176918Y83823D01*
G37*
%LPD*%
%LPC*%
G36*
X165821Y229615D02*
X165821Y229615D01*
X162460Y231007D01*
X159887Y233580D01*
X158495Y236941D01*
X158495Y240579D01*
X159887Y243940D01*
X162460Y246513D01*
X165821Y247905D01*
X169459Y247905D01*
X172820Y246513D01*
X175393Y243940D01*
X176785Y240579D01*
X176785Y236941D01*
X175393Y233580D01*
X172820Y231007D01*
X169459Y229615D01*
X165821Y229615D01*
G37*
%LPD*%
%LPC*%
G36*
X165821Y255015D02*
X165821Y255015D01*
X162460Y256407D01*
X159887Y258980D01*
X158495Y262341D01*
X158495Y265979D01*
X159887Y269340D01*
X162460Y271913D01*
X165821Y273305D01*
X169459Y273305D01*
X172820Y271913D01*
X175393Y269340D01*
X176785Y265979D01*
X176785Y262341D01*
X175393Y258980D01*
X172820Y256407D01*
X169459Y255015D01*
X165821Y255015D01*
G37*
%LPD*%
%LPC*%
G36*
X455400Y275431D02*
X455400Y275431D01*
X452074Y276809D01*
X449529Y279354D01*
X448151Y282680D01*
X448151Y286280D01*
X449529Y289606D01*
X452074Y292151D01*
X455400Y293529D01*
X459000Y293529D01*
X462326Y292151D01*
X464871Y289606D01*
X466249Y286280D01*
X466249Y282680D01*
X464871Y279354D01*
X462326Y276809D01*
X459000Y275431D01*
X455400Y275431D01*
G37*
%LPD*%
%LPC*%
G36*
X480800Y275431D02*
X480800Y275431D01*
X477474Y276809D01*
X474929Y279354D01*
X473551Y282680D01*
X473551Y286280D01*
X474929Y289606D01*
X477474Y292151D01*
X480800Y293529D01*
X484400Y293529D01*
X487726Y292151D01*
X490271Y289606D01*
X491649Y286280D01*
X491649Y282680D01*
X490271Y279354D01*
X487726Y276809D01*
X484400Y275431D01*
X480800Y275431D01*
G37*
%LPD*%
G36*
X30071Y116903D02*
X30071Y116903D01*
X30209Y116912D01*
X30228Y116918D01*
X30248Y116920D01*
X30380Y116967D01*
X30511Y117010D01*
X30529Y117021D01*
X30548Y117028D01*
X30663Y117106D01*
X30780Y117180D01*
X30794Y117195D01*
X30811Y117206D01*
X30903Y117310D01*
X30998Y117412D01*
X31008Y117429D01*
X31021Y117445D01*
X31084Y117568D01*
X31152Y117690D01*
X31157Y117710D01*
X31166Y117728D01*
X31196Y117864D01*
X31231Y117998D01*
X31233Y118026D01*
X31236Y118038D01*
X31235Y118059D01*
X31241Y118159D01*
X31241Y125892D01*
X31224Y126029D01*
X31211Y126168D01*
X31204Y126187D01*
X31201Y126207D01*
X31150Y126336D01*
X31103Y126467D01*
X31092Y126484D01*
X31084Y126503D01*
X31003Y126615D01*
X30925Y126730D01*
X30909Y126744D01*
X30898Y126760D01*
X30790Y126849D01*
X30686Y126941D01*
X30668Y126950D01*
X30653Y126963D01*
X30527Y127022D01*
X30403Y127085D01*
X30383Y127090D01*
X30365Y127099D01*
X30228Y127125D01*
X30093Y127155D01*
X30072Y127154D01*
X30053Y127158D01*
X29914Y127150D01*
X29775Y127145D01*
X29755Y127140D01*
X29735Y127139D01*
X29603Y127096D01*
X29469Y127057D01*
X29452Y127047D01*
X29433Y127041D01*
X29315Y126966D01*
X29195Y126895D01*
X29174Y126877D01*
X29164Y126870D01*
X29150Y126855D01*
X29074Y126789D01*
X28901Y126616D01*
X27607Y125676D01*
X26182Y124950D01*
X24821Y124507D01*
X24821Y133096D01*
X24806Y133214D01*
X24799Y133333D01*
X24786Y133371D01*
X24781Y133411D01*
X24738Y133522D01*
X24701Y133635D01*
X24679Y133669D01*
X24664Y133707D01*
X24594Y133803D01*
X24531Y133904D01*
X24501Y133932D01*
X24477Y133964D01*
X24386Y134040D01*
X24299Y134122D01*
X24264Y134141D01*
X24233Y134167D01*
X24125Y134218D01*
X24021Y134275D01*
X23981Y134286D01*
X23945Y134303D01*
X23828Y134325D01*
X23713Y134355D01*
X23652Y134359D01*
X23632Y134363D01*
X23612Y134361D01*
X23552Y134365D01*
X21012Y134365D01*
X20894Y134350D01*
X20775Y134343D01*
X20737Y134330D01*
X20696Y134325D01*
X20586Y134281D01*
X20473Y134245D01*
X20438Y134223D01*
X20401Y134208D01*
X20305Y134138D01*
X20204Y134075D01*
X20176Y134045D01*
X20143Y134021D01*
X20068Y133930D01*
X19986Y133843D01*
X19966Y133808D01*
X19941Y133776D01*
X19890Y133669D01*
X19832Y133564D01*
X19822Y133525D01*
X19805Y133489D01*
X19783Y133372D01*
X19753Y133257D01*
X19749Y133196D01*
X19745Y133176D01*
X19747Y133156D01*
X19743Y133096D01*
X19743Y124507D01*
X18382Y124950D01*
X16957Y125676D01*
X16494Y126012D01*
X16459Y126031D01*
X16429Y126056D01*
X16320Y126107D01*
X16215Y126165D01*
X16177Y126175D01*
X16141Y126192D01*
X16023Y126214D01*
X15907Y126244D01*
X15868Y126244D01*
X15828Y126252D01*
X15709Y126244D01*
X15589Y126244D01*
X15551Y126234D01*
X15511Y126232D01*
X15397Y126195D01*
X15281Y126165D01*
X15246Y126146D01*
X15209Y126134D01*
X15108Y126070D01*
X15003Y126012D01*
X14973Y125985D01*
X14940Y125964D01*
X14858Y125877D01*
X14771Y125795D01*
X14749Y125761D01*
X14722Y125732D01*
X14664Y125627D01*
X14600Y125526D01*
X14588Y125488D01*
X14568Y125454D01*
X14539Y125338D01*
X14501Y125224D01*
X14499Y125184D01*
X14489Y125146D01*
X14479Y124985D01*
X14479Y119181D01*
X14485Y119132D01*
X14483Y119082D01*
X14505Y118975D01*
X14519Y118866D01*
X14537Y118819D01*
X14547Y118771D01*
X14595Y118672D01*
X14636Y118570D01*
X14665Y118530D01*
X14687Y118485D01*
X14758Y118401D01*
X14822Y118313D01*
X14861Y118281D01*
X14893Y118243D01*
X14983Y118180D01*
X15067Y118110D01*
X15112Y118089D01*
X15153Y118060D01*
X15256Y118021D01*
X15355Y117974D01*
X15404Y117965D01*
X15450Y117947D01*
X15560Y117935D01*
X15667Y117914D01*
X15717Y117918D01*
X15766Y117912D01*
X15875Y117927D01*
X15985Y117934D01*
X16032Y117949D01*
X16081Y117956D01*
X16234Y118008D01*
X20160Y119635D01*
X24404Y119635D01*
X28325Y118011D01*
X29075Y117261D01*
X29184Y117176D01*
X29291Y117087D01*
X29310Y117079D01*
X29326Y117066D01*
X29454Y117011D01*
X29579Y116952D01*
X29599Y116948D01*
X29618Y116940D01*
X29756Y116918D01*
X29892Y116892D01*
X29912Y116893D01*
X29932Y116890D01*
X30071Y116903D01*
G37*
%LPC*%
G36*
X313608Y348801D02*
X313608Y348801D01*
X311109Y349836D01*
X309196Y351749D01*
X308161Y354248D01*
X308161Y356952D01*
X309196Y359451D01*
X311109Y361364D01*
X313608Y362399D01*
X316312Y362399D01*
X318811Y361364D01*
X320724Y359451D01*
X321759Y356952D01*
X321759Y354248D01*
X320724Y351749D01*
X318811Y349836D01*
X316312Y348801D01*
X313608Y348801D01*
G37*
%LPD*%
%LPC*%
G36*
X369488Y399601D02*
X369488Y399601D01*
X366989Y400636D01*
X365076Y402549D01*
X364041Y405048D01*
X364041Y407752D01*
X365076Y410251D01*
X366989Y412164D01*
X369488Y413199D01*
X372192Y413199D01*
X374691Y412164D01*
X376604Y410251D01*
X377639Y407752D01*
X377639Y405048D01*
X376604Y402549D01*
X374691Y400636D01*
X372192Y399601D01*
X369488Y399601D01*
G37*
%LPD*%
%LPC*%
G36*
X217088Y506281D02*
X217088Y506281D01*
X214589Y507316D01*
X212676Y509229D01*
X211641Y511728D01*
X211641Y514432D01*
X212676Y516931D01*
X214589Y518844D01*
X217088Y519879D01*
X219792Y519879D01*
X222291Y518844D01*
X224204Y516931D01*
X225239Y514432D01*
X225239Y511728D01*
X224204Y509229D01*
X222291Y507316D01*
X219792Y506281D01*
X217088Y506281D01*
G37*
%LPD*%
%LPC*%
G36*
X430448Y318321D02*
X430448Y318321D01*
X427949Y319356D01*
X426036Y321269D01*
X425001Y323768D01*
X425001Y326472D01*
X426036Y328971D01*
X427949Y330884D01*
X430448Y331919D01*
X433152Y331919D01*
X435651Y330884D01*
X437564Y328971D01*
X438599Y326472D01*
X438599Y323768D01*
X437564Y321269D01*
X435651Y319356D01*
X433152Y318321D01*
X430448Y318321D01*
G37*
%LPD*%
%LPC*%
G36*
X125648Y775521D02*
X125648Y775521D01*
X123149Y776556D01*
X121236Y778469D01*
X120201Y780968D01*
X120201Y783672D01*
X121236Y786171D01*
X123149Y788084D01*
X125648Y789119D01*
X128352Y789119D01*
X130851Y788084D01*
X132764Y786171D01*
X133799Y783672D01*
X133799Y780968D01*
X132764Y778469D01*
X130851Y776556D01*
X128352Y775521D01*
X125648Y775521D01*
G37*
%LPD*%
%LPC*%
G36*
X212008Y343721D02*
X212008Y343721D01*
X209509Y344756D01*
X207596Y346669D01*
X206561Y349168D01*
X206561Y351872D01*
X207596Y354371D01*
X209509Y356284D01*
X212008Y357319D01*
X214712Y357319D01*
X217211Y356284D01*
X219124Y354371D01*
X220159Y351872D01*
X220159Y349168D01*
X219124Y346669D01*
X217211Y344756D01*
X214712Y343721D01*
X212008Y343721D01*
G37*
%LPD*%
%LPC*%
G36*
X384728Y237041D02*
X384728Y237041D01*
X382229Y238076D01*
X380316Y239989D01*
X379281Y242488D01*
X379281Y245192D01*
X380316Y247691D01*
X382229Y249604D01*
X384728Y250639D01*
X387432Y250639D01*
X389931Y249604D01*
X391844Y247691D01*
X392879Y245192D01*
X392879Y242488D01*
X391844Y239989D01*
X389931Y238076D01*
X387432Y237041D01*
X384728Y237041D01*
G37*
%LPD*%
%LPC*%
G36*
X333928Y709481D02*
X333928Y709481D01*
X331429Y710516D01*
X329516Y712429D01*
X328481Y714928D01*
X328481Y717632D01*
X329516Y720131D01*
X331429Y722044D01*
X333928Y723079D01*
X336632Y723079D01*
X339131Y722044D01*
X341044Y720131D01*
X342079Y717632D01*
X342079Y714928D01*
X341044Y712429D01*
X339131Y710516D01*
X336632Y709481D01*
X333928Y709481D01*
G37*
%LPD*%
%LPC*%
G36*
X399968Y636631D02*
X399968Y636631D01*
X397469Y637666D01*
X395556Y639579D01*
X394521Y642078D01*
X394521Y644782D01*
X395556Y647281D01*
X397469Y649194D01*
X399968Y650229D01*
X402672Y650229D01*
X405171Y649194D01*
X407084Y647281D01*
X408119Y644782D01*
X408119Y642078D01*
X407084Y639579D01*
X405171Y637666D01*
X402672Y636631D01*
X399968Y636631D01*
G37*
%LPD*%
%LPC*%
G36*
X374568Y653601D02*
X374568Y653601D01*
X372069Y654636D01*
X370156Y656549D01*
X369121Y659048D01*
X369121Y661752D01*
X370156Y664251D01*
X372069Y666164D01*
X374568Y667199D01*
X377272Y667199D01*
X379771Y666164D01*
X381684Y664251D01*
X382719Y661752D01*
X382719Y659048D01*
X381684Y656549D01*
X379771Y654636D01*
X377272Y653601D01*
X374568Y653601D01*
G37*
%LPD*%
%LPC*%
G36*
X445688Y160841D02*
X445688Y160841D01*
X443189Y161876D01*
X441276Y163789D01*
X440241Y166288D01*
X440241Y168992D01*
X441276Y171491D01*
X443189Y173404D01*
X445688Y174439D01*
X448392Y174439D01*
X450891Y173404D01*
X452804Y171491D01*
X453839Y168992D01*
X453839Y166288D01*
X452804Y163789D01*
X450891Y161876D01*
X448392Y160841D01*
X445688Y160841D01*
G37*
%LPD*%
G36*
X23670Y134382D02*
X23670Y134382D01*
X23789Y134389D01*
X23827Y134402D01*
X23867Y134407D01*
X23978Y134451D01*
X24091Y134487D01*
X24126Y134509D01*
X24163Y134524D01*
X24259Y134594D01*
X24360Y134657D01*
X24388Y134687D01*
X24421Y134711D01*
X24496Y134802D01*
X24578Y134889D01*
X24598Y134924D01*
X24623Y134956D01*
X24674Y135063D01*
X24732Y135168D01*
X24742Y135207D01*
X24759Y135243D01*
X24781Y135360D01*
X24811Y135475D01*
X24815Y135536D01*
X24819Y135556D01*
X24817Y135576D01*
X24821Y135636D01*
X24821Y144225D01*
X26182Y143782D01*
X27607Y143056D01*
X28901Y142116D01*
X29074Y141943D01*
X29184Y141858D01*
X29291Y141769D01*
X29310Y141760D01*
X29326Y141748D01*
X29453Y141693D01*
X29579Y141633D01*
X29599Y141630D01*
X29618Y141622D01*
X29755Y141600D01*
X29892Y141574D01*
X29912Y141575D01*
X29932Y141572D01*
X30070Y141585D01*
X30209Y141593D01*
X30228Y141600D01*
X30248Y141602D01*
X30379Y141649D01*
X30511Y141691D01*
X30529Y141702D01*
X30548Y141709D01*
X30663Y141787D01*
X30780Y141862D01*
X30794Y141876D01*
X30811Y141888D01*
X30903Y141992D01*
X30998Y142093D01*
X31008Y142111D01*
X31021Y142126D01*
X31084Y142250D01*
X31152Y142372D01*
X31157Y142391D01*
X31166Y142409D01*
X31196Y142545D01*
X31231Y142680D01*
X31233Y142708D01*
X31236Y142720D01*
X31235Y142740D01*
X31241Y142840D01*
X31241Y150573D01*
X31224Y150711D01*
X31211Y150850D01*
X31204Y150869D01*
X31201Y150889D01*
X31151Y151017D01*
X31103Y151149D01*
X31092Y151166D01*
X31084Y151184D01*
X31003Y151297D01*
X30925Y151412D01*
X30909Y151425D01*
X30898Y151442D01*
X30790Y151531D01*
X30686Y151622D01*
X30668Y151632D01*
X30653Y151645D01*
X30527Y151704D01*
X30403Y151767D01*
X30383Y151771D01*
X30365Y151780D01*
X30228Y151806D01*
X30093Y151837D01*
X30072Y151836D01*
X30053Y151840D01*
X29914Y151831D01*
X29775Y151827D01*
X29755Y151821D01*
X29735Y151820D01*
X29603Y151777D01*
X29469Y151739D01*
X29452Y151728D01*
X29433Y151722D01*
X29315Y151648D01*
X29195Y151577D01*
X29174Y151558D01*
X29164Y151552D01*
X29150Y151537D01*
X29075Y151471D01*
X28325Y150722D01*
X26670Y150036D01*
X26583Y149986D01*
X26492Y149945D01*
X26412Y149889D01*
X26394Y149878D01*
X26385Y149869D01*
X26360Y149852D01*
X26342Y149837D01*
X25896Y149707D01*
X25882Y149701D01*
X25766Y149661D01*
X24404Y149097D01*
X23991Y149097D01*
X23892Y149085D01*
X23792Y149082D01*
X23696Y149060D01*
X23675Y149057D01*
X23664Y149053D01*
X23635Y149046D01*
X17696Y147311D01*
X17618Y147276D01*
X17535Y147252D01*
X17415Y147188D01*
X17404Y147184D01*
X17401Y147181D01*
X17393Y147177D01*
X17215Y147068D01*
X16930Y147025D01*
X16862Y147005D01*
X16791Y146995D01*
X16639Y146943D01*
X16373Y146833D01*
X16306Y146833D01*
X16208Y146820D01*
X16109Y146817D01*
X16051Y146801D01*
X15991Y146793D01*
X15899Y146757D01*
X15804Y146729D01*
X15751Y146698D01*
X15695Y146676D01*
X15615Y146618D01*
X15530Y146568D01*
X15454Y146501D01*
X15438Y146489D01*
X15430Y146480D01*
X15409Y146461D01*
X14850Y145903D01*
X14790Y145825D01*
X14722Y145752D01*
X14693Y145699D01*
X14656Y145652D01*
X14616Y145561D01*
X14568Y145474D01*
X14553Y145415D01*
X14529Y145360D01*
X14514Y145262D01*
X14489Y145166D01*
X14483Y145066D01*
X14479Y145046D01*
X14481Y145033D01*
X14479Y145005D01*
X14479Y143747D01*
X14484Y143707D01*
X14481Y143668D01*
X14504Y143550D01*
X14519Y143431D01*
X14533Y143394D01*
X14541Y143355D01*
X14592Y143247D01*
X14636Y143136D01*
X14659Y143104D01*
X14676Y143067D01*
X14752Y142975D01*
X14822Y142878D01*
X14853Y142853D01*
X14878Y142822D01*
X14975Y142752D01*
X15067Y142676D01*
X15104Y142659D01*
X15136Y142635D01*
X15247Y142591D01*
X15355Y142540D01*
X15394Y142533D01*
X15431Y142518D01*
X15550Y142503D01*
X15667Y142480D01*
X15707Y142483D01*
X15747Y142478D01*
X15866Y142493D01*
X15985Y142500D01*
X16023Y142512D01*
X16062Y142517D01*
X16174Y142561D01*
X16287Y142598D01*
X16321Y142619D01*
X16358Y142634D01*
X16494Y142720D01*
X16957Y143056D01*
X18382Y143782D01*
X19743Y144225D01*
X19743Y135636D01*
X19758Y135518D01*
X19765Y135399D01*
X19778Y135361D01*
X19783Y135321D01*
X19826Y135210D01*
X19863Y135097D01*
X19885Y135063D01*
X19900Y135025D01*
X19970Y134929D01*
X20033Y134828D01*
X20063Y134800D01*
X20086Y134768D01*
X20178Y134692D01*
X20265Y134610D01*
X20300Y134591D01*
X20331Y134565D01*
X20439Y134514D01*
X20543Y134457D01*
X20583Y134446D01*
X20619Y134429D01*
X20736Y134407D01*
X20851Y134377D01*
X20912Y134373D01*
X20932Y134369D01*
X20952Y134371D01*
X21012Y134367D01*
X23552Y134367D01*
X23670Y134382D01*
G37*
%LPC*%
G36*
X480059Y414019D02*
X480059Y414019D01*
X480059Y427158D01*
X480624Y427084D01*
X482634Y426545D01*
X484557Y425749D01*
X486359Y424708D01*
X488010Y423442D01*
X489482Y421970D01*
X490748Y420319D01*
X491789Y418517D01*
X492585Y416594D01*
X493124Y414584D01*
X493198Y414019D01*
X480059Y414019D01*
G37*
%LPD*%
%LPC*%
G36*
X530859Y464819D02*
X530859Y464819D01*
X530859Y477958D01*
X531424Y477884D01*
X533434Y477345D01*
X535357Y476549D01*
X537159Y475508D01*
X538810Y474242D01*
X540282Y472770D01*
X541548Y471119D01*
X542589Y469317D01*
X543385Y467394D01*
X543924Y465384D01*
X543998Y464819D01*
X530859Y464819D01*
G37*
%LPD*%
%LPC*%
G36*
X530859Y414019D02*
X530859Y414019D01*
X530859Y427158D01*
X531424Y427084D01*
X533434Y426545D01*
X535357Y425749D01*
X537159Y424708D01*
X538810Y423442D01*
X540282Y421970D01*
X541548Y420319D01*
X542589Y418517D01*
X543385Y416594D01*
X543924Y414584D01*
X543998Y414019D01*
X530859Y414019D01*
G37*
%LPD*%
%LPC*%
G36*
X480059Y464819D02*
X480059Y464819D01*
X480059Y477958D01*
X480624Y477884D01*
X482634Y477345D01*
X484557Y476549D01*
X486359Y475508D01*
X488010Y474242D01*
X489482Y472770D01*
X490748Y471119D01*
X491789Y469317D01*
X492585Y467394D01*
X493124Y465384D01*
X493198Y464819D01*
X480059Y464819D01*
G37*
%LPD*%
%LPC*%
G36*
X461842Y464819D02*
X461842Y464819D01*
X461916Y465384D01*
X462455Y467394D01*
X463251Y469317D01*
X464292Y471119D01*
X465558Y472770D01*
X467030Y474242D01*
X468681Y475508D01*
X470483Y476549D01*
X472406Y477345D01*
X474416Y477884D01*
X474981Y477958D01*
X474981Y464819D01*
X461842Y464819D01*
G37*
%LPD*%
%LPC*%
G36*
X461842Y414019D02*
X461842Y414019D01*
X461916Y414584D01*
X462455Y416594D01*
X463251Y418517D01*
X464292Y420319D01*
X465558Y421970D01*
X467030Y423442D01*
X468681Y424708D01*
X470483Y425749D01*
X472406Y426545D01*
X474416Y427084D01*
X474981Y427158D01*
X474981Y414019D01*
X461842Y414019D01*
G37*
%LPD*%
%LPC*%
G36*
X512642Y414019D02*
X512642Y414019D01*
X512716Y414584D01*
X513255Y416594D01*
X514051Y418517D01*
X515092Y420319D01*
X516358Y421970D01*
X517830Y423442D01*
X519481Y424708D01*
X521283Y425749D01*
X523206Y426545D01*
X525216Y427084D01*
X525781Y427158D01*
X525781Y414019D01*
X512642Y414019D01*
G37*
%LPD*%
%LPC*%
G36*
X512642Y464819D02*
X512642Y464819D01*
X512716Y465384D01*
X513255Y467394D01*
X514051Y469317D01*
X515092Y471119D01*
X516358Y472770D01*
X517830Y474242D01*
X519481Y475508D01*
X521283Y476549D01*
X523206Y477345D01*
X525216Y477884D01*
X525781Y477958D01*
X525781Y464819D01*
X512642Y464819D01*
G37*
%LPD*%
%LPC*%
G36*
X480059Y408941D02*
X480059Y408941D01*
X493198Y408941D01*
X493124Y408376D01*
X492585Y406366D01*
X491789Y404443D01*
X490748Y402641D01*
X489482Y400990D01*
X488010Y399518D01*
X486359Y398252D01*
X484557Y397211D01*
X482634Y396415D01*
X480624Y395876D01*
X480059Y395802D01*
X480059Y408941D01*
G37*
%LPD*%
%LPC*%
G36*
X480059Y459741D02*
X480059Y459741D01*
X493198Y459741D01*
X493124Y459176D01*
X492585Y457166D01*
X491789Y455243D01*
X490748Y453441D01*
X489482Y451790D01*
X488010Y450318D01*
X486359Y449052D01*
X484557Y448011D01*
X482634Y447215D01*
X480624Y446676D01*
X480059Y446602D01*
X480059Y459741D01*
G37*
%LPD*%
%LPC*%
G36*
X530859Y459741D02*
X530859Y459741D01*
X543998Y459741D01*
X543924Y459176D01*
X543385Y457166D01*
X542589Y455243D01*
X541548Y453441D01*
X540282Y451790D01*
X538810Y450318D01*
X537159Y449052D01*
X535357Y448011D01*
X533434Y447215D01*
X531424Y446676D01*
X530859Y446602D01*
X530859Y459741D01*
G37*
%LPD*%
%LPC*%
G36*
X530859Y408941D02*
X530859Y408941D01*
X543998Y408941D01*
X543924Y408376D01*
X543385Y406366D01*
X542589Y404443D01*
X541548Y402641D01*
X540282Y400990D01*
X538810Y399518D01*
X537159Y398252D01*
X535357Y397211D01*
X533434Y396415D01*
X531424Y395876D01*
X530859Y395802D01*
X530859Y408941D01*
G37*
%LPD*%
%LPC*%
G36*
X474416Y446676D02*
X474416Y446676D01*
X472406Y447215D01*
X470483Y448011D01*
X468681Y449052D01*
X467030Y450318D01*
X465558Y451790D01*
X464292Y453441D01*
X463251Y455243D01*
X462455Y457166D01*
X461916Y459176D01*
X461842Y459741D01*
X474981Y459741D01*
X474981Y446602D01*
X474416Y446676D01*
G37*
%LPD*%
%LPC*%
G36*
X525216Y446676D02*
X525216Y446676D01*
X523206Y447215D01*
X521283Y448011D01*
X519481Y449052D01*
X517830Y450318D01*
X516358Y451790D01*
X515092Y453441D01*
X514051Y455243D01*
X513255Y457166D01*
X512716Y459176D01*
X512642Y459741D01*
X525781Y459741D01*
X525781Y446602D01*
X525216Y446676D01*
G37*
%LPD*%
%LPC*%
G36*
X525216Y395876D02*
X525216Y395876D01*
X523206Y396415D01*
X521283Y397211D01*
X519481Y398252D01*
X517830Y399518D01*
X516358Y400990D01*
X515092Y402641D01*
X514051Y404443D01*
X513255Y406366D01*
X512716Y408376D01*
X512642Y408941D01*
X525781Y408941D01*
X525781Y395802D01*
X525216Y395876D01*
G37*
%LPD*%
%LPC*%
G36*
X474416Y395876D02*
X474416Y395876D01*
X472406Y396415D01*
X470483Y397211D01*
X468681Y398252D01*
X467030Y399518D01*
X465558Y400990D01*
X464292Y402641D01*
X463251Y404443D01*
X462455Y406366D01*
X461916Y408376D01*
X461842Y408941D01*
X474981Y408941D01*
X474981Y395802D01*
X474416Y395876D01*
G37*
%LPD*%
%LPC*%
G36*
X535939Y88899D02*
X535939Y88899D01*
X535939Y98560D01*
X536315Y98500D01*
X538178Y97895D01*
X539924Y97005D01*
X541508Y95854D01*
X542894Y94468D01*
X544045Y92884D01*
X544935Y91138D01*
X545540Y89275D01*
X545600Y88899D01*
X535939Y88899D01*
G37*
%LPD*%
%LPC*%
G36*
X535939Y83821D02*
X535939Y83821D01*
X545600Y83821D01*
X545540Y83445D01*
X544935Y81582D01*
X544045Y79836D01*
X542894Y78252D01*
X541508Y76866D01*
X539924Y75715D01*
X538178Y74825D01*
X536315Y74220D01*
X535939Y74160D01*
X535939Y83821D01*
G37*
%LPD*%
%LPC*%
G36*
X521200Y88899D02*
X521200Y88899D01*
X521260Y89275D01*
X521865Y91138D01*
X522755Y92884D01*
X523906Y94468D01*
X525292Y95854D01*
X526876Y97005D01*
X528622Y97895D01*
X530485Y98500D01*
X530861Y98560D01*
X530861Y88899D01*
X521200Y88899D01*
G37*
%LPD*%
%LPC*%
G36*
X530485Y74220D02*
X530485Y74220D01*
X528622Y74825D01*
X526876Y75715D01*
X525292Y76866D01*
X523906Y78252D01*
X522755Y79836D01*
X521865Y81582D01*
X521260Y83445D01*
X521200Y83821D01*
X530861Y83821D01*
X530861Y74160D01*
X530485Y74220D01*
G37*
%LPD*%
%LPC*%
G36*
X50221Y187705D02*
X50221Y187705D01*
X50221Y195025D01*
X51582Y194582D01*
X53007Y193856D01*
X54301Y192916D01*
X55432Y191785D01*
X56372Y190491D01*
X57098Y189066D01*
X57541Y187705D01*
X50221Y187705D01*
G37*
%LPD*%
%LPC*%
G36*
X24821Y238505D02*
X24821Y238505D01*
X24821Y245825D01*
X26182Y245382D01*
X27607Y244656D01*
X28901Y243716D01*
X30032Y242585D01*
X30972Y241291D01*
X31698Y239866D01*
X32141Y238505D01*
X24821Y238505D01*
G37*
%LPD*%
%LPC*%
G36*
X24821Y289305D02*
X24821Y289305D01*
X24821Y296625D01*
X26182Y296182D01*
X27607Y295456D01*
X28901Y294516D01*
X30032Y293385D01*
X30972Y292091D01*
X31698Y290666D01*
X32141Y289305D01*
X24821Y289305D01*
G37*
%LPD*%
%LPC*%
G36*
X50221Y390905D02*
X50221Y390905D01*
X50221Y398225D01*
X51582Y397782D01*
X53007Y397056D01*
X54301Y396116D01*
X55432Y394985D01*
X56372Y393691D01*
X57098Y392266D01*
X57541Y390905D01*
X50221Y390905D01*
G37*
%LPD*%
%LPC*%
G36*
X24821Y492505D02*
X24821Y492505D01*
X24821Y499825D01*
X26182Y499382D01*
X27607Y498656D01*
X28901Y497716D01*
X30032Y496585D01*
X30972Y495291D01*
X31698Y493866D01*
X32141Y492505D01*
X24821Y492505D01*
G37*
%LPD*%
%LPC*%
G36*
X24821Y441705D02*
X24821Y441705D01*
X24821Y449025D01*
X26182Y448582D01*
X27607Y447856D01*
X28901Y446916D01*
X30032Y445785D01*
X30972Y444491D01*
X31698Y443066D01*
X32141Y441705D01*
X24821Y441705D01*
G37*
%LPD*%
%LPC*%
G36*
X37823Y390905D02*
X37823Y390905D01*
X38266Y392266D01*
X38992Y393691D01*
X39932Y394985D01*
X41063Y396116D01*
X42357Y397056D01*
X43782Y397782D01*
X45143Y398225D01*
X45143Y390905D01*
X37823Y390905D01*
G37*
%LPD*%
%LPC*%
G36*
X12423Y289305D02*
X12423Y289305D01*
X12866Y290666D01*
X13592Y292091D01*
X14532Y293385D01*
X15663Y294516D01*
X16957Y295456D01*
X18382Y296182D01*
X19743Y296625D01*
X19743Y289305D01*
X12423Y289305D01*
G37*
%LPD*%
%LPC*%
G36*
X24821Y284227D02*
X24821Y284227D01*
X32141Y284227D01*
X31698Y282866D01*
X30972Y281441D01*
X30032Y280147D01*
X28901Y279016D01*
X27607Y278076D01*
X26182Y277350D01*
X24821Y276907D01*
X24821Y284227D01*
G37*
%LPD*%
%LPC*%
G36*
X24821Y436627D02*
X24821Y436627D01*
X32141Y436627D01*
X31698Y435266D01*
X30972Y433841D01*
X30032Y432547D01*
X28901Y431416D01*
X27607Y430476D01*
X26182Y429750D01*
X24821Y429307D01*
X24821Y436627D01*
G37*
%LPD*%
%LPC*%
G36*
X12423Y441705D02*
X12423Y441705D01*
X12866Y443066D01*
X13592Y444491D01*
X14532Y445785D01*
X15663Y446916D01*
X16957Y447856D01*
X18382Y448582D01*
X19743Y449025D01*
X19743Y441705D01*
X12423Y441705D01*
G37*
%LPD*%
%LPC*%
G36*
X12423Y492505D02*
X12423Y492505D01*
X12866Y493866D01*
X13592Y495291D01*
X14532Y496585D01*
X15663Y497716D01*
X16957Y498656D01*
X18382Y499382D01*
X19743Y499825D01*
X19743Y492505D01*
X12423Y492505D01*
G37*
%LPD*%
%LPC*%
G36*
X24821Y487427D02*
X24821Y487427D01*
X32141Y487427D01*
X31698Y486066D01*
X30972Y484641D01*
X30032Y483347D01*
X28901Y482216D01*
X27607Y481276D01*
X26182Y480550D01*
X24821Y480107D01*
X24821Y487427D01*
G37*
%LPD*%
%LPC*%
G36*
X50221Y182627D02*
X50221Y182627D01*
X57541Y182627D01*
X57098Y181266D01*
X56372Y179841D01*
X55432Y178547D01*
X54301Y177416D01*
X53007Y176476D01*
X51582Y175750D01*
X50221Y175307D01*
X50221Y182627D01*
G37*
%LPD*%
%LPC*%
G36*
X12423Y238505D02*
X12423Y238505D01*
X12866Y239866D01*
X13592Y241291D01*
X14532Y242585D01*
X15663Y243716D01*
X16957Y244656D01*
X18382Y245382D01*
X19743Y245825D01*
X19743Y238505D01*
X12423Y238505D01*
G37*
%LPD*%
%LPC*%
G36*
X37823Y187705D02*
X37823Y187705D01*
X38266Y189066D01*
X38992Y190491D01*
X39932Y191785D01*
X41063Y192916D01*
X42357Y193856D01*
X43782Y194582D01*
X45143Y195025D01*
X45143Y187705D01*
X37823Y187705D01*
G37*
%LPD*%
%LPC*%
G36*
X24821Y233427D02*
X24821Y233427D01*
X32141Y233427D01*
X31698Y232066D01*
X30972Y230641D01*
X30032Y229347D01*
X28901Y228216D01*
X27607Y227276D01*
X26182Y226550D01*
X24821Y226107D01*
X24821Y233427D01*
G37*
%LPD*%
%LPC*%
G36*
X50221Y385827D02*
X50221Y385827D01*
X57541Y385827D01*
X57098Y384466D01*
X56372Y383041D01*
X55432Y381747D01*
X54301Y380616D01*
X53007Y379676D01*
X51582Y378950D01*
X50221Y378507D01*
X50221Y385827D01*
G37*
%LPD*%
%LPC*%
G36*
X18382Y429750D02*
X18382Y429750D01*
X16957Y430476D01*
X15925Y431225D01*
X15925Y431226D01*
X15663Y431416D01*
X14532Y432547D01*
X13592Y433841D01*
X12866Y435266D01*
X12423Y436627D01*
X19743Y436627D01*
X19743Y429307D01*
X18382Y429750D01*
G37*
%LPD*%
%LPC*%
G36*
X18382Y277350D02*
X18382Y277350D01*
X16957Y278076D01*
X15801Y278915D01*
X15801Y278916D01*
X15663Y279016D01*
X14532Y280147D01*
X13592Y281441D01*
X12866Y282866D01*
X12423Y284227D01*
X19743Y284227D01*
X19743Y276907D01*
X18382Y277350D01*
G37*
%LPD*%
%LPC*%
G36*
X43782Y175750D02*
X43782Y175750D01*
X42357Y176476D01*
X41063Y177416D01*
X39932Y178547D01*
X38992Y179841D01*
X38266Y181266D01*
X37823Y182627D01*
X45143Y182627D01*
X45143Y175307D01*
X43782Y175750D01*
G37*
%LPD*%
%LPC*%
G36*
X43782Y378950D02*
X43782Y378950D01*
X42357Y379676D01*
X41063Y380616D01*
X39932Y381747D01*
X38992Y383041D01*
X38266Y384466D01*
X37823Y385827D01*
X45143Y385827D01*
X45143Y378507D01*
X43782Y378950D01*
G37*
%LPD*%
%LPC*%
G36*
X18382Y480550D02*
X18382Y480550D01*
X16957Y481276D01*
X15663Y482216D01*
X14532Y483347D01*
X13592Y484641D01*
X12866Y486066D01*
X12423Y487427D01*
X19743Y487427D01*
X19743Y480107D01*
X18382Y480550D01*
G37*
%LPD*%
%LPC*%
G36*
X18382Y226550D02*
X18382Y226550D01*
X16957Y227276D01*
X15663Y228216D01*
X14532Y229347D01*
X13592Y230641D01*
X12866Y232066D01*
X12423Y233427D01*
X19743Y233427D01*
X19743Y226107D01*
X18382Y226550D01*
G37*
%LPD*%
%LPC*%
G36*
X525739Y711159D02*
X525739Y711159D01*
X525739Y718405D01*
X527094Y717965D01*
X528502Y717248D01*
X529781Y716319D01*
X530899Y715201D01*
X531828Y713922D01*
X532545Y712514D01*
X532985Y711159D01*
X525739Y711159D01*
G37*
%LPD*%
%LPC*%
G36*
X525739Y787359D02*
X525739Y787359D01*
X525739Y794605D01*
X527094Y794165D01*
X528502Y793448D01*
X529781Y792519D01*
X530899Y791401D01*
X531828Y790122D01*
X532545Y788714D01*
X532985Y787359D01*
X525739Y787359D01*
G37*
%LPD*%
%LPC*%
G36*
X513495Y711159D02*
X513495Y711159D01*
X513935Y712514D01*
X514652Y713922D01*
X515581Y715201D01*
X516699Y716319D01*
X517978Y717248D01*
X519386Y717965D01*
X520741Y718405D01*
X520741Y711159D01*
X513495Y711159D01*
G37*
%LPD*%
%LPC*%
G36*
X513495Y787359D02*
X513495Y787359D01*
X513935Y788714D01*
X514652Y790122D01*
X515581Y791401D01*
X516699Y792519D01*
X517978Y793448D01*
X519386Y794165D01*
X520741Y794605D01*
X520741Y787359D01*
X513495Y787359D01*
G37*
%LPD*%
%LPC*%
G36*
X525739Y782361D02*
X525739Y782361D01*
X532985Y782361D01*
X532545Y781006D01*
X531828Y779598D01*
X530899Y778319D01*
X529781Y777201D01*
X528502Y776272D01*
X527094Y775555D01*
X525739Y775115D01*
X525739Y782361D01*
G37*
%LPD*%
%LPC*%
G36*
X525739Y706161D02*
X525739Y706161D01*
X532985Y706161D01*
X532545Y704806D01*
X531828Y703398D01*
X530899Y702119D01*
X529781Y701001D01*
X528502Y700072D01*
X527094Y699355D01*
X525739Y698915D01*
X525739Y706161D01*
G37*
%LPD*%
%LPC*%
G36*
X519386Y775555D02*
X519386Y775555D01*
X517978Y776272D01*
X516699Y777201D01*
X515581Y778319D01*
X514652Y779598D01*
X513935Y781006D01*
X513495Y782361D01*
X520741Y782361D01*
X520741Y775115D01*
X519386Y775555D01*
G37*
%LPD*%
%LPC*%
G36*
X519386Y699355D02*
X519386Y699355D01*
X517978Y700072D01*
X516699Y701001D01*
X515581Y702119D01*
X514652Y703398D01*
X513935Y704806D01*
X513495Y706161D01*
X520741Y706161D01*
X520741Y698915D01*
X519386Y699355D01*
G37*
%LPD*%
%LPC*%
G36*
X169671Y291591D02*
X169671Y291591D01*
X169671Y297962D01*
X170159Y297865D01*
X171731Y297214D01*
X173146Y296269D01*
X174349Y295066D01*
X175294Y293651D01*
X175945Y292079D01*
X176042Y291591D01*
X169671Y291591D01*
G37*
%LPD*%
%LPC*%
G36*
X169671Y215391D02*
X169671Y215391D01*
X169671Y221762D01*
X170159Y221665D01*
X171731Y221014D01*
X173146Y220069D01*
X174349Y218866D01*
X175294Y217451D01*
X175945Y215879D01*
X176042Y215391D01*
X169671Y215391D01*
G37*
%LPD*%
%LPC*%
G36*
X159238Y291591D02*
X159238Y291591D01*
X159335Y292079D01*
X159986Y293651D01*
X160931Y295066D01*
X162134Y296269D01*
X163549Y297214D01*
X165121Y297865D01*
X165609Y297962D01*
X165609Y291591D01*
X159238Y291591D01*
G37*
%LPD*%
%LPC*%
G36*
X159238Y215391D02*
X159238Y215391D01*
X159335Y215879D01*
X159986Y217451D01*
X160931Y218866D01*
X162134Y220069D01*
X163549Y221014D01*
X165121Y221665D01*
X165609Y221762D01*
X165609Y215391D01*
X159238Y215391D01*
G37*
%LPD*%
%LPC*%
G36*
X169671Y287529D02*
X169671Y287529D01*
X176042Y287529D01*
X175945Y287041D01*
X175294Y285469D01*
X174349Y284054D01*
X173146Y282851D01*
X171731Y281906D01*
X170159Y281255D01*
X169671Y281158D01*
X169671Y287529D01*
G37*
%LPD*%
%LPC*%
G36*
X169671Y211329D02*
X169671Y211329D01*
X176042Y211329D01*
X175945Y210841D01*
X175294Y209269D01*
X174349Y207854D01*
X173146Y206651D01*
X171731Y205706D01*
X170159Y205055D01*
X169671Y204958D01*
X169671Y211329D01*
G37*
%LPD*%
%LPC*%
G36*
X165121Y281255D02*
X165121Y281255D01*
X163549Y281906D01*
X162134Y282851D01*
X160931Y284054D01*
X159986Y285469D01*
X159335Y287041D01*
X159238Y287529D01*
X165609Y287529D01*
X165609Y281158D01*
X165121Y281255D01*
G37*
%LPD*%
%LPC*%
G36*
X165121Y205055D02*
X165121Y205055D01*
X163549Y205706D01*
X162134Y206651D01*
X160931Y207854D01*
X159986Y209269D01*
X159335Y210841D01*
X159238Y211329D01*
X165609Y211329D01*
X165609Y204958D01*
X165121Y205055D01*
G37*
%LPD*%
%LPC*%
G36*
X433799Y286479D02*
X433799Y286479D01*
X433799Y292790D01*
X434291Y292692D01*
X435846Y292049D01*
X437244Y291114D01*
X438434Y289924D01*
X439369Y288526D01*
X440012Y286971D01*
X440110Y286479D01*
X433799Y286479D01*
G37*
%LPD*%
%LPC*%
G36*
X433799Y282481D02*
X433799Y282481D01*
X440110Y282481D01*
X440012Y281989D01*
X439369Y280434D01*
X438434Y279036D01*
X437244Y277846D01*
X435846Y276911D01*
X434291Y276268D01*
X433799Y276170D01*
X433799Y282481D01*
G37*
%LPD*%
%LPC*%
G36*
X423490Y286479D02*
X423490Y286479D01*
X423588Y286971D01*
X424231Y288526D01*
X425166Y289924D01*
X426356Y291114D01*
X427754Y292049D01*
X429309Y292692D01*
X429801Y292790D01*
X429801Y286479D01*
X423490Y286479D01*
G37*
%LPD*%
%LPC*%
G36*
X429309Y276268D02*
X429309Y276268D01*
X427754Y276911D01*
X426356Y277846D01*
X425166Y279036D01*
X424231Y280434D01*
X423588Y281989D01*
X423490Y282481D01*
X429801Y282481D01*
X429801Y276170D01*
X429309Y276268D01*
G37*
%LPD*%
%LPC*%
G36*
X22281Y235965D02*
X22281Y235965D01*
X22281Y235967D01*
X22283Y235967D01*
X22283Y235965D01*
X22281Y235965D01*
G37*
%LPD*%
%LPC*%
G36*
X524999Y614999D02*
X524999Y614999D01*
X524999Y615001D01*
X525001Y615001D01*
X525001Y614999D01*
X524999Y614999D01*
G37*
%LPD*%
%LPC*%
G36*
X34999Y614999D02*
X34999Y614999D01*
X34999Y615001D01*
X35001Y615001D01*
X35001Y614999D01*
X34999Y614999D01*
G37*
%LPD*%
%LPC*%
G36*
X133699Y77079D02*
X133699Y77079D01*
X133699Y77081D01*
X133701Y77081D01*
X133701Y77079D01*
X133699Y77079D01*
G37*
%LPD*%
%LPC*%
G36*
X47681Y388365D02*
X47681Y388365D01*
X47681Y388367D01*
X47683Y388367D01*
X47683Y388365D01*
X47681Y388365D01*
G37*
%LPD*%
%LPC*%
G36*
X477519Y462279D02*
X477519Y462279D01*
X477519Y462281D01*
X477521Y462281D01*
X477521Y462279D01*
X477519Y462279D01*
G37*
%LPD*%
%LPC*%
G36*
X533399Y86359D02*
X533399Y86359D01*
X533399Y86361D01*
X533401Y86361D01*
X533401Y86359D01*
X533399Y86359D01*
G37*
%LPD*%
%LPC*%
G36*
X22281Y286765D02*
X22281Y286765D01*
X22281Y286767D01*
X22283Y286767D01*
X22283Y286765D01*
X22281Y286765D01*
G37*
%LPD*%
%LPC*%
G36*
X47681Y185165D02*
X47681Y185165D01*
X47681Y185167D01*
X47683Y185167D01*
X47683Y185165D01*
X47681Y185165D01*
G37*
%LPD*%
%LPC*%
G36*
X528319Y411479D02*
X528319Y411479D01*
X528319Y411481D01*
X528321Y411481D01*
X528321Y411479D01*
X528319Y411479D01*
G37*
%LPD*%
%LPC*%
G36*
X528319Y462279D02*
X528319Y462279D01*
X528319Y462281D01*
X528321Y462281D01*
X528321Y462279D01*
X528319Y462279D01*
G37*
%LPD*%
%LPC*%
G36*
X524999Y34999D02*
X524999Y34999D01*
X524999Y35001D01*
X525001Y35001D01*
X525001Y34999D01*
X524999Y34999D01*
G37*
%LPD*%
%LPC*%
G36*
X34999Y34999D02*
X34999Y34999D01*
X34999Y35001D01*
X35001Y35001D01*
X35001Y34999D01*
X34999Y34999D01*
G37*
%LPD*%
%LPC*%
G36*
X477519Y411479D02*
X477519Y411479D01*
X477519Y411481D01*
X477521Y411481D01*
X477521Y411479D01*
X477519Y411479D01*
G37*
%LPD*%
%LPC*%
G36*
X180699Y106079D02*
X180699Y106079D01*
X180699Y106081D01*
X180701Y106081D01*
X180701Y106079D01*
X180699Y106079D01*
G37*
%LPD*%
%LPC*%
G36*
X22281Y489965D02*
X22281Y489965D01*
X22281Y489967D01*
X22283Y489967D01*
X22283Y489965D01*
X22281Y489965D01*
G37*
%LPD*%
%LPC*%
G36*
X22281Y439165D02*
X22281Y439165D01*
X22281Y439167D01*
X22283Y439167D01*
X22283Y439165D01*
X22281Y439165D01*
G37*
%LPD*%
D10*
X180700Y106080D03*
X133700Y136080D03*
X133700Y77080D03*
D11*
X47700Y83700D03*
X22282Y83566D03*
X47682Y108966D03*
X22282Y108966D03*
X47682Y134366D03*
X22282Y134366D03*
X47682Y159766D03*
X22282Y159766D03*
X47682Y185166D03*
X22282Y185166D03*
X47682Y210566D03*
X22282Y210566D03*
X47682Y235966D03*
X22282Y235966D03*
X47682Y261366D03*
X22282Y261366D03*
X47682Y286766D03*
X22282Y286766D03*
X47682Y312166D03*
X22282Y312166D03*
X47682Y337566D03*
X22282Y337566D03*
X47682Y362966D03*
X22282Y362966D03*
X47682Y388366D03*
X22282Y388366D03*
X47682Y413766D03*
X22282Y413766D03*
X47682Y439166D03*
X22282Y439166D03*
X47682Y464566D03*
X22282Y464566D03*
X47682Y489966D03*
X22282Y489966D03*
X47682Y515366D03*
X22282Y515366D03*
X47682Y540766D03*
X22282Y540766D03*
X47682Y566166D03*
X22282Y566166D03*
D12*
X35000Y35000D03*
X525000Y35000D03*
X525000Y615000D03*
X35000Y615000D03*
D13*
X447040Y40640D03*
X345440Y40640D03*
X396240Y40640D03*
X370840Y40640D03*
X421640Y40640D03*
D14*
X457200Y284480D03*
X431800Y284480D03*
X482600Y284480D03*
D15*
X167640Y213360D03*
X167640Y238760D03*
X167640Y264160D03*
X167640Y289560D03*
D16*
X523240Y734060D03*
X523240Y759460D03*
X523240Y784860D03*
X523240Y810260D03*
X523240Y708660D03*
X523240Y683260D03*
D17*
X477520Y462280D03*
X477520Y411480D03*
X528320Y411480D03*
X528320Y462280D03*
X502920Y436880D03*
D13*
X533400Y238760D03*
X533400Y86360D03*
X497840Y172720D03*
X447040Y71120D03*
X345440Y71120D03*
X370840Y71120D03*
X396240Y71120D03*
X421640Y71120D03*
X533400Y309880D03*
D18*
X25400Y660400D03*
X81280Y121920D03*
X111760Y457200D03*
X431800Y785924D03*
X421640Y731520D03*
X345440Y650240D03*
X370840Y558800D03*
X370840Y629920D03*
X127000Y411480D03*
X447040Y198120D03*
X289560Y320040D03*
X335280Y294640D03*
X213360Y55880D03*
X528320Y345440D03*
X162560Y624840D03*
X462280Y695960D03*
X203200Y370840D03*
X467360Y162560D03*
X508000Y193040D03*
D19*
X71120Y91440D02*
X66040Y96520D01*
X40640Y96520D01*
X35560Y101600D01*
X35560Y171888D02*
X29466Y177982D01*
X22282Y185166D01*
X111760Y30480D02*
X274320Y30480D01*
X111760Y30480D02*
X71120Y71120D01*
X71120Y91440D01*
X35560Y101600D02*
X35560Y171888D01*
D18*
X375920Y142240D03*
D19*
X370670Y142240D01*
X335280Y142240D01*
X314960Y71120D02*
X274320Y30480D01*
X314960Y121920D02*
X335280Y142240D01*
X314960Y121920D02*
X314960Y71120D01*
X370670Y142240D02*
X370670Y142240D01*
X374748Y140054D01*
X374748Y144426D02*
X370670Y142240D01*
X374748Y144426D02*
X374749Y144426D01*
X375920Y142240D01*
X370670Y142240D02*
X370670Y142240D01*
X374748Y140054D01*
X374748Y140054D01*
X370670Y142240D02*
X370670Y142240D01*
X374748Y140054D01*
X374749Y140054D01*
X375920Y142240D01*
X374748Y144426D02*
X370670Y142240D01*
X374748Y140054D01*
X375920Y142240D01*
X374748Y144426D02*
X370670Y142240D01*
X374748Y144426D02*
X374748Y144426D01*
X375920Y142240D01*
X374748Y140054D02*
X370670Y142240D01*
X374748Y140054D02*
X375920Y142240D01*
X374748Y144426D02*
X370670Y142240D01*
X374748Y144426D02*
X375920Y142240D01*
D20*
X29466Y177982D02*
X27189Y186481D01*
X22282Y185166D01*
X20967Y180259D02*
X29466Y177982D01*
X20967Y180259D02*
X22282Y185166D01*
D19*
X22282Y159766D02*
X22282Y159442D01*
X15262Y152422D01*
X10160Y147320D01*
X10160Y76200D02*
X20320Y66040D01*
X66040Y66040D01*
X10160Y76200D02*
X10160Y147320D01*
X66040Y66040D02*
X106680Y25400D01*
X279400Y25400D01*
D18*
X365760Y132080D03*
D19*
X320040Y66040D02*
X279400Y25400D01*
X320040Y116840D02*
X335280Y132080D01*
X360510Y132080D01*
X365760Y132080D01*
X320040Y116840D02*
X320040Y66040D01*
X360510Y132080D02*
X360510Y132080D01*
X364588Y129894D01*
X364588Y134266D02*
X360510Y132080D01*
X364588Y134266D02*
X364589Y134266D01*
X365760Y132080D01*
X360510Y132080D02*
X360510Y132080D01*
X364588Y129894D01*
X364588Y129894D01*
X360510Y132080D02*
X360510Y132080D01*
X364588Y129894D01*
X364589Y129894D01*
X365760Y132080D01*
X364588Y134266D02*
X360510Y132080D01*
X364588Y129894D01*
X365760Y132080D01*
X364588Y134266D02*
X360510Y132080D01*
X364588Y134266D02*
X364588Y134266D01*
X365760Y132080D01*
X364588Y129894D02*
X360510Y132080D01*
X364588Y129894D02*
X365760Y132080D01*
X364588Y134266D02*
X360510Y132080D01*
X364588Y134266D02*
X365760Y132080D01*
D20*
X15262Y152422D02*
X15262Y152422D01*
X23707Y154890D01*
X22282Y159766D01*
X15262Y152422D02*
X15262Y152422D01*
X17347Y160970D01*
X15262Y152422D02*
X23707Y154890D01*
X15262Y152422D02*
X17347Y160970D01*
X22282Y159766D01*
X23707Y154890D02*
X15262Y152422D01*
X23707Y154890D02*
X22282Y159766D01*
X17347Y160970D02*
X15262Y152422D01*
X17347Y160970D02*
X22282Y159766D01*
D18*
X111760Y431800D03*
X314960Y355600D03*
X447040Y167640D03*
X431800Y325120D03*
X218440Y513080D03*
X238760Y447040D03*
X386080Y243840D03*
X370840Y406400D03*
X375920Y660400D03*
X242380Y604520D03*
X127000Y782320D03*
X25400Y741680D03*
D19*
X29466Y573350D02*
X22282Y566166D01*
X29466Y573350D02*
X35236Y579120D01*
X96520Y726440D02*
X81280Y741680D01*
X30650Y741680D01*
X25400Y741680D01*
X35236Y579120D02*
X81280Y579120D01*
X96520Y594360D01*
X96520Y726440D01*
X30650Y741680D02*
X30650Y741680D01*
X26572Y743866D01*
X26572Y743866D01*
X30650Y741680D02*
X30650Y741680D01*
X26572Y743866D01*
X25400Y741680D01*
X30650Y741680D02*
X30650Y741680D01*
X26572Y739494D01*
X26572Y739494D01*
X30650Y741680D02*
X30650Y741680D01*
X26572Y739494D01*
X25400Y741680D01*
X26572Y739494D02*
X30650Y741680D01*
X26572Y739494D02*
X26571Y739494D01*
X26572Y743866D02*
X30650Y741680D01*
X26572Y743866D02*
X26571Y743866D01*
X25400Y741680D01*
X26572Y739494D02*
X30650Y741680D01*
X26572Y739494D02*
X25400Y741680D01*
X26572Y743866D02*
X30650Y741680D01*
X26572Y743866D02*
X25400Y741680D01*
X26571Y739494D02*
X30650Y741680D01*
X26571Y739494D02*
X25400Y741680D01*
D20*
X29466Y573350D02*
X20967Y571073D01*
X22282Y566166D01*
X27189Y564851D02*
X29466Y573350D01*
X27189Y564851D02*
X22282Y566166D01*
D18*
X193040Y802640D03*
D21*
X29466Y547950D02*
X22282Y540766D01*
X29466Y547950D02*
X35236Y553720D01*
X76200Y553720D01*
X101600Y579120D01*
X101600Y726440D02*
X116840Y741680D01*
X182880Y741680D01*
X193040Y751840D01*
X193040Y797390D01*
X193040Y797390D01*
X193040Y802640D01*
X101600Y726440D02*
X101600Y579120D01*
X193040Y797390D02*
X193040Y797390D01*
X195374Y801216D01*
X193040Y797390D02*
X193040Y797390D01*
X190706Y801216D01*
X193040Y797390D02*
X195374Y801216D01*
X193040Y797390D02*
X193040Y797390D01*
X190706Y801216D01*
X193040Y802640D01*
X190706Y801216D02*
X193040Y797390D01*
X195374Y801216D01*
X193040Y802640D01*
X190706Y801216D02*
X193040Y797390D01*
X190706Y801216D02*
X190706Y801216D01*
X193040Y802640D01*
X195374Y801216D02*
X193040Y797390D01*
X190706Y801216D01*
X193040Y802640D01*
X195374Y801216D02*
X193040Y797390D01*
X195374Y801216D02*
X193040Y802640D01*
X190706Y801216D02*
X193040Y797390D01*
X190706Y801216D02*
X193040Y802640D01*
D22*
X29466Y547950D02*
X21155Y546239D01*
X22282Y540766D01*
X27755Y539639D02*
X29466Y547950D01*
X27755Y539639D02*
X22282Y540766D01*
D18*
X304800Y716280D03*
D23*
X308512Y719992D01*
X320040Y731520D01*
X370840Y731520D02*
X381000Y721360D01*
X381000Y690880D01*
X365760Y675640D01*
X370840Y731520D02*
X320040Y731520D01*
X279400Y675640D02*
X264160Y660400D01*
X279400Y675640D02*
X365760Y675640D01*
X57842Y210566D02*
X47682Y210566D01*
X57842Y210566D02*
X57842Y210566D01*
X83566Y210566D01*
X106680Y233680D01*
X106680Y370840D02*
X127000Y391160D01*
X238760Y391160D01*
X264160Y416560D01*
X106680Y370840D02*
X106680Y233680D01*
X264160Y416560D02*
X264160Y660400D01*
X304162Y718955D02*
X308512Y719992D01*
X304162Y718955D02*
X304800Y716280D01*
X307475Y715642D02*
X308512Y719992D01*
X307475Y715642D02*
X304800Y716280D01*
D24*
X50791Y215248D02*
X57842Y210566D01*
X50791Y215248D02*
X47682Y210566D01*
X57842Y210566D02*
X57842Y210566D01*
X50791Y205884D01*
X47682Y210566D01*
X50791Y215248D02*
X57842Y210566D01*
X50791Y205884D01*
X57842Y210566D02*
X50791Y215248D01*
X47682Y210566D01*
X50791Y205884D02*
X57842Y210566D01*
X50791Y205884D02*
X47682Y210566D01*
D18*
X365760Y716280D03*
D23*
X274320Y680720D02*
X259080Y665480D01*
X233680Y396240D02*
X121920Y396240D01*
X101600Y375920D01*
X83566Y235966D02*
X57842Y235966D01*
X57842Y235966D01*
X47682Y235966D01*
X259080Y421640D02*
X259080Y665480D01*
X259080Y421640D02*
X233680Y396240D01*
X101600Y375920D02*
X101600Y254000D01*
X83566Y235966D01*
D21*
X274320Y680720D02*
X345440Y680720D01*
X365760Y701040D02*
X365760Y711030D01*
X365760Y711030D01*
X365760Y716280D01*
X365760Y701040D02*
X345440Y680720D01*
X365760Y711030D02*
X365760Y711030D01*
X368094Y714856D01*
X365760Y711030D02*
X365760Y711030D01*
X363426Y714856D01*
X365760Y711030D02*
X368094Y714856D01*
X365760Y711030D02*
X365760Y711030D01*
X363426Y714856D01*
X365760Y716280D01*
X363426Y714856D02*
X365760Y711030D01*
X368094Y714856D01*
X365760Y716280D01*
X363426Y714856D02*
X365760Y711030D01*
X363426Y714856D02*
X363426Y714856D01*
X365760Y716280D01*
X368094Y714856D02*
X365760Y711030D01*
X363426Y714856D01*
X365760Y716280D01*
X368094Y714856D02*
X365760Y711030D01*
X368094Y714856D02*
X365760Y716280D01*
X363426Y714856D02*
X365760Y711030D01*
X363426Y714856D02*
X365760Y716280D01*
D24*
X50791Y240648D02*
X57842Y235966D01*
X50791Y240648D02*
X47682Y235966D01*
X57842Y235966D02*
X57842Y235966D01*
X50791Y231284D01*
X47682Y235966D01*
X50791Y240648D02*
X57842Y235966D01*
X50791Y231284D01*
X57842Y235966D02*
X50791Y240648D01*
X47682Y235966D01*
X50791Y231284D02*
X57842Y235966D01*
X50791Y231284D02*
X47682Y235966D01*
D18*
X396240Y716280D03*
D23*
X57842Y261366D02*
X47682Y261366D01*
X57842Y261366D02*
X57842Y261366D01*
X83566Y261366D01*
X96520Y274320D01*
X96520Y381000D01*
X116840Y401320D01*
X228600Y401320D01*
X254000Y426720D01*
X254000Y670560D01*
D21*
X289560Y726440D02*
X309880Y746760D01*
X386080Y746760D01*
X396240Y736600D01*
X396240Y721530D01*
X396240Y721530D01*
X396240Y716280D01*
X289560Y706120D02*
X254000Y670560D01*
X289560Y706120D02*
X289560Y726440D01*
X396240Y721530D02*
X396240Y721530D01*
X393906Y717704D01*
X396240Y721530D02*
X398574Y717704D01*
X396240Y721530D02*
X396240Y721530D01*
X393906Y717704D01*
X396240Y716280D01*
X396240Y721530D02*
X396240Y721530D01*
X398574Y717704D01*
X396240Y721530D02*
X393906Y717704D01*
X396240Y716280D01*
X393906Y717704D02*
X396240Y721530D01*
X398574Y717704D01*
X396240Y721530D02*
X393906Y717704D01*
X393906Y717704D01*
X396240Y716280D01*
X398574Y717704D02*
X396240Y721530D01*
X398574Y717704D02*
X396240Y716280D01*
X393906Y717704D02*
X396240Y721530D01*
X393906Y717704D02*
X396240Y716280D01*
X398574Y717704D02*
X396240Y721530D01*
X398574Y717704D02*
X396240Y716280D01*
D24*
X57842Y261366D02*
X50791Y266048D01*
X47682Y261366D01*
X57842Y261366D02*
X57842Y261366D01*
X50791Y256684D01*
X47682Y261366D01*
X50791Y266048D02*
X57842Y261366D01*
X50791Y256684D01*
X57842Y261366D02*
X50791Y266048D01*
X47682Y261366D01*
X50791Y256684D02*
X57842Y261366D01*
X50791Y256684D02*
X47682Y261366D01*
D18*
X274320Y716280D03*
D23*
X269070Y716280D01*
X269070Y716280D01*
X243840Y716280D01*
X228600Y701040D01*
D21*
X228600Y523240D01*
D23*
X48098Y464982D02*
X47682Y464566D01*
X228600Y523240D02*
X248920Y502920D01*
D21*
X233680Y457200D02*
X223520Y457200D01*
X208280Y441960D01*
X147320Y441960D01*
X142240Y447040D01*
X66040Y447040D02*
X55270Y457810D01*
X48098Y464982D01*
X248920Y472440D02*
X248920Y502920D01*
X248920Y472440D02*
X233680Y457200D01*
X142240Y447040D02*
X66040Y447040D01*
D23*
X269070Y716280D02*
X272879Y718623D01*
X269070Y716280D02*
X269070Y716280D01*
X272879Y713937D01*
X274320Y716280D01*
X272880Y718623D02*
X269070Y716280D01*
X269070Y716280D01*
X272880Y713937D01*
X269070Y716280D02*
X269070Y716280D01*
X272879Y718623D01*
X274320Y716280D01*
X272880Y713937D02*
X269070Y716280D01*
X272880Y713937D01*
X269070Y716280D02*
X272880Y718623D01*
X274320Y716280D01*
X272880Y713937D02*
X269070Y716280D01*
X272880Y713937D02*
X274320Y716280D01*
X272880Y718623D02*
X269070Y716280D01*
X272880Y713937D01*
X274320Y716280D01*
X272880Y718623D02*
X269070Y716280D01*
X272880Y718623D02*
X274320Y716280D01*
D22*
X53081Y466008D02*
X55270Y457810D01*
X53081Y466008D02*
X47682Y464566D01*
X46874Y459037D02*
X55270Y457810D01*
X46874Y459037D02*
X47682Y464566D01*
D18*
X401320Y643430D03*
X309880Y629920D03*
D19*
X309880Y624670D01*
D18*
X309880Y457200D03*
D19*
X309880Y624670D02*
X309880Y624670D01*
X312066Y628748D01*
X312066Y628748D01*
X309880Y624670D02*
X309880Y624670D01*
X312066Y628748D01*
X309880Y629920D01*
X309880Y624670D02*
X309880Y624670D01*
X307694Y628748D01*
X307694Y628748D01*
X309880Y624670D02*
X309880Y624670D01*
X307694Y628748D01*
X309880Y629920D01*
X307694Y628748D02*
X309880Y624670D01*
X307694Y628748D02*
X307694Y628749D01*
X312066Y628748D02*
X309880Y624670D01*
X312066Y628748D02*
X312066Y628749D01*
X309880Y629920D01*
X307694Y628748D02*
X309880Y624670D01*
X307694Y628748D02*
X309880Y629920D01*
X312066Y628748D02*
X309880Y624670D01*
X312066Y628748D02*
X309880Y629920D01*
X307694Y628749D02*
X309880Y624670D01*
X307694Y628749D02*
X309880Y629920D01*
X309880Y624670D02*
X309880Y457200D01*
D21*
X516169Y752389D02*
X523240Y759460D01*
X516169Y752389D02*
X492760Y728980D01*
X416560Y381000D02*
X406400Y370840D01*
X406400Y172720D01*
X492760Y655320D02*
X492760Y728980D01*
X492760Y655320D02*
X416560Y579120D01*
X416560Y381000D01*
D23*
X54866Y116150D02*
X47682Y108966D01*
X54866Y116150D02*
X65716Y127000D01*
X76200Y127000D01*
X91440Y142240D01*
X91440Y167640D02*
X106680Y182880D01*
X274320Y152400D02*
X386080Y152400D01*
X406400Y172720D01*
X91440Y167640D02*
X91440Y142240D01*
X106680Y182880D02*
X243840Y182880D01*
X274320Y152400D01*
X401320Y802640D02*
X426720Y802640D01*
D21*
X467360Y802640D01*
X473808Y796192D01*
X477520Y792480D01*
X401320Y802640D02*
X233680Y802640D01*
X223520Y792480D01*
X223520Y746760D01*
D18*
X477520Y792480D03*
X213360Y478996D03*
D23*
X209648Y482708D02*
X193778Y498578D01*
X209648Y482708D02*
X213360Y478996D01*
X193778Y717018D02*
X223520Y746760D01*
X193778Y717018D02*
X193778Y498578D01*
D21*
X474863Y791836D02*
X473808Y796192D01*
X474863Y791836D02*
X477520Y792480D01*
X478164Y795137D02*
X473808Y796192D01*
X478164Y795137D02*
X477520Y792480D01*
D23*
X209648Y482708D02*
X210685Y478358D01*
X213360Y478996D01*
X213998Y481671D02*
X209648Y482708D01*
X213998Y481671D02*
X213360Y478996D01*
D22*
X516169Y752389D02*
X516169Y752389D01*
X524363Y754109D01*
X524363Y754109D01*
X516169Y752389D02*
X516169Y752389D01*
X517889Y760583D01*
X517889Y760583D01*
X516169Y752389D02*
X524363Y754109D01*
X524363Y754109D01*
X523240Y759460D01*
X517889Y760583D02*
X516169Y752389D01*
X517889Y760583D02*
X523240Y759460D01*
X524363Y754109D02*
X516169Y752389D01*
X524363Y754109D02*
X523240Y759460D01*
X517889Y760583D02*
X516169Y752389D01*
X517889Y760583D02*
X523240Y759460D01*
D24*
X54866Y116150D02*
X46570Y114475D01*
X47682Y108966D01*
X53191Y107854D02*
X54866Y116150D01*
X53191Y107854D02*
X47682Y108966D01*
D21*
X401320Y375920D02*
X411480Y386080D01*
X401320Y375920D02*
X401320Y177800D01*
X411480Y386080D02*
X411480Y584200D01*
D23*
X57842Y134366D02*
X47682Y134366D01*
X57842Y134366D02*
X57842Y134366D01*
X73406Y134366D01*
X86360Y147320D01*
X86360Y172720D01*
X101600Y187960D01*
X279400Y157480D02*
X381000Y157480D01*
X401320Y177800D01*
X248920Y187960D02*
X101600Y187960D01*
X248920Y187960D02*
X279400Y157480D01*
D21*
X218440Y751840D02*
X218440Y797560D01*
X229870Y808990D01*
X513321Y808990D01*
X521970Y808990D01*
X523240Y810260D01*
X516169Y803189D01*
X497840Y784860D01*
X497840Y741680D01*
X487680Y731520D01*
X487680Y660400D02*
X411480Y584200D01*
X487680Y660400D02*
X487680Y731520D01*
D18*
X203200Y462280D03*
D23*
X187960Y721360D02*
X218440Y751840D01*
X187960Y477520D02*
X199488Y465992D01*
X203200Y462280D01*
X187960Y477520D02*
X187960Y721360D01*
X199488Y465992D02*
X200525Y461642D01*
X203200Y462280D01*
X203838Y464955D02*
X199488Y465992D01*
X203838Y464955D02*
X203200Y462280D01*
D22*
X516169Y803189D02*
X516169Y803189D01*
X524363Y804909D01*
X524363Y804909D01*
X516169Y803189D02*
X516169Y803189D01*
X517889Y811383D01*
X517889Y811383D01*
X513321Y808990D02*
X520856Y805339D01*
X523240Y810260D01*
X519693Y814421D02*
X513321Y808990D01*
X519693Y814421D02*
X523240Y810260D01*
X524363Y804909D02*
X516169Y803189D01*
X524363Y804909D02*
X524363Y804909D01*
X523240Y810260D01*
X517889Y811383D02*
X516169Y803189D01*
X517889Y811383D02*
X523240Y810260D01*
X524363Y804909D02*
X516169Y803189D01*
X524363Y804909D02*
X523240Y810260D01*
X517889Y811383D02*
X516169Y803189D01*
X517889Y811383D02*
X523240Y810260D01*
D24*
X57842Y134366D02*
X50791Y139048D01*
X47682Y134366D01*
X57842Y134366D02*
X57842Y134366D01*
X50791Y129684D01*
X47682Y134366D01*
X50791Y139048D02*
X57842Y134366D01*
X50791Y129684D01*
X57842Y134366D02*
X50791Y139048D01*
X47682Y134366D01*
X50791Y129684D02*
X57842Y134366D01*
X50791Y129684D02*
X47682Y134366D01*
D19*
X54866Y431982D02*
X47682Y439166D01*
X54866Y431982D02*
X70288Y416560D01*
D18*
X111760Y416560D03*
X213360Y350520D03*
D20*
X54866Y431982D02*
X52589Y440481D01*
X47682Y439166D01*
X46367Y434259D02*
X54866Y431982D01*
X46367Y434259D02*
X47682Y439166D01*
D19*
X70288Y416560D02*
X111760Y416560D01*
D18*
X335280Y716280D03*
X137160Y726440D03*
D19*
X137160Y721190D01*
X137160Y523240D01*
X101600Y487680D01*
X57582Y487680D01*
X49968Y487680D01*
X47682Y489966D01*
X137160Y721190D02*
X137160Y721190D01*
X139346Y725268D01*
X139346Y725268D01*
X137160Y721190D02*
X137160Y721190D01*
X139346Y725268D01*
X137160Y726440D01*
X137160Y721190D02*
X137160Y721190D01*
X134974Y725268D01*
X134974Y725268D01*
X137160Y721190D02*
X137160Y721190D01*
X134974Y725268D01*
X137160Y726440D01*
X134974Y725268D02*
X137160Y721190D01*
X134974Y725268D02*
X134974Y725269D01*
X139346Y725268D02*
X137160Y721190D01*
X139346Y725268D02*
X139346Y725269D01*
X137160Y726440D01*
X134974Y725268D02*
X137160Y721190D01*
X134974Y725268D02*
X137160Y726440D01*
X139346Y725268D02*
X137160Y721190D01*
X139346Y725268D02*
X137160Y726440D01*
X134974Y725269D02*
X137160Y721190D01*
X134974Y725269D02*
X137160Y726440D01*
D20*
X51147Y493681D02*
X57582Y487680D01*
X51147Y493681D02*
X47682Y489966D01*
X49167Y485108D02*
X57582Y487680D01*
X49167Y485108D02*
X47682Y489966D01*
M02*
