G04 EAGLE Gerber RS-274X export*
G75*
%MOMM*%
%FSLAX34Y34*%
%LPD*%
%INInner Copper Layer 1*%
%IPPOS*%
%AMOC8*
5,1,8,0,0,1.08239X$1,22.5*%
G01*
%ADD10C,4.000000*%
%ADD11C,1.524000*%
%ADD12C,4.200000*%
%ADD13C,1.981200*%
%ADD14C,1.200000*%
%ADD15C,1.219200*%
%ADD16C,1.500000*%
%ADD17C,2.667000*%
%ADD18C,0.750000*%

G36*
X530021Y5003D02*
X530021Y5003D01*
X530083Y5003D01*
X533180Y5206D01*
X533224Y5215D01*
X533268Y5215D01*
X533426Y5247D01*
X539410Y6850D01*
X539489Y6883D01*
X539571Y6906D01*
X539694Y6967D01*
X539704Y6970D01*
X539707Y6973D01*
X539716Y6977D01*
X545081Y10074D01*
X545149Y10126D01*
X545223Y10170D01*
X545325Y10260D01*
X545334Y10267D01*
X545337Y10270D01*
X545343Y10276D01*
X549724Y14657D01*
X549776Y14724D01*
X549836Y14785D01*
X549912Y14899D01*
X549919Y14908D01*
X549920Y14912D01*
X549926Y14919D01*
X553023Y20284D01*
X553056Y20363D01*
X553098Y20438D01*
X553142Y20568D01*
X553146Y20577D01*
X553147Y20582D01*
X553150Y20590D01*
X554753Y26574D01*
X554759Y26618D01*
X554773Y26660D01*
X554794Y26820D01*
X554856Y27767D01*
X554997Y29917D01*
X554995Y29938D01*
X554999Y30000D01*
X554999Y820000D01*
X554997Y820020D01*
X554997Y820083D01*
X554794Y823180D01*
X554785Y823224D01*
X554785Y823268D01*
X554753Y823426D01*
X553150Y829410D01*
X553117Y829489D01*
X553094Y829571D01*
X553033Y829694D01*
X553030Y829704D01*
X553027Y829707D01*
X553023Y829716D01*
X549926Y835081D01*
X549874Y835149D01*
X549830Y835223D01*
X549740Y835325D01*
X549733Y835334D01*
X549730Y835337D01*
X549724Y835343D01*
X545343Y839724D01*
X545276Y839776D01*
X545215Y839836D01*
X545101Y839912D01*
X545092Y839919D01*
X545088Y839920D01*
X545081Y839926D01*
X539716Y843023D01*
X539637Y843056D01*
X539562Y843098D01*
X539432Y843142D01*
X539423Y843146D01*
X539418Y843147D01*
X539410Y843150D01*
X533426Y844753D01*
X533382Y844759D01*
X533340Y844773D01*
X533180Y844794D01*
X530083Y844997D01*
X530062Y844995D01*
X530000Y844999D01*
X30000Y844999D01*
X29979Y844997D01*
X29917Y844997D01*
X26820Y844794D01*
X26776Y844785D01*
X26732Y844785D01*
X26574Y844753D01*
X20590Y843150D01*
X20511Y843117D01*
X20429Y843094D01*
X20306Y843033D01*
X20296Y843030D01*
X20293Y843027D01*
X20284Y843023D01*
X14919Y839926D01*
X14851Y839874D01*
X14777Y839830D01*
X14675Y839740D01*
X14666Y839733D01*
X14663Y839730D01*
X14657Y839724D01*
X10276Y835343D01*
X10224Y835276D01*
X10164Y835215D01*
X10088Y835100D01*
X10081Y835092D01*
X10080Y835088D01*
X10074Y835081D01*
X6977Y829716D01*
X6944Y829637D01*
X6902Y829562D01*
X6879Y829493D01*
X6869Y829474D01*
X6866Y829456D01*
X6858Y829432D01*
X6854Y829423D01*
X6853Y829418D01*
X6850Y829410D01*
X5247Y823426D01*
X5241Y823382D01*
X5227Y823340D01*
X5206Y823180D01*
X5003Y820083D01*
X5005Y820062D01*
X5001Y820000D01*
X5001Y30000D01*
X5003Y29979D01*
X5003Y29917D01*
X5206Y26820D01*
X5215Y26776D01*
X5215Y26732D01*
X5247Y26574D01*
X6850Y20590D01*
X6883Y20511D01*
X6906Y20429D01*
X6967Y20306D01*
X6970Y20296D01*
X6973Y20293D01*
X6977Y20284D01*
X10074Y14919D01*
X10126Y14851D01*
X10170Y14777D01*
X10260Y14675D01*
X10267Y14666D01*
X10270Y14663D01*
X10276Y14657D01*
X14657Y10276D01*
X14724Y10224D01*
X14785Y10164D01*
X14899Y10088D01*
X14908Y10081D01*
X14912Y10080D01*
X14919Y10074D01*
X20284Y6977D01*
X20363Y6944D01*
X20438Y6902D01*
X20568Y6858D01*
X20577Y6854D01*
X20582Y6853D01*
X20590Y6850D01*
X26574Y5247D01*
X26618Y5241D01*
X26660Y5227D01*
X26820Y5206D01*
X29917Y5003D01*
X29938Y5005D01*
X30000Y5001D01*
X530000Y5001D01*
X530021Y5003D01*
G37*
%LPC*%
G36*
X342863Y58165D02*
X342863Y58165D01*
X338102Y60137D01*
X334457Y63782D01*
X332485Y68543D01*
X332485Y73697D01*
X334457Y78458D01*
X338102Y82103D01*
X342863Y84075D01*
X348017Y84075D01*
X352778Y82103D01*
X356423Y78458D01*
X356967Y77143D01*
X357036Y77022D01*
X357101Y76899D01*
X357115Y76884D01*
X357125Y76867D01*
X357222Y76766D01*
X357315Y76664D01*
X357332Y76653D01*
X357346Y76638D01*
X357465Y76565D01*
X357581Y76489D01*
X357600Y76482D01*
X357617Y76472D01*
X357750Y76431D01*
X357882Y76386D01*
X357902Y76384D01*
X357921Y76378D01*
X358060Y76372D01*
X358199Y76361D01*
X358219Y76364D01*
X358239Y76363D01*
X358375Y76391D01*
X358512Y76415D01*
X358531Y76423D01*
X358550Y76427D01*
X358676Y76489D01*
X358802Y76546D01*
X358818Y76558D01*
X358836Y76567D01*
X358942Y76657D01*
X359050Y76744D01*
X359063Y76760D01*
X359078Y76773D01*
X359158Y76887D01*
X359242Y76998D01*
X359254Y77023D01*
X359261Y77034D01*
X359268Y77053D01*
X359313Y77143D01*
X359858Y78458D01*
X363502Y82103D01*
X368263Y84075D01*
X373417Y84075D01*
X378178Y82103D01*
X381822Y78458D01*
X382367Y77143D01*
X382436Y77022D01*
X382501Y76899D01*
X382515Y76884D01*
X382525Y76867D01*
X382622Y76767D01*
X382715Y76664D01*
X382732Y76653D01*
X382746Y76638D01*
X382864Y76566D01*
X382981Y76489D01*
X383000Y76482D01*
X383017Y76472D01*
X383150Y76431D01*
X383282Y76386D01*
X383302Y76384D01*
X383321Y76378D01*
X383460Y76372D01*
X383599Y76361D01*
X383619Y76364D01*
X383639Y76363D01*
X383775Y76391D01*
X383912Y76415D01*
X383931Y76423D01*
X383950Y76427D01*
X384075Y76489D01*
X384202Y76546D01*
X384218Y76558D01*
X384236Y76567D01*
X384341Y76657D01*
X384450Y76744D01*
X384463Y76760D01*
X384478Y76773D01*
X384558Y76887D01*
X384642Y76998D01*
X384654Y77023D01*
X384661Y77034D01*
X384668Y77053D01*
X384713Y77143D01*
X385257Y78458D01*
X388902Y82103D01*
X393663Y84075D01*
X398817Y84075D01*
X403578Y82103D01*
X407223Y78458D01*
X408046Y76469D01*
X408091Y76391D01*
X408126Y76309D01*
X408169Y76254D01*
X408204Y76193D01*
X408266Y76128D01*
X408321Y76058D01*
X408377Y76015D01*
X408425Y75964D01*
X408502Y75918D01*
X408572Y75863D01*
X408637Y75835D01*
X408696Y75798D01*
X408782Y75772D01*
X408864Y75736D01*
X408933Y75725D01*
X409000Y75704D01*
X409090Y75700D01*
X409178Y75686D01*
X409248Y75693D01*
X409318Y75689D01*
X409406Y75707D01*
X409495Y75716D01*
X409561Y75739D01*
X409629Y75754D01*
X409710Y75793D01*
X409794Y75823D01*
X409852Y75862D01*
X409915Y75893D01*
X409983Y75951D01*
X410057Y76002D01*
X410104Y76054D01*
X410157Y76100D01*
X410209Y76173D01*
X410268Y76240D01*
X410332Y76347D01*
X410340Y76360D01*
X410343Y76366D01*
X410350Y76378D01*
X410995Y77644D01*
X412146Y79228D01*
X413532Y80614D01*
X415116Y81765D01*
X416862Y82655D01*
X418725Y83260D01*
X419101Y83320D01*
X419101Y72390D01*
X419116Y72272D01*
X419123Y72153D01*
X419136Y72115D01*
X419141Y72075D01*
X419184Y71964D01*
X419221Y71851D01*
X419243Y71817D01*
X419258Y71779D01*
X419328Y71683D01*
X419391Y71582D01*
X419421Y71554D01*
X419444Y71522D01*
X419536Y71446D01*
X419623Y71364D01*
X419658Y71345D01*
X419689Y71319D01*
X419797Y71268D01*
X419901Y71211D01*
X419941Y71200D01*
X419977Y71183D01*
X420094Y71161D01*
X420209Y71131D01*
X420270Y71127D01*
X420290Y71123D01*
X420310Y71125D01*
X420370Y71121D01*
X422910Y71121D01*
X423028Y71136D01*
X423147Y71143D01*
X423185Y71156D01*
X423225Y71161D01*
X423336Y71205D01*
X423449Y71241D01*
X423484Y71263D01*
X423521Y71278D01*
X423617Y71348D01*
X423718Y71411D01*
X423746Y71441D01*
X423779Y71465D01*
X423854Y71556D01*
X423936Y71643D01*
X423956Y71678D01*
X423981Y71710D01*
X424032Y71817D01*
X424090Y71922D01*
X424100Y71961D01*
X424117Y71997D01*
X424139Y72114D01*
X424169Y72229D01*
X424173Y72290D01*
X424177Y72310D01*
X424175Y72330D01*
X424179Y72390D01*
X424179Y83320D01*
X424555Y83260D01*
X426418Y82655D01*
X428164Y81765D01*
X428668Y81399D01*
X429748Y80614D01*
X431134Y79228D01*
X432285Y77644D01*
X432930Y76378D01*
X432980Y76305D01*
X433022Y76225D01*
X433069Y76173D01*
X433109Y76115D01*
X433176Y76056D01*
X433236Y75990D01*
X433295Y75951D01*
X433347Y75905D01*
X433427Y75864D01*
X433502Y75815D01*
X433568Y75792D01*
X433631Y75761D01*
X433718Y75741D01*
X433803Y75712D01*
X433873Y75706D01*
X433941Y75691D01*
X434030Y75694D01*
X434120Y75687D01*
X434189Y75699D01*
X434259Y75701D01*
X434345Y75726D01*
X434433Y75741D01*
X434497Y75770D01*
X434564Y75789D01*
X434641Y75835D01*
X434723Y75872D01*
X434778Y75916D01*
X434838Y75951D01*
X434901Y76014D01*
X434971Y76070D01*
X435014Y76126D01*
X435063Y76176D01*
X435109Y76253D01*
X435163Y76324D01*
X435218Y76437D01*
X435225Y76449D01*
X435227Y76456D01*
X435234Y76469D01*
X436057Y78458D01*
X439702Y82103D01*
X444463Y84075D01*
X449617Y84075D01*
X454378Y82103D01*
X458023Y78458D01*
X459995Y73697D01*
X459995Y68543D01*
X458023Y63782D01*
X454378Y60137D01*
X449617Y58165D01*
X444463Y58165D01*
X439702Y60137D01*
X436057Y63782D01*
X435234Y65771D01*
X435189Y65849D01*
X435154Y65931D01*
X435111Y65986D01*
X435076Y66047D01*
X435014Y66112D01*
X434959Y66182D01*
X434903Y66225D01*
X434855Y66276D01*
X434778Y66322D01*
X434708Y66377D01*
X434643Y66405D01*
X434584Y66442D01*
X434498Y66468D01*
X434416Y66504D01*
X434347Y66515D01*
X434280Y66536D01*
X434190Y66540D01*
X434102Y66554D01*
X434032Y66547D01*
X433962Y66551D01*
X433874Y66533D01*
X433785Y66524D01*
X433719Y66501D01*
X433651Y66486D01*
X433570Y66447D01*
X433486Y66417D01*
X433428Y66378D01*
X433365Y66347D01*
X433297Y66289D01*
X433223Y66238D01*
X433176Y66186D01*
X433123Y66140D01*
X433071Y66067D01*
X433012Y66000D01*
X432948Y65893D01*
X432940Y65880D01*
X432937Y65874D01*
X432930Y65862D01*
X432285Y64596D01*
X431134Y63012D01*
X429748Y61626D01*
X428164Y60475D01*
X426418Y59585D01*
X424555Y58980D01*
X424179Y58920D01*
X424179Y69850D01*
X424164Y69968D01*
X424157Y70087D01*
X424144Y70125D01*
X424139Y70165D01*
X424096Y70276D01*
X424059Y70389D01*
X424037Y70423D01*
X424022Y70461D01*
X423952Y70557D01*
X423889Y70658D01*
X423859Y70686D01*
X423835Y70718D01*
X423744Y70794D01*
X423657Y70876D01*
X423622Y70895D01*
X423591Y70921D01*
X423483Y70972D01*
X423379Y71029D01*
X423339Y71040D01*
X423303Y71057D01*
X423186Y71079D01*
X423071Y71109D01*
X423010Y71113D01*
X422990Y71117D01*
X422970Y71115D01*
X422910Y71119D01*
X420370Y71119D01*
X420252Y71104D01*
X420133Y71097D01*
X420095Y71084D01*
X420054Y71079D01*
X419944Y71035D01*
X419831Y70999D01*
X419796Y70977D01*
X419759Y70962D01*
X419663Y70892D01*
X419562Y70829D01*
X419534Y70799D01*
X419501Y70775D01*
X419426Y70684D01*
X419344Y70597D01*
X419324Y70562D01*
X419299Y70530D01*
X419248Y70423D01*
X419190Y70318D01*
X419180Y70279D01*
X419163Y70243D01*
X419141Y70126D01*
X419111Y70011D01*
X419107Y69950D01*
X419103Y69930D01*
X419105Y69910D01*
X419101Y69850D01*
X419101Y58920D01*
X418725Y58980D01*
X416862Y59585D01*
X415116Y60475D01*
X413532Y61626D01*
X412146Y63012D01*
X410995Y64596D01*
X410350Y65862D01*
X410300Y65935D01*
X410258Y66015D01*
X410211Y66067D01*
X410171Y66125D01*
X410104Y66184D01*
X410044Y66250D01*
X409985Y66289D01*
X409933Y66335D01*
X409853Y66376D01*
X409778Y66425D01*
X409712Y66448D01*
X409649Y66479D01*
X409562Y66499D01*
X409477Y66528D01*
X409407Y66534D01*
X409339Y66549D01*
X409250Y66546D01*
X409160Y66553D01*
X409091Y66541D01*
X409021Y66539D01*
X408935Y66514D01*
X408847Y66499D01*
X408783Y66470D01*
X408716Y66451D01*
X408639Y66405D01*
X408557Y66368D01*
X408502Y66324D01*
X408442Y66289D01*
X408379Y66226D01*
X408309Y66170D01*
X408266Y66114D01*
X408217Y66064D01*
X408171Y65987D01*
X408117Y65916D01*
X408062Y65803D01*
X408055Y65791D01*
X408053Y65784D01*
X408046Y65771D01*
X407223Y63782D01*
X403578Y60137D01*
X398817Y58165D01*
X393663Y58165D01*
X388902Y60137D01*
X385257Y63782D01*
X384713Y65097D01*
X384644Y65218D01*
X384579Y65341D01*
X384565Y65356D01*
X384555Y65373D01*
X384458Y65474D01*
X384365Y65576D01*
X384348Y65587D01*
X384334Y65602D01*
X384215Y65675D01*
X384099Y65751D01*
X384080Y65758D01*
X384063Y65768D01*
X383930Y65809D01*
X383798Y65854D01*
X383778Y65856D01*
X383759Y65862D01*
X383620Y65868D01*
X383481Y65879D01*
X383461Y65876D01*
X383441Y65877D01*
X383305Y65849D01*
X383168Y65825D01*
X383149Y65817D01*
X383130Y65813D01*
X383004Y65751D01*
X382878Y65694D01*
X382862Y65682D01*
X382844Y65673D01*
X382738Y65583D01*
X382630Y65496D01*
X382617Y65480D01*
X382602Y65467D01*
X382522Y65353D01*
X382438Y65242D01*
X382426Y65217D01*
X382419Y65206D01*
X382412Y65187D01*
X382367Y65097D01*
X381822Y63782D01*
X378178Y60137D01*
X373417Y58165D01*
X368263Y58165D01*
X363502Y60137D01*
X359858Y63782D01*
X359313Y65097D01*
X359244Y65218D01*
X359179Y65341D01*
X359165Y65356D01*
X359155Y65373D01*
X359058Y65473D01*
X358965Y65576D01*
X358948Y65587D01*
X358934Y65602D01*
X358816Y65674D01*
X358699Y65751D01*
X358680Y65758D01*
X358663Y65768D01*
X358530Y65809D01*
X358398Y65854D01*
X358378Y65856D01*
X358359Y65862D01*
X358220Y65868D01*
X358081Y65879D01*
X358061Y65876D01*
X358041Y65877D01*
X357905Y65849D01*
X357768Y65825D01*
X357749Y65817D01*
X357730Y65813D01*
X357605Y65751D01*
X357478Y65694D01*
X357462Y65682D01*
X357444Y65673D01*
X357338Y65583D01*
X357230Y65496D01*
X357217Y65480D01*
X357202Y65467D01*
X357122Y65353D01*
X357038Y65242D01*
X357026Y65217D01*
X357019Y65206D01*
X357012Y65187D01*
X356967Y65097D01*
X356423Y63782D01*
X352778Y60137D01*
X348017Y58165D01*
X342863Y58165D01*
G37*
%LPD*%
%LPC*%
G36*
X342863Y27685D02*
X342863Y27685D01*
X338102Y29657D01*
X334457Y33302D01*
X332485Y38063D01*
X332485Y43217D01*
X334457Y47978D01*
X338102Y51623D01*
X342863Y53595D01*
X348017Y53595D01*
X352778Y51623D01*
X356422Y47978D01*
X356967Y46663D01*
X357036Y46542D01*
X357101Y46419D01*
X357115Y46404D01*
X357125Y46387D01*
X357222Y46287D01*
X357315Y46184D01*
X357332Y46173D01*
X357346Y46158D01*
X357464Y46086D01*
X357581Y46009D01*
X357600Y46002D01*
X357617Y45992D01*
X357750Y45951D01*
X357882Y45906D01*
X357902Y45904D01*
X357921Y45898D01*
X358060Y45892D01*
X358199Y45881D01*
X358219Y45884D01*
X358239Y45883D01*
X358375Y45911D01*
X358512Y45935D01*
X358531Y45943D01*
X358550Y45947D01*
X358675Y46009D01*
X358802Y46066D01*
X358818Y46078D01*
X358836Y46087D01*
X358941Y46177D01*
X359050Y46264D01*
X359063Y46280D01*
X359078Y46293D01*
X359158Y46407D01*
X359242Y46518D01*
X359254Y46543D01*
X359261Y46554D01*
X359268Y46573D01*
X359313Y46663D01*
X359857Y47978D01*
X363502Y51623D01*
X368263Y53595D01*
X373417Y53595D01*
X378178Y51623D01*
X381823Y47978D01*
X382367Y46663D01*
X382436Y46542D01*
X382501Y46419D01*
X382515Y46404D01*
X382525Y46387D01*
X382622Y46286D01*
X382715Y46184D01*
X382732Y46173D01*
X382746Y46158D01*
X382865Y46085D01*
X382981Y46009D01*
X383000Y46002D01*
X383017Y45992D01*
X383150Y45951D01*
X383282Y45906D01*
X383302Y45904D01*
X383321Y45898D01*
X383460Y45892D01*
X383599Y45881D01*
X383619Y45884D01*
X383639Y45883D01*
X383775Y45911D01*
X383912Y45935D01*
X383931Y45943D01*
X383950Y45947D01*
X384076Y46009D01*
X384202Y46066D01*
X384218Y46078D01*
X384236Y46087D01*
X384342Y46177D01*
X384450Y46264D01*
X384463Y46280D01*
X384478Y46293D01*
X384558Y46407D01*
X384642Y46518D01*
X384654Y46543D01*
X384661Y46554D01*
X384668Y46573D01*
X384713Y46663D01*
X385258Y47978D01*
X388902Y51623D01*
X393663Y53595D01*
X398817Y53595D01*
X403578Y51623D01*
X407223Y47978D01*
X408046Y45989D01*
X408091Y45911D01*
X408126Y45829D01*
X408169Y45774D01*
X408204Y45713D01*
X408266Y45648D01*
X408321Y45578D01*
X408377Y45535D01*
X408425Y45484D01*
X408502Y45438D01*
X408572Y45383D01*
X408637Y45355D01*
X408696Y45318D01*
X408782Y45292D01*
X408864Y45256D01*
X408933Y45245D01*
X409000Y45224D01*
X409090Y45220D01*
X409178Y45206D01*
X409248Y45213D01*
X409318Y45209D01*
X409406Y45227D01*
X409495Y45236D01*
X409561Y45259D01*
X409629Y45274D01*
X409710Y45313D01*
X409794Y45343D01*
X409852Y45382D01*
X409915Y45413D01*
X409983Y45471D01*
X410057Y45522D01*
X410104Y45574D01*
X410157Y45620D01*
X410209Y45693D01*
X410268Y45760D01*
X410332Y45867D01*
X410340Y45880D01*
X410343Y45886D01*
X410350Y45898D01*
X410995Y47164D01*
X412146Y48748D01*
X413532Y50134D01*
X415116Y51285D01*
X416862Y52175D01*
X418725Y52780D01*
X419101Y52840D01*
X419101Y41910D01*
X419116Y41792D01*
X419123Y41673D01*
X419136Y41635D01*
X419141Y41595D01*
X419184Y41484D01*
X419221Y41371D01*
X419243Y41337D01*
X419258Y41299D01*
X419328Y41203D01*
X419391Y41102D01*
X419421Y41074D01*
X419444Y41042D01*
X419536Y40966D01*
X419623Y40884D01*
X419658Y40865D01*
X419689Y40839D01*
X419797Y40788D01*
X419901Y40731D01*
X419941Y40720D01*
X419977Y40703D01*
X420094Y40681D01*
X420209Y40651D01*
X420270Y40647D01*
X420290Y40643D01*
X420310Y40645D01*
X420370Y40641D01*
X422910Y40641D01*
X423028Y40656D01*
X423147Y40663D01*
X423185Y40676D01*
X423225Y40681D01*
X423336Y40725D01*
X423449Y40761D01*
X423484Y40783D01*
X423521Y40798D01*
X423617Y40868D01*
X423718Y40931D01*
X423746Y40961D01*
X423779Y40985D01*
X423854Y41076D01*
X423936Y41163D01*
X423956Y41198D01*
X423981Y41230D01*
X424032Y41337D01*
X424090Y41442D01*
X424100Y41481D01*
X424117Y41517D01*
X424139Y41634D01*
X424169Y41749D01*
X424173Y41810D01*
X424177Y41830D01*
X424175Y41850D01*
X424179Y41910D01*
X424179Y52840D01*
X424555Y52780D01*
X426418Y52175D01*
X428164Y51285D01*
X429748Y50134D01*
X431134Y48748D01*
X432285Y47164D01*
X432930Y45898D01*
X432980Y45825D01*
X433022Y45745D01*
X433069Y45693D01*
X433109Y45635D01*
X433176Y45576D01*
X433236Y45510D01*
X433295Y45471D01*
X433347Y45425D01*
X433427Y45384D01*
X433502Y45335D01*
X433568Y45312D01*
X433631Y45281D01*
X433718Y45261D01*
X433803Y45232D01*
X433873Y45226D01*
X433941Y45211D01*
X434030Y45214D01*
X434120Y45207D01*
X434189Y45219D01*
X434259Y45221D01*
X434345Y45246D01*
X434433Y45261D01*
X434497Y45290D01*
X434564Y45309D01*
X434641Y45355D01*
X434723Y45392D01*
X434778Y45436D01*
X434838Y45471D01*
X434901Y45534D01*
X434971Y45590D01*
X435014Y45646D01*
X435063Y45696D01*
X435109Y45773D01*
X435163Y45844D01*
X435218Y45957D01*
X435225Y45969D01*
X435227Y45976D01*
X435234Y45989D01*
X436057Y47978D01*
X439702Y51623D01*
X444463Y53595D01*
X449617Y53595D01*
X454378Y51623D01*
X458023Y47978D01*
X459995Y43217D01*
X459995Y38063D01*
X458023Y33302D01*
X454378Y29657D01*
X449617Y27685D01*
X444463Y27685D01*
X439702Y29657D01*
X436057Y33302D01*
X435234Y35291D01*
X435189Y35369D01*
X435154Y35451D01*
X435111Y35506D01*
X435076Y35567D01*
X435014Y35632D01*
X434959Y35702D01*
X434903Y35745D01*
X434855Y35796D01*
X434778Y35842D01*
X434708Y35897D01*
X434643Y35925D01*
X434584Y35962D01*
X434498Y35988D01*
X434416Y36024D01*
X434347Y36035D01*
X434280Y36056D01*
X434190Y36060D01*
X434102Y36074D01*
X434032Y36067D01*
X433962Y36071D01*
X433874Y36053D01*
X433785Y36044D01*
X433719Y36021D01*
X433651Y36006D01*
X433570Y35967D01*
X433486Y35937D01*
X433428Y35898D01*
X433365Y35867D01*
X433297Y35809D01*
X433223Y35758D01*
X433176Y35706D01*
X433123Y35660D01*
X433071Y35587D01*
X433012Y35520D01*
X432948Y35413D01*
X432940Y35400D01*
X432937Y35394D01*
X432930Y35382D01*
X432285Y34116D01*
X431134Y32532D01*
X429748Y31146D01*
X428164Y29995D01*
X426418Y29105D01*
X424555Y28500D01*
X424179Y28440D01*
X424179Y39370D01*
X424164Y39488D01*
X424157Y39607D01*
X424144Y39645D01*
X424139Y39685D01*
X424096Y39796D01*
X424059Y39909D01*
X424037Y39943D01*
X424022Y39981D01*
X423952Y40077D01*
X423889Y40178D01*
X423859Y40206D01*
X423835Y40238D01*
X423744Y40314D01*
X423657Y40396D01*
X423622Y40415D01*
X423591Y40441D01*
X423483Y40492D01*
X423379Y40549D01*
X423339Y40560D01*
X423303Y40577D01*
X423186Y40599D01*
X423071Y40629D01*
X423010Y40633D01*
X422990Y40637D01*
X422970Y40635D01*
X422910Y40639D01*
X420370Y40639D01*
X420252Y40624D01*
X420133Y40617D01*
X420095Y40604D01*
X420054Y40599D01*
X419944Y40555D01*
X419831Y40519D01*
X419796Y40497D01*
X419759Y40482D01*
X419663Y40412D01*
X419562Y40349D01*
X419534Y40319D01*
X419501Y40295D01*
X419426Y40204D01*
X419344Y40117D01*
X419324Y40082D01*
X419299Y40050D01*
X419248Y39943D01*
X419190Y39838D01*
X419180Y39799D01*
X419163Y39763D01*
X419141Y39646D01*
X419111Y39531D01*
X419107Y39470D01*
X419103Y39450D01*
X419105Y39430D01*
X419101Y39370D01*
X419101Y28440D01*
X418725Y28500D01*
X416862Y29105D01*
X415116Y29995D01*
X413532Y31146D01*
X412146Y32532D01*
X410995Y34116D01*
X410350Y35382D01*
X410300Y35455D01*
X410258Y35535D01*
X410211Y35587D01*
X410171Y35645D01*
X410104Y35704D01*
X410044Y35770D01*
X409985Y35809D01*
X409933Y35855D01*
X409853Y35896D01*
X409778Y35945D01*
X409712Y35968D01*
X409649Y35999D01*
X409562Y36019D01*
X409477Y36048D01*
X409407Y36054D01*
X409339Y36069D01*
X409250Y36066D01*
X409160Y36073D01*
X409091Y36061D01*
X409021Y36059D01*
X408935Y36034D01*
X408847Y36019D01*
X408783Y35990D01*
X408716Y35971D01*
X408639Y35925D01*
X408557Y35888D01*
X408502Y35844D01*
X408442Y35809D01*
X408379Y35746D01*
X408309Y35690D01*
X408266Y35634D01*
X408217Y35584D01*
X408171Y35507D01*
X408117Y35436D01*
X408062Y35323D01*
X408055Y35311D01*
X408053Y35304D01*
X408046Y35291D01*
X407223Y33302D01*
X403578Y29657D01*
X398817Y27685D01*
X393663Y27685D01*
X388902Y29657D01*
X385258Y33302D01*
X384713Y34617D01*
X384644Y34738D01*
X384579Y34861D01*
X384565Y34876D01*
X384555Y34893D01*
X384458Y34993D01*
X384365Y35096D01*
X384348Y35107D01*
X384334Y35122D01*
X384216Y35194D01*
X384099Y35271D01*
X384080Y35278D01*
X384063Y35288D01*
X383930Y35329D01*
X383798Y35374D01*
X383778Y35376D01*
X383759Y35382D01*
X383620Y35388D01*
X383481Y35399D01*
X383461Y35396D01*
X383441Y35397D01*
X383305Y35369D01*
X383168Y35345D01*
X383149Y35337D01*
X383130Y35333D01*
X383005Y35271D01*
X382878Y35214D01*
X382862Y35202D01*
X382844Y35193D01*
X382738Y35103D01*
X382630Y35016D01*
X382617Y35000D01*
X382602Y34987D01*
X382522Y34873D01*
X382438Y34762D01*
X382426Y34737D01*
X382419Y34726D01*
X382412Y34707D01*
X382367Y34617D01*
X381823Y33302D01*
X378178Y29657D01*
X373417Y27685D01*
X368263Y27685D01*
X363502Y29657D01*
X359857Y33302D01*
X359313Y34617D01*
X359244Y34738D01*
X359179Y34861D01*
X359165Y34876D01*
X359155Y34893D01*
X359058Y34994D01*
X358965Y35096D01*
X358948Y35107D01*
X358934Y35122D01*
X358815Y35195D01*
X358699Y35271D01*
X358680Y35278D01*
X358663Y35288D01*
X358530Y35329D01*
X358398Y35374D01*
X358378Y35376D01*
X358359Y35382D01*
X358220Y35388D01*
X358081Y35399D01*
X358061Y35396D01*
X358041Y35397D01*
X357905Y35369D01*
X357768Y35345D01*
X357749Y35337D01*
X357730Y35333D01*
X357604Y35271D01*
X357478Y35214D01*
X357462Y35202D01*
X357444Y35193D01*
X357338Y35103D01*
X357230Y35016D01*
X357217Y35000D01*
X357202Y34987D01*
X357121Y34872D01*
X357038Y34762D01*
X357026Y34737D01*
X357019Y34726D01*
X357012Y34707D01*
X356967Y34617D01*
X356422Y33302D01*
X352778Y29657D01*
X348017Y27685D01*
X342863Y27685D01*
G37*
%LPD*%
%LPC*%
G36*
X129115Y113031D02*
X129115Y113031D01*
X120644Y116540D01*
X114160Y123024D01*
X110651Y131495D01*
X110651Y140665D01*
X114160Y149136D01*
X120644Y155620D01*
X129115Y159129D01*
X138285Y159129D01*
X146756Y155620D01*
X153240Y149136D01*
X156749Y140665D01*
X156749Y131495D01*
X153240Y123024D01*
X146756Y116540D01*
X138285Y113031D01*
X129115Y113031D01*
G37*
%LPD*%
%LPC*%
G36*
X499661Y420496D02*
X499661Y420496D01*
X493639Y422991D01*
X489031Y427599D01*
X486536Y433621D01*
X486536Y440139D01*
X489031Y446161D01*
X493639Y450769D01*
X499661Y453264D01*
X506179Y453264D01*
X512201Y450769D01*
X516809Y446161D01*
X519304Y440139D01*
X519304Y433621D01*
X516809Y427599D01*
X512201Y422991D01*
X506179Y420496D01*
X499661Y420496D01*
G37*
%LPD*%
%LPC*%
G36*
X530823Y296925D02*
X530823Y296925D01*
X526062Y298897D01*
X522417Y302542D01*
X520445Y307303D01*
X520445Y312457D01*
X522417Y317218D01*
X526062Y320863D01*
X530823Y322835D01*
X535977Y322835D01*
X540738Y320863D01*
X544383Y317218D01*
X546355Y312457D01*
X546355Y307303D01*
X544383Y302542D01*
X540738Y298897D01*
X535977Y296925D01*
X530823Y296925D01*
G37*
%LPD*%
%LPC*%
G36*
X530823Y225805D02*
X530823Y225805D01*
X526062Y227777D01*
X522417Y231422D01*
X520445Y236183D01*
X520445Y241337D01*
X522417Y246098D01*
X526062Y249743D01*
X530823Y251715D01*
X535977Y251715D01*
X540738Y249743D01*
X544383Y246098D01*
X546355Y241337D01*
X546355Y236183D01*
X544383Y231422D01*
X540738Y227777D01*
X535977Y225805D01*
X530823Y225805D01*
G37*
%LPD*%
%LPC*%
G36*
X495263Y159765D02*
X495263Y159765D01*
X490502Y161737D01*
X486857Y165382D01*
X484885Y170143D01*
X484885Y175297D01*
X486857Y180058D01*
X490502Y183703D01*
X495263Y185675D01*
X500417Y185675D01*
X505178Y183703D01*
X508823Y180058D01*
X510795Y175297D01*
X510795Y170143D01*
X508823Y165382D01*
X505178Y161737D01*
X500417Y159765D01*
X495263Y159765D01*
G37*
%LPD*%
%LPC*%
G36*
X45560Y453897D02*
X45560Y453897D01*
X41639Y455521D01*
X38637Y458523D01*
X37013Y462444D01*
X37013Y466688D01*
X38637Y470609D01*
X41639Y473611D01*
X45560Y475235D01*
X49804Y475235D01*
X53725Y473611D01*
X56727Y470609D01*
X58351Y466688D01*
X58351Y462444D01*
X56727Y458523D01*
X53725Y455521D01*
X49804Y453897D01*
X45560Y453897D01*
G37*
%LPD*%
%LPC*%
G36*
X45560Y352297D02*
X45560Y352297D01*
X41639Y353921D01*
X38637Y356923D01*
X37013Y360844D01*
X37013Y365088D01*
X38637Y369009D01*
X41639Y372011D01*
X45560Y373635D01*
X49804Y373635D01*
X53725Y372011D01*
X56727Y369009D01*
X58351Y365088D01*
X58351Y360844D01*
X56727Y356923D01*
X53725Y353921D01*
X49804Y352297D01*
X45560Y352297D01*
G37*
%LPD*%
%LPC*%
G36*
X20160Y504697D02*
X20160Y504697D01*
X16239Y506321D01*
X13237Y509323D01*
X11613Y513244D01*
X11613Y517488D01*
X13237Y521409D01*
X16239Y524411D01*
X20160Y526035D01*
X24404Y526035D01*
X28325Y524411D01*
X31327Y521409D01*
X32951Y517488D01*
X32951Y513244D01*
X31327Y509323D01*
X28325Y506321D01*
X24404Y504697D01*
X20160Y504697D01*
G37*
%LPD*%
%LPC*%
G36*
X45560Y504697D02*
X45560Y504697D01*
X41639Y506321D01*
X38637Y509323D01*
X37013Y513244D01*
X37013Y517488D01*
X38637Y521409D01*
X41639Y524411D01*
X45560Y526035D01*
X49804Y526035D01*
X53725Y524411D01*
X56727Y521409D01*
X58351Y517488D01*
X58351Y513244D01*
X56727Y509323D01*
X53725Y506321D01*
X49804Y504697D01*
X45560Y504697D01*
G37*
%LPD*%
%LPC*%
G36*
X20160Y72897D02*
X20160Y72897D01*
X16239Y74521D01*
X13237Y77523D01*
X11613Y81444D01*
X11613Y85688D01*
X13237Y89609D01*
X16239Y92611D01*
X20160Y94235D01*
X24404Y94235D01*
X28325Y92611D01*
X31327Y89609D01*
X32951Y85688D01*
X32951Y81444D01*
X31327Y77523D01*
X28325Y74521D01*
X24404Y72897D01*
X20160Y72897D01*
G37*
%LPD*%
%LPC*%
G36*
X45578Y73031D02*
X45578Y73031D01*
X41657Y74655D01*
X38655Y77657D01*
X37031Y81578D01*
X37031Y85822D01*
X38655Y89743D01*
X41657Y92745D01*
X45578Y94369D01*
X49822Y94369D01*
X53743Y92745D01*
X56745Y89743D01*
X58369Y85822D01*
X58369Y81578D01*
X56745Y77657D01*
X53743Y74655D01*
X49822Y73031D01*
X45578Y73031D01*
G37*
%LPD*%
%LPC*%
G36*
X20160Y98297D02*
X20160Y98297D01*
X16239Y99921D01*
X13237Y102923D01*
X11613Y106844D01*
X11613Y111088D01*
X13237Y115009D01*
X16239Y118011D01*
X20160Y119635D01*
X24404Y119635D01*
X28325Y118011D01*
X31327Y115009D01*
X32951Y111088D01*
X32951Y106844D01*
X31327Y102923D01*
X28325Y99921D01*
X24404Y98297D01*
X20160Y98297D01*
G37*
%LPD*%
%LPC*%
G36*
X45560Y98297D02*
X45560Y98297D01*
X41639Y99921D01*
X38637Y102923D01*
X37013Y106844D01*
X37013Y111088D01*
X38637Y115009D01*
X41639Y118011D01*
X45560Y119635D01*
X49804Y119635D01*
X53725Y118011D01*
X56727Y115009D01*
X58351Y111088D01*
X58351Y106844D01*
X56727Y102923D01*
X53725Y99921D01*
X49804Y98297D01*
X45560Y98297D01*
G37*
%LPD*%
%LPC*%
G36*
X45560Y123697D02*
X45560Y123697D01*
X41639Y125321D01*
X38637Y128323D01*
X37013Y132244D01*
X37013Y136488D01*
X38637Y140409D01*
X41639Y143411D01*
X45560Y145035D01*
X49804Y145035D01*
X53725Y143411D01*
X56727Y140409D01*
X58351Y136488D01*
X58351Y132244D01*
X56727Y128323D01*
X53725Y125321D01*
X49804Y123697D01*
X45560Y123697D01*
G37*
%LPD*%
%LPC*%
G36*
X20160Y453897D02*
X20160Y453897D01*
X16239Y455521D01*
X13237Y458523D01*
X11613Y462444D01*
X11613Y466688D01*
X13237Y470609D01*
X16239Y473611D01*
X20160Y475235D01*
X24404Y475235D01*
X28325Y473611D01*
X31327Y470609D01*
X32951Y466688D01*
X32951Y462444D01*
X31327Y458523D01*
X28325Y455521D01*
X24404Y453897D01*
X20160Y453897D01*
G37*
%LPD*%
%LPC*%
G36*
X20160Y149097D02*
X20160Y149097D01*
X16239Y150721D01*
X13237Y153723D01*
X11613Y157644D01*
X11613Y161888D01*
X13237Y165809D01*
X16239Y168811D01*
X20160Y170435D01*
X24404Y170435D01*
X28325Y168811D01*
X31327Y165809D01*
X32951Y161888D01*
X32951Y157644D01*
X31327Y153723D01*
X28325Y150721D01*
X24404Y149097D01*
X20160Y149097D01*
G37*
%LPD*%
%LPC*%
G36*
X45560Y149097D02*
X45560Y149097D01*
X41639Y150721D01*
X38637Y153723D01*
X37013Y157644D01*
X37013Y161888D01*
X38637Y165809D01*
X41639Y168811D01*
X45560Y170435D01*
X49804Y170435D01*
X53725Y168811D01*
X56727Y165809D01*
X58351Y161888D01*
X58351Y157644D01*
X56727Y153723D01*
X53725Y150721D01*
X49804Y149097D01*
X45560Y149097D01*
G37*
%LPD*%
%LPC*%
G36*
X20160Y530097D02*
X20160Y530097D01*
X16239Y531721D01*
X13237Y534723D01*
X11613Y538644D01*
X11613Y542888D01*
X13237Y546809D01*
X16239Y549811D01*
X20160Y551435D01*
X24404Y551435D01*
X28325Y549811D01*
X31327Y546809D01*
X32951Y542888D01*
X32951Y538644D01*
X31327Y534723D01*
X28325Y531721D01*
X24404Y530097D01*
X20160Y530097D01*
G37*
%LPD*%
%LPC*%
G36*
X20160Y174497D02*
X20160Y174497D01*
X16239Y176121D01*
X13237Y179123D01*
X11613Y183044D01*
X11613Y187288D01*
X13237Y191209D01*
X16239Y194211D01*
X20160Y195835D01*
X24404Y195835D01*
X28325Y194211D01*
X31327Y191209D01*
X32951Y187288D01*
X32951Y183044D01*
X31327Y179123D01*
X28325Y176121D01*
X24404Y174497D01*
X20160Y174497D01*
G37*
%LPD*%
%LPC*%
G36*
X45560Y530097D02*
X45560Y530097D01*
X41639Y531721D01*
X38637Y534723D01*
X37013Y538644D01*
X37013Y542888D01*
X38637Y546809D01*
X41639Y549811D01*
X45560Y551435D01*
X49804Y551435D01*
X53725Y549811D01*
X56727Y546809D01*
X58351Y542888D01*
X58351Y538644D01*
X56727Y534723D01*
X53725Y531721D01*
X49804Y530097D01*
X45560Y530097D01*
G37*
%LPD*%
%LPC*%
G36*
X20160Y199897D02*
X20160Y199897D01*
X16239Y201521D01*
X13237Y204523D01*
X11613Y208444D01*
X11613Y212688D01*
X13237Y216609D01*
X16239Y219611D01*
X20160Y221235D01*
X24404Y221235D01*
X28325Y219611D01*
X31327Y216609D01*
X32951Y212688D01*
X32951Y208444D01*
X31327Y204523D01*
X28325Y201521D01*
X24404Y199897D01*
X20160Y199897D01*
G37*
%LPD*%
%LPC*%
G36*
X45560Y199897D02*
X45560Y199897D01*
X41639Y201521D01*
X38637Y204523D01*
X37013Y208444D01*
X37013Y212688D01*
X38637Y216609D01*
X41639Y219611D01*
X45560Y221235D01*
X49804Y221235D01*
X53725Y219611D01*
X56727Y216609D01*
X58351Y212688D01*
X58351Y208444D01*
X56727Y204523D01*
X53725Y201521D01*
X49804Y199897D01*
X45560Y199897D01*
G37*
%LPD*%
%LPC*%
G36*
X20160Y352297D02*
X20160Y352297D01*
X16239Y353921D01*
X13237Y356923D01*
X11613Y360844D01*
X11613Y365088D01*
X13237Y369009D01*
X16239Y372011D01*
X20160Y373635D01*
X24404Y373635D01*
X28325Y372011D01*
X31327Y369009D01*
X32951Y365088D01*
X32951Y360844D01*
X31327Y356923D01*
X28325Y353921D01*
X24404Y352297D01*
X20160Y352297D01*
G37*
%LPD*%
%LPC*%
G36*
X45560Y326897D02*
X45560Y326897D01*
X41639Y328521D01*
X38637Y331523D01*
X37013Y335444D01*
X37013Y339688D01*
X38637Y343609D01*
X41639Y346611D01*
X45560Y348235D01*
X49804Y348235D01*
X53725Y346611D01*
X56727Y343609D01*
X58351Y339688D01*
X58351Y335444D01*
X56727Y331523D01*
X53725Y328521D01*
X49804Y326897D01*
X45560Y326897D01*
G37*
%LPD*%
%LPC*%
G36*
X45560Y428497D02*
X45560Y428497D01*
X41639Y430121D01*
X38637Y433123D01*
X37013Y437044D01*
X37013Y441288D01*
X38637Y445209D01*
X41639Y448211D01*
X45560Y449835D01*
X49804Y449835D01*
X53725Y448211D01*
X56727Y445209D01*
X58351Y441288D01*
X58351Y437044D01*
X56727Y433123D01*
X53725Y430121D01*
X49804Y428497D01*
X45560Y428497D01*
G37*
%LPD*%
%LPC*%
G36*
X20160Y326897D02*
X20160Y326897D01*
X16239Y328521D01*
X13237Y331523D01*
X11613Y335444D01*
X11613Y339688D01*
X13237Y343609D01*
X16239Y346611D01*
X20160Y348235D01*
X24404Y348235D01*
X28325Y346611D01*
X31327Y343609D01*
X32951Y339688D01*
X32951Y335444D01*
X31327Y331523D01*
X28325Y328521D01*
X24404Y326897D01*
X20160Y326897D01*
G37*
%LPD*%
%LPC*%
G36*
X45560Y225297D02*
X45560Y225297D01*
X41639Y226921D01*
X38637Y229923D01*
X37013Y233844D01*
X37013Y238088D01*
X38637Y242009D01*
X41639Y245011D01*
X45560Y246635D01*
X49804Y246635D01*
X53725Y245011D01*
X56727Y242009D01*
X58351Y238088D01*
X58351Y233844D01*
X56727Y229923D01*
X53725Y226921D01*
X49804Y225297D01*
X45560Y225297D01*
G37*
%LPD*%
%LPC*%
G36*
X20160Y403097D02*
X20160Y403097D01*
X16239Y404721D01*
X13237Y407723D01*
X11613Y411644D01*
X11613Y415888D01*
X13237Y419809D01*
X16239Y422811D01*
X20160Y424435D01*
X24404Y424435D01*
X28325Y422811D01*
X31327Y419809D01*
X32951Y415888D01*
X32951Y411644D01*
X31327Y407723D01*
X28325Y404721D01*
X24404Y403097D01*
X20160Y403097D01*
G37*
%LPD*%
%LPC*%
G36*
X20160Y250697D02*
X20160Y250697D01*
X16239Y252321D01*
X13237Y255323D01*
X11613Y259244D01*
X11613Y263488D01*
X13237Y267409D01*
X16239Y270411D01*
X20160Y272035D01*
X24404Y272035D01*
X28325Y270411D01*
X31327Y267409D01*
X32951Y263488D01*
X32951Y259244D01*
X31327Y255323D01*
X28325Y252321D01*
X24404Y250697D01*
X20160Y250697D01*
G37*
%LPD*%
%LPC*%
G36*
X45560Y403097D02*
X45560Y403097D01*
X41639Y404721D01*
X38637Y407723D01*
X37013Y411644D01*
X37013Y415888D01*
X38637Y419809D01*
X41639Y422811D01*
X45560Y424435D01*
X49804Y424435D01*
X53725Y422811D01*
X56727Y419809D01*
X58351Y415888D01*
X58351Y411644D01*
X56727Y407723D01*
X53725Y404721D01*
X49804Y403097D01*
X45560Y403097D01*
G37*
%LPD*%
%LPC*%
G36*
X45560Y250697D02*
X45560Y250697D01*
X41639Y252321D01*
X38637Y255323D01*
X37013Y259244D01*
X37013Y263488D01*
X38637Y267409D01*
X41639Y270411D01*
X45560Y272035D01*
X49804Y272035D01*
X53725Y270411D01*
X56727Y267409D01*
X58351Y263488D01*
X58351Y259244D01*
X56727Y255323D01*
X53725Y252321D01*
X49804Y250697D01*
X45560Y250697D01*
G37*
%LPD*%
%LPC*%
G36*
X20160Y377697D02*
X20160Y377697D01*
X16239Y379321D01*
X13237Y382323D01*
X11613Y386244D01*
X11613Y390488D01*
X13237Y394409D01*
X16239Y397411D01*
X20160Y399035D01*
X24404Y399035D01*
X28325Y397411D01*
X31327Y394409D01*
X32951Y390488D01*
X32951Y386244D01*
X31327Y382323D01*
X28325Y379321D01*
X24404Y377697D01*
X20160Y377697D01*
G37*
%LPD*%
%LPC*%
G36*
X45560Y276097D02*
X45560Y276097D01*
X41639Y277721D01*
X38637Y280723D01*
X37013Y284644D01*
X37013Y288888D01*
X38637Y292809D01*
X41639Y295811D01*
X45560Y297435D01*
X49804Y297435D01*
X53725Y295811D01*
X56727Y292809D01*
X58351Y288888D01*
X58351Y284644D01*
X56727Y280723D01*
X53725Y277721D01*
X49804Y276097D01*
X45560Y276097D01*
G37*
%LPD*%
%LPC*%
G36*
X20160Y301497D02*
X20160Y301497D01*
X16239Y303121D01*
X13237Y306123D01*
X11613Y310044D01*
X11613Y314288D01*
X13237Y318209D01*
X16239Y321211D01*
X20160Y322835D01*
X24404Y322835D01*
X28325Y321211D01*
X31327Y318209D01*
X32951Y314288D01*
X32951Y310044D01*
X31327Y306123D01*
X28325Y303121D01*
X24404Y301497D01*
X20160Y301497D01*
G37*
%LPD*%
%LPC*%
G36*
X20160Y555497D02*
X20160Y555497D01*
X16239Y557121D01*
X13237Y560123D01*
X11613Y564044D01*
X11613Y568288D01*
X13237Y572209D01*
X16239Y575211D01*
X20160Y576835D01*
X24404Y576835D01*
X28325Y575211D01*
X31327Y572209D01*
X32951Y568288D01*
X32951Y564044D01*
X31327Y560123D01*
X28325Y557121D01*
X24404Y555497D01*
X20160Y555497D01*
G37*
%LPD*%
%LPC*%
G36*
X45560Y301497D02*
X45560Y301497D01*
X41639Y303121D01*
X38637Y306123D01*
X37013Y310044D01*
X37013Y314288D01*
X38637Y318209D01*
X41639Y321211D01*
X45560Y322835D01*
X49804Y322835D01*
X53725Y321211D01*
X56727Y318209D01*
X58351Y314288D01*
X58351Y310044D01*
X56727Y306123D01*
X53725Y303121D01*
X49804Y301497D01*
X45560Y301497D01*
G37*
%LPD*%
%LPC*%
G36*
X45560Y479297D02*
X45560Y479297D01*
X41639Y480921D01*
X38637Y483923D01*
X37013Y487844D01*
X37013Y492088D01*
X38637Y496009D01*
X41639Y499011D01*
X45560Y500635D01*
X49804Y500635D01*
X53725Y499011D01*
X56727Y496009D01*
X58351Y492088D01*
X58351Y487844D01*
X56727Y483923D01*
X53725Y480921D01*
X49804Y479297D01*
X45560Y479297D01*
G37*
%LPD*%
%LPC*%
G36*
X521142Y748911D02*
X521142Y748911D01*
X517265Y750517D01*
X514297Y753485D01*
X512691Y757362D01*
X512691Y761558D01*
X514297Y765435D01*
X517265Y768403D01*
X521142Y770009D01*
X525338Y770009D01*
X529215Y768403D01*
X532183Y765435D01*
X533789Y761558D01*
X533789Y757362D01*
X532183Y753485D01*
X529215Y750517D01*
X525338Y748911D01*
X521142Y748911D01*
G37*
%LPD*%
%LPC*%
G36*
X521142Y799711D02*
X521142Y799711D01*
X517265Y801317D01*
X514297Y804285D01*
X512691Y808162D01*
X512691Y812358D01*
X514297Y816235D01*
X517265Y819203D01*
X521142Y820809D01*
X525338Y820809D01*
X529215Y819203D01*
X532183Y816235D01*
X533789Y812358D01*
X533789Y808162D01*
X532183Y804285D01*
X529215Y801317D01*
X525338Y799711D01*
X521142Y799711D01*
G37*
%LPD*%
%LPC*%
G36*
X521142Y723511D02*
X521142Y723511D01*
X517265Y725117D01*
X514297Y728085D01*
X512691Y731962D01*
X512691Y736158D01*
X514297Y740035D01*
X517265Y743003D01*
X521142Y744609D01*
X525338Y744609D01*
X529215Y743003D01*
X532183Y740035D01*
X533789Y736158D01*
X533789Y731962D01*
X532183Y728085D01*
X529215Y725117D01*
X525338Y723511D01*
X521142Y723511D01*
G37*
%LPD*%
%LPC*%
G36*
X521142Y672711D02*
X521142Y672711D01*
X517265Y674317D01*
X514297Y677285D01*
X512691Y681162D01*
X512691Y685358D01*
X514297Y689235D01*
X517265Y692203D01*
X521142Y693809D01*
X525338Y693809D01*
X529215Y692203D01*
X532183Y689235D01*
X533789Y685358D01*
X533789Y681162D01*
X532183Y677285D01*
X529215Y674317D01*
X525338Y672711D01*
X521142Y672711D01*
G37*
%LPD*%
%LPC*%
G36*
X527539Y617539D02*
X527539Y617539D01*
X527539Y638404D01*
X528949Y638245D01*
X531527Y637656D01*
X534023Y636783D01*
X536405Y635636D01*
X538644Y634229D01*
X540711Y632581D01*
X542581Y630711D01*
X544229Y628644D01*
X545636Y626405D01*
X546783Y624023D01*
X547656Y621527D01*
X548245Y618949D01*
X548404Y617539D01*
X527539Y617539D01*
G37*
%LPD*%
%LPC*%
G36*
X37539Y617539D02*
X37539Y617539D01*
X37539Y638404D01*
X38949Y638245D01*
X41527Y637656D01*
X44023Y636783D01*
X46405Y635636D01*
X48644Y634229D01*
X50711Y632581D01*
X52581Y630711D01*
X54229Y628644D01*
X55636Y626405D01*
X56783Y624023D01*
X57656Y621527D01*
X58245Y618949D01*
X58404Y617539D01*
X37539Y617539D01*
G37*
%LPD*%
%LPC*%
G36*
X527539Y37539D02*
X527539Y37539D01*
X527539Y58404D01*
X528949Y58245D01*
X531527Y57656D01*
X534023Y56783D01*
X536405Y55636D01*
X538644Y54229D01*
X540711Y52581D01*
X542581Y50711D01*
X544229Y48644D01*
X545636Y46405D01*
X546783Y44023D01*
X547656Y41527D01*
X548245Y38949D01*
X548404Y37539D01*
X527539Y37539D01*
G37*
%LPD*%
%LPC*%
G36*
X37539Y37539D02*
X37539Y37539D01*
X37539Y58404D01*
X38949Y58245D01*
X41527Y57656D01*
X44023Y56783D01*
X46405Y55636D01*
X48644Y54229D01*
X50711Y52581D01*
X52581Y50711D01*
X54229Y48644D01*
X55636Y46405D01*
X56783Y44023D01*
X57656Y41527D01*
X58245Y38949D01*
X58404Y37539D01*
X37539Y37539D01*
G37*
%LPD*%
%LPC*%
G36*
X527539Y612461D02*
X527539Y612461D01*
X548404Y612461D01*
X548245Y611051D01*
X547656Y608473D01*
X546783Y605977D01*
X545636Y603595D01*
X545575Y603498D01*
X544778Y602229D01*
X544777Y602229D01*
X544229Y601356D01*
X542581Y599289D01*
X540711Y597419D01*
X538644Y595771D01*
X536405Y594364D01*
X534023Y593217D01*
X531527Y592344D01*
X528949Y591755D01*
X527539Y591596D01*
X527539Y612461D01*
G37*
%LPD*%
%LPC*%
G36*
X37539Y612461D02*
X37539Y612461D01*
X58404Y612461D01*
X58245Y611051D01*
X57656Y608473D01*
X56783Y605977D01*
X55636Y603595D01*
X55575Y603498D01*
X54778Y602229D01*
X54777Y602229D01*
X54229Y601356D01*
X52581Y599289D01*
X50711Y597419D01*
X48644Y595771D01*
X46405Y594364D01*
X44023Y593217D01*
X41527Y592344D01*
X38949Y591755D01*
X37539Y591596D01*
X37539Y612461D01*
G37*
%LPD*%
%LPC*%
G36*
X11596Y617539D02*
X11596Y617539D01*
X11755Y618949D01*
X12344Y621527D01*
X13217Y624023D01*
X14364Y626405D01*
X15771Y628644D01*
X17419Y630711D01*
X19289Y632581D01*
X21356Y634229D01*
X23595Y635636D01*
X25977Y636783D01*
X28473Y637656D01*
X31051Y638245D01*
X32461Y638404D01*
X32461Y617539D01*
X11596Y617539D01*
G37*
%LPD*%
%LPC*%
G36*
X501596Y37539D02*
X501596Y37539D01*
X501755Y38949D01*
X502344Y41527D01*
X503217Y44023D01*
X504364Y46405D01*
X505771Y48644D01*
X507419Y50711D01*
X509289Y52581D01*
X511356Y54229D01*
X513595Y55636D01*
X515977Y56783D01*
X518473Y57656D01*
X521051Y58245D01*
X522461Y58404D01*
X522461Y37539D01*
X501596Y37539D01*
G37*
%LPD*%
%LPC*%
G36*
X11596Y37539D02*
X11596Y37539D01*
X11755Y38949D01*
X12344Y41527D01*
X13217Y44023D01*
X14364Y46405D01*
X15771Y48644D01*
X17419Y50711D01*
X19289Y52581D01*
X21356Y54229D01*
X23595Y55636D01*
X25977Y56783D01*
X28473Y57656D01*
X31051Y58245D01*
X32461Y58404D01*
X32461Y37539D01*
X11596Y37539D01*
G37*
%LPD*%
%LPC*%
G36*
X501596Y617539D02*
X501596Y617539D01*
X501755Y618949D01*
X502344Y621527D01*
X503217Y624023D01*
X504364Y626405D01*
X505771Y628644D01*
X507419Y630711D01*
X509289Y632581D01*
X511356Y634229D01*
X513595Y635636D01*
X515977Y636783D01*
X518473Y637656D01*
X521051Y638245D01*
X522461Y638404D01*
X522461Y617539D01*
X501596Y617539D01*
G37*
%LPD*%
%LPC*%
G36*
X37539Y32461D02*
X37539Y32461D01*
X58404Y32461D01*
X58245Y31051D01*
X57656Y28473D01*
X56783Y25977D01*
X55636Y23595D01*
X54748Y22182D01*
X54748Y22181D01*
X54229Y21356D01*
X52581Y19289D01*
X50711Y17419D01*
X48644Y15771D01*
X46405Y14364D01*
X44023Y13217D01*
X41527Y12344D01*
X38949Y11755D01*
X37539Y11596D01*
X37539Y32461D01*
G37*
%LPD*%
%LPC*%
G36*
X527539Y32461D02*
X527539Y32461D01*
X548404Y32461D01*
X548245Y31051D01*
X547656Y28473D01*
X546783Y25977D01*
X545636Y23595D01*
X544748Y22182D01*
X544748Y22181D01*
X544229Y21356D01*
X542581Y19289D01*
X540711Y17419D01*
X538644Y15771D01*
X536405Y14364D01*
X534023Y13217D01*
X531527Y12344D01*
X528949Y11755D01*
X527539Y11596D01*
X527539Y32461D01*
G37*
%LPD*%
%LPC*%
G36*
X521051Y11755D02*
X521051Y11755D01*
X518473Y12344D01*
X515977Y13217D01*
X513595Y14364D01*
X511356Y15771D01*
X509289Y17419D01*
X507419Y19289D01*
X505771Y21356D01*
X504364Y23595D01*
X503217Y25977D01*
X502344Y28473D01*
X501755Y31051D01*
X501596Y32461D01*
X522461Y32461D01*
X522461Y11596D01*
X521051Y11755D01*
G37*
%LPD*%
%LPC*%
G36*
X31051Y11755D02*
X31051Y11755D01*
X28473Y12344D01*
X25977Y13217D01*
X23595Y14364D01*
X21356Y15771D01*
X19289Y17419D01*
X17419Y19289D01*
X15771Y21356D01*
X14364Y23595D01*
X13217Y25977D01*
X12344Y28473D01*
X11755Y31051D01*
X11596Y32461D01*
X32461Y32461D01*
X32461Y11596D01*
X31051Y11755D01*
G37*
%LPD*%
%LPC*%
G36*
X31051Y591755D02*
X31051Y591755D01*
X28473Y592344D01*
X25977Y593217D01*
X23595Y594364D01*
X21356Y595771D01*
X19289Y597419D01*
X17419Y599289D01*
X15771Y601356D01*
X14364Y603595D01*
X13217Y605977D01*
X12344Y608473D01*
X11755Y611051D01*
X11596Y612461D01*
X32461Y612461D01*
X32461Y591596D01*
X31051Y591755D01*
G37*
%LPD*%
%LPC*%
G36*
X521051Y591755D02*
X521051Y591755D01*
X518473Y592344D01*
X515977Y593217D01*
X513595Y594364D01*
X511356Y595771D01*
X509289Y597419D01*
X507419Y599289D01*
X505771Y601356D01*
X504364Y603595D01*
X503217Y605977D01*
X502344Y608473D01*
X501755Y611051D01*
X501596Y612461D01*
X522461Y612461D01*
X522461Y591596D01*
X521051Y591755D01*
G37*
%LPD*%
%LPC*%
G36*
X364408Y125281D02*
X364408Y125281D01*
X361909Y126316D01*
X359996Y128229D01*
X358961Y130728D01*
X358961Y133432D01*
X359996Y135931D01*
X361909Y137844D01*
X364408Y138879D01*
X367112Y138879D01*
X367711Y138631D01*
X367845Y138594D01*
X367978Y138553D01*
X367998Y138552D01*
X368018Y138547D01*
X368157Y138545D01*
X368295Y138538D01*
X368315Y138542D01*
X368336Y138542D01*
X368471Y138574D01*
X368607Y138602D01*
X368625Y138611D01*
X368645Y138616D01*
X368768Y138681D01*
X368893Y138742D01*
X368908Y138755D01*
X368926Y138765D01*
X369029Y138858D01*
X369135Y138948D01*
X369146Y138965D01*
X369161Y138979D01*
X369238Y139095D01*
X369318Y139208D01*
X369325Y139227D01*
X369336Y139244D01*
X369381Y139376D01*
X369430Y139506D01*
X369433Y139526D01*
X369439Y139545D01*
X369450Y139684D01*
X369466Y139822D01*
X369463Y139842D01*
X369464Y139862D01*
X369441Y139999D01*
X369421Y140137D01*
X369412Y140164D01*
X369410Y140175D01*
X369402Y140194D01*
X369369Y140289D01*
X369121Y140888D01*
X369121Y143592D01*
X370156Y146091D01*
X372069Y148004D01*
X374568Y149039D01*
X377272Y149039D01*
X379771Y148004D01*
X381684Y146091D01*
X382719Y143592D01*
X382719Y140888D01*
X381684Y138389D01*
X379771Y136476D01*
X377272Y135441D01*
X374568Y135441D01*
X373969Y135689D01*
X373835Y135726D01*
X373702Y135767D01*
X373682Y135768D01*
X373662Y135773D01*
X373523Y135775D01*
X373385Y135782D01*
X373365Y135778D01*
X373344Y135778D01*
X373209Y135746D01*
X373073Y135718D01*
X373055Y135709D01*
X373035Y135704D01*
X372912Y135639D01*
X372787Y135578D01*
X372772Y135565D01*
X372754Y135555D01*
X372651Y135462D01*
X372545Y135372D01*
X372534Y135355D01*
X372519Y135341D01*
X372442Y135225D01*
X372362Y135112D01*
X372355Y135093D01*
X372344Y135076D01*
X372299Y134944D01*
X372250Y134814D01*
X372247Y134794D01*
X372241Y134775D01*
X372230Y134636D01*
X372214Y134498D01*
X372217Y134478D01*
X372216Y134458D01*
X372239Y134321D01*
X372259Y134183D01*
X372268Y134156D01*
X372270Y134145D01*
X372278Y134126D01*
X372311Y134031D01*
X372559Y133432D01*
X372559Y130728D01*
X371524Y128229D01*
X369611Y126316D01*
X367112Y125281D01*
X364408Y125281D01*
G37*
%LPD*%
%LPC*%
G36*
X110408Y409761D02*
X110408Y409761D01*
X107909Y410796D01*
X105996Y412709D01*
X104961Y415208D01*
X104961Y417912D01*
X105996Y420411D01*
X107909Y422324D01*
X109559Y423007D01*
X109680Y423076D01*
X109803Y423141D01*
X109818Y423155D01*
X109836Y423165D01*
X109935Y423261D01*
X110038Y423355D01*
X110050Y423372D01*
X110064Y423386D01*
X110137Y423505D01*
X110213Y423621D01*
X110220Y423640D01*
X110230Y423657D01*
X110271Y423790D01*
X110316Y423922D01*
X110318Y423942D01*
X110324Y423961D01*
X110331Y424100D01*
X110342Y424239D01*
X110338Y424259D01*
X110339Y424279D01*
X110311Y424415D01*
X110287Y424552D01*
X110279Y424571D01*
X110275Y424590D01*
X110214Y424715D01*
X110157Y424842D01*
X110144Y424858D01*
X110135Y424876D01*
X110045Y424982D01*
X109958Y425090D01*
X109942Y425103D01*
X109929Y425118D01*
X109815Y425198D01*
X109704Y425282D01*
X109679Y425294D01*
X109669Y425301D01*
X109650Y425308D01*
X109559Y425353D01*
X107909Y426036D01*
X105996Y427949D01*
X104961Y430448D01*
X104961Y433152D01*
X105996Y435651D01*
X107909Y437564D01*
X110408Y438599D01*
X113112Y438599D01*
X115611Y437564D01*
X117524Y435651D01*
X118559Y433152D01*
X118559Y430448D01*
X117524Y427949D01*
X115611Y426036D01*
X113961Y425353D01*
X113840Y425284D01*
X113717Y425219D01*
X113702Y425205D01*
X113684Y425195D01*
X113584Y425098D01*
X113482Y425005D01*
X113470Y424988D01*
X113456Y424974D01*
X113383Y424856D01*
X113307Y424739D01*
X113300Y424720D01*
X113290Y424703D01*
X113249Y424570D01*
X113204Y424438D01*
X113202Y424418D01*
X113196Y424399D01*
X113189Y424260D01*
X113178Y424121D01*
X113182Y424101D01*
X113181Y424081D01*
X113209Y423945D01*
X113233Y423808D01*
X113241Y423789D01*
X113245Y423770D01*
X113306Y423645D01*
X113363Y423518D01*
X113376Y423502D01*
X113385Y423484D01*
X113475Y423378D01*
X113562Y423270D01*
X113578Y423257D01*
X113591Y423242D01*
X113705Y423162D01*
X113816Y423078D01*
X113841Y423066D01*
X113851Y423059D01*
X113870Y423052D01*
X113961Y423007D01*
X115611Y422324D01*
X117524Y420411D01*
X118559Y417912D01*
X118559Y415208D01*
X117524Y412709D01*
X115611Y410796D01*
X113112Y409761D01*
X110408Y409761D01*
G37*
%LPD*%
%LPC*%
G36*
X136239Y79619D02*
X136239Y79619D01*
X136239Y99477D01*
X137482Y99337D01*
X139950Y98774D01*
X142340Y97938D01*
X144621Y96839D01*
X146764Y95492D01*
X148744Y93914D01*
X150534Y92124D01*
X152112Y90144D01*
X153459Y88001D01*
X154558Y85720D01*
X155394Y83330D01*
X155957Y80862D01*
X156097Y79619D01*
X136239Y79619D01*
G37*
%LPD*%
%LPC*%
G36*
X183239Y108619D02*
X183239Y108619D01*
X183239Y128477D01*
X184482Y128337D01*
X186950Y127774D01*
X189340Y126938D01*
X191621Y125839D01*
X193764Y124492D01*
X195744Y122914D01*
X197534Y121124D01*
X199112Y119144D01*
X200459Y117001D01*
X201558Y114720D01*
X202394Y112330D01*
X202957Y109862D01*
X203097Y108619D01*
X183239Y108619D01*
G37*
%LPD*%
%LPC*%
G36*
X111303Y79619D02*
X111303Y79619D01*
X111443Y80862D01*
X112006Y83330D01*
X112842Y85720D01*
X113941Y88001D01*
X113997Y88090D01*
X113997Y88091D01*
X115288Y90144D01*
X116866Y92124D01*
X118656Y93914D01*
X120636Y95492D01*
X122779Y96839D01*
X125060Y97938D01*
X127450Y98774D01*
X129918Y99337D01*
X131161Y99477D01*
X131161Y79619D01*
X111303Y79619D01*
G37*
%LPD*%
%LPC*%
G36*
X136239Y74541D02*
X136239Y74541D01*
X156097Y74541D01*
X155957Y73298D01*
X155394Y70830D01*
X154558Y68440D01*
X153459Y66159D01*
X152942Y65336D01*
X152144Y64067D01*
X152112Y64016D01*
X150534Y62036D01*
X148744Y60246D01*
X146764Y58668D01*
X144621Y57321D01*
X142340Y56222D01*
X139950Y55386D01*
X137482Y54823D01*
X136239Y54683D01*
X136239Y74541D01*
G37*
%LPD*%
%LPC*%
G36*
X183239Y103541D02*
X183239Y103541D01*
X203097Y103541D01*
X202957Y102298D01*
X202394Y99830D01*
X201558Y97440D01*
X200459Y95159D01*
X199112Y93016D01*
X197534Y91036D01*
X195744Y89246D01*
X193764Y87668D01*
X191621Y86321D01*
X189340Y85222D01*
X186950Y84386D01*
X184482Y83823D01*
X183239Y83683D01*
X183239Y103541D01*
G37*
%LPD*%
%LPC*%
G36*
X158303Y108619D02*
X158303Y108619D01*
X158443Y109862D01*
X159006Y112330D01*
X159842Y114720D01*
X160941Y117001D01*
X161916Y118553D01*
X162288Y119144D01*
X163866Y121124D01*
X165656Y122914D01*
X167636Y124492D01*
X169779Y125839D01*
X172060Y126938D01*
X174450Y127774D01*
X176918Y128337D01*
X178161Y128477D01*
X178161Y108619D01*
X158303Y108619D01*
G37*
%LPD*%
%LPC*%
G36*
X176918Y83823D02*
X176918Y83823D01*
X174450Y84386D01*
X172060Y85222D01*
X169779Y86321D01*
X167636Y87668D01*
X165656Y89246D01*
X163866Y91036D01*
X162288Y93016D01*
X160941Y95159D01*
X159842Y97440D01*
X159006Y99830D01*
X158443Y102298D01*
X158303Y103541D01*
X178161Y103541D01*
X178161Y83683D01*
X176918Y83823D01*
G37*
%LPD*%
%LPC*%
G36*
X129918Y54823D02*
X129918Y54823D01*
X127450Y55386D01*
X125060Y56222D01*
X122779Y57321D01*
X120636Y58668D01*
X118656Y60246D01*
X116866Y62036D01*
X115288Y64016D01*
X113941Y66159D01*
X112842Y68440D01*
X112006Y70830D01*
X111443Y73298D01*
X111303Y74541D01*
X131161Y74541D01*
X131161Y54683D01*
X129918Y54823D01*
G37*
%LPD*%
%LPC*%
G36*
X165821Y229615D02*
X165821Y229615D01*
X162460Y231007D01*
X159887Y233580D01*
X158495Y236941D01*
X158495Y240579D01*
X159887Y243940D01*
X162460Y246513D01*
X165821Y247905D01*
X169459Y247905D01*
X172820Y246513D01*
X175393Y243940D01*
X176785Y240579D01*
X176785Y236941D01*
X175393Y233580D01*
X172820Y231007D01*
X169459Y229615D01*
X165821Y229615D01*
G37*
%LPD*%
%LPC*%
G36*
X165821Y255015D02*
X165821Y255015D01*
X162460Y256407D01*
X159887Y258980D01*
X158495Y262341D01*
X158495Y265979D01*
X159887Y269340D01*
X162460Y271913D01*
X165821Y273305D01*
X169459Y273305D01*
X172820Y271913D01*
X175393Y269340D01*
X176785Y265979D01*
X176785Y262341D01*
X175393Y258980D01*
X172820Y256407D01*
X169459Y255015D01*
X165821Y255015D01*
G37*
%LPD*%
%LPC*%
G36*
X480800Y275431D02*
X480800Y275431D01*
X477474Y276809D01*
X474929Y279354D01*
X473551Y282680D01*
X473551Y286280D01*
X474929Y289606D01*
X477474Y292151D01*
X480800Y293529D01*
X484400Y293529D01*
X487726Y292151D01*
X490271Y289606D01*
X491649Y286280D01*
X491649Y282680D01*
X490271Y279354D01*
X487726Y276809D01*
X484400Y275431D01*
X480800Y275431D01*
G37*
%LPD*%
%LPC*%
G36*
X455400Y275431D02*
X455400Y275431D01*
X452074Y276809D01*
X449529Y279354D01*
X448151Y282680D01*
X448151Y286280D01*
X449529Y289606D01*
X452074Y292151D01*
X455400Y293529D01*
X459000Y293529D01*
X462326Y292151D01*
X464871Y289606D01*
X466249Y286280D01*
X466249Y282680D01*
X464871Y279354D01*
X462326Y276809D01*
X459000Y275431D01*
X455400Y275431D01*
G37*
%LPD*%
%LPC*%
G36*
X394888Y709481D02*
X394888Y709481D01*
X392389Y710516D01*
X390476Y712429D01*
X389441Y714928D01*
X389441Y717632D01*
X390476Y720131D01*
X392389Y722044D01*
X394888Y723079D01*
X397592Y723079D01*
X400091Y722044D01*
X402004Y720131D01*
X403039Y717632D01*
X403039Y714928D01*
X402004Y712429D01*
X400091Y710516D01*
X397592Y709481D01*
X394888Y709481D01*
G37*
%LPD*%
%LPC*%
G36*
X135808Y719641D02*
X135808Y719641D01*
X133309Y720676D01*
X131396Y722589D01*
X130361Y725088D01*
X130361Y727792D01*
X131396Y730291D01*
X133309Y732204D01*
X135808Y733239D01*
X138512Y733239D01*
X141011Y732204D01*
X142924Y730291D01*
X143959Y727792D01*
X143959Y725088D01*
X142924Y722589D01*
X141011Y720676D01*
X138512Y719641D01*
X135808Y719641D01*
G37*
%LPD*%
%LPC*%
G36*
X237408Y440241D02*
X237408Y440241D01*
X234909Y441276D01*
X232996Y443189D01*
X231961Y445688D01*
X231961Y448392D01*
X232996Y450891D01*
X234909Y452804D01*
X237408Y453839D01*
X240112Y453839D01*
X242611Y452804D01*
X244524Y450891D01*
X245559Y448392D01*
X245559Y445688D01*
X244524Y443189D01*
X242611Y441276D01*
X240112Y440241D01*
X237408Y440241D01*
G37*
%LPD*%
%LPC*%
G36*
X364408Y709481D02*
X364408Y709481D01*
X361909Y710516D01*
X359996Y712429D01*
X358961Y714928D01*
X358961Y717632D01*
X359996Y720131D01*
X361909Y722044D01*
X364408Y723079D01*
X367112Y723079D01*
X369611Y722044D01*
X371524Y720131D01*
X372559Y717632D01*
X372559Y714928D01*
X371524Y712429D01*
X369611Y710516D01*
X367112Y709481D01*
X364408Y709481D01*
G37*
%LPD*%
%LPC*%
G36*
X333928Y709481D02*
X333928Y709481D01*
X331429Y710516D01*
X329516Y712429D01*
X328481Y714928D01*
X328481Y717632D01*
X329516Y720131D01*
X331429Y722044D01*
X333928Y723079D01*
X336632Y723079D01*
X339131Y722044D01*
X341044Y720131D01*
X342079Y717632D01*
X342079Y714928D01*
X341044Y712429D01*
X339131Y710516D01*
X336632Y709481D01*
X333928Y709481D01*
G37*
%LPD*%
%LPC*%
G36*
X241028Y597721D02*
X241028Y597721D01*
X238529Y598756D01*
X236616Y600669D01*
X235581Y603168D01*
X235581Y605872D01*
X236616Y608371D01*
X238529Y610284D01*
X241028Y611319D01*
X243732Y611319D01*
X246231Y610284D01*
X248144Y608371D01*
X249179Y605872D01*
X249179Y603168D01*
X248144Y600669D01*
X246231Y598756D01*
X243732Y597721D01*
X241028Y597721D01*
G37*
%LPD*%
%LPC*%
G36*
X430448Y318321D02*
X430448Y318321D01*
X427949Y319356D01*
X426036Y321269D01*
X425001Y323768D01*
X425001Y326472D01*
X426036Y328971D01*
X427949Y330884D01*
X430448Y331919D01*
X433152Y331919D01*
X435651Y330884D01*
X437564Y328971D01*
X438599Y326472D01*
X438599Y323768D01*
X437564Y321269D01*
X435651Y319356D01*
X433152Y318321D01*
X430448Y318321D01*
G37*
%LPD*%
%LPC*%
G36*
X24048Y734881D02*
X24048Y734881D01*
X21549Y735916D01*
X19636Y737829D01*
X18601Y740328D01*
X18601Y743032D01*
X19636Y745531D01*
X21549Y747444D01*
X24048Y748479D01*
X26752Y748479D01*
X29251Y747444D01*
X31164Y745531D01*
X32199Y743032D01*
X32199Y740328D01*
X31164Y737829D01*
X29251Y735916D01*
X26752Y734881D01*
X24048Y734881D01*
G37*
%LPD*%
%LPC*%
G36*
X125648Y775521D02*
X125648Y775521D01*
X123149Y776556D01*
X121236Y778469D01*
X120201Y780968D01*
X120201Y783672D01*
X121236Y786171D01*
X123149Y788084D01*
X125648Y789119D01*
X128352Y789119D01*
X130851Y788084D01*
X132764Y786171D01*
X133799Y783672D01*
X133799Y780968D01*
X132764Y778469D01*
X130851Y776556D01*
X128352Y775521D01*
X125648Y775521D01*
G37*
%LPD*%
%LPC*%
G36*
X303448Y709481D02*
X303448Y709481D01*
X300949Y710516D01*
X299036Y712429D01*
X298001Y714928D01*
X298001Y717632D01*
X299036Y720131D01*
X300949Y722044D01*
X303448Y723079D01*
X306152Y723079D01*
X308651Y722044D01*
X310564Y720131D01*
X311599Y717632D01*
X311599Y714928D01*
X310564Y712429D01*
X308651Y710516D01*
X306152Y709481D01*
X303448Y709481D01*
G37*
%LPD*%
%LPC*%
G36*
X369488Y399601D02*
X369488Y399601D01*
X366989Y400636D01*
X365076Y402549D01*
X364041Y405048D01*
X364041Y407752D01*
X365076Y410251D01*
X366989Y412164D01*
X369488Y413199D01*
X372192Y413199D01*
X374691Y412164D01*
X376604Y410251D01*
X377639Y407752D01*
X377639Y405048D01*
X376604Y402549D01*
X374691Y400636D01*
X372192Y399601D01*
X369488Y399601D01*
G37*
%LPD*%
%LPC*%
G36*
X476168Y785681D02*
X476168Y785681D01*
X473669Y786716D01*
X471756Y788629D01*
X470721Y791128D01*
X470721Y793832D01*
X471756Y796331D01*
X473669Y798244D01*
X476168Y799279D01*
X478872Y799279D01*
X481371Y798244D01*
X483284Y796331D01*
X484319Y793832D01*
X484319Y791128D01*
X483284Y788629D01*
X481371Y786716D01*
X478872Y785681D01*
X476168Y785681D01*
G37*
%LPD*%
%LPC*%
G36*
X272968Y709481D02*
X272968Y709481D01*
X270469Y710516D01*
X268556Y712429D01*
X267521Y714928D01*
X267521Y717632D01*
X268556Y720131D01*
X270469Y722044D01*
X272968Y723079D01*
X275672Y723079D01*
X278171Y722044D01*
X280084Y720131D01*
X281119Y717632D01*
X281119Y714928D01*
X280084Y712429D01*
X278171Y710516D01*
X275672Y709481D01*
X272968Y709481D01*
G37*
%LPD*%
%LPC*%
G36*
X445688Y160841D02*
X445688Y160841D01*
X443189Y161876D01*
X441276Y163789D01*
X440241Y166288D01*
X440241Y168992D01*
X441276Y171491D01*
X443189Y173404D01*
X445688Y174439D01*
X448392Y174439D01*
X450891Y173404D01*
X452804Y171491D01*
X453839Y168992D01*
X453839Y166288D01*
X452804Y163789D01*
X450891Y161876D01*
X448392Y160841D01*
X445688Y160841D01*
G37*
%LPD*%
%LPC*%
G36*
X374568Y653601D02*
X374568Y653601D01*
X372069Y654636D01*
X370156Y656549D01*
X369121Y659048D01*
X369121Y661752D01*
X370156Y664251D01*
X372069Y666164D01*
X374568Y667199D01*
X377272Y667199D01*
X379771Y666164D01*
X381684Y664251D01*
X382719Y661752D01*
X382719Y659048D01*
X381684Y656549D01*
X379771Y654636D01*
X377272Y653601D01*
X374568Y653601D01*
G37*
%LPD*%
%LPC*%
G36*
X399968Y636631D02*
X399968Y636631D01*
X397469Y637666D01*
X395556Y639579D01*
X394521Y642078D01*
X394521Y644782D01*
X395556Y647281D01*
X397469Y649194D01*
X399968Y650229D01*
X402672Y650229D01*
X405171Y649194D01*
X407084Y647281D01*
X408119Y644782D01*
X408119Y642078D01*
X407084Y639579D01*
X405171Y637666D01*
X402672Y636631D01*
X399968Y636631D01*
G37*
%LPD*%
%LPC*%
G36*
X308528Y623121D02*
X308528Y623121D01*
X306029Y624156D01*
X304116Y626069D01*
X303081Y628568D01*
X303081Y631272D01*
X304116Y633771D01*
X306029Y635684D01*
X308528Y636719D01*
X311232Y636719D01*
X313731Y635684D01*
X315644Y633771D01*
X316679Y631272D01*
X316679Y628568D01*
X315644Y626069D01*
X313731Y624156D01*
X311232Y623121D01*
X308528Y623121D01*
G37*
%LPD*%
%LPC*%
G36*
X308528Y450401D02*
X308528Y450401D01*
X306029Y451436D01*
X304116Y453349D01*
X303081Y455848D01*
X303081Y458552D01*
X304116Y461051D01*
X306029Y462964D01*
X308528Y463999D01*
X311232Y463999D01*
X313731Y462964D01*
X315644Y461051D01*
X316679Y458552D01*
X316679Y455848D01*
X315644Y453349D01*
X313731Y451436D01*
X311232Y450401D01*
X308528Y450401D01*
G37*
%LPD*%
%LPC*%
G36*
X384728Y237041D02*
X384728Y237041D01*
X382229Y238076D01*
X380316Y239989D01*
X379281Y242488D01*
X379281Y245192D01*
X380316Y247691D01*
X382229Y249604D01*
X384728Y250639D01*
X387432Y250639D01*
X389931Y249604D01*
X391844Y247691D01*
X392879Y245192D01*
X392879Y242488D01*
X391844Y239989D01*
X389931Y238076D01*
X387432Y237041D01*
X384728Y237041D01*
G37*
%LPD*%
%LPC*%
G36*
X201848Y455481D02*
X201848Y455481D01*
X199349Y456516D01*
X197436Y458429D01*
X196401Y460928D01*
X196401Y463632D01*
X197436Y466131D01*
X199349Y468044D01*
X201848Y469079D01*
X204552Y469079D01*
X207051Y468044D01*
X208964Y466131D01*
X209999Y463632D01*
X209999Y460928D01*
X208964Y458429D01*
X207051Y456516D01*
X204552Y455481D01*
X201848Y455481D01*
G37*
%LPD*%
%LPC*%
G36*
X212008Y472197D02*
X212008Y472197D01*
X209509Y473232D01*
X207596Y475145D01*
X206561Y477644D01*
X206561Y480348D01*
X207596Y482847D01*
X209509Y484760D01*
X212008Y485795D01*
X214712Y485795D01*
X217211Y484760D01*
X219124Y482847D01*
X220159Y480348D01*
X220159Y477644D01*
X219124Y475145D01*
X217211Y473232D01*
X214712Y472197D01*
X212008Y472197D01*
G37*
%LPD*%
%LPC*%
G36*
X212008Y343721D02*
X212008Y343721D01*
X209509Y344756D01*
X207596Y346669D01*
X206561Y349168D01*
X206561Y351872D01*
X207596Y354371D01*
X209509Y356284D01*
X212008Y357319D01*
X214712Y357319D01*
X217211Y356284D01*
X219124Y354371D01*
X220159Y351872D01*
X220159Y349168D01*
X219124Y346669D01*
X217211Y344756D01*
X214712Y343721D01*
X212008Y343721D01*
G37*
%LPD*%
%LPC*%
G36*
X191688Y795841D02*
X191688Y795841D01*
X189189Y796876D01*
X187276Y798789D01*
X186241Y801288D01*
X186241Y803992D01*
X187276Y806491D01*
X189189Y808404D01*
X191688Y809439D01*
X194392Y809439D01*
X196891Y808404D01*
X198804Y806491D01*
X199839Y803992D01*
X199839Y801288D01*
X198804Y798789D01*
X196891Y796876D01*
X194392Y795841D01*
X191688Y795841D01*
G37*
%LPD*%
%LPC*%
G36*
X217088Y506281D02*
X217088Y506281D01*
X214589Y507316D01*
X212676Y509229D01*
X211641Y511728D01*
X211641Y514432D01*
X212676Y516931D01*
X214589Y518844D01*
X217088Y519879D01*
X219792Y519879D01*
X222291Y518844D01*
X224204Y516931D01*
X225239Y514432D01*
X225239Y511728D01*
X224204Y509229D01*
X222291Y507316D01*
X219792Y506281D01*
X217088Y506281D01*
G37*
%LPD*%
%LPC*%
G36*
X313608Y348801D02*
X313608Y348801D01*
X311109Y349836D01*
X309196Y351749D01*
X308161Y354248D01*
X308161Y356952D01*
X309196Y359451D01*
X311109Y361364D01*
X313608Y362399D01*
X316312Y362399D01*
X318811Y361364D01*
X320724Y359451D01*
X321759Y356952D01*
X321759Y354248D01*
X320724Y351749D01*
X318811Y349836D01*
X316312Y348801D01*
X313608Y348801D01*
G37*
%LPD*%
%LPC*%
G36*
X530859Y464819D02*
X530859Y464819D01*
X530859Y477958D01*
X531424Y477884D01*
X533434Y477345D01*
X535357Y476549D01*
X537159Y475508D01*
X538810Y474242D01*
X540282Y472770D01*
X541548Y471119D01*
X542589Y469317D01*
X543385Y467394D01*
X543924Y465384D01*
X543998Y464819D01*
X530859Y464819D01*
G37*
%LPD*%
%LPC*%
G36*
X480059Y464819D02*
X480059Y464819D01*
X480059Y477958D01*
X480624Y477884D01*
X482634Y477345D01*
X484557Y476549D01*
X486359Y475508D01*
X488010Y474242D01*
X489482Y472770D01*
X490748Y471119D01*
X491789Y469317D01*
X492585Y467394D01*
X493124Y465384D01*
X493198Y464819D01*
X480059Y464819D01*
G37*
%LPD*%
%LPC*%
G36*
X480059Y414019D02*
X480059Y414019D01*
X480059Y427158D01*
X480624Y427084D01*
X482634Y426545D01*
X484557Y425749D01*
X486359Y424708D01*
X488010Y423442D01*
X489482Y421970D01*
X490748Y420319D01*
X491789Y418517D01*
X492585Y416594D01*
X493124Y414584D01*
X493198Y414019D01*
X480059Y414019D01*
G37*
%LPD*%
%LPC*%
G36*
X530859Y414019D02*
X530859Y414019D01*
X530859Y427158D01*
X531424Y427084D01*
X533434Y426545D01*
X535357Y425749D01*
X537159Y424708D01*
X538810Y423442D01*
X540282Y421970D01*
X541548Y420319D01*
X542589Y418517D01*
X543385Y416594D01*
X543924Y414584D01*
X543998Y414019D01*
X530859Y414019D01*
G37*
%LPD*%
%LPC*%
G36*
X512642Y464819D02*
X512642Y464819D01*
X512716Y465384D01*
X513255Y467394D01*
X514051Y469317D01*
X515092Y471119D01*
X516358Y472770D01*
X517830Y474242D01*
X519481Y475508D01*
X521283Y476549D01*
X523206Y477345D01*
X525216Y477884D01*
X525781Y477958D01*
X525781Y464819D01*
X512642Y464819D01*
G37*
%LPD*%
%LPC*%
G36*
X461842Y414019D02*
X461842Y414019D01*
X461916Y414584D01*
X462455Y416594D01*
X463251Y418517D01*
X464292Y420319D01*
X465558Y421970D01*
X467030Y423442D01*
X468681Y424708D01*
X470483Y425749D01*
X472406Y426545D01*
X474416Y427084D01*
X474981Y427158D01*
X474981Y414019D01*
X461842Y414019D01*
G37*
%LPD*%
%LPC*%
G36*
X461842Y464819D02*
X461842Y464819D01*
X461916Y465384D01*
X462455Y467394D01*
X463251Y469317D01*
X464292Y471119D01*
X465558Y472770D01*
X467030Y474242D01*
X468681Y475508D01*
X470483Y476549D01*
X472406Y477345D01*
X474416Y477884D01*
X474981Y477958D01*
X474981Y464819D01*
X461842Y464819D01*
G37*
%LPD*%
%LPC*%
G36*
X512642Y414019D02*
X512642Y414019D01*
X512716Y414584D01*
X513255Y416594D01*
X514051Y418517D01*
X515092Y420319D01*
X516358Y421970D01*
X517830Y423442D01*
X519481Y424708D01*
X521283Y425749D01*
X523206Y426545D01*
X525216Y427084D01*
X525781Y427158D01*
X525781Y414019D01*
X512642Y414019D01*
G37*
%LPD*%
%LPC*%
G36*
X530859Y408941D02*
X530859Y408941D01*
X543998Y408941D01*
X543924Y408376D01*
X543385Y406366D01*
X542589Y404443D01*
X541548Y402641D01*
X540282Y400990D01*
X538810Y399518D01*
X537159Y398252D01*
X535357Y397211D01*
X533434Y396415D01*
X531424Y395876D01*
X530859Y395802D01*
X530859Y408941D01*
G37*
%LPD*%
%LPC*%
G36*
X480059Y459741D02*
X480059Y459741D01*
X493198Y459741D01*
X493124Y459176D01*
X492585Y457166D01*
X491789Y455243D01*
X490748Y453441D01*
X489482Y451790D01*
X488010Y450318D01*
X486359Y449052D01*
X484557Y448011D01*
X482634Y447215D01*
X480624Y446676D01*
X480059Y446602D01*
X480059Y459741D01*
G37*
%LPD*%
%LPC*%
G36*
X530859Y459741D02*
X530859Y459741D01*
X543998Y459741D01*
X543924Y459176D01*
X543385Y457166D01*
X542589Y455243D01*
X541548Y453441D01*
X540282Y451790D01*
X538810Y450318D01*
X537159Y449052D01*
X535357Y448011D01*
X533434Y447215D01*
X531424Y446676D01*
X530859Y446602D01*
X530859Y459741D01*
G37*
%LPD*%
%LPC*%
G36*
X480059Y408941D02*
X480059Y408941D01*
X493198Y408941D01*
X493124Y408376D01*
X492585Y406366D01*
X491789Y404443D01*
X490748Y402641D01*
X489482Y400990D01*
X488010Y399518D01*
X486359Y398252D01*
X484557Y397211D01*
X482634Y396415D01*
X480624Y395876D01*
X480059Y395802D01*
X480059Y408941D01*
G37*
%LPD*%
%LPC*%
G36*
X474416Y395876D02*
X474416Y395876D01*
X472406Y396415D01*
X470483Y397211D01*
X468681Y398252D01*
X467030Y399518D01*
X465558Y400990D01*
X464292Y402641D01*
X463251Y404443D01*
X462455Y406366D01*
X461916Y408376D01*
X461842Y408941D01*
X474981Y408941D01*
X474981Y395802D01*
X474416Y395876D01*
G37*
%LPD*%
%LPC*%
G36*
X474416Y446676D02*
X474416Y446676D01*
X472406Y447215D01*
X470483Y448011D01*
X468681Y449052D01*
X467030Y450318D01*
X465558Y451790D01*
X464292Y453441D01*
X463251Y455243D01*
X462455Y457166D01*
X461916Y459176D01*
X461842Y459741D01*
X474981Y459741D01*
X474981Y446602D01*
X474416Y446676D01*
G37*
%LPD*%
%LPC*%
G36*
X525216Y446676D02*
X525216Y446676D01*
X523206Y447215D01*
X521283Y448011D01*
X519481Y449052D01*
X517830Y450318D01*
X516358Y451790D01*
X515092Y453441D01*
X514051Y455243D01*
X513255Y457166D01*
X512716Y459176D01*
X512642Y459741D01*
X525781Y459741D01*
X525781Y446602D01*
X525216Y446676D01*
G37*
%LPD*%
%LPC*%
G36*
X525216Y395876D02*
X525216Y395876D01*
X523206Y396415D01*
X521283Y397211D01*
X519481Y398252D01*
X517830Y399518D01*
X516358Y400990D01*
X515092Y402641D01*
X514051Y404443D01*
X513255Y406366D01*
X512716Y408376D01*
X512642Y408941D01*
X525781Y408941D01*
X525781Y395802D01*
X525216Y395876D01*
G37*
%LPD*%
%LPC*%
G36*
X535939Y88899D02*
X535939Y88899D01*
X535939Y98560D01*
X536315Y98500D01*
X538178Y97895D01*
X539924Y97005D01*
X541508Y95854D01*
X542894Y94468D01*
X544045Y92884D01*
X544935Y91138D01*
X545540Y89275D01*
X545600Y88899D01*
X535939Y88899D01*
G37*
%LPD*%
%LPC*%
G36*
X521200Y88899D02*
X521200Y88899D01*
X521260Y89275D01*
X521865Y91138D01*
X522755Y92884D01*
X523906Y94468D01*
X525292Y95854D01*
X526876Y97005D01*
X528622Y97895D01*
X530485Y98500D01*
X530861Y98560D01*
X530861Y88899D01*
X521200Y88899D01*
G37*
%LPD*%
%LPC*%
G36*
X535939Y83821D02*
X535939Y83821D01*
X545600Y83821D01*
X545540Y83445D01*
X544935Y81582D01*
X544045Y79836D01*
X542894Y78252D01*
X541508Y76866D01*
X539924Y75715D01*
X538178Y74825D01*
X536315Y74220D01*
X535939Y74160D01*
X535939Y83821D01*
G37*
%LPD*%
%LPC*%
G36*
X530485Y74220D02*
X530485Y74220D01*
X528622Y74825D01*
X526876Y75715D01*
X525292Y76866D01*
X523906Y78252D01*
X522755Y79836D01*
X521865Y81582D01*
X521260Y83445D01*
X521200Y83821D01*
X530861Y83821D01*
X530861Y74160D01*
X530485Y74220D01*
G37*
%LPD*%
%LPC*%
G36*
X24821Y492505D02*
X24821Y492505D01*
X24821Y499825D01*
X26182Y499382D01*
X27607Y498656D01*
X28901Y497716D01*
X30032Y496585D01*
X30972Y495291D01*
X31698Y493866D01*
X32141Y492505D01*
X24821Y492505D01*
G37*
%LPD*%
%LPC*%
G36*
X24821Y136905D02*
X24821Y136905D01*
X24821Y144225D01*
X26182Y143782D01*
X27607Y143056D01*
X28901Y142116D01*
X30032Y140985D01*
X30972Y139691D01*
X31698Y138266D01*
X32141Y136905D01*
X24821Y136905D01*
G37*
%LPD*%
%LPC*%
G36*
X50221Y187705D02*
X50221Y187705D01*
X50221Y195025D01*
X51582Y194582D01*
X53007Y193856D01*
X54301Y192916D01*
X55432Y191785D01*
X56372Y190491D01*
X57098Y189066D01*
X57541Y187705D01*
X50221Y187705D01*
G37*
%LPD*%
%LPC*%
G36*
X50221Y568705D02*
X50221Y568705D01*
X50221Y576025D01*
X51582Y575582D01*
X53007Y574856D01*
X54301Y573916D01*
X55432Y572785D01*
X56372Y571491D01*
X57098Y570066D01*
X57541Y568705D01*
X50221Y568705D01*
G37*
%LPD*%
%LPC*%
G36*
X24821Y289305D02*
X24821Y289305D01*
X24821Y296625D01*
X26182Y296182D01*
X27607Y295456D01*
X28901Y294516D01*
X30032Y293385D01*
X30972Y292091D01*
X31698Y290666D01*
X32141Y289305D01*
X24821Y289305D01*
G37*
%LPD*%
%LPC*%
G36*
X50221Y390905D02*
X50221Y390905D01*
X50221Y398225D01*
X51582Y397782D01*
X53007Y397056D01*
X54301Y396116D01*
X55432Y394985D01*
X56372Y393691D01*
X57098Y392266D01*
X57541Y390905D01*
X50221Y390905D01*
G37*
%LPD*%
%LPC*%
G36*
X24821Y238505D02*
X24821Y238505D01*
X24821Y245825D01*
X26182Y245382D01*
X27607Y244656D01*
X28901Y243716D01*
X30032Y242585D01*
X30972Y241291D01*
X31698Y239866D01*
X32141Y238505D01*
X24821Y238505D01*
G37*
%LPD*%
%LPC*%
G36*
X24821Y441705D02*
X24821Y441705D01*
X24821Y449025D01*
X26182Y448582D01*
X27607Y447856D01*
X28901Y446916D01*
X30032Y445785D01*
X30972Y444491D01*
X31698Y443066D01*
X32141Y441705D01*
X24821Y441705D01*
G37*
%LPD*%
%LPC*%
G36*
X37823Y390905D02*
X37823Y390905D01*
X38266Y392266D01*
X38992Y393691D01*
X39932Y394985D01*
X41063Y396116D01*
X42357Y397056D01*
X43782Y397782D01*
X45143Y398225D01*
X45143Y390905D01*
X37823Y390905D01*
G37*
%LPD*%
%LPC*%
G36*
X12423Y492505D02*
X12423Y492505D01*
X12866Y493866D01*
X13592Y495291D01*
X14532Y496585D01*
X15663Y497716D01*
X16957Y498656D01*
X18382Y499382D01*
X19743Y499825D01*
X19743Y492505D01*
X12423Y492505D01*
G37*
%LPD*%
%LPC*%
G36*
X37823Y568705D02*
X37823Y568705D01*
X38266Y570066D01*
X38992Y571491D01*
X39932Y572785D01*
X41063Y573916D01*
X42357Y574856D01*
X43782Y575582D01*
X45143Y576025D01*
X45143Y568705D01*
X37823Y568705D01*
G37*
%LPD*%
%LPC*%
G36*
X12423Y238505D02*
X12423Y238505D01*
X12866Y239866D01*
X13592Y241291D01*
X14532Y242585D01*
X15663Y243716D01*
X16957Y244656D01*
X18382Y245382D01*
X19743Y245825D01*
X19743Y238505D01*
X12423Y238505D01*
G37*
%LPD*%
%LPC*%
G36*
X50221Y563627D02*
X50221Y563627D01*
X57541Y563627D01*
X57098Y562266D01*
X56372Y560841D01*
X55432Y559547D01*
X54301Y558416D01*
X53007Y557476D01*
X51582Y556750D01*
X50221Y556307D01*
X50221Y563627D01*
G37*
%LPD*%
%LPC*%
G36*
X12423Y289305D02*
X12423Y289305D01*
X12866Y290666D01*
X13592Y292091D01*
X14532Y293385D01*
X15663Y294516D01*
X16957Y295456D01*
X18382Y296182D01*
X19743Y296625D01*
X19743Y289305D01*
X12423Y289305D01*
G37*
%LPD*%
%LPC*%
G36*
X24821Y233427D02*
X24821Y233427D01*
X32141Y233427D01*
X31698Y232066D01*
X30972Y230641D01*
X30032Y229347D01*
X28901Y228216D01*
X27607Y227276D01*
X26182Y226550D01*
X24821Y226107D01*
X24821Y233427D01*
G37*
%LPD*%
%LPC*%
G36*
X24821Y487427D02*
X24821Y487427D01*
X32141Y487427D01*
X31698Y486066D01*
X30972Y484641D01*
X30032Y483347D01*
X28901Y482216D01*
X27607Y481276D01*
X26182Y480550D01*
X24821Y480107D01*
X24821Y487427D01*
G37*
%LPD*%
%LPC*%
G36*
X12423Y441705D02*
X12423Y441705D01*
X12866Y443066D01*
X13592Y444491D01*
X14532Y445785D01*
X15663Y446916D01*
X16957Y447856D01*
X18382Y448582D01*
X19743Y449025D01*
X19743Y441705D01*
X12423Y441705D01*
G37*
%LPD*%
%LPC*%
G36*
X24821Y436627D02*
X24821Y436627D01*
X32141Y436627D01*
X31698Y435266D01*
X30972Y433841D01*
X30032Y432547D01*
X28901Y431416D01*
X27607Y430476D01*
X26182Y429750D01*
X24821Y429307D01*
X24821Y436627D01*
G37*
%LPD*%
%LPC*%
G36*
X50221Y182627D02*
X50221Y182627D01*
X57541Y182627D01*
X57098Y181266D01*
X56372Y179841D01*
X55432Y178547D01*
X54301Y177416D01*
X53007Y176476D01*
X51582Y175750D01*
X50221Y175307D01*
X50221Y182627D01*
G37*
%LPD*%
%LPC*%
G36*
X50221Y385827D02*
X50221Y385827D01*
X57541Y385827D01*
X57098Y384466D01*
X56372Y383041D01*
X55432Y381747D01*
X54301Y380616D01*
X53007Y379676D01*
X51582Y378950D01*
X50221Y378507D01*
X50221Y385827D01*
G37*
%LPD*%
%LPC*%
G36*
X24821Y131827D02*
X24821Y131827D01*
X32141Y131827D01*
X31698Y130466D01*
X30972Y129041D01*
X30032Y127747D01*
X28901Y126616D01*
X27607Y125676D01*
X26182Y124950D01*
X24821Y124507D01*
X24821Y131827D01*
G37*
%LPD*%
%LPC*%
G36*
X12423Y136905D02*
X12423Y136905D01*
X12866Y138266D01*
X13592Y139691D01*
X14532Y140985D01*
X15663Y142116D01*
X16957Y143056D01*
X18382Y143782D01*
X19743Y144225D01*
X19743Y136905D01*
X12423Y136905D01*
G37*
%LPD*%
%LPC*%
G36*
X24821Y284227D02*
X24821Y284227D01*
X32141Y284227D01*
X31698Y282866D01*
X30972Y281441D01*
X30032Y280147D01*
X28901Y279016D01*
X27607Y278076D01*
X26182Y277350D01*
X24821Y276907D01*
X24821Y284227D01*
G37*
%LPD*%
%LPC*%
G36*
X37823Y187705D02*
X37823Y187705D01*
X38266Y189066D01*
X38992Y190491D01*
X39932Y191785D01*
X41063Y192916D01*
X42357Y193856D01*
X43782Y194582D01*
X45143Y195025D01*
X45143Y187705D01*
X37823Y187705D01*
G37*
%LPD*%
%LPC*%
G36*
X18382Y429750D02*
X18382Y429750D01*
X16957Y430476D01*
X15925Y431225D01*
X15925Y431226D01*
X15663Y431416D01*
X14532Y432547D01*
X13592Y433841D01*
X12866Y435266D01*
X12423Y436627D01*
X19743Y436627D01*
X19743Y429307D01*
X18382Y429750D01*
G37*
%LPD*%
%LPC*%
G36*
X18382Y277350D02*
X18382Y277350D01*
X16957Y278076D01*
X15801Y278915D01*
X15801Y278916D01*
X15663Y279016D01*
X14532Y280147D01*
X13592Y281441D01*
X12866Y282866D01*
X12423Y284227D01*
X19743Y284227D01*
X19743Y276907D01*
X18382Y277350D01*
G37*
%LPD*%
%LPC*%
G36*
X18382Y124950D02*
X18382Y124950D01*
X16957Y125676D01*
X15677Y126605D01*
X15677Y126606D01*
X15663Y126616D01*
X14532Y127747D01*
X13592Y129041D01*
X12866Y130466D01*
X12423Y131827D01*
X19743Y131827D01*
X19743Y124507D01*
X18382Y124950D01*
G37*
%LPD*%
%LPC*%
G36*
X43782Y175750D02*
X43782Y175750D01*
X42357Y176476D01*
X41063Y177416D01*
X39932Y178547D01*
X38992Y179841D01*
X38266Y181266D01*
X37823Y182627D01*
X45143Y182627D01*
X45143Y175307D01*
X43782Y175750D01*
G37*
%LPD*%
%LPC*%
G36*
X18382Y480550D02*
X18382Y480550D01*
X16957Y481276D01*
X15663Y482216D01*
X14532Y483347D01*
X13592Y484641D01*
X12866Y486066D01*
X12423Y487427D01*
X19743Y487427D01*
X19743Y480107D01*
X18382Y480550D01*
G37*
%LPD*%
%LPC*%
G36*
X18382Y226550D02*
X18382Y226550D01*
X16957Y227276D01*
X15663Y228216D01*
X14532Y229347D01*
X13592Y230641D01*
X12866Y232066D01*
X12423Y233427D01*
X19743Y233427D01*
X19743Y226107D01*
X18382Y226550D01*
G37*
%LPD*%
%LPC*%
G36*
X43782Y378950D02*
X43782Y378950D01*
X42357Y379676D01*
X41063Y380616D01*
X39932Y381747D01*
X38992Y383041D01*
X38266Y384466D01*
X37823Y385827D01*
X45143Y385827D01*
X45143Y378507D01*
X43782Y378950D01*
G37*
%LPD*%
%LPC*%
G36*
X43782Y556750D02*
X43782Y556750D01*
X42357Y557476D01*
X41063Y558416D01*
X39932Y559547D01*
X38992Y560841D01*
X38266Y562266D01*
X37823Y563627D01*
X45143Y563627D01*
X45143Y556307D01*
X43782Y556750D01*
G37*
%LPD*%
%LPC*%
G36*
X525739Y711159D02*
X525739Y711159D01*
X525739Y718405D01*
X527094Y717965D01*
X528502Y717248D01*
X529781Y716319D01*
X530899Y715201D01*
X531828Y713922D01*
X532545Y712514D01*
X532985Y711159D01*
X525739Y711159D01*
G37*
%LPD*%
%LPC*%
G36*
X525739Y787359D02*
X525739Y787359D01*
X525739Y794605D01*
X527094Y794165D01*
X528502Y793448D01*
X529781Y792519D01*
X530899Y791401D01*
X531828Y790122D01*
X532545Y788714D01*
X532985Y787359D01*
X525739Y787359D01*
G37*
%LPD*%
%LPC*%
G36*
X525739Y706161D02*
X525739Y706161D01*
X532985Y706161D01*
X532545Y704806D01*
X531828Y703398D01*
X530899Y702119D01*
X529781Y701001D01*
X528502Y700072D01*
X527094Y699355D01*
X525739Y698915D01*
X525739Y706161D01*
G37*
%LPD*%
%LPC*%
G36*
X513495Y787359D02*
X513495Y787359D01*
X513935Y788714D01*
X514652Y790122D01*
X515581Y791401D01*
X516699Y792519D01*
X517978Y793448D01*
X519386Y794165D01*
X520741Y794605D01*
X520741Y787359D01*
X513495Y787359D01*
G37*
%LPD*%
%LPC*%
G36*
X525739Y782361D02*
X525739Y782361D01*
X532985Y782361D01*
X532545Y781006D01*
X531828Y779598D01*
X530899Y778319D01*
X529781Y777201D01*
X528502Y776272D01*
X527094Y775555D01*
X525739Y775115D01*
X525739Y782361D01*
G37*
%LPD*%
%LPC*%
G36*
X513495Y711159D02*
X513495Y711159D01*
X513935Y712514D01*
X514652Y713922D01*
X515581Y715201D01*
X516699Y716319D01*
X517978Y717248D01*
X519386Y717965D01*
X520741Y718405D01*
X520741Y711159D01*
X513495Y711159D01*
G37*
%LPD*%
%LPC*%
G36*
X519386Y775555D02*
X519386Y775555D01*
X517978Y776272D01*
X516699Y777201D01*
X515581Y778319D01*
X514652Y779598D01*
X513935Y781006D01*
X513495Y782361D01*
X520741Y782361D01*
X520741Y775115D01*
X519386Y775555D01*
G37*
%LPD*%
%LPC*%
G36*
X519386Y699355D02*
X519386Y699355D01*
X517978Y700072D01*
X516699Y701001D01*
X515581Y702119D01*
X514652Y703398D01*
X513935Y704806D01*
X513495Y706161D01*
X520741Y706161D01*
X520741Y698915D01*
X519386Y699355D01*
G37*
%LPD*%
%LPC*%
G36*
X169671Y291591D02*
X169671Y291591D01*
X169671Y297962D01*
X170159Y297865D01*
X171731Y297214D01*
X173146Y296269D01*
X174349Y295066D01*
X175294Y293651D01*
X175945Y292079D01*
X176042Y291591D01*
X169671Y291591D01*
G37*
%LPD*%
%LPC*%
G36*
X169671Y215391D02*
X169671Y215391D01*
X169671Y221762D01*
X170159Y221665D01*
X171731Y221014D01*
X173146Y220069D01*
X174349Y218866D01*
X175294Y217451D01*
X175945Y215879D01*
X176042Y215391D01*
X169671Y215391D01*
G37*
%LPD*%
%LPC*%
G36*
X169671Y287529D02*
X169671Y287529D01*
X176042Y287529D01*
X175945Y287041D01*
X175294Y285469D01*
X174349Y284054D01*
X173146Y282851D01*
X171731Y281906D01*
X170159Y281255D01*
X169671Y281158D01*
X169671Y287529D01*
G37*
%LPD*%
%LPC*%
G36*
X169671Y211329D02*
X169671Y211329D01*
X176042Y211329D01*
X175945Y210841D01*
X175294Y209269D01*
X174349Y207854D01*
X173146Y206651D01*
X171731Y205706D01*
X170159Y205055D01*
X169671Y204958D01*
X169671Y211329D01*
G37*
%LPD*%
%LPC*%
G36*
X159238Y291591D02*
X159238Y291591D01*
X159335Y292079D01*
X159986Y293651D01*
X160931Y295066D01*
X162134Y296269D01*
X163549Y297214D01*
X165121Y297865D01*
X165609Y297962D01*
X165609Y291591D01*
X159238Y291591D01*
G37*
%LPD*%
%LPC*%
G36*
X159238Y215391D02*
X159238Y215391D01*
X159335Y215879D01*
X159986Y217451D01*
X160931Y218866D01*
X162134Y220069D01*
X163549Y221014D01*
X165121Y221665D01*
X165609Y221762D01*
X165609Y215391D01*
X159238Y215391D01*
G37*
%LPD*%
%LPC*%
G36*
X165121Y205055D02*
X165121Y205055D01*
X163549Y205706D01*
X162134Y206651D01*
X160931Y207854D01*
X159986Y209269D01*
X159335Y210841D01*
X159238Y211329D01*
X165609Y211329D01*
X165609Y204958D01*
X165121Y205055D01*
G37*
%LPD*%
%LPC*%
G36*
X165121Y281255D02*
X165121Y281255D01*
X163549Y281906D01*
X162134Y282851D01*
X160931Y284054D01*
X159986Y285469D01*
X159335Y287041D01*
X159238Y287529D01*
X165609Y287529D01*
X165609Y281158D01*
X165121Y281255D01*
G37*
%LPD*%
%LPC*%
G36*
X433799Y286479D02*
X433799Y286479D01*
X433799Y292790D01*
X434291Y292692D01*
X435846Y292049D01*
X437244Y291114D01*
X438434Y289924D01*
X439369Y288526D01*
X440012Y286971D01*
X440110Y286479D01*
X433799Y286479D01*
G37*
%LPD*%
%LPC*%
G36*
X433799Y282481D02*
X433799Y282481D01*
X440110Y282481D01*
X440012Y281989D01*
X439369Y280434D01*
X438434Y279036D01*
X437244Y277846D01*
X435846Y276911D01*
X434291Y276268D01*
X433799Y276170D01*
X433799Y282481D01*
G37*
%LPD*%
%LPC*%
G36*
X423490Y286479D02*
X423490Y286479D01*
X423588Y286971D01*
X424231Y288526D01*
X425166Y289924D01*
X426356Y291114D01*
X427754Y292049D01*
X429309Y292692D01*
X429801Y292790D01*
X429801Y286479D01*
X423490Y286479D01*
G37*
%LPD*%
%LPC*%
G36*
X429309Y276268D02*
X429309Y276268D01*
X427754Y276911D01*
X426356Y277846D01*
X425166Y279036D01*
X424231Y280434D01*
X423588Y281989D01*
X423490Y282481D01*
X429801Y282481D01*
X429801Y276170D01*
X429309Y276268D01*
G37*
%LPD*%
%LPC*%
G36*
X22281Y439165D02*
X22281Y439165D01*
X22281Y439167D01*
X22283Y439167D01*
X22283Y439165D01*
X22281Y439165D01*
G37*
%LPD*%
%LPC*%
G36*
X533399Y86359D02*
X533399Y86359D01*
X533399Y86361D01*
X533401Y86361D01*
X533401Y86359D01*
X533399Y86359D01*
G37*
%LPD*%
%LPC*%
G36*
X180699Y106079D02*
X180699Y106079D01*
X180699Y106081D01*
X180701Y106081D01*
X180701Y106079D01*
X180699Y106079D01*
G37*
%LPD*%
%LPC*%
G36*
X22281Y235965D02*
X22281Y235965D01*
X22281Y235967D01*
X22283Y235967D01*
X22283Y235965D01*
X22281Y235965D01*
G37*
%LPD*%
%LPC*%
G36*
X47681Y566165D02*
X47681Y566165D01*
X47681Y566167D01*
X47683Y566167D01*
X47683Y566165D01*
X47681Y566165D01*
G37*
%LPD*%
%LPC*%
G36*
X133699Y77079D02*
X133699Y77079D01*
X133699Y77081D01*
X133701Y77081D01*
X133701Y77079D01*
X133699Y77079D01*
G37*
%LPD*%
%LPC*%
G36*
X47681Y185165D02*
X47681Y185165D01*
X47681Y185167D01*
X47683Y185167D01*
X47683Y185165D01*
X47681Y185165D01*
G37*
%LPD*%
%LPC*%
G36*
X47681Y388365D02*
X47681Y388365D01*
X47681Y388367D01*
X47683Y388367D01*
X47683Y388365D01*
X47681Y388365D01*
G37*
%LPD*%
%LPC*%
G36*
X22281Y134365D02*
X22281Y134365D01*
X22281Y134367D01*
X22283Y134367D01*
X22283Y134365D01*
X22281Y134365D01*
G37*
%LPD*%
%LPC*%
G36*
X22281Y286765D02*
X22281Y286765D01*
X22281Y286767D01*
X22283Y286767D01*
X22283Y286765D01*
X22281Y286765D01*
G37*
%LPD*%
%LPC*%
G36*
X34999Y614999D02*
X34999Y614999D01*
X34999Y615001D01*
X35001Y615001D01*
X35001Y614999D01*
X34999Y614999D01*
G37*
%LPD*%
%LPC*%
G36*
X528319Y411479D02*
X528319Y411479D01*
X528319Y411481D01*
X528321Y411481D01*
X528321Y411479D01*
X528319Y411479D01*
G37*
%LPD*%
%LPC*%
G36*
X477519Y411479D02*
X477519Y411479D01*
X477519Y411481D01*
X477521Y411481D01*
X477521Y411479D01*
X477519Y411479D01*
G37*
%LPD*%
%LPC*%
G36*
X524999Y34999D02*
X524999Y34999D01*
X524999Y35001D01*
X525001Y35001D01*
X525001Y34999D01*
X524999Y34999D01*
G37*
%LPD*%
%LPC*%
G36*
X34999Y34999D02*
X34999Y34999D01*
X34999Y35001D01*
X35001Y35001D01*
X35001Y34999D01*
X34999Y34999D01*
G37*
%LPD*%
%LPC*%
G36*
X477519Y462279D02*
X477519Y462279D01*
X477519Y462281D01*
X477521Y462281D01*
X477521Y462279D01*
X477519Y462279D01*
G37*
%LPD*%
%LPC*%
G36*
X528319Y462279D02*
X528319Y462279D01*
X528319Y462281D01*
X528321Y462281D01*
X528321Y462279D01*
X528319Y462279D01*
G37*
%LPD*%
%LPC*%
G36*
X524999Y614999D02*
X524999Y614999D01*
X524999Y615001D01*
X525001Y615001D01*
X525001Y614999D01*
X524999Y614999D01*
G37*
%LPD*%
%LPC*%
G36*
X22281Y489965D02*
X22281Y489965D01*
X22281Y489967D01*
X22283Y489967D01*
X22283Y489965D01*
X22281Y489965D01*
G37*
%LPD*%
D10*
X180700Y106080D03*
X133700Y136080D03*
X133700Y77080D03*
D11*
X47700Y83700D03*
X22282Y83566D03*
X47682Y108966D03*
X22282Y108966D03*
X47682Y134366D03*
X22282Y134366D03*
X47682Y159766D03*
X22282Y159766D03*
X47682Y185166D03*
X22282Y185166D03*
X47682Y210566D03*
X22282Y210566D03*
X47682Y235966D03*
X22282Y235966D03*
X47682Y261366D03*
X22282Y261366D03*
X47682Y286766D03*
X22282Y286766D03*
X47682Y312166D03*
X22282Y312166D03*
X47682Y337566D03*
X22282Y337566D03*
X47682Y362966D03*
X22282Y362966D03*
X47682Y388366D03*
X22282Y388366D03*
X47682Y413766D03*
X22282Y413766D03*
X47682Y439166D03*
X22282Y439166D03*
X47682Y464566D03*
X22282Y464566D03*
X47682Y489966D03*
X22282Y489966D03*
X47682Y515366D03*
X22282Y515366D03*
X47682Y540766D03*
X22282Y540766D03*
X47682Y566166D03*
X22282Y566166D03*
D12*
X35000Y35000D03*
X525000Y35000D03*
X525000Y615000D03*
X35000Y615000D03*
D13*
X447040Y40640D03*
X345440Y40640D03*
X396240Y40640D03*
X370840Y40640D03*
X421640Y40640D03*
D14*
X457200Y284480D03*
X431800Y284480D03*
X482600Y284480D03*
D15*
X167640Y213360D03*
X167640Y238760D03*
X167640Y264160D03*
X167640Y289560D03*
D16*
X523240Y734060D03*
X523240Y759460D03*
X523240Y784860D03*
X523240Y810260D03*
X523240Y708660D03*
X523240Y683260D03*
D17*
X477520Y462280D03*
X477520Y411480D03*
X528320Y411480D03*
X528320Y462280D03*
X502920Y436880D03*
D13*
X533400Y238760D03*
X533400Y86360D03*
X497840Y172720D03*
X447040Y71120D03*
X345440Y71120D03*
X370840Y71120D03*
X396240Y71120D03*
X421640Y71120D03*
X533400Y309880D03*
D18*
X25400Y660400D03*
X81280Y121920D03*
X111760Y457200D03*
X431800Y785924D03*
X421640Y731520D03*
X345440Y650240D03*
X370840Y558800D03*
X370840Y629920D03*
X127000Y411480D03*
X447040Y198120D03*
X289560Y320040D03*
X335280Y294640D03*
X213360Y55880D03*
X528320Y345440D03*
X162560Y624840D03*
X462280Y695960D03*
X203200Y370840D03*
X467360Y162560D03*
X508000Y193040D03*
X375920Y142240D03*
X365760Y132080D03*
X111760Y431800D03*
X314960Y355600D03*
X447040Y167640D03*
X431800Y325120D03*
X218440Y513080D03*
X238760Y447040D03*
X386080Y243840D03*
X370840Y406400D03*
X375920Y660400D03*
X242380Y604520D03*
X127000Y782320D03*
X25400Y741680D03*
X193040Y802640D03*
X304800Y716280D03*
X365760Y716280D03*
X396240Y716280D03*
X274320Y716280D03*
X401320Y643430D03*
X309880Y629920D03*
X309880Y457200D03*
X477520Y792480D03*
X213360Y478996D03*
X203200Y462280D03*
X111760Y416560D03*
X213360Y350520D03*
X335280Y716280D03*
X137160Y726440D03*
M02*
