G04 EAGLE Gerber RS-274X export*
G75*
%MOMM*%
%FSLAX34Y34*%
%LPD*%
%INSilkscreen Top*%
%IPPOS*%
%AMOC8*
5,1,8,0,0,1.08239X$1,22.5*%
G01*
%ADD10C,0.101600*%
%ADD11C,0.076200*%
%ADD12C,0.177800*%
%ADD13C,0.050800*%
%ADD14C,0.152400*%
%ADD15C,0.127000*%
%ADD16C,0.120000*%

G36*
X338800Y778189D02*
X338800Y778189D01*
X338820Y778187D01*
X338910Y778209D01*
X339001Y778225D01*
X339018Y778236D01*
X339038Y778240D01*
X339114Y778292D01*
X339194Y778340D01*
X339207Y778355D01*
X339223Y778366D01*
X339277Y778442D01*
X339335Y778514D01*
X339342Y778533D01*
X339354Y778549D01*
X339378Y778639D01*
X339407Y778726D01*
X339407Y778746D01*
X339412Y778766D01*
X339403Y778858D01*
X339401Y778951D01*
X339393Y778969D01*
X339391Y778989D01*
X339320Y779149D01*
X339316Y779158D01*
X339316Y779159D01*
X339315Y779161D01*
X335815Y784661D01*
X335753Y784728D01*
X335696Y784799D01*
X335678Y784810D01*
X335663Y784826D01*
X335582Y784867D01*
X335503Y784914D01*
X335482Y784918D01*
X335463Y784927D01*
X335372Y784938D01*
X335282Y784954D01*
X335261Y784951D01*
X335240Y784953D01*
X335152Y784931D01*
X335061Y784915D01*
X335043Y784905D01*
X335022Y784900D01*
X334947Y784848D01*
X334868Y784802D01*
X334852Y784784D01*
X334837Y784774D01*
X334807Y784732D01*
X334745Y784661D01*
X331245Y779161D01*
X331237Y779142D01*
X331225Y779126D01*
X331195Y779039D01*
X331160Y778953D01*
X331159Y778933D01*
X331153Y778914D01*
X331155Y778821D01*
X331152Y778729D01*
X331159Y778710D01*
X331159Y778689D01*
X331194Y778604D01*
X331223Y778516D01*
X331236Y778500D01*
X331244Y778482D01*
X331306Y778413D01*
X331364Y778341D01*
X331381Y778331D01*
X331395Y778316D01*
X331477Y778274D01*
X331557Y778226D01*
X331577Y778223D01*
X331595Y778213D01*
X331767Y778188D01*
X331778Y778186D01*
X331779Y778186D01*
X331780Y778186D01*
X338780Y778186D01*
X338800Y778189D01*
G37*
G36*
X277840Y778189D02*
X277840Y778189D01*
X277860Y778187D01*
X277950Y778209D01*
X278041Y778225D01*
X278058Y778236D01*
X278078Y778240D01*
X278154Y778292D01*
X278234Y778340D01*
X278247Y778355D01*
X278263Y778366D01*
X278317Y778442D01*
X278375Y778514D01*
X278382Y778533D01*
X278394Y778549D01*
X278418Y778639D01*
X278447Y778726D01*
X278447Y778746D01*
X278452Y778766D01*
X278443Y778858D01*
X278441Y778951D01*
X278433Y778969D01*
X278431Y778989D01*
X278360Y779149D01*
X278356Y779158D01*
X278356Y779159D01*
X278355Y779161D01*
X274855Y784661D01*
X274793Y784728D01*
X274736Y784799D01*
X274718Y784810D01*
X274703Y784826D01*
X274622Y784867D01*
X274543Y784914D01*
X274522Y784918D01*
X274503Y784927D01*
X274412Y784938D01*
X274322Y784954D01*
X274301Y784951D01*
X274280Y784953D01*
X274192Y784931D01*
X274101Y784915D01*
X274083Y784905D01*
X274062Y784900D01*
X273987Y784848D01*
X273908Y784802D01*
X273892Y784784D01*
X273877Y784774D01*
X273847Y784732D01*
X273785Y784661D01*
X270285Y779161D01*
X270277Y779142D01*
X270265Y779126D01*
X270235Y779039D01*
X270200Y778953D01*
X270199Y778933D01*
X270193Y778914D01*
X270195Y778821D01*
X270192Y778729D01*
X270199Y778710D01*
X270199Y778689D01*
X270234Y778604D01*
X270263Y778516D01*
X270276Y778500D01*
X270284Y778482D01*
X270346Y778413D01*
X270404Y778341D01*
X270421Y778331D01*
X270435Y778316D01*
X270517Y778274D01*
X270597Y778226D01*
X270617Y778223D01*
X270635Y778213D01*
X270807Y778188D01*
X270818Y778186D01*
X270819Y778186D01*
X270820Y778186D01*
X277820Y778186D01*
X277840Y778189D01*
G37*
G36*
X369280Y778189D02*
X369280Y778189D01*
X369300Y778187D01*
X369390Y778209D01*
X369481Y778225D01*
X369498Y778236D01*
X369518Y778240D01*
X369594Y778292D01*
X369674Y778340D01*
X369687Y778355D01*
X369703Y778366D01*
X369757Y778442D01*
X369815Y778514D01*
X369822Y778533D01*
X369834Y778549D01*
X369858Y778639D01*
X369887Y778726D01*
X369887Y778746D01*
X369892Y778766D01*
X369883Y778858D01*
X369881Y778951D01*
X369873Y778969D01*
X369871Y778989D01*
X369800Y779149D01*
X369796Y779158D01*
X369796Y779159D01*
X369795Y779161D01*
X366295Y784661D01*
X366233Y784728D01*
X366176Y784799D01*
X366158Y784810D01*
X366143Y784826D01*
X366062Y784867D01*
X365983Y784914D01*
X365962Y784918D01*
X365943Y784927D01*
X365852Y784938D01*
X365762Y784954D01*
X365741Y784951D01*
X365720Y784953D01*
X365632Y784931D01*
X365541Y784915D01*
X365523Y784905D01*
X365502Y784900D01*
X365427Y784848D01*
X365348Y784802D01*
X365332Y784784D01*
X365317Y784774D01*
X365287Y784732D01*
X365225Y784661D01*
X361725Y779161D01*
X361717Y779142D01*
X361705Y779126D01*
X361675Y779039D01*
X361640Y778953D01*
X361639Y778933D01*
X361633Y778914D01*
X361635Y778821D01*
X361632Y778729D01*
X361639Y778710D01*
X361639Y778689D01*
X361674Y778604D01*
X361703Y778516D01*
X361716Y778500D01*
X361724Y778482D01*
X361786Y778413D01*
X361844Y778341D01*
X361861Y778331D01*
X361875Y778316D01*
X361957Y778274D01*
X362037Y778226D01*
X362057Y778223D01*
X362075Y778213D01*
X362247Y778188D01*
X362258Y778186D01*
X362259Y778186D01*
X362260Y778186D01*
X369260Y778186D01*
X369280Y778189D01*
G37*
G36*
X308320Y778189D02*
X308320Y778189D01*
X308340Y778187D01*
X308430Y778209D01*
X308521Y778225D01*
X308538Y778236D01*
X308558Y778240D01*
X308634Y778292D01*
X308714Y778340D01*
X308727Y778355D01*
X308743Y778366D01*
X308797Y778442D01*
X308855Y778514D01*
X308862Y778533D01*
X308874Y778549D01*
X308898Y778639D01*
X308927Y778726D01*
X308927Y778746D01*
X308932Y778766D01*
X308923Y778858D01*
X308921Y778951D01*
X308913Y778969D01*
X308911Y778989D01*
X308840Y779149D01*
X308836Y779158D01*
X308836Y779159D01*
X308835Y779161D01*
X305335Y784661D01*
X305273Y784728D01*
X305216Y784799D01*
X305198Y784810D01*
X305183Y784826D01*
X305102Y784867D01*
X305023Y784914D01*
X305002Y784918D01*
X304983Y784927D01*
X304892Y784938D01*
X304802Y784954D01*
X304781Y784951D01*
X304760Y784953D01*
X304672Y784931D01*
X304581Y784915D01*
X304563Y784905D01*
X304542Y784900D01*
X304467Y784848D01*
X304388Y784802D01*
X304372Y784784D01*
X304357Y784774D01*
X304327Y784732D01*
X304265Y784661D01*
X300765Y779161D01*
X300757Y779142D01*
X300745Y779126D01*
X300715Y779039D01*
X300680Y778953D01*
X300679Y778933D01*
X300673Y778914D01*
X300675Y778821D01*
X300672Y778729D01*
X300679Y778710D01*
X300679Y778689D01*
X300714Y778604D01*
X300743Y778516D01*
X300756Y778500D01*
X300764Y778482D01*
X300826Y778413D01*
X300884Y778341D01*
X300901Y778331D01*
X300915Y778316D01*
X300997Y778274D01*
X301077Y778226D01*
X301097Y778223D01*
X301115Y778213D01*
X301287Y778188D01*
X301298Y778186D01*
X301299Y778186D01*
X301300Y778186D01*
X308300Y778186D01*
X308320Y778189D01*
G37*
G36*
X399760Y778189D02*
X399760Y778189D01*
X399780Y778187D01*
X399870Y778209D01*
X399961Y778225D01*
X399978Y778236D01*
X399998Y778240D01*
X400074Y778292D01*
X400154Y778340D01*
X400167Y778355D01*
X400183Y778366D01*
X400237Y778442D01*
X400295Y778514D01*
X400302Y778533D01*
X400314Y778549D01*
X400338Y778639D01*
X400367Y778726D01*
X400367Y778746D01*
X400372Y778766D01*
X400363Y778858D01*
X400361Y778951D01*
X400353Y778969D01*
X400351Y778989D01*
X400280Y779149D01*
X400276Y779158D01*
X400276Y779159D01*
X400275Y779161D01*
X396775Y784661D01*
X396713Y784728D01*
X396656Y784799D01*
X396638Y784810D01*
X396623Y784826D01*
X396542Y784867D01*
X396463Y784914D01*
X396442Y784918D01*
X396423Y784927D01*
X396332Y784938D01*
X396242Y784954D01*
X396221Y784951D01*
X396200Y784953D01*
X396112Y784931D01*
X396021Y784915D01*
X396003Y784905D01*
X395982Y784900D01*
X395907Y784848D01*
X395828Y784802D01*
X395812Y784784D01*
X395797Y784774D01*
X395767Y784732D01*
X395705Y784661D01*
X392205Y779161D01*
X392197Y779142D01*
X392185Y779126D01*
X392155Y779039D01*
X392120Y778953D01*
X392119Y778933D01*
X392113Y778914D01*
X392115Y778821D01*
X392112Y778729D01*
X392119Y778710D01*
X392119Y778689D01*
X392154Y778604D01*
X392183Y778516D01*
X392196Y778500D01*
X392204Y778482D01*
X392266Y778413D01*
X392324Y778341D01*
X392341Y778331D01*
X392355Y778316D01*
X392437Y778274D01*
X392517Y778226D01*
X392537Y778223D01*
X392555Y778213D01*
X392727Y778188D01*
X392738Y778186D01*
X392739Y778186D01*
X392740Y778186D01*
X399740Y778186D01*
X399760Y778189D01*
G37*
G36*
X339687Y615323D02*
X339687Y615323D01*
X339689Y615322D01*
X339732Y615342D01*
X339776Y615360D01*
X339776Y615362D01*
X339778Y615363D01*
X339811Y615448D01*
X339811Y617988D01*
X339810Y617990D01*
X339811Y617992D01*
X339791Y618035D01*
X339773Y618079D01*
X339771Y618079D01*
X339770Y618081D01*
X339685Y618114D01*
X335875Y618114D01*
X335873Y618113D01*
X335871Y618114D01*
X335828Y618094D01*
X335784Y618076D01*
X335784Y618074D01*
X335782Y618073D01*
X335749Y617988D01*
X335749Y615448D01*
X335750Y615446D01*
X335749Y615444D01*
X335769Y615401D01*
X335787Y615357D01*
X335789Y615357D01*
X335790Y615355D01*
X335875Y615322D01*
X339685Y615322D01*
X339687Y615323D01*
G37*
D10*
X24068Y821588D02*
X24068Y833282D01*
X29915Y833282D01*
X31864Y831333D01*
X31864Y827435D01*
X29915Y825486D01*
X24068Y825486D01*
X35762Y821588D02*
X35762Y833282D01*
X39660Y825486D02*
X35762Y821588D01*
X39660Y825486D02*
X43558Y821588D01*
X43558Y833282D01*
X47456Y833282D02*
X47456Y821588D01*
X47456Y833282D02*
X53303Y833282D01*
X55252Y831333D01*
X55252Y827435D01*
X53303Y825486D01*
X47456Y825486D01*
X51354Y825486D02*
X55252Y821588D01*
X150477Y812962D02*
X154375Y812962D01*
X150477Y812962D02*
X148528Y811013D01*
X148528Y803217D01*
X150477Y801268D01*
X154375Y801268D01*
X156324Y803217D01*
X156324Y811013D01*
X154375Y812962D01*
X160222Y812962D02*
X160222Y801268D01*
X168018Y801268D02*
X160222Y812962D01*
X168018Y812962D02*
X168018Y801268D01*
X145988Y821588D02*
X145988Y833282D01*
X145988Y821588D02*
X153784Y821588D01*
X159631Y833282D02*
X163529Y833282D01*
X159631Y833282D02*
X157682Y831333D01*
X157682Y823537D01*
X159631Y821588D01*
X163529Y821588D01*
X165478Y823537D01*
X165478Y831333D01*
X163529Y833282D01*
X175223Y833282D02*
X177172Y831333D01*
X175223Y833282D02*
X171325Y833282D01*
X169376Y831333D01*
X169376Y823537D01*
X171325Y821588D01*
X175223Y821588D01*
X177172Y823537D01*
X177172Y827435D01*
X173274Y827435D01*
X186917Y833282D02*
X188866Y831333D01*
X186917Y833282D02*
X183019Y833282D01*
X181070Y831333D01*
X181070Y823537D01*
X183019Y821588D01*
X186917Y821588D01*
X188866Y823537D01*
X188866Y827435D01*
X184968Y827435D01*
X192764Y821588D02*
X196662Y821588D01*
X194713Y821588D02*
X194713Y833282D01*
X192764Y833282D02*
X196662Y833282D01*
X200560Y833282D02*
X200560Y821588D01*
X208356Y821588D02*
X200560Y833282D01*
X208356Y833282D02*
X208356Y821588D01*
X220050Y831333D02*
X218101Y833282D01*
X214203Y833282D01*
X212254Y831333D01*
X212254Y823537D01*
X214203Y821588D01*
X218101Y821588D01*
X220050Y823537D01*
X220050Y827435D01*
X216152Y827435D01*
X363718Y811535D02*
X365667Y813484D01*
X363718Y811535D02*
X363718Y807637D01*
X365667Y805688D01*
X373463Y805688D01*
X375412Y807637D01*
X375412Y811535D01*
X373463Y813484D01*
X369565Y813484D01*
X369565Y809586D01*
X375412Y817382D02*
X363718Y817382D01*
X363718Y823229D01*
X365667Y825178D01*
X369565Y825178D01*
X371514Y823229D01*
X371514Y817382D01*
X363718Y834923D02*
X365667Y836872D01*
X363718Y834923D02*
X363718Y831025D01*
X365667Y829076D01*
X367616Y829076D01*
X369565Y831025D01*
X369565Y834923D01*
X371514Y836872D01*
X373463Y836872D01*
X375412Y834923D01*
X375412Y831025D01*
X373463Y829076D01*
X314452Y805688D02*
X302758Y805688D01*
X314452Y805688D02*
X314452Y813484D01*
X302758Y819331D02*
X302758Y823229D01*
X302758Y819331D02*
X304707Y817382D01*
X312503Y817382D01*
X314452Y819331D01*
X314452Y823229D01*
X312503Y825178D01*
X304707Y825178D01*
X302758Y823229D01*
X302758Y834923D02*
X304707Y836872D01*
X302758Y834923D02*
X302758Y831025D01*
X304707Y829076D01*
X312503Y829076D01*
X314452Y831025D01*
X314452Y834923D01*
X312503Y836872D01*
X308605Y836872D01*
X308605Y832974D01*
X394198Y805688D02*
X405892Y805688D01*
X394198Y805688D02*
X394198Y811535D01*
X396147Y813484D01*
X400045Y813484D01*
X401994Y811535D01*
X401994Y805688D01*
X405892Y817382D02*
X394198Y817382D01*
X401994Y821280D02*
X405892Y817382D01*
X401994Y821280D02*
X405892Y825178D01*
X394198Y825178D01*
X394198Y829076D02*
X405892Y829076D01*
X394198Y829076D02*
X394198Y834923D01*
X396147Y836872D01*
X400045Y836872D01*
X401994Y834923D01*
X401994Y829076D01*
X401994Y832974D02*
X405892Y836872D01*
X283972Y805688D02*
X272278Y805688D01*
X272278Y811535D01*
X274227Y813484D01*
X278125Y813484D01*
X280074Y811535D01*
X280074Y805688D01*
X280074Y809586D02*
X283972Y813484D01*
X283972Y817382D02*
X276176Y817382D01*
X272278Y821280D01*
X276176Y825178D01*
X283972Y825178D01*
X278125Y825178D02*
X278125Y817382D01*
X272278Y829076D02*
X283972Y829076D01*
X283972Y834923D01*
X282023Y836872D01*
X274227Y836872D01*
X272278Y834923D01*
X272278Y829076D01*
X75635Y833282D02*
X71737Y833282D01*
X69788Y831333D01*
X69788Y823537D01*
X71737Y821588D01*
X75635Y821588D01*
X77584Y823537D01*
X77584Y831333D01*
X75635Y833282D01*
X81482Y833282D02*
X81482Y821588D01*
X81482Y833282D02*
X89278Y833282D01*
X85380Y827435D02*
X81482Y827435D01*
X93176Y821588D02*
X93176Y833282D01*
X100972Y833282D01*
X97074Y827435D02*
X93176Y827435D01*
D11*
X442341Y25027D02*
X448612Y25027D01*
X442341Y25027D02*
X442341Y20324D01*
X445476Y21892D01*
X447044Y21892D01*
X448612Y20324D01*
X448612Y17189D01*
X447044Y15621D01*
X443909Y15621D01*
X442341Y17189D01*
X451696Y18756D02*
X451696Y25027D01*
X451696Y18756D02*
X454832Y15621D01*
X457967Y18756D01*
X457967Y25027D01*
X328041Y25027D02*
X328041Y15621D01*
X328041Y25027D02*
X332744Y25027D01*
X334312Y23459D01*
X334312Y20324D01*
X332744Y18756D01*
X328041Y18756D01*
X337396Y15621D02*
X337396Y25027D01*
X342099Y25027D01*
X343667Y23459D01*
X343667Y20324D01*
X342099Y18756D01*
X337396Y18756D01*
X351454Y25027D02*
X353022Y23459D01*
X351454Y25027D02*
X348319Y25027D01*
X346751Y23459D01*
X346751Y21892D01*
X348319Y20324D01*
X351454Y20324D01*
X353022Y18756D01*
X353022Y17189D01*
X351454Y15621D01*
X348319Y15621D01*
X346751Y17189D01*
X383921Y15621D02*
X383921Y25027D01*
X388624Y25027D01*
X390192Y23459D01*
X390192Y20324D01*
X388624Y18756D01*
X383921Y18756D01*
X387056Y18756D02*
X390192Y15621D01*
X399547Y15621D02*
X393276Y25027D01*
X399547Y25027D02*
X393276Y15621D01*
X364196Y15621D02*
X364196Y25027D01*
X361061Y25027D02*
X367332Y25027D01*
X370416Y25027D02*
X376687Y15621D01*
X370416Y15621D02*
X376687Y25027D01*
X411484Y25027D02*
X413052Y23459D01*
X411484Y25027D02*
X408349Y25027D01*
X406781Y23459D01*
X406781Y17189D01*
X408349Y15621D01*
X411484Y15621D01*
X413052Y17189D01*
X413052Y20324D01*
X409916Y20324D01*
X416136Y15621D02*
X416136Y25027D01*
X422407Y15621D01*
X422407Y25027D01*
X425491Y25027D02*
X425491Y15621D01*
X430194Y15621D01*
X431762Y17189D01*
X431762Y23459D01*
X430194Y25027D01*
X425491Y25027D01*
D12*
X21209Y707009D02*
X21209Y727092D01*
X31251Y727092D01*
X34598Y723745D01*
X34598Y717051D01*
X31251Y713703D01*
X21209Y713703D01*
X41323Y720398D02*
X44670Y720398D01*
X44670Y707009D01*
X41323Y707009D02*
X48017Y707009D01*
X44670Y727092D02*
X44670Y730439D01*
X54732Y727092D02*
X54732Y707009D01*
X54732Y727092D02*
X64773Y727092D01*
X68121Y723745D01*
X68121Y717051D01*
X64773Y713703D01*
X54732Y713703D01*
X61426Y713703D02*
X68121Y707009D01*
X74845Y707009D02*
X74845Y720398D01*
X81540Y727092D01*
X88234Y720398D01*
X88234Y707009D01*
X88234Y717051D02*
X74845Y717051D01*
X94959Y727092D02*
X94959Y707009D01*
X105001Y707009D01*
X108348Y710356D01*
X108348Y723745D01*
X105001Y727092D01*
X94959Y727092D01*
D10*
X122428Y718322D02*
X122428Y706628D01*
X122428Y718322D02*
X128275Y718322D01*
X130224Y716373D01*
X130224Y712475D01*
X128275Y710526D01*
X122428Y710526D01*
X126326Y710526D02*
X130224Y706628D01*
X136071Y706628D02*
X139969Y706628D01*
X136071Y706628D02*
X134122Y708577D01*
X134122Y712475D01*
X136071Y714424D01*
X139969Y714424D01*
X141918Y712475D01*
X141918Y710526D01*
X134122Y710526D01*
X145816Y714424D02*
X149714Y706628D01*
X153612Y714424D01*
X157510Y708577D02*
X157510Y706628D01*
X157510Y708577D02*
X159459Y708577D01*
X159459Y706628D01*
X157510Y706628D01*
X175051Y706628D02*
X182847Y706628D01*
X175051Y706628D02*
X182847Y714424D01*
X182847Y716373D01*
X180898Y718322D01*
X177000Y718322D01*
X175051Y716373D01*
X186745Y708577D02*
X186745Y706628D01*
X186745Y708577D02*
X188694Y708577D01*
X188694Y706628D01*
X186745Y706628D01*
X192592Y706628D02*
X200388Y706628D01*
X192592Y706628D02*
X200388Y714424D01*
X200388Y716373D01*
X198439Y718322D01*
X194541Y718322D01*
X192592Y716373D01*
X26675Y698002D02*
X22777Y698002D01*
X20828Y696053D01*
X20828Y688257D01*
X22777Y686308D01*
X26675Y686308D01*
X28624Y688257D01*
X28624Y696053D01*
X26675Y698002D01*
X32522Y686308D02*
X38369Y686308D01*
X40318Y688257D01*
X38369Y690206D01*
X34471Y690206D01*
X32522Y692155D01*
X34471Y694104D01*
X40318Y694104D01*
X46165Y694104D02*
X50063Y694104D01*
X52012Y692155D01*
X52012Y686308D01*
X46165Y686308D01*
X44216Y688257D01*
X46165Y690206D01*
X52012Y690206D01*
X55910Y686308D02*
X55910Y698002D01*
X55910Y690206D02*
X61757Y686308D01*
X55910Y690206D02*
X61757Y694104D01*
X67604Y694104D02*
X71502Y694104D01*
X73451Y692155D01*
X73451Y686308D01*
X67604Y686308D01*
X65655Y688257D01*
X67604Y690206D01*
X73451Y690206D01*
X89043Y688257D02*
X89043Y698002D01*
X89043Y688257D02*
X90992Y686308D01*
X94890Y686308D01*
X96839Y688257D01*
X96839Y698002D01*
X100737Y694104D02*
X100737Y686308D01*
X100737Y694104D02*
X106584Y694104D01*
X108533Y692155D01*
X108533Y686308D01*
X112431Y694104D02*
X114380Y694104D01*
X114380Y686308D01*
X112431Y686308D02*
X116329Y686308D01*
X114380Y698002D02*
X114380Y699951D01*
X120227Y694104D02*
X124125Y686308D01*
X128023Y694104D01*
X133870Y686308D02*
X137768Y686308D01*
X133870Y686308D02*
X131921Y688257D01*
X131921Y692155D01*
X133870Y694104D01*
X137768Y694104D01*
X139717Y692155D01*
X139717Y690206D01*
X131921Y690206D01*
X143615Y686308D02*
X143615Y694104D01*
X143615Y690206D02*
X147513Y694104D01*
X149462Y694104D01*
X153360Y686308D02*
X159207Y686308D01*
X161156Y688257D01*
X159207Y690206D01*
X155309Y690206D01*
X153360Y692155D01*
X155309Y694104D01*
X161156Y694104D01*
X165054Y694104D02*
X167003Y694104D01*
X167003Y686308D01*
X165054Y686308D02*
X168952Y686308D01*
X167003Y698002D02*
X167003Y699951D01*
X174799Y696053D02*
X174799Y688257D01*
X176748Y686308D01*
X176748Y694104D02*
X172850Y694104D01*
X180646Y694104D02*
X180646Y688257D01*
X182595Y686308D01*
X188442Y686308D01*
X188442Y684359D02*
X188442Y694104D01*
X188442Y684359D02*
X186493Y682410D01*
X184544Y682410D01*
D13*
X547873Y223774D02*
X553466Y223774D01*
X547873Y223774D02*
X547873Y226570D01*
X548805Y227503D01*
X550670Y227503D01*
X551602Y226570D01*
X551602Y223774D01*
X552534Y229387D02*
X547873Y229387D01*
X552534Y229387D02*
X553466Y230319D01*
X553466Y232183D01*
X552534Y233116D01*
X547873Y233116D01*
X547873Y235000D02*
X553466Y235000D01*
X553466Y238729D01*
X547873Y243410D02*
X548805Y244342D01*
X547873Y243410D02*
X547873Y241545D01*
X548805Y240613D01*
X549738Y240613D01*
X550670Y241545D01*
X550670Y243410D01*
X551602Y244342D01*
X552534Y244342D01*
X553466Y243410D01*
X553466Y241545D01*
X552534Y240613D01*
X547873Y246226D02*
X547873Y249955D01*
X547873Y246226D02*
X553466Y246226D01*
X553466Y249955D01*
X550670Y248091D02*
X550670Y246226D01*
X548805Y80183D02*
X547873Y79250D01*
X547873Y77386D01*
X548805Y76454D01*
X552534Y76454D01*
X553466Y77386D01*
X553466Y79250D01*
X552534Y80183D01*
X550670Y80183D01*
X550670Y78318D01*
X553466Y82067D02*
X547873Y82067D01*
X553466Y85796D01*
X547873Y85796D01*
X547873Y87680D02*
X553466Y87680D01*
X553466Y90477D01*
X552534Y91409D01*
X548805Y91409D01*
X547873Y90477D01*
X547873Y87680D01*
D14*
X300482Y67832D02*
X300482Y54274D01*
X303194Y51562D01*
X308617Y51562D01*
X311329Y54274D01*
X311329Y67832D01*
X316854Y54274D02*
X319565Y51562D01*
X324989Y51562D01*
X327700Y54274D01*
X327700Y65120D01*
X324989Y67832D01*
X319565Y67832D01*
X316854Y65120D01*
X316854Y62409D01*
X319565Y59697D01*
X327700Y59697D01*
D10*
X333238Y805688D02*
X344932Y805688D01*
X339085Y805688D02*
X339085Y813484D01*
X333238Y813484D02*
X344932Y813484D01*
X341034Y817382D02*
X333238Y817382D01*
X341034Y817382D02*
X344932Y821280D01*
X341034Y825178D01*
X333238Y825178D01*
X198628Y499882D02*
X198628Y490137D01*
X200577Y488188D01*
X204475Y488188D01*
X206424Y490137D01*
X206424Y499882D01*
X216169Y499882D02*
X216169Y488188D01*
X210322Y494035D02*
X216169Y499882D01*
X218118Y494035D02*
X210322Y494035D01*
D13*
X476753Y167894D02*
X482346Y167894D01*
X476753Y167894D02*
X476753Y170690D01*
X477685Y171623D01*
X479550Y171623D01*
X480482Y170690D01*
X480482Y167894D01*
X482346Y173507D02*
X476753Y173507D01*
X479550Y173507D02*
X479550Y177236D01*
X482346Y177236D02*
X476753Y177236D01*
D11*
X328041Y96147D02*
X328041Y86741D01*
X328041Y96147D02*
X332744Y96147D01*
X334312Y94579D01*
X334312Y91444D01*
X332744Y89876D01*
X328041Y89876D01*
X337396Y86741D02*
X337396Y96147D01*
X342099Y96147D01*
X343667Y94579D01*
X343667Y91444D01*
X342099Y89876D01*
X337396Y89876D01*
X351454Y96147D02*
X353022Y94579D01*
X351454Y96147D02*
X348319Y96147D01*
X346751Y94579D01*
X346751Y93012D01*
X348319Y91444D01*
X351454Y91444D01*
X353022Y89876D01*
X353022Y88309D01*
X351454Y86741D01*
X348319Y86741D01*
X346751Y88309D01*
X361061Y86741D02*
X361061Y96147D01*
X365764Y96147D01*
X367332Y94579D01*
X367332Y91444D01*
X365764Y89876D01*
X361061Y89876D01*
X364196Y89876D02*
X367332Y86741D01*
X376687Y86741D02*
X370416Y96147D01*
X376687Y96147D02*
X370416Y86741D01*
X387056Y86741D02*
X387056Y96147D01*
X383921Y96147D02*
X390192Y96147D01*
X393276Y96147D02*
X399547Y86741D01*
X393276Y86741D02*
X399547Y96147D01*
X411484Y96147D02*
X413052Y94579D01*
X411484Y96147D02*
X408349Y96147D01*
X406781Y94579D01*
X406781Y88309D01*
X408349Y86741D01*
X411484Y86741D01*
X413052Y88309D01*
X413052Y91444D01*
X409916Y91444D01*
X416136Y86741D02*
X416136Y96147D01*
X422407Y86741D01*
X422407Y96147D01*
X425491Y96147D02*
X425491Y86741D01*
X430194Y86741D01*
X431762Y88309D01*
X431762Y94579D01*
X430194Y96147D01*
X425491Y96147D01*
X442341Y96147D02*
X448612Y96147D01*
X442341Y96147D02*
X442341Y91444D01*
X445476Y93012D01*
X447044Y93012D01*
X448612Y91444D01*
X448612Y88309D01*
X447044Y86741D01*
X443909Y86741D01*
X442341Y88309D01*
X451696Y89876D02*
X451696Y96147D01*
X451696Y89876D02*
X454832Y86741D01*
X457967Y89876D01*
X457967Y96147D01*
D13*
X547873Y294894D02*
X553466Y294894D01*
X547873Y294894D02*
X547873Y297690D01*
X548805Y298623D01*
X550670Y298623D01*
X551602Y297690D01*
X551602Y294894D01*
X553466Y300507D02*
X547873Y300507D01*
X547873Y303303D01*
X548805Y304236D01*
X550670Y304236D01*
X551602Y303303D01*
X551602Y300507D01*
X551602Y302371D02*
X553466Y304236D01*
X547873Y306120D02*
X547873Y309849D01*
X547873Y306120D02*
X553466Y306120D01*
X553466Y309849D01*
X550670Y307984D02*
X550670Y306120D01*
X549738Y311733D02*
X553466Y311733D01*
X549738Y311733D02*
X547873Y313598D01*
X549738Y315462D01*
X553466Y315462D01*
X550670Y315462D02*
X550670Y311733D01*
X553466Y317346D02*
X547873Y317346D01*
X549738Y319211D01*
X547873Y321075D01*
X553466Y321075D01*
X553466Y322959D02*
X547873Y322959D01*
X547873Y325756D01*
X548805Y326688D01*
X550670Y326688D01*
X551602Y325756D01*
X551602Y322959D01*
D15*
X180700Y-820D02*
X90700Y-820D01*
X90700Y145180D01*
X180700Y145180D01*
X180700Y-820D01*
D10*
X108792Y9285D02*
X106843Y7336D01*
X108792Y9285D02*
X108792Y11234D01*
X106843Y13183D01*
X97098Y13183D01*
X97098Y11234D02*
X97098Y15132D01*
X97098Y19030D02*
X108792Y19030D01*
X97098Y19030D02*
X97098Y24877D01*
X99047Y26826D01*
X102945Y26826D01*
X104894Y24877D01*
X104894Y19030D01*
X100996Y30724D02*
X97098Y34622D01*
X108792Y34622D01*
X108792Y30724D02*
X108792Y38520D01*
X357448Y341690D02*
X367193Y341690D01*
X369142Y343639D01*
X369142Y347537D01*
X367193Y349486D01*
X357448Y349486D01*
X361346Y353384D02*
X357448Y357282D01*
X369142Y357282D01*
X369142Y353384D02*
X369142Y361180D01*
X448728Y359998D02*
X460422Y359998D01*
X448728Y359998D02*
X448728Y365845D01*
X450677Y367794D01*
X454575Y367794D01*
X456524Y365845D01*
X456524Y359998D01*
X456524Y363896D02*
X460422Y367794D01*
X460422Y377539D02*
X448728Y377539D01*
X454575Y371692D01*
X454575Y379488D01*
D15*
X101200Y752400D02*
X101200Y812400D01*
X101200Y752400D02*
X41200Y752400D01*
X41200Y812400D01*
X101200Y812400D01*
D10*
X54584Y807333D02*
X52635Y809282D01*
X48737Y809282D01*
X46788Y807333D01*
X46788Y805384D01*
X48737Y803435D01*
X52635Y803435D01*
X54584Y801486D01*
X54584Y799537D01*
X52635Y797588D01*
X48737Y797588D01*
X46788Y799537D01*
X58482Y797588D02*
X58482Y809282D01*
X62380Y801486D02*
X58482Y797588D01*
X62380Y801486D02*
X66278Y797588D01*
X66278Y809282D01*
X70176Y805384D02*
X74074Y809282D01*
X74074Y797588D01*
X70176Y797588D02*
X77972Y797588D01*
D15*
X143040Y790240D02*
X143040Y754240D01*
X233040Y754240D01*
X233040Y790240D01*
X143040Y790240D01*
D11*
X210544Y745907D02*
X212085Y744366D01*
X210544Y745907D02*
X207462Y745907D01*
X205921Y744366D01*
X205921Y742825D01*
X207462Y741284D01*
X210544Y741284D01*
X212085Y739743D01*
X212085Y738202D01*
X210544Y736661D01*
X207462Y736661D01*
X205921Y738202D01*
X215129Y736661D02*
X215129Y745907D01*
X218211Y739743D02*
X215129Y736661D01*
X218211Y739743D02*
X221293Y736661D01*
X221293Y745907D01*
X224337Y736661D02*
X230501Y736661D01*
X224337Y736661D02*
X230501Y742825D01*
X230501Y744366D01*
X228960Y745907D01*
X225878Y745907D01*
X224337Y744366D01*
D10*
X377688Y725678D02*
X389382Y725678D01*
X377688Y725678D02*
X377688Y731525D01*
X379637Y733474D01*
X383535Y733474D01*
X385484Y731525D01*
X385484Y725678D01*
X385484Y729576D02*
X389382Y733474D01*
X381586Y737372D02*
X377688Y741270D01*
X389382Y741270D01*
X389382Y737372D02*
X389382Y745168D01*
X381586Y749066D02*
X377688Y752964D01*
X389382Y752964D01*
X389382Y749066D02*
X389382Y756862D01*
X297942Y725678D02*
X286248Y725678D01*
X286248Y731525D01*
X288197Y733474D01*
X292095Y733474D01*
X294044Y731525D01*
X294044Y725678D01*
X294044Y729576D02*
X297942Y733474D01*
X290146Y737372D02*
X286248Y741270D01*
X297942Y741270D01*
X297942Y737372D02*
X297942Y745168D01*
X297942Y754913D02*
X286248Y754913D01*
X292095Y749066D01*
X292095Y756862D01*
X347208Y725678D02*
X358902Y725678D01*
X347208Y725678D02*
X347208Y731525D01*
X349157Y733474D01*
X353055Y733474D01*
X355004Y731525D01*
X355004Y725678D01*
X355004Y729576D02*
X358902Y733474D01*
X351106Y737372D02*
X347208Y741270D01*
X358902Y741270D01*
X358902Y737372D02*
X358902Y745168D01*
X358902Y749066D02*
X358902Y756862D01*
X358902Y749066D02*
X351106Y756862D01*
X349157Y756862D01*
X347208Y754913D01*
X347208Y751015D01*
X349157Y749066D01*
D15*
X396240Y784820D02*
X396240Y786320D01*
D11*
X404233Y757980D02*
X413639Y757980D01*
X413639Y764251D01*
X404233Y767335D02*
X404233Y773606D01*
X404233Y767335D02*
X413639Y767335D01*
X413639Y773606D01*
X408936Y770471D02*
X408936Y767335D01*
X404233Y776691D02*
X413639Y776691D01*
X413639Y781394D01*
X412071Y782961D01*
X405801Y782961D01*
X404233Y781394D01*
X404233Y776691D01*
X407368Y786046D02*
X404233Y789181D01*
X413639Y789181D01*
X413639Y786046D02*
X413639Y792316D01*
D15*
X304800Y786320D02*
X304800Y784820D01*
D11*
X312793Y757980D02*
X322199Y757980D01*
X322199Y764251D01*
X312793Y767335D02*
X312793Y773606D01*
X312793Y767335D02*
X322199Y767335D01*
X322199Y773606D01*
X317496Y770471D02*
X317496Y767335D01*
X312793Y776691D02*
X322199Y776691D01*
X322199Y781394D01*
X320631Y782961D01*
X314361Y782961D01*
X312793Y781394D01*
X312793Y776691D01*
X312793Y790749D02*
X322199Y790749D01*
X317496Y786046D02*
X312793Y790749D01*
X317496Y792316D02*
X317496Y786046D01*
D15*
X365760Y786320D02*
X365760Y784820D01*
D11*
X373753Y757980D02*
X383159Y757980D01*
X383159Y764251D01*
X373753Y767335D02*
X373753Y773606D01*
X373753Y767335D02*
X383159Y767335D01*
X383159Y773606D01*
X378456Y770471D02*
X378456Y767335D01*
X373753Y776691D02*
X383159Y776691D01*
X383159Y781394D01*
X381591Y782961D01*
X375321Y782961D01*
X373753Y781394D01*
X373753Y776691D01*
X383159Y786046D02*
X383159Y792316D01*
X383159Y786046D02*
X376888Y792316D01*
X375321Y792316D01*
X373753Y790749D01*
X373753Y787613D01*
X375321Y786046D01*
D15*
X132900Y537830D02*
X132900Y438230D01*
X132900Y537830D02*
X171900Y537830D01*
X171900Y438230D01*
X171974Y438098D01*
X172045Y437964D01*
X172112Y437829D01*
X172175Y437691D01*
X172234Y437553D01*
X172290Y437412D01*
X172343Y437270D01*
X172391Y437127D01*
X172436Y436983D01*
X172477Y436837D01*
X172514Y436691D01*
X172548Y436543D01*
X172577Y436395D01*
X172603Y436246D01*
X172625Y436097D01*
X172642Y435947D01*
X172656Y435796D01*
X172666Y435645D01*
X172672Y435494D01*
X172674Y435343D01*
X172672Y435192D01*
X172666Y435041D01*
X172656Y434890D01*
X172642Y434739D01*
X172625Y434589D01*
X172603Y434440D01*
X172577Y434291D01*
X172548Y434143D01*
X172514Y433995D01*
X172477Y433849D01*
X172436Y433703D01*
X172391Y433559D01*
X172343Y433416D01*
X172290Y433274D01*
X172234Y433133D01*
X172175Y432995D01*
X172112Y432857D01*
X172045Y432722D01*
X171974Y432588D01*
X171900Y432456D01*
X171823Y432326D01*
X171742Y432198D01*
X171659Y432073D01*
X171571Y431949D01*
X171481Y431828D01*
X171387Y431709D01*
X171291Y431593D01*
X171191Y431479D01*
X171088Y431368D01*
X170983Y431260D01*
X170875Y431155D01*
X170764Y431052D01*
X170650Y430952D01*
X170534Y430856D01*
X170415Y430762D01*
X170294Y430672D01*
X170170Y430584D01*
X170045Y430501D01*
X169917Y430420D01*
X169787Y430343D01*
X169655Y430269D01*
X169521Y430198D01*
X169386Y430131D01*
X169248Y430068D01*
X169110Y430009D01*
X168969Y429953D01*
X168827Y429900D01*
X168684Y429852D01*
X168540Y429807D01*
X168394Y429766D01*
X168248Y429729D01*
X168100Y429695D01*
X167952Y429666D01*
X167803Y429640D01*
X167654Y429618D01*
X167504Y429601D01*
X167353Y429587D01*
X167202Y429577D01*
X167051Y429571D01*
X166900Y429569D01*
X166749Y429571D01*
X166598Y429577D01*
X166447Y429587D01*
X166296Y429601D01*
X166146Y429618D01*
X165997Y429640D01*
X165848Y429666D01*
X165700Y429695D01*
X165552Y429729D01*
X165406Y429766D01*
X165260Y429807D01*
X165116Y429852D01*
X164973Y429900D01*
X164831Y429953D01*
X164690Y430009D01*
X164552Y430068D01*
X164414Y430131D01*
X164279Y430198D01*
X164145Y430269D01*
X164013Y430343D01*
X163883Y430420D01*
X163755Y430501D01*
X163630Y430584D01*
X163506Y430672D01*
X163385Y430762D01*
X163266Y430856D01*
X163150Y430952D01*
X163036Y431052D01*
X162925Y431155D01*
X162817Y431260D01*
X162712Y431368D01*
X162609Y431479D01*
X162509Y431593D01*
X162413Y431709D01*
X162319Y431828D01*
X162229Y431949D01*
X162141Y432073D01*
X162058Y432198D01*
X161977Y432326D01*
X161900Y432456D01*
X161826Y432588D01*
X161755Y432722D01*
X161688Y432857D01*
X161625Y432995D01*
X161566Y433133D01*
X161510Y433274D01*
X161457Y433416D01*
X161409Y433559D01*
X161364Y433703D01*
X161323Y433849D01*
X161286Y433995D01*
X161252Y434143D01*
X161223Y434291D01*
X161197Y434440D01*
X161175Y434589D01*
X161158Y434739D01*
X161144Y434890D01*
X161134Y435041D01*
X161128Y435192D01*
X161126Y435343D01*
X161128Y435494D01*
X161134Y435645D01*
X161144Y435796D01*
X161158Y435947D01*
X161175Y436097D01*
X161197Y436246D01*
X161223Y436395D01*
X161252Y436543D01*
X161286Y436691D01*
X161323Y436837D01*
X161364Y436983D01*
X161409Y437127D01*
X161457Y437270D01*
X161510Y437412D01*
X161566Y437553D01*
X161625Y437691D01*
X161688Y437829D01*
X161755Y437964D01*
X161826Y438098D01*
X161900Y438230D01*
X132900Y438230D01*
D10*
X132520Y430342D02*
X132520Y420597D01*
X134469Y418648D01*
X138367Y418648D01*
X140316Y420597D01*
X140316Y430342D01*
X144214Y430342D02*
X152010Y430342D01*
X144214Y430342D02*
X144214Y424495D01*
X148112Y426444D01*
X150061Y426444D01*
X152010Y424495D01*
X152010Y420597D01*
X150061Y418648D01*
X146163Y418648D01*
X144214Y420597D01*
D11*
X479163Y369914D02*
X480731Y371481D01*
X479163Y369914D02*
X479163Y366778D01*
X480731Y365211D01*
X487001Y365211D01*
X488569Y366778D01*
X488569Y369914D01*
X487001Y371481D01*
X488569Y379269D02*
X479163Y379269D01*
X483866Y374566D01*
X483866Y380837D01*
X476594Y333637D02*
X478161Y332069D01*
X476594Y333637D02*
X473458Y333637D01*
X471891Y332069D01*
X471891Y325799D01*
X473458Y324231D01*
X476594Y324231D01*
X478161Y325799D01*
X481246Y333637D02*
X487517Y333637D01*
X481246Y333637D02*
X481246Y328934D01*
X484381Y330502D01*
X485949Y330502D01*
X487517Y328934D01*
X487517Y325799D01*
X485949Y324231D01*
X482813Y324231D01*
X481246Y325799D01*
D10*
X445262Y328910D02*
X433568Y328910D01*
X433568Y334757D01*
X435517Y336706D01*
X439415Y336706D01*
X441364Y334757D01*
X441364Y328910D01*
X441364Y332808D02*
X445262Y336706D01*
X433568Y340604D02*
X433568Y348400D01*
X433568Y340604D02*
X439415Y340604D01*
X437466Y344502D01*
X437466Y346451D01*
X439415Y348400D01*
X443313Y348400D01*
X445262Y346451D01*
X445262Y342553D01*
X443313Y340604D01*
D15*
X408700Y309480D02*
X408700Y259480D01*
X408700Y309480D02*
X505700Y309480D01*
X505700Y259480D01*
X408700Y259480D01*
D11*
X428363Y253706D02*
X431498Y250571D01*
X428363Y253706D02*
X437769Y253706D01*
X437769Y250571D02*
X437769Y256842D01*
X479163Y252139D02*
X480731Y250571D01*
X479163Y252139D02*
X479163Y255274D01*
X480731Y256842D01*
X482298Y256842D01*
X483866Y255274D01*
X483866Y253706D01*
X483866Y255274D02*
X485434Y256842D01*
X487001Y256842D01*
X488569Y255274D01*
X488569Y252139D01*
X487001Y250571D01*
X463169Y250571D02*
X463169Y256842D01*
X463169Y250571D02*
X456898Y256842D01*
X455331Y256842D01*
X453763Y255274D01*
X453763Y252139D01*
X455331Y250571D01*
D15*
X411480Y299720D02*
X411482Y299907D01*
X411489Y300094D01*
X411501Y300281D01*
X411517Y300467D01*
X411537Y300653D01*
X411562Y300838D01*
X411592Y301023D01*
X411626Y301207D01*
X411665Y301390D01*
X411708Y301572D01*
X411756Y301752D01*
X411808Y301932D01*
X411865Y302110D01*
X411925Y302287D01*
X411991Y302462D01*
X412060Y302636D01*
X412134Y302808D01*
X412212Y302978D01*
X412294Y303146D01*
X412380Y303312D01*
X412470Y303476D01*
X412564Y303637D01*
X412662Y303797D01*
X412764Y303953D01*
X412870Y304108D01*
X412980Y304259D01*
X413093Y304408D01*
X413210Y304554D01*
X413330Y304697D01*
X413454Y304837D01*
X413581Y304974D01*
X413712Y305108D01*
X413846Y305239D01*
X413983Y305366D01*
X414123Y305490D01*
X414266Y305610D01*
X414412Y305727D01*
X414561Y305840D01*
X414712Y305950D01*
X414867Y306056D01*
X415023Y306158D01*
X415183Y306256D01*
X415344Y306350D01*
X415508Y306440D01*
X415674Y306526D01*
X415842Y306608D01*
X416012Y306686D01*
X416184Y306760D01*
X416358Y306829D01*
X416533Y306895D01*
X416710Y306955D01*
X416888Y307012D01*
X417068Y307064D01*
X417248Y307112D01*
X417430Y307155D01*
X417613Y307194D01*
X417797Y307228D01*
X417982Y307258D01*
X418167Y307283D01*
X418353Y307303D01*
X418539Y307319D01*
X418726Y307331D01*
X418913Y307338D01*
X419100Y307340D01*
X419287Y307338D01*
X419474Y307331D01*
X419661Y307319D01*
X419847Y307303D01*
X420033Y307283D01*
X420218Y307258D01*
X420403Y307228D01*
X420587Y307194D01*
X420770Y307155D01*
X420952Y307112D01*
X421132Y307064D01*
X421312Y307012D01*
X421490Y306955D01*
X421667Y306895D01*
X421842Y306829D01*
X422016Y306760D01*
X422188Y306686D01*
X422358Y306608D01*
X422526Y306526D01*
X422692Y306440D01*
X422856Y306350D01*
X423017Y306256D01*
X423177Y306158D01*
X423333Y306056D01*
X423488Y305950D01*
X423639Y305840D01*
X423788Y305727D01*
X423934Y305610D01*
X424077Y305490D01*
X424217Y305366D01*
X424354Y305239D01*
X424488Y305108D01*
X424619Y304974D01*
X424746Y304837D01*
X424870Y304697D01*
X424990Y304554D01*
X425107Y304408D01*
X425220Y304259D01*
X425330Y304108D01*
X425436Y303953D01*
X425538Y303797D01*
X425636Y303637D01*
X425730Y303476D01*
X425820Y303312D01*
X425906Y303146D01*
X425988Y302978D01*
X426066Y302808D01*
X426140Y302636D01*
X426209Y302462D01*
X426275Y302287D01*
X426335Y302110D01*
X426392Y301932D01*
X426444Y301752D01*
X426492Y301572D01*
X426535Y301390D01*
X426574Y301207D01*
X426608Y301023D01*
X426638Y300838D01*
X426663Y300653D01*
X426683Y300467D01*
X426699Y300281D01*
X426711Y300094D01*
X426718Y299907D01*
X426720Y299720D01*
X426718Y299533D01*
X426711Y299346D01*
X426699Y299159D01*
X426683Y298973D01*
X426663Y298787D01*
X426638Y298602D01*
X426608Y298417D01*
X426574Y298233D01*
X426535Y298050D01*
X426492Y297868D01*
X426444Y297688D01*
X426392Y297508D01*
X426335Y297330D01*
X426275Y297153D01*
X426209Y296978D01*
X426140Y296804D01*
X426066Y296632D01*
X425988Y296462D01*
X425906Y296294D01*
X425820Y296128D01*
X425730Y295964D01*
X425636Y295803D01*
X425538Y295643D01*
X425436Y295487D01*
X425330Y295332D01*
X425220Y295181D01*
X425107Y295032D01*
X424990Y294886D01*
X424870Y294743D01*
X424746Y294603D01*
X424619Y294466D01*
X424488Y294332D01*
X424354Y294201D01*
X424217Y294074D01*
X424077Y293950D01*
X423934Y293830D01*
X423788Y293713D01*
X423639Y293600D01*
X423488Y293490D01*
X423333Y293384D01*
X423177Y293282D01*
X423017Y293184D01*
X422856Y293090D01*
X422692Y293000D01*
X422526Y292914D01*
X422358Y292832D01*
X422188Y292754D01*
X422016Y292680D01*
X421842Y292611D01*
X421667Y292545D01*
X421490Y292485D01*
X421312Y292428D01*
X421132Y292376D01*
X420952Y292328D01*
X420770Y292285D01*
X420587Y292246D01*
X420403Y292212D01*
X420218Y292182D01*
X420033Y292157D01*
X419847Y292137D01*
X419661Y292121D01*
X419474Y292109D01*
X419287Y292102D01*
X419100Y292100D01*
X418913Y292102D01*
X418726Y292109D01*
X418539Y292121D01*
X418353Y292137D01*
X418167Y292157D01*
X417982Y292182D01*
X417797Y292212D01*
X417613Y292246D01*
X417430Y292285D01*
X417248Y292328D01*
X417068Y292376D01*
X416888Y292428D01*
X416710Y292485D01*
X416533Y292545D01*
X416358Y292611D01*
X416184Y292680D01*
X416012Y292754D01*
X415842Y292832D01*
X415674Y292914D01*
X415508Y293000D01*
X415344Y293090D01*
X415183Y293184D01*
X415023Y293282D01*
X414867Y293384D01*
X414712Y293490D01*
X414561Y293600D01*
X414412Y293713D01*
X414266Y293830D01*
X414123Y293950D01*
X413983Y294074D01*
X413846Y294201D01*
X413712Y294332D01*
X413581Y294466D01*
X413454Y294603D01*
X413330Y294743D01*
X413210Y294886D01*
X413093Y295032D01*
X412980Y295181D01*
X412870Y295332D01*
X412764Y295487D01*
X412662Y295643D01*
X412564Y295803D01*
X412470Y295964D01*
X412380Y296128D01*
X412294Y296294D01*
X412212Y296462D01*
X412134Y296632D01*
X412060Y296804D01*
X411991Y296978D01*
X411925Y297153D01*
X411865Y297330D01*
X411808Y297508D01*
X411756Y297688D01*
X411708Y297868D01*
X411665Y298050D01*
X411626Y298233D01*
X411592Y298417D01*
X411562Y298602D01*
X411537Y298787D01*
X411517Y298973D01*
X411501Y299159D01*
X411489Y299346D01*
X411482Y299533D01*
X411480Y299720D01*
X417068Y292608D02*
X417068Y306832D01*
X421132Y306832D02*
X421132Y292608D01*
D11*
X402884Y259461D02*
X396613Y259461D01*
X402884Y259461D02*
X406019Y262596D01*
X402884Y265732D01*
X396613Y265732D01*
X396613Y268816D02*
X406019Y268816D01*
X396613Y268816D02*
X396613Y273519D01*
X398181Y275087D01*
X401316Y275087D01*
X402884Y273519D01*
X402884Y268816D01*
X402884Y271952D02*
X406019Y275087D01*
X399748Y278171D02*
X396613Y281307D01*
X406019Y281307D01*
X406019Y284442D02*
X406019Y278171D01*
D10*
X382353Y194290D02*
X372608Y194290D01*
X382353Y194290D02*
X384302Y196239D01*
X384302Y200137D01*
X382353Y202086D01*
X372608Y202086D01*
X384302Y205984D02*
X384302Y213780D01*
X384302Y205984D02*
X376506Y213780D01*
X374557Y213780D01*
X372608Y211831D01*
X372608Y207933D01*
X374557Y205984D01*
X400558Y150632D02*
X400558Y138938D01*
X400558Y150632D02*
X406405Y150632D01*
X408354Y148683D01*
X408354Y144785D01*
X406405Y142836D01*
X400558Y142836D01*
X404456Y142836D02*
X408354Y138938D01*
X416150Y148683D02*
X420048Y150632D01*
X416150Y148683D02*
X412252Y144785D01*
X412252Y140887D01*
X414201Y138938D01*
X418099Y138938D01*
X420048Y140887D01*
X420048Y142836D01*
X418099Y144785D01*
X412252Y144785D01*
D16*
X468350Y225180D02*
X508591Y225180D01*
X508591Y242180D01*
X468350Y242180D01*
D10*
X471414Y238652D02*
X471414Y226958D01*
X477261Y226958D01*
X479210Y228907D01*
X479210Y236703D01*
X477261Y238652D01*
X471414Y238652D01*
X483108Y234754D02*
X487006Y238652D01*
X487006Y226958D01*
X483108Y226958D02*
X490904Y226958D01*
D16*
X508591Y199780D02*
X468350Y199780D01*
X508591Y199780D02*
X508591Y216780D01*
X468350Y216780D01*
D10*
X471414Y213252D02*
X471414Y201558D01*
X477261Y201558D01*
X479210Y203507D01*
X479210Y211303D01*
X477261Y213252D01*
X471414Y213252D01*
X483108Y201558D02*
X490904Y201558D01*
X483108Y201558D02*
X490904Y209354D01*
X490904Y211303D01*
X488955Y213252D01*
X485057Y213252D01*
X483108Y211303D01*
D11*
X527394Y201557D02*
X528961Y199989D01*
X527394Y201557D02*
X524258Y201557D01*
X522691Y199989D01*
X522691Y193719D01*
X524258Y192151D01*
X527394Y192151D01*
X528961Y193719D01*
X535181Y199989D02*
X538317Y201557D01*
X535181Y199989D02*
X532046Y196854D01*
X532046Y193719D01*
X533613Y192151D01*
X536749Y192151D01*
X538317Y193719D01*
X538317Y195286D01*
X536749Y196854D01*
X532046Y196854D01*
D10*
X511790Y176032D02*
X511790Y164338D01*
X511790Y176032D02*
X517637Y176032D01*
X519586Y174083D01*
X519586Y170185D01*
X517637Y168236D01*
X511790Y168236D01*
X515688Y168236D02*
X519586Y164338D01*
X523484Y176032D02*
X531280Y176032D01*
X531280Y174083D01*
X523484Y166287D01*
X523484Y164338D01*
X499618Y151223D02*
X499618Y143427D01*
X499618Y151223D02*
X501567Y153172D01*
X505465Y153172D01*
X507414Y151223D01*
X507414Y143427D01*
X505465Y141478D01*
X501567Y141478D01*
X499618Y143427D01*
X503516Y145376D02*
X507414Y141478D01*
X511312Y149274D02*
X515210Y153172D01*
X515210Y141478D01*
X511312Y141478D02*
X519108Y141478D01*
D14*
X352044Y577596D02*
X352044Y582168D01*
X352044Y611124D02*
X347472Y611124D01*
X318516Y611124D02*
X318516Y606552D01*
X318516Y577596D02*
X323088Y577596D01*
X347472Y577596D02*
X352044Y577596D01*
X352044Y606552D02*
X352044Y611124D01*
X323088Y611124D02*
X318516Y611124D01*
X318516Y582168D02*
X318516Y577596D01*
D11*
X329352Y571972D02*
X321386Y564007D01*
X321386Y571972D02*
X329352Y564007D01*
X325369Y564007D02*
X325369Y571972D01*
X329352Y567990D02*
X321386Y567990D01*
X538313Y658941D02*
X544584Y658941D01*
X547719Y662076D01*
X544584Y665212D01*
X538313Y665212D01*
X538313Y668296D02*
X547719Y668296D01*
X547719Y672999D01*
X546151Y674567D01*
X539881Y674567D01*
X538313Y672999D01*
X538313Y668296D01*
X538313Y677651D02*
X547719Y677651D01*
X547719Y682354D01*
X546151Y683922D01*
X539881Y683922D01*
X538313Y682354D01*
X538313Y677651D01*
X538313Y693044D02*
X539881Y694612D01*
X538313Y693044D02*
X538313Y689909D01*
X539881Y688341D01*
X546151Y688341D01*
X547719Y689909D01*
X547719Y693044D01*
X546151Y694612D01*
X543016Y694612D01*
X543016Y691476D01*
X547719Y697696D02*
X538313Y697696D01*
X547719Y703967D01*
X538313Y703967D01*
X538313Y707051D02*
X547719Y707051D01*
X547719Y711754D01*
X546151Y713322D01*
X539881Y713322D01*
X538313Y711754D01*
X538313Y707051D01*
X538313Y723984D02*
X539881Y725552D01*
X538313Y723984D02*
X538313Y720849D01*
X539881Y719281D01*
X546151Y719281D01*
X547719Y720849D01*
X547719Y723984D01*
X546151Y725552D01*
X538313Y733339D02*
X539881Y734907D01*
X538313Y733339D02*
X538313Y730204D01*
X539881Y728636D01*
X541448Y728636D01*
X543016Y730204D01*
X543016Y733339D01*
X544584Y734907D01*
X546151Y734907D01*
X547719Y733339D01*
X547719Y730204D01*
X546151Y728636D01*
X547719Y737991D02*
X538313Y737991D01*
X538313Y742694D01*
X539881Y744262D01*
X541448Y744262D01*
X543016Y742694D01*
X544584Y744262D01*
X546151Y744262D01*
X547719Y742694D01*
X547719Y737991D01*
X543016Y737991D02*
X543016Y742694D01*
X538313Y753384D02*
X539881Y754952D01*
X538313Y753384D02*
X538313Y750249D01*
X539881Y748681D01*
X541448Y748681D01*
X543016Y750249D01*
X543016Y753384D01*
X544584Y754952D01*
X546151Y754952D01*
X547719Y753384D01*
X547719Y750249D01*
X546151Y748681D01*
X547719Y758036D02*
X538313Y758036D01*
X547719Y758036D02*
X547719Y762739D01*
X546151Y764307D01*
X539881Y764307D01*
X538313Y762739D01*
X538313Y758036D01*
X547719Y767391D02*
X547719Y770527D01*
X547719Y768959D02*
X538313Y768959D01*
X538313Y767391D02*
X538313Y770527D01*
X538313Y776244D02*
X539881Y777812D01*
X538313Y776244D02*
X538313Y773109D01*
X539881Y771541D01*
X541448Y771541D01*
X543016Y773109D01*
X543016Y776244D01*
X544584Y777812D01*
X546151Y777812D01*
X547719Y776244D01*
X547719Y773109D01*
X546151Y771541D01*
X547719Y780896D02*
X538313Y780896D01*
X547719Y780896D02*
X547719Y785599D01*
X546151Y787167D01*
X539881Y787167D01*
X538313Y785599D01*
X538313Y780896D01*
X538313Y791819D02*
X538313Y794954D01*
X538313Y791819D02*
X539881Y790251D01*
X546151Y790251D01*
X547719Y791819D01*
X547719Y794954D01*
X546151Y796522D01*
X539881Y796522D01*
X538313Y794954D01*
X538313Y806644D02*
X539881Y808212D01*
X538313Y806644D02*
X538313Y803509D01*
X539881Y801941D01*
X541448Y801941D01*
X543016Y803509D01*
X543016Y806644D01*
X544584Y808212D01*
X546151Y808212D01*
X547719Y806644D01*
X547719Y803509D01*
X546151Y801941D01*
X538313Y815999D02*
X539881Y817567D01*
X538313Y815999D02*
X538313Y812864D01*
X539881Y811296D01*
X546151Y811296D01*
X547719Y812864D01*
X547719Y815999D01*
X546151Y817567D01*
X547719Y820651D02*
X538313Y820651D01*
X544584Y820651D02*
X538313Y826922D01*
X543016Y822219D02*
X547719Y826922D01*
D15*
X510540Y822960D02*
X510540Y670560D01*
X510540Y822960D02*
X535940Y822960D01*
X535940Y670560D01*
X510540Y670560D01*
D10*
X501733Y671068D02*
X491988Y671068D01*
X501733Y671068D02*
X503682Y673017D01*
X503682Y676915D01*
X501733Y678864D01*
X491988Y678864D01*
X493937Y682762D02*
X491988Y684711D01*
X491988Y688609D01*
X493937Y690558D01*
X495886Y690558D01*
X497835Y688609D01*
X499784Y690558D01*
X501733Y690558D01*
X503682Y688609D01*
X503682Y684711D01*
X501733Y682762D01*
X499784Y682762D01*
X497835Y684711D01*
X495886Y682762D01*
X493937Y682762D01*
X497835Y684711D02*
X497835Y688609D01*
X267462Y725678D02*
X255768Y725678D01*
X255768Y731525D01*
X257717Y733474D01*
X261615Y733474D01*
X263564Y731525D01*
X263564Y725678D01*
X263564Y729576D02*
X267462Y733474D01*
X259666Y737372D02*
X255768Y741270D01*
X267462Y741270D01*
X267462Y737372D02*
X267462Y745168D01*
X255768Y749066D02*
X255768Y756862D01*
X255768Y749066D02*
X261615Y749066D01*
X259666Y752964D01*
X259666Y754913D01*
X261615Y756862D01*
X265513Y756862D01*
X267462Y754913D01*
X267462Y751015D01*
X265513Y749066D01*
D15*
X274320Y784820D02*
X274320Y786320D01*
D11*
X282313Y757980D02*
X291719Y757980D01*
X291719Y764251D01*
X282313Y767335D02*
X282313Y773606D01*
X282313Y767335D02*
X291719Y767335D01*
X291719Y773606D01*
X287016Y770471D02*
X287016Y767335D01*
X282313Y776691D02*
X291719Y776691D01*
X291719Y781394D01*
X290151Y782961D01*
X283881Y782961D01*
X282313Y781394D01*
X282313Y776691D01*
X282313Y786046D02*
X282313Y792316D01*
X282313Y786046D02*
X287016Y786046D01*
X285448Y789181D01*
X285448Y790749D01*
X287016Y792316D01*
X290151Y792316D01*
X291719Y790749D01*
X291719Y787613D01*
X290151Y786046D01*
D10*
X241016Y689112D02*
X241016Y677418D01*
X241016Y689112D02*
X246863Y689112D01*
X248812Y687163D01*
X248812Y683265D01*
X246863Y681316D01*
X241016Y681316D01*
X244914Y681316D02*
X248812Y677418D01*
X252710Y677418D02*
X260506Y677418D01*
X252710Y677418D02*
X260506Y685214D01*
X260506Y687163D01*
X258557Y689112D01*
X254659Y689112D01*
X252710Y687163D01*
X264404Y687163D02*
X266353Y689112D01*
X270251Y689112D01*
X272200Y687163D01*
X272200Y685214D01*
X270251Y683265D01*
X268302Y683265D01*
X270251Y683265D02*
X272200Y681316D01*
X272200Y679367D01*
X270251Y677418D01*
X266353Y677418D01*
X264404Y679367D01*
X276576Y677418D02*
X276576Y689112D01*
X282423Y689112D01*
X284372Y687163D01*
X284372Y683265D01*
X282423Y681316D01*
X276576Y681316D01*
X280474Y681316D02*
X284372Y677418D01*
X288270Y677418D02*
X296066Y677418D01*
X288270Y677418D02*
X296066Y685214D01*
X296066Y687163D01*
X294117Y689112D01*
X290219Y689112D01*
X288270Y687163D01*
X305811Y689112D02*
X305811Y677418D01*
X299964Y683265D02*
X305811Y689112D01*
X307760Y683265D02*
X299964Y683265D01*
X227838Y546872D02*
X227838Y535178D01*
X227838Y546872D02*
X233685Y546872D01*
X235634Y544923D01*
X235634Y541025D01*
X233685Y539076D01*
X227838Y539076D01*
X231736Y539076D02*
X235634Y535178D01*
X239532Y535178D02*
X247328Y535178D01*
X239532Y535178D02*
X247328Y542974D01*
X247328Y544923D01*
X245379Y546872D01*
X241481Y546872D01*
X239532Y544923D01*
X251226Y535178D02*
X259022Y535178D01*
X251226Y535178D02*
X259022Y542974D01*
X259022Y544923D01*
X257073Y546872D01*
X253175Y546872D01*
X251226Y544923D01*
X271496Y526552D02*
X271496Y514858D01*
X271496Y526552D02*
X277343Y526552D01*
X279292Y524603D01*
X279292Y520705D01*
X277343Y518756D01*
X271496Y518756D01*
X275394Y518756D02*
X279292Y514858D01*
X283190Y522654D02*
X287088Y526552D01*
X287088Y514858D01*
X283190Y514858D02*
X290986Y514858D01*
X294884Y524603D02*
X296833Y526552D01*
X300731Y526552D01*
X302680Y524603D01*
X302680Y522654D01*
X300731Y520705D01*
X302680Y518756D01*
X302680Y516807D01*
X300731Y514858D01*
X296833Y514858D01*
X294884Y516807D01*
X294884Y518756D01*
X296833Y520705D01*
X294884Y522654D01*
X294884Y524603D01*
X296833Y520705D02*
X300731Y520705D01*
X271496Y465592D02*
X271496Y453898D01*
X271496Y465592D02*
X277343Y465592D01*
X279292Y463643D01*
X279292Y459745D01*
X277343Y457796D01*
X271496Y457796D01*
X275394Y457796D02*
X279292Y453898D01*
X283190Y461694D02*
X287088Y465592D01*
X287088Y453898D01*
X283190Y453898D02*
X290986Y453898D01*
X294884Y455847D02*
X296833Y453898D01*
X300731Y453898D01*
X302680Y455847D01*
X302680Y463643D01*
X300731Y465592D01*
X296833Y465592D01*
X294884Y463643D01*
X294884Y461694D01*
X296833Y459745D01*
X302680Y459745D01*
X321808Y402570D02*
X331553Y402570D01*
X333502Y404519D01*
X333502Y408417D01*
X331553Y410366D01*
X321808Y410366D01*
X323757Y414264D02*
X321808Y416213D01*
X321808Y420111D01*
X323757Y422060D01*
X325706Y422060D01*
X327655Y420111D01*
X327655Y418162D01*
X327655Y420111D02*
X329604Y422060D01*
X331553Y422060D01*
X333502Y420111D01*
X333502Y416213D01*
X331553Y414264D01*
D15*
X467920Y401880D02*
X467920Y471880D01*
X537920Y471880D02*
X537920Y401880D01*
X467920Y401880D01*
X467920Y471880D02*
X537920Y471880D01*
D10*
X465847Y481118D02*
X463898Y483067D01*
X465847Y481118D02*
X467796Y481118D01*
X469745Y483067D01*
X469745Y492812D01*
X467796Y492812D02*
X471694Y492812D01*
X475592Y488914D02*
X479490Y492812D01*
X479490Y481118D01*
X475592Y481118D02*
X483388Y481118D01*
X435102Y507238D02*
X423408Y507238D01*
X423408Y513085D01*
X425357Y515034D01*
X429255Y515034D01*
X431204Y513085D01*
X431204Y507238D01*
X431204Y511136D02*
X435102Y515034D01*
X427306Y518932D02*
X423408Y522830D01*
X435102Y522830D01*
X435102Y518932D02*
X435102Y526728D01*
X435102Y461518D02*
X423408Y461518D01*
X423408Y467365D01*
X425357Y469314D01*
X429255Y469314D01*
X431204Y467365D01*
X431204Y461518D01*
X431204Y465416D02*
X435102Y469314D01*
X435102Y473212D02*
X435102Y481008D01*
X435102Y473212D02*
X427306Y481008D01*
X425357Y481008D01*
X423408Y479059D01*
X423408Y475161D01*
X425357Y473212D01*
X423408Y425958D02*
X435102Y425958D01*
X423408Y425958D02*
X423408Y431805D01*
X425357Y433754D01*
X429255Y433754D01*
X431204Y431805D01*
X431204Y425958D01*
X431204Y429856D02*
X435102Y433754D01*
X425357Y437652D02*
X423408Y439601D01*
X423408Y443499D01*
X425357Y445448D01*
X427306Y445448D01*
X429255Y443499D01*
X429255Y441550D01*
X429255Y443499D02*
X431204Y445448D01*
X433153Y445448D01*
X435102Y443499D01*
X435102Y439601D01*
X433153Y437652D01*
D11*
X450251Y401961D02*
X448683Y400394D01*
X448683Y397258D01*
X450251Y395691D01*
X456521Y395691D01*
X458089Y397258D01*
X458089Y400394D01*
X456521Y401961D01*
X450251Y405046D02*
X448683Y406613D01*
X448683Y409749D01*
X450251Y411317D01*
X451818Y411317D01*
X453386Y409749D01*
X453386Y408181D01*
X453386Y409749D02*
X454954Y411317D01*
X456521Y411317D01*
X458089Y409749D01*
X458089Y406613D01*
X456521Y405046D01*
D10*
X402746Y438243D02*
X400797Y440192D01*
X396899Y440192D01*
X394950Y438243D01*
X394950Y430447D01*
X396899Y428498D01*
X400797Y428498D01*
X402746Y430447D01*
X406644Y428498D02*
X414440Y428498D01*
X406644Y428498D02*
X414440Y436294D01*
X414440Y438243D01*
X412491Y440192D01*
X408593Y440192D01*
X406644Y438243D01*
X397666Y473803D02*
X395717Y475752D01*
X391819Y475752D01*
X389870Y473803D01*
X389870Y466007D01*
X391819Y464058D01*
X395717Y464058D01*
X397666Y466007D01*
X401564Y471854D02*
X405462Y475752D01*
X405462Y464058D01*
X401564Y464058D02*
X409360Y464058D01*
X408168Y599445D02*
X410117Y601394D01*
X408168Y599445D02*
X408168Y595547D01*
X410117Y593598D01*
X417913Y593598D01*
X419862Y595547D01*
X419862Y599445D01*
X417913Y601394D01*
X410117Y605292D02*
X408168Y607241D01*
X408168Y611139D01*
X410117Y613088D01*
X412066Y613088D01*
X414015Y611139D01*
X414015Y609190D01*
X414015Y611139D02*
X415964Y613088D01*
X417913Y613088D01*
X419862Y611139D01*
X419862Y607241D01*
X417913Y605292D01*
X408168Y616986D02*
X408168Y624782D01*
X408168Y616986D02*
X414015Y616986D01*
X412066Y620884D01*
X412066Y622833D01*
X414015Y624782D01*
X417913Y624782D01*
X419862Y622833D01*
X419862Y618935D01*
X417913Y616986D01*
X250874Y641443D02*
X248925Y643392D01*
X245027Y643392D01*
X243078Y641443D01*
X243078Y633647D01*
X245027Y631698D01*
X248925Y631698D01*
X250874Y633647D01*
X254772Y641443D02*
X256721Y643392D01*
X260619Y643392D01*
X262568Y641443D01*
X262568Y639494D01*
X260619Y637545D01*
X258670Y637545D01*
X260619Y637545D02*
X262568Y635596D01*
X262568Y633647D01*
X260619Y631698D01*
X256721Y631698D01*
X254772Y633647D01*
X266466Y641443D02*
X268415Y643392D01*
X272313Y643392D01*
X274262Y641443D01*
X274262Y639494D01*
X272313Y637545D01*
X274262Y635596D01*
X274262Y633647D01*
X272313Y631698D01*
X268415Y631698D01*
X266466Y633647D01*
X266466Y635596D01*
X268415Y637545D01*
X266466Y639494D01*
X266466Y641443D01*
X268415Y637545D02*
X272313Y637545D01*
X233685Y572272D02*
X235634Y570323D01*
X233685Y572272D02*
X229787Y572272D01*
X227838Y570323D01*
X227838Y562527D01*
X229787Y560578D01*
X233685Y560578D01*
X235634Y562527D01*
X239532Y570323D02*
X241481Y572272D01*
X245379Y572272D01*
X247328Y570323D01*
X247328Y568374D01*
X245379Y566425D01*
X243430Y566425D01*
X245379Y566425D02*
X247328Y564476D01*
X247328Y562527D01*
X245379Y560578D01*
X241481Y560578D01*
X239532Y562527D01*
X251226Y570323D02*
X253175Y572272D01*
X257073Y572272D01*
X259022Y570323D01*
X259022Y568374D01*
X257073Y566425D01*
X255124Y566425D01*
X257073Y566425D02*
X259022Y564476D01*
X259022Y562527D01*
X257073Y560578D01*
X253175Y560578D01*
X251226Y562527D01*
X471150Y145552D02*
X471150Y133858D01*
X471150Y145552D02*
X476997Y145552D01*
X478946Y143603D01*
X478946Y139705D01*
X476997Y137756D01*
X471150Y137756D01*
X475048Y137756D02*
X478946Y133858D01*
X482844Y143603D02*
X484793Y145552D01*
X488691Y145552D01*
X490640Y143603D01*
X490640Y141654D01*
X488691Y139705D01*
X490640Y137756D01*
X490640Y135807D01*
X488691Y133858D01*
X484793Y133858D01*
X482844Y135807D01*
X482844Y137756D01*
X484793Y139705D01*
X482844Y141654D01*
X482844Y143603D01*
X484793Y139705D02*
X488691Y139705D01*
X328422Y725678D02*
X316728Y725678D01*
X316728Y731525D01*
X318677Y733474D01*
X322575Y733474D01*
X324524Y731525D01*
X324524Y725678D01*
X324524Y729576D02*
X328422Y733474D01*
X320626Y737372D02*
X316728Y741270D01*
X328422Y741270D01*
X328422Y737372D02*
X328422Y745168D01*
X318677Y749066D02*
X316728Y751015D01*
X316728Y754913D01*
X318677Y756862D01*
X320626Y756862D01*
X322575Y754913D01*
X322575Y752964D01*
X322575Y754913D02*
X324524Y756862D01*
X326473Y756862D01*
X328422Y754913D01*
X328422Y751015D01*
X326473Y749066D01*
D15*
X335280Y784820D02*
X335280Y786320D01*
D11*
X343273Y757980D02*
X352679Y757980D01*
X352679Y764251D01*
X343273Y767335D02*
X343273Y773606D01*
X343273Y767335D02*
X352679Y767335D01*
X352679Y773606D01*
X347976Y770471D02*
X347976Y767335D01*
X343273Y776691D02*
X352679Y776691D01*
X352679Y781394D01*
X351111Y782961D01*
X344841Y782961D01*
X343273Y781394D01*
X343273Y776691D01*
X344841Y786046D02*
X343273Y787613D01*
X343273Y790749D01*
X344841Y792316D01*
X346408Y792316D01*
X347976Y790749D01*
X347976Y789181D01*
X347976Y790749D02*
X349544Y792316D01*
X351111Y792316D01*
X352679Y790749D01*
X352679Y787613D01*
X351111Y786046D01*
D14*
X221996Y502920D02*
X221996Y482600D01*
X255524Y482600D02*
X255524Y502920D01*
D11*
X254848Y505750D02*
X262814Y513715D01*
X262814Y505750D02*
X254848Y513715D01*
X258831Y513715D02*
X258831Y505750D01*
X254848Y509732D02*
X262814Y509732D01*
D10*
X227838Y611378D02*
X227838Y623072D01*
X233685Y623072D01*
X235634Y621123D01*
X235634Y617225D01*
X233685Y615276D01*
X227838Y615276D01*
X231736Y615276D02*
X235634Y611378D01*
X239532Y611378D02*
X247328Y611378D01*
X239532Y611378D02*
X247328Y619174D01*
X247328Y621123D01*
X245379Y623072D01*
X241481Y623072D01*
X239532Y621123D01*
X251226Y623072D02*
X259022Y623072D01*
X251226Y623072D02*
X251226Y617225D01*
X255124Y619174D01*
X257073Y619174D01*
X259022Y617225D01*
X259022Y613327D01*
X257073Y611378D01*
X253175Y611378D01*
X251226Y613327D01*
X342128Y654558D02*
X353822Y654558D01*
X342128Y654558D02*
X342128Y660405D01*
X344077Y662354D01*
X347975Y662354D01*
X349924Y660405D01*
X349924Y654558D01*
X349924Y658456D02*
X353822Y662354D01*
X353822Y666252D02*
X353822Y674048D01*
X353822Y666252D02*
X346026Y674048D01*
X344077Y674048D01*
X342128Y672099D01*
X342128Y668201D01*
X344077Y666252D01*
X346026Y677946D02*
X342128Y681844D01*
X353822Y681844D01*
X353822Y677946D02*
X353822Y685742D01*
X313597Y662354D02*
X311648Y660405D01*
X311648Y656507D01*
X313597Y654558D01*
X321393Y654558D01*
X323342Y656507D01*
X323342Y660405D01*
X321393Y662354D01*
X313597Y666252D02*
X311648Y668201D01*
X311648Y672099D01*
X313597Y674048D01*
X315546Y674048D01*
X317495Y672099D01*
X317495Y670150D01*
X317495Y672099D02*
X319444Y674048D01*
X321393Y674048D01*
X323342Y672099D01*
X323342Y668201D01*
X321393Y666252D01*
X323342Y683793D02*
X311648Y683793D01*
X317495Y677946D01*
X317495Y685742D01*
X227838Y597672D02*
X227838Y585978D01*
X227838Y597672D02*
X233685Y597672D01*
X235634Y595723D01*
X235634Y591825D01*
X233685Y589876D01*
X227838Y589876D01*
X231736Y589876D02*
X235634Y585978D01*
X239532Y585978D02*
X247328Y585978D01*
X239532Y585978D02*
X247328Y593774D01*
X247328Y595723D01*
X245379Y597672D01*
X241481Y597672D01*
X239532Y595723D01*
X251226Y595723D02*
X251226Y587927D01*
X251226Y595723D02*
X253175Y597672D01*
X257073Y597672D01*
X259022Y595723D01*
X259022Y587927D01*
X257073Y585978D01*
X253175Y585978D01*
X251226Y587927D01*
X259022Y595723D01*
X455935Y563382D02*
X457884Y561433D01*
X455935Y563382D02*
X452037Y563382D01*
X450088Y561433D01*
X450088Y553637D01*
X452037Y551688D01*
X455935Y551688D01*
X457884Y553637D01*
X461782Y561433D02*
X463731Y563382D01*
X467629Y563382D01*
X469578Y561433D01*
X469578Y559484D01*
X467629Y557535D01*
X465680Y557535D01*
X467629Y557535D02*
X469578Y555586D01*
X469578Y553637D01*
X467629Y551688D01*
X463731Y551688D01*
X461782Y553637D01*
X477374Y561433D02*
X481272Y563382D01*
X477374Y561433D02*
X473476Y557535D01*
X473476Y553637D01*
X475425Y551688D01*
X479323Y551688D01*
X481272Y553637D01*
X481272Y555586D01*
X479323Y557535D01*
X473476Y557535D01*
X457884Y581753D02*
X455935Y583702D01*
X452037Y583702D01*
X450088Y581753D01*
X450088Y573957D01*
X452037Y572008D01*
X455935Y572008D01*
X457884Y573957D01*
X461782Y581753D02*
X463731Y583702D01*
X467629Y583702D01*
X469578Y581753D01*
X469578Y579804D01*
X467629Y577855D01*
X465680Y577855D01*
X467629Y577855D02*
X469578Y575906D01*
X469578Y573957D01*
X467629Y572008D01*
X463731Y572008D01*
X461782Y573957D01*
X473476Y583702D02*
X481272Y583702D01*
X481272Y581753D01*
X473476Y573957D01*
X473476Y572008D01*
X496575Y532902D02*
X498524Y530953D01*
X496575Y532902D02*
X492677Y532902D01*
X490728Y530953D01*
X490728Y523157D01*
X492677Y521208D01*
X496575Y521208D01*
X498524Y523157D01*
X502422Y530953D02*
X504371Y532902D01*
X508269Y532902D01*
X510218Y530953D01*
X510218Y529004D01*
X508269Y527055D01*
X506320Y527055D01*
X508269Y527055D02*
X510218Y525106D01*
X510218Y523157D01*
X508269Y521208D01*
X504371Y521208D01*
X502422Y523157D01*
X514116Y523157D02*
X516065Y521208D01*
X519963Y521208D01*
X521912Y523157D01*
X521912Y530953D01*
X519963Y532902D01*
X516065Y532902D01*
X514116Y530953D01*
X514116Y529004D01*
X516065Y527055D01*
X521912Y527055D01*
X337234Y478883D02*
X335285Y480832D01*
X331387Y480832D01*
X329438Y478883D01*
X329438Y471087D01*
X331387Y469138D01*
X335285Y469138D01*
X337234Y471087D01*
X341132Y469138D02*
X348928Y469138D01*
X341132Y469138D02*
X348928Y476934D01*
X348928Y478883D01*
X346979Y480832D01*
X343081Y480832D01*
X341132Y478883D01*
X352826Y480832D02*
X360622Y480832D01*
X360622Y478883D01*
X352826Y471087D01*
X352826Y469138D01*
M02*
