M48
;GenerationSoftware,Autodesk,EAGLE,9.6.2*%
;CreationDate,2023-10-04T01:40:54Z*%
FMAT,2
ICI,OFF
METRIC,TZ,000.000
T10C0.350
T9C0.800
T8C0.813
T7C1.000
T6C1.016
T5C1.321
T4C1.778
T3C3.000
T2C3.200
T1C4.000
%
G90
M71
T1
X52000Y-5000
X52000Y90000
T2
X3500Y61500
X52500Y61500
X52500Y3500
X3500Y3500
T3
X13370Y7708
X13370Y13608
X18070Y10608
T4
X50292Y43688
X52832Y46228
X52832Y41148
X47752Y41148
X47752Y46228
T5
X53340Y30988
X42164Y7112
X39624Y7112
X37084Y7112
X34544Y7112
X44704Y7112
X49784Y17272
X53340Y8636
X53340Y23876
X42164Y4064
X37084Y4064
X39624Y4064
X34544Y4064
X44704Y4064
T6
X2228Y21057
X4768Y41377
X2228Y41377
X4768Y43917
X2228Y38837
X4768Y38837
X2228Y36297
X4768Y36297
X2228Y33757
X4768Y33757
X2228Y31217
X4768Y31217
X2228Y28677
X4768Y28677
X2228Y26137
X2228Y56617
X4768Y56617
X2228Y54077
X4768Y54077
X2228Y51537
X4768Y51537
X2228Y48997
X4768Y48997
X2228Y46457
X4768Y46457
X4770Y8370
X2228Y8357
X4768Y10897
X2228Y10897
X4768Y13437
X2228Y13437
X4768Y15977
X2228Y15977
X4768Y18517
X2228Y18517
X4768Y21057
X2228Y43917
X4768Y23597
X2228Y23597
X4768Y26137
T7
X52324Y73406
X52324Y75946
X52324Y78486
X52324Y81026
X52324Y70866
X52324Y68326
T8
X16764Y21336
X16764Y23876
X16764Y26416
X16764Y28956
T9
X45720Y28448
X43180Y28448
X48260Y28448
T10
X37592Y66040
X37084Y40640
X44704Y16764
X43180Y32512
X21844Y51308
X23876Y44704
X38608Y24384
X13716Y72644
X33528Y71628
X21336Y35052
X11176Y41656
X20320Y46228
X31496Y35560
X11176Y43180
X36576Y13208
X37592Y14224
X50800Y19304
X46736Y16256
X20320Y37084
X46228Y69596
X16256Y62484
X21336Y47900
X47752Y79248
X30988Y45720
X30988Y62992
X40132Y64343
X27432Y71628
X39624Y71628
X36576Y71628
X30480Y71628
X19304Y80264
X2540Y74168
X12700Y78232
X24238Y60452
X52832Y34544
X21336Y5588
X33528Y29464
X28956Y32004
X44704Y19812
X12700Y41148
X37084Y62992
X37084Y55880
X34544Y65024
X42164Y73152
X43180Y78592
X11176Y45720
X8128Y12192
X2540Y66040
M30