G04 EAGLE Gerber RS-274X export*
G75*
%MOMM*%
%FSLAX34Y34*%
%LPD*%
%INBoard Outline*%
%IPPOS*%
%AMOC8*
5,1,8,0,0,1.08239X$1,22.5*%
G01*
%ADD10C,0.000000*%
%ADD11C,0.152400*%
%ADD12C,0.254000*%


D10*
X30000Y0D02*
X530000Y0D01*
X560000Y30000D02*
X560000Y820000D01*
X530000Y850000D02*
X30000Y850000D01*
X0Y820000D02*
X0Y30000D01*
X9Y29275D01*
X35Y28551D01*
X79Y27827D01*
X140Y27105D01*
X219Y26384D01*
X315Y25665D01*
X428Y24949D01*
X559Y24236D01*
X707Y23526D01*
X872Y22821D01*
X1054Y22119D01*
X1253Y21422D01*
X1468Y20729D01*
X1701Y20043D01*
X1950Y19362D01*
X2215Y18687D01*
X2496Y18019D01*
X2794Y17358D01*
X3107Y16704D01*
X3436Y16058D01*
X3781Y15420D01*
X4141Y14791D01*
X4516Y14171D01*
X4906Y13560D01*
X5310Y12958D01*
X5729Y12366D01*
X6163Y11785D01*
X6610Y11214D01*
X7071Y10655D01*
X7545Y10106D01*
X8032Y9570D01*
X8532Y9045D01*
X9045Y8532D01*
X9570Y8032D01*
X10106Y7545D01*
X10655Y7071D01*
X11214Y6610D01*
X11785Y6163D01*
X12366Y5729D01*
X12958Y5310D01*
X13560Y4906D01*
X14171Y4516D01*
X14791Y4141D01*
X15420Y3781D01*
X16058Y3436D01*
X16704Y3107D01*
X17358Y2794D01*
X18019Y2496D01*
X18687Y2215D01*
X19362Y1950D01*
X20043Y1701D01*
X20729Y1468D01*
X21422Y1253D01*
X22119Y1054D01*
X22821Y872D01*
X23526Y707D01*
X24236Y559D01*
X24949Y428D01*
X25665Y315D01*
X26384Y219D01*
X27105Y140D01*
X27827Y79D01*
X28551Y35D01*
X29275Y9D01*
X30000Y0D01*
X530000Y0D02*
X530725Y9D01*
X531449Y35D01*
X532173Y79D01*
X532895Y140D01*
X533616Y219D01*
X534335Y315D01*
X535051Y428D01*
X535764Y559D01*
X536474Y707D01*
X537179Y872D01*
X537881Y1054D01*
X538578Y1253D01*
X539271Y1468D01*
X539957Y1701D01*
X540638Y1950D01*
X541313Y2215D01*
X541981Y2496D01*
X542642Y2794D01*
X543296Y3107D01*
X543942Y3436D01*
X544580Y3781D01*
X545209Y4141D01*
X545829Y4516D01*
X546440Y4906D01*
X547042Y5310D01*
X547634Y5729D01*
X548215Y6163D01*
X548786Y6610D01*
X549345Y7071D01*
X549894Y7545D01*
X550430Y8032D01*
X550955Y8532D01*
X551468Y9045D01*
X551968Y9570D01*
X552455Y10106D01*
X552929Y10655D01*
X553390Y11214D01*
X553837Y11785D01*
X554271Y12366D01*
X554690Y12958D01*
X555094Y13560D01*
X555484Y14171D01*
X555859Y14791D01*
X556219Y15420D01*
X556564Y16058D01*
X556893Y16704D01*
X557206Y17358D01*
X557504Y18019D01*
X557785Y18687D01*
X558050Y19362D01*
X558299Y20043D01*
X558532Y20729D01*
X558747Y21422D01*
X558946Y22119D01*
X559128Y22821D01*
X559293Y23526D01*
X559441Y24236D01*
X559572Y24949D01*
X559685Y25665D01*
X559781Y26384D01*
X559860Y27105D01*
X559921Y27827D01*
X559965Y28551D01*
X559991Y29275D01*
X560000Y30000D01*
X560000Y820000D02*
X559991Y820725D01*
X559965Y821449D01*
X559921Y822173D01*
X559860Y822895D01*
X559781Y823616D01*
X559685Y824335D01*
X559572Y825051D01*
X559441Y825764D01*
X559293Y826474D01*
X559128Y827179D01*
X558946Y827881D01*
X558747Y828578D01*
X558532Y829271D01*
X558299Y829957D01*
X558050Y830638D01*
X557785Y831313D01*
X557504Y831981D01*
X557206Y832642D01*
X556893Y833296D01*
X556564Y833942D01*
X556219Y834580D01*
X555859Y835209D01*
X555484Y835829D01*
X555094Y836440D01*
X554690Y837042D01*
X554271Y837634D01*
X553837Y838215D01*
X553390Y838786D01*
X552929Y839345D01*
X552455Y839894D01*
X551968Y840430D01*
X551468Y840955D01*
X550955Y841468D01*
X550430Y841968D01*
X549894Y842455D01*
X549345Y842929D01*
X548786Y843390D01*
X548215Y843837D01*
X547634Y844271D01*
X547042Y844690D01*
X546440Y845094D01*
X545829Y845484D01*
X545209Y845859D01*
X544580Y846219D01*
X543942Y846564D01*
X543296Y846893D01*
X542642Y847206D01*
X541981Y847504D01*
X541313Y847785D01*
X540638Y848050D01*
X539957Y848299D01*
X539271Y848532D01*
X538578Y848747D01*
X537881Y848946D01*
X537179Y849128D01*
X536474Y849293D01*
X535764Y849441D01*
X535051Y849572D01*
X534335Y849685D01*
X533616Y849781D01*
X532895Y849860D01*
X532173Y849921D01*
X531449Y849965D01*
X530725Y849991D01*
X530000Y850000D01*
X30000Y850000D02*
X29275Y849991D01*
X28551Y849965D01*
X27827Y849921D01*
X27105Y849860D01*
X26384Y849781D01*
X25665Y849685D01*
X24949Y849572D01*
X24236Y849441D01*
X23526Y849293D01*
X22821Y849128D01*
X22119Y848946D01*
X21422Y848747D01*
X20729Y848532D01*
X20043Y848299D01*
X19362Y848050D01*
X18687Y847785D01*
X18019Y847504D01*
X17358Y847206D01*
X16704Y846893D01*
X16058Y846564D01*
X15420Y846219D01*
X14791Y845859D01*
X14171Y845484D01*
X13560Y845094D01*
X12958Y844690D01*
X12366Y844271D01*
X11785Y843837D01*
X11214Y843390D01*
X10655Y842929D01*
X10106Y842455D01*
X9570Y841968D01*
X9045Y841468D01*
X8532Y840955D01*
X8032Y840430D01*
X7545Y839894D01*
X7071Y839345D01*
X6610Y838786D01*
X6163Y838215D01*
X5729Y837634D01*
X5310Y837042D01*
X4906Y836440D01*
X4516Y835829D01*
X4141Y835209D01*
X3781Y834580D01*
X3436Y833942D01*
X3107Y833296D01*
X2794Y832642D01*
X2496Y831981D01*
X2215Y831313D01*
X1950Y830638D01*
X1701Y829957D01*
X1468Y829271D01*
X1253Y828578D01*
X1054Y827881D01*
X872Y827179D01*
X707Y826474D01*
X559Y825764D01*
X428Y825051D01*
X315Y824335D01*
X219Y823616D01*
X140Y822895D01*
X79Y822173D01*
X35Y821449D01*
X9Y820725D01*
X0Y820000D01*
X30000Y850000D02*
X29275Y850009D01*
X28551Y850035D01*
X27827Y850079D01*
X27105Y850140D01*
X26384Y850219D01*
X25665Y850315D01*
X24949Y850428D01*
X24236Y850559D01*
X23526Y850707D01*
X22821Y850872D01*
X22119Y851054D01*
X21422Y851253D01*
X20729Y851468D01*
X20043Y851701D01*
X19362Y851950D01*
X18687Y852215D01*
X18019Y852496D01*
X17358Y852794D01*
X16704Y853107D01*
X16058Y853436D01*
X15420Y853781D01*
X14791Y854141D01*
X14171Y854516D01*
X13560Y854906D01*
X12958Y855310D01*
X12366Y855729D01*
X11785Y856163D01*
X11214Y856610D01*
X10655Y857071D01*
X10106Y857545D01*
X9570Y858032D01*
X9045Y858532D01*
X8532Y859045D01*
X8032Y859570D01*
X7545Y860106D01*
X7071Y860655D01*
X6610Y861214D01*
X6163Y861785D01*
X5729Y862366D01*
X5310Y862958D01*
X4906Y863560D01*
X4516Y864171D01*
X4141Y864791D01*
X3781Y865420D01*
X3436Y866058D01*
X3107Y866704D01*
X2794Y867358D01*
X2496Y868019D01*
X2215Y868687D01*
X1950Y869362D01*
X1701Y870043D01*
X1468Y870729D01*
X1253Y871422D01*
X1054Y872119D01*
X872Y872821D01*
X707Y873526D01*
X559Y874236D01*
X428Y874949D01*
X315Y875665D01*
X219Y876384D01*
X140Y877105D01*
X79Y877827D01*
X35Y878551D01*
X9Y879275D01*
X0Y880000D01*
X0Y920000D01*
X9Y920725D01*
X35Y921449D01*
X79Y922173D01*
X140Y922895D01*
X219Y923616D01*
X315Y924335D01*
X428Y925051D01*
X559Y925764D01*
X707Y926474D01*
X872Y927179D01*
X1054Y927881D01*
X1253Y928578D01*
X1468Y929271D01*
X1701Y929957D01*
X1950Y930638D01*
X2215Y931313D01*
X2496Y931981D01*
X2794Y932642D01*
X3107Y933296D01*
X3436Y933942D01*
X3781Y934580D01*
X4141Y935209D01*
X4516Y935829D01*
X4906Y936440D01*
X5310Y937042D01*
X5729Y937634D01*
X6163Y938215D01*
X6610Y938786D01*
X7071Y939345D01*
X7545Y939894D01*
X8032Y940430D01*
X8532Y940955D01*
X9045Y941468D01*
X9570Y941968D01*
X10106Y942455D01*
X10655Y942929D01*
X11214Y943390D01*
X11785Y943837D01*
X12366Y944271D01*
X12958Y944690D01*
X13560Y945094D01*
X14171Y945484D01*
X14791Y945859D01*
X15420Y946219D01*
X16058Y946564D01*
X16704Y946893D01*
X17358Y947206D01*
X18019Y947504D01*
X18687Y947785D01*
X19362Y948050D01*
X20043Y948299D01*
X20729Y948532D01*
X21422Y948747D01*
X22119Y948946D01*
X22821Y949128D01*
X23526Y949293D01*
X24236Y949441D01*
X24949Y949572D01*
X25665Y949685D01*
X26384Y949781D01*
X27105Y949860D01*
X27827Y949921D01*
X28551Y949965D01*
X29275Y949991D01*
X30000Y950000D01*
X530000Y950000D01*
X530725Y949991D01*
X531449Y949965D01*
X532173Y949921D01*
X532895Y949860D01*
X533616Y949781D01*
X534335Y949685D01*
X535051Y949572D01*
X535764Y949441D01*
X536474Y949293D01*
X537179Y949128D01*
X537881Y948946D01*
X538578Y948747D01*
X539271Y948532D01*
X539957Y948299D01*
X540638Y948050D01*
X541313Y947785D01*
X541981Y947504D01*
X542642Y947206D01*
X543296Y946893D01*
X543942Y946564D01*
X544580Y946219D01*
X545209Y945859D01*
X545829Y945484D01*
X546440Y945094D01*
X547042Y944690D01*
X547634Y944271D01*
X548215Y943837D01*
X548786Y943390D01*
X549345Y942929D01*
X549894Y942455D01*
X550430Y941968D01*
X550955Y941468D01*
X551468Y940955D01*
X551968Y940430D01*
X552455Y939894D01*
X552929Y939345D01*
X553390Y938786D01*
X553837Y938215D01*
X554271Y937634D01*
X554690Y937042D01*
X555094Y936440D01*
X555484Y935829D01*
X555859Y935209D01*
X556219Y934580D01*
X556564Y933942D01*
X556893Y933296D01*
X557206Y932642D01*
X557504Y931981D01*
X557785Y931313D01*
X558050Y930638D01*
X558299Y929957D01*
X558532Y929271D01*
X558747Y928578D01*
X558946Y927881D01*
X559128Y927179D01*
X559293Y926474D01*
X559441Y925764D01*
X559572Y925051D01*
X559685Y924335D01*
X559781Y923616D01*
X559860Y922895D01*
X559921Y922173D01*
X559965Y921449D01*
X559991Y920725D01*
X560000Y920000D01*
X560000Y880000D01*
X559991Y879275D01*
X559965Y878551D01*
X559921Y877827D01*
X559860Y877105D01*
X559781Y876384D01*
X559685Y875665D01*
X559572Y874949D01*
X559441Y874236D01*
X559293Y873526D01*
X559128Y872821D01*
X558946Y872119D01*
X558747Y871422D01*
X558532Y870729D01*
X558299Y870043D01*
X558050Y869362D01*
X557785Y868687D01*
X557504Y868019D01*
X557206Y867358D01*
X556893Y866704D01*
X556564Y866058D01*
X556219Y865420D01*
X555859Y864791D01*
X555484Y864171D01*
X555094Y863560D01*
X554690Y862958D01*
X554271Y862366D01*
X553837Y861785D01*
X553390Y861214D01*
X552929Y860655D01*
X552455Y860106D01*
X551968Y859570D01*
X551468Y859045D01*
X550955Y858532D01*
X550430Y858032D01*
X549894Y857545D01*
X549345Y857071D01*
X548786Y856610D01*
X548215Y856163D01*
X547634Y855729D01*
X547042Y855310D01*
X546440Y854906D01*
X545829Y854516D01*
X545209Y854141D01*
X544580Y853781D01*
X543942Y853436D01*
X543296Y853107D01*
X542642Y852794D01*
X541981Y852496D01*
X541313Y852215D01*
X540638Y851950D01*
X539957Y851701D01*
X539271Y851468D01*
X538578Y851253D01*
X537881Y851054D01*
X537179Y850872D01*
X536474Y850707D01*
X535764Y850559D01*
X535051Y850428D01*
X534335Y850315D01*
X533616Y850219D01*
X532895Y850140D01*
X532173Y850079D01*
X531449Y850035D01*
X530725Y850009D01*
X530000Y850000D01*
X30000Y0D02*
X29275Y-9D01*
X28551Y-35D01*
X27827Y-79D01*
X27105Y-140D01*
X26384Y-219D01*
X25665Y-315D01*
X24949Y-428D01*
X24236Y-559D01*
X23526Y-707D01*
X22821Y-872D01*
X22119Y-1054D01*
X21422Y-1253D01*
X20729Y-1468D01*
X20043Y-1701D01*
X19362Y-1950D01*
X18687Y-2215D01*
X18019Y-2496D01*
X17358Y-2794D01*
X16704Y-3107D01*
X16058Y-3436D01*
X15420Y-3781D01*
X14791Y-4141D01*
X14171Y-4516D01*
X13560Y-4906D01*
X12958Y-5310D01*
X12366Y-5729D01*
X11785Y-6163D01*
X11214Y-6610D01*
X10655Y-7071D01*
X10106Y-7545D01*
X9570Y-8032D01*
X9045Y-8532D01*
X8532Y-9045D01*
X8032Y-9570D01*
X7545Y-10106D01*
X7071Y-10655D01*
X6610Y-11214D01*
X6163Y-11785D01*
X5729Y-12366D01*
X5310Y-12958D01*
X4906Y-13560D01*
X4516Y-14171D01*
X4141Y-14791D01*
X3781Y-15420D01*
X3436Y-16058D01*
X3107Y-16704D01*
X2794Y-17358D01*
X2496Y-18019D01*
X2215Y-18687D01*
X1950Y-19362D01*
X1701Y-20043D01*
X1468Y-20729D01*
X1253Y-21422D01*
X1054Y-22119D01*
X872Y-22821D01*
X707Y-23526D01*
X559Y-24236D01*
X428Y-24949D01*
X315Y-25665D01*
X219Y-26384D01*
X140Y-27105D01*
X79Y-27827D01*
X35Y-28551D01*
X9Y-29275D01*
X0Y-30000D01*
X0Y-70000D01*
X9Y-70725D01*
X35Y-71449D01*
X79Y-72173D01*
X140Y-72895D01*
X219Y-73616D01*
X315Y-74335D01*
X428Y-75051D01*
X559Y-75764D01*
X707Y-76474D01*
X872Y-77179D01*
X1054Y-77881D01*
X1253Y-78578D01*
X1468Y-79271D01*
X1701Y-79957D01*
X1950Y-80638D01*
X2215Y-81313D01*
X2496Y-81981D01*
X2794Y-82642D01*
X3107Y-83296D01*
X3436Y-83942D01*
X3781Y-84580D01*
X4141Y-85209D01*
X4516Y-85829D01*
X4906Y-86440D01*
X5310Y-87042D01*
X5729Y-87634D01*
X6163Y-88215D01*
X6610Y-88786D01*
X7071Y-89345D01*
X7545Y-89894D01*
X8032Y-90430D01*
X8532Y-90955D01*
X9045Y-91468D01*
X9570Y-91968D01*
X10106Y-92455D01*
X10655Y-92929D01*
X11214Y-93390D01*
X11785Y-93837D01*
X12366Y-94271D01*
X12958Y-94690D01*
X13560Y-95094D01*
X14171Y-95484D01*
X14791Y-95859D01*
X15420Y-96219D01*
X16058Y-96564D01*
X16704Y-96893D01*
X17358Y-97206D01*
X18019Y-97504D01*
X18687Y-97785D01*
X19362Y-98050D01*
X20043Y-98299D01*
X20729Y-98532D01*
X21422Y-98747D01*
X22119Y-98946D01*
X22821Y-99128D01*
X23526Y-99293D01*
X24236Y-99441D01*
X24949Y-99572D01*
X25665Y-99685D01*
X26384Y-99781D01*
X27105Y-99860D01*
X27827Y-99921D01*
X28551Y-99965D01*
X29275Y-99991D01*
X30000Y-100000D01*
X530000Y-100000D01*
X530725Y-99991D01*
X531449Y-99965D01*
X532173Y-99921D01*
X532895Y-99860D01*
X533616Y-99781D01*
X534335Y-99685D01*
X535051Y-99572D01*
X535764Y-99441D01*
X536474Y-99293D01*
X537179Y-99128D01*
X537881Y-98946D01*
X538578Y-98747D01*
X539271Y-98532D01*
X539957Y-98299D01*
X540638Y-98050D01*
X541313Y-97785D01*
X541981Y-97504D01*
X542642Y-97206D01*
X543296Y-96893D01*
X543942Y-96564D01*
X544580Y-96219D01*
X545209Y-95859D01*
X545829Y-95484D01*
X546440Y-95094D01*
X547042Y-94690D01*
X547634Y-94271D01*
X548215Y-93837D01*
X548786Y-93390D01*
X549345Y-92929D01*
X549894Y-92455D01*
X550430Y-91968D01*
X550955Y-91468D01*
X551468Y-90955D01*
X551968Y-90430D01*
X552455Y-89894D01*
X552929Y-89345D01*
X553390Y-88786D01*
X553837Y-88215D01*
X554271Y-87634D01*
X554690Y-87042D01*
X555094Y-86440D01*
X555484Y-85829D01*
X555859Y-85209D01*
X556219Y-84580D01*
X556564Y-83942D01*
X556893Y-83296D01*
X557206Y-82642D01*
X557504Y-81981D01*
X557785Y-81313D01*
X558050Y-80638D01*
X558299Y-79957D01*
X558532Y-79271D01*
X558747Y-78578D01*
X558946Y-77881D01*
X559128Y-77179D01*
X559293Y-76474D01*
X559441Y-75764D01*
X559572Y-75051D01*
X559685Y-74335D01*
X559781Y-73616D01*
X559860Y-72895D01*
X559921Y-72173D01*
X559965Y-71449D01*
X559991Y-70725D01*
X560000Y-70000D01*
X560000Y-30000D01*
X559991Y-29275D01*
X559965Y-28551D01*
X559921Y-27827D01*
X559860Y-27105D01*
X559781Y-26384D01*
X559685Y-25665D01*
X559572Y-24949D01*
X559441Y-24236D01*
X559293Y-23526D01*
X559128Y-22821D01*
X558946Y-22119D01*
X558747Y-21422D01*
X558532Y-20729D01*
X558299Y-20043D01*
X558050Y-19362D01*
X557785Y-18687D01*
X557504Y-18019D01*
X557206Y-17358D01*
X556893Y-16704D01*
X556564Y-16058D01*
X556219Y-15420D01*
X555859Y-14791D01*
X555484Y-14171D01*
X555094Y-13560D01*
X554690Y-12958D01*
X554271Y-12366D01*
X553837Y-11785D01*
X553390Y-11214D01*
X552929Y-10655D01*
X552455Y-10106D01*
X551968Y-9570D01*
X551468Y-9045D01*
X550955Y-8532D01*
X550430Y-8032D01*
X549894Y-7545D01*
X549345Y-7071D01*
X548786Y-6610D01*
X548215Y-6163D01*
X547634Y-5729D01*
X547042Y-5310D01*
X546440Y-4906D01*
X545829Y-4516D01*
X545209Y-4141D01*
X544580Y-3781D01*
X543942Y-3436D01*
X543296Y-3107D01*
X542642Y-2794D01*
X541981Y-2496D01*
X541313Y-2215D01*
X540638Y-1950D01*
X539957Y-1701D01*
X539271Y-1468D01*
X538578Y-1253D01*
X537881Y-1054D01*
X537179Y-872D01*
X536474Y-707D01*
X535764Y-559D01*
X535051Y-428D01*
X534335Y-315D01*
X533616Y-219D01*
X532895Y-140D01*
X532173Y-79D01*
X531449Y-35D01*
X530725Y-9D01*
X530000Y0D01*
X500000Y900000D02*
X500006Y900491D01*
X500024Y900981D01*
X500054Y901471D01*
X500096Y901960D01*
X500150Y902448D01*
X500216Y902935D01*
X500294Y903419D01*
X500384Y903902D01*
X500486Y904382D01*
X500599Y904860D01*
X500724Y905334D01*
X500861Y905806D01*
X501009Y906274D01*
X501169Y906738D01*
X501340Y907198D01*
X501522Y907654D01*
X501716Y908105D01*
X501920Y908551D01*
X502136Y908992D01*
X502362Y909428D01*
X502598Y909858D01*
X502845Y910282D01*
X503103Y910700D01*
X503371Y911111D01*
X503648Y911516D01*
X503936Y911914D01*
X504233Y912305D01*
X504540Y912688D01*
X504856Y913063D01*
X505181Y913431D01*
X505515Y913791D01*
X505858Y914142D01*
X506209Y914485D01*
X506569Y914819D01*
X506937Y915144D01*
X507312Y915460D01*
X507695Y915767D01*
X508086Y916064D01*
X508484Y916352D01*
X508889Y916629D01*
X509300Y916897D01*
X509718Y917155D01*
X510142Y917402D01*
X510572Y917638D01*
X511008Y917864D01*
X511449Y918080D01*
X511895Y918284D01*
X512346Y918478D01*
X512802Y918660D01*
X513262Y918831D01*
X513726Y918991D01*
X514194Y919139D01*
X514666Y919276D01*
X515140Y919401D01*
X515618Y919514D01*
X516098Y919616D01*
X516581Y919706D01*
X517065Y919784D01*
X517552Y919850D01*
X518040Y919904D01*
X518529Y919946D01*
X519019Y919976D01*
X519509Y919994D01*
X520000Y920000D01*
X520491Y919994D01*
X520981Y919976D01*
X521471Y919946D01*
X521960Y919904D01*
X522448Y919850D01*
X522935Y919784D01*
X523419Y919706D01*
X523902Y919616D01*
X524382Y919514D01*
X524860Y919401D01*
X525334Y919276D01*
X525806Y919139D01*
X526274Y918991D01*
X526738Y918831D01*
X527198Y918660D01*
X527654Y918478D01*
X528105Y918284D01*
X528551Y918080D01*
X528992Y917864D01*
X529428Y917638D01*
X529858Y917402D01*
X530282Y917155D01*
X530700Y916897D01*
X531111Y916629D01*
X531516Y916352D01*
X531914Y916064D01*
X532305Y915767D01*
X532688Y915460D01*
X533063Y915144D01*
X533431Y914819D01*
X533791Y914485D01*
X534142Y914142D01*
X534485Y913791D01*
X534819Y913431D01*
X535144Y913063D01*
X535460Y912688D01*
X535767Y912305D01*
X536064Y911914D01*
X536352Y911516D01*
X536629Y911111D01*
X536897Y910700D01*
X537155Y910282D01*
X537402Y909858D01*
X537638Y909428D01*
X537864Y908992D01*
X538080Y908551D01*
X538284Y908105D01*
X538478Y907654D01*
X538660Y907198D01*
X538831Y906738D01*
X538991Y906274D01*
X539139Y905806D01*
X539276Y905334D01*
X539401Y904860D01*
X539514Y904382D01*
X539616Y903902D01*
X539706Y903419D01*
X539784Y902935D01*
X539850Y902448D01*
X539904Y901960D01*
X539946Y901471D01*
X539976Y900981D01*
X539994Y900491D01*
X540000Y900000D01*
X539994Y899509D01*
X539976Y899019D01*
X539946Y898529D01*
X539904Y898040D01*
X539850Y897552D01*
X539784Y897065D01*
X539706Y896581D01*
X539616Y896098D01*
X539514Y895618D01*
X539401Y895140D01*
X539276Y894666D01*
X539139Y894194D01*
X538991Y893726D01*
X538831Y893262D01*
X538660Y892802D01*
X538478Y892346D01*
X538284Y891895D01*
X538080Y891449D01*
X537864Y891008D01*
X537638Y890572D01*
X537402Y890142D01*
X537155Y889718D01*
X536897Y889300D01*
X536629Y888889D01*
X536352Y888484D01*
X536064Y888086D01*
X535767Y887695D01*
X535460Y887312D01*
X535144Y886937D01*
X534819Y886569D01*
X534485Y886209D01*
X534142Y885858D01*
X533791Y885515D01*
X533431Y885181D01*
X533063Y884856D01*
X532688Y884540D01*
X532305Y884233D01*
X531914Y883936D01*
X531516Y883648D01*
X531111Y883371D01*
X530700Y883103D01*
X530282Y882845D01*
X529858Y882598D01*
X529428Y882362D01*
X528992Y882136D01*
X528551Y881920D01*
X528105Y881716D01*
X527654Y881522D01*
X527198Y881340D01*
X526738Y881169D01*
X526274Y881009D01*
X525806Y880861D01*
X525334Y880724D01*
X524860Y880599D01*
X524382Y880486D01*
X523902Y880384D01*
X523419Y880294D01*
X522935Y880216D01*
X522448Y880150D01*
X521960Y880096D01*
X521471Y880054D01*
X520981Y880024D01*
X520491Y880006D01*
X520000Y880000D01*
X519509Y880006D01*
X519019Y880024D01*
X518529Y880054D01*
X518040Y880096D01*
X517552Y880150D01*
X517065Y880216D01*
X516581Y880294D01*
X516098Y880384D01*
X515618Y880486D01*
X515140Y880599D01*
X514666Y880724D01*
X514194Y880861D01*
X513726Y881009D01*
X513262Y881169D01*
X512802Y881340D01*
X512346Y881522D01*
X511895Y881716D01*
X511449Y881920D01*
X511008Y882136D01*
X510572Y882362D01*
X510142Y882598D01*
X509718Y882845D01*
X509300Y883103D01*
X508889Y883371D01*
X508484Y883648D01*
X508086Y883936D01*
X507695Y884233D01*
X507312Y884540D01*
X506937Y884856D01*
X506569Y885181D01*
X506209Y885515D01*
X505858Y885858D01*
X505515Y886209D01*
X505181Y886569D01*
X504856Y886937D01*
X504540Y887312D01*
X504233Y887695D01*
X503936Y888086D01*
X503648Y888484D01*
X503371Y888889D01*
X503103Y889300D01*
X502845Y889718D01*
X502598Y890142D01*
X502362Y890572D01*
X502136Y891008D01*
X501920Y891449D01*
X501716Y891895D01*
X501522Y892346D01*
X501340Y892802D01*
X501169Y893262D01*
X501009Y893726D01*
X500861Y894194D01*
X500724Y894666D01*
X500599Y895140D01*
X500486Y895618D01*
X500384Y896098D01*
X500294Y896581D01*
X500216Y897065D01*
X500150Y897552D01*
X500096Y898040D01*
X500054Y898529D01*
X500024Y899019D01*
X500006Y899509D01*
X500000Y900000D01*
X500000Y-50000D02*
X500006Y-49509D01*
X500024Y-49019D01*
X500054Y-48529D01*
X500096Y-48040D01*
X500150Y-47552D01*
X500216Y-47065D01*
X500294Y-46581D01*
X500384Y-46098D01*
X500486Y-45618D01*
X500599Y-45140D01*
X500724Y-44666D01*
X500861Y-44194D01*
X501009Y-43726D01*
X501169Y-43262D01*
X501340Y-42802D01*
X501522Y-42346D01*
X501716Y-41895D01*
X501920Y-41449D01*
X502136Y-41008D01*
X502362Y-40572D01*
X502598Y-40142D01*
X502845Y-39718D01*
X503103Y-39300D01*
X503371Y-38889D01*
X503648Y-38484D01*
X503936Y-38086D01*
X504233Y-37695D01*
X504540Y-37312D01*
X504856Y-36937D01*
X505181Y-36569D01*
X505515Y-36209D01*
X505858Y-35858D01*
X506209Y-35515D01*
X506569Y-35181D01*
X506937Y-34856D01*
X507312Y-34540D01*
X507695Y-34233D01*
X508086Y-33936D01*
X508484Y-33648D01*
X508889Y-33371D01*
X509300Y-33103D01*
X509718Y-32845D01*
X510142Y-32598D01*
X510572Y-32362D01*
X511008Y-32136D01*
X511449Y-31920D01*
X511895Y-31716D01*
X512346Y-31522D01*
X512802Y-31340D01*
X513262Y-31169D01*
X513726Y-31009D01*
X514194Y-30861D01*
X514666Y-30724D01*
X515140Y-30599D01*
X515618Y-30486D01*
X516098Y-30384D01*
X516581Y-30294D01*
X517065Y-30216D01*
X517552Y-30150D01*
X518040Y-30096D01*
X518529Y-30054D01*
X519019Y-30024D01*
X519509Y-30006D01*
X520000Y-30000D01*
X520491Y-30006D01*
X520981Y-30024D01*
X521471Y-30054D01*
X521960Y-30096D01*
X522448Y-30150D01*
X522935Y-30216D01*
X523419Y-30294D01*
X523902Y-30384D01*
X524382Y-30486D01*
X524860Y-30599D01*
X525334Y-30724D01*
X525806Y-30861D01*
X526274Y-31009D01*
X526738Y-31169D01*
X527198Y-31340D01*
X527654Y-31522D01*
X528105Y-31716D01*
X528551Y-31920D01*
X528992Y-32136D01*
X529428Y-32362D01*
X529858Y-32598D01*
X530282Y-32845D01*
X530700Y-33103D01*
X531111Y-33371D01*
X531516Y-33648D01*
X531914Y-33936D01*
X532305Y-34233D01*
X532688Y-34540D01*
X533063Y-34856D01*
X533431Y-35181D01*
X533791Y-35515D01*
X534142Y-35858D01*
X534485Y-36209D01*
X534819Y-36569D01*
X535144Y-36937D01*
X535460Y-37312D01*
X535767Y-37695D01*
X536064Y-38086D01*
X536352Y-38484D01*
X536629Y-38889D01*
X536897Y-39300D01*
X537155Y-39718D01*
X537402Y-40142D01*
X537638Y-40572D01*
X537864Y-41008D01*
X538080Y-41449D01*
X538284Y-41895D01*
X538478Y-42346D01*
X538660Y-42802D01*
X538831Y-43262D01*
X538991Y-43726D01*
X539139Y-44194D01*
X539276Y-44666D01*
X539401Y-45140D01*
X539514Y-45618D01*
X539616Y-46098D01*
X539706Y-46581D01*
X539784Y-47065D01*
X539850Y-47552D01*
X539904Y-48040D01*
X539946Y-48529D01*
X539976Y-49019D01*
X539994Y-49509D01*
X540000Y-50000D01*
X539994Y-50491D01*
X539976Y-50981D01*
X539946Y-51471D01*
X539904Y-51960D01*
X539850Y-52448D01*
X539784Y-52935D01*
X539706Y-53419D01*
X539616Y-53902D01*
X539514Y-54382D01*
X539401Y-54860D01*
X539276Y-55334D01*
X539139Y-55806D01*
X538991Y-56274D01*
X538831Y-56738D01*
X538660Y-57198D01*
X538478Y-57654D01*
X538284Y-58105D01*
X538080Y-58551D01*
X537864Y-58992D01*
X537638Y-59428D01*
X537402Y-59858D01*
X537155Y-60282D01*
X536897Y-60700D01*
X536629Y-61111D01*
X536352Y-61516D01*
X536064Y-61914D01*
X535767Y-62305D01*
X535460Y-62688D01*
X535144Y-63063D01*
X534819Y-63431D01*
X534485Y-63791D01*
X534142Y-64142D01*
X533791Y-64485D01*
X533431Y-64819D01*
X533063Y-65144D01*
X532688Y-65460D01*
X532305Y-65767D01*
X531914Y-66064D01*
X531516Y-66352D01*
X531111Y-66629D01*
X530700Y-66897D01*
X530282Y-67155D01*
X529858Y-67402D01*
X529428Y-67638D01*
X528992Y-67864D01*
X528551Y-68080D01*
X528105Y-68284D01*
X527654Y-68478D01*
X527198Y-68660D01*
X526738Y-68831D01*
X526274Y-68991D01*
X525806Y-69139D01*
X525334Y-69276D01*
X524860Y-69401D01*
X524382Y-69514D01*
X523902Y-69616D01*
X523419Y-69706D01*
X522935Y-69784D01*
X522448Y-69850D01*
X521960Y-69904D01*
X521471Y-69946D01*
X520981Y-69976D01*
X520491Y-69994D01*
X520000Y-70000D01*
X519509Y-69994D01*
X519019Y-69976D01*
X518529Y-69946D01*
X518040Y-69904D01*
X517552Y-69850D01*
X517065Y-69784D01*
X516581Y-69706D01*
X516098Y-69616D01*
X515618Y-69514D01*
X515140Y-69401D01*
X514666Y-69276D01*
X514194Y-69139D01*
X513726Y-68991D01*
X513262Y-68831D01*
X512802Y-68660D01*
X512346Y-68478D01*
X511895Y-68284D01*
X511449Y-68080D01*
X511008Y-67864D01*
X510572Y-67638D01*
X510142Y-67402D01*
X509718Y-67155D01*
X509300Y-66897D01*
X508889Y-66629D01*
X508484Y-66352D01*
X508086Y-66064D01*
X507695Y-65767D01*
X507312Y-65460D01*
X506937Y-65144D01*
X506569Y-64819D01*
X506209Y-64485D01*
X505858Y-64142D01*
X505515Y-63791D01*
X505181Y-63431D01*
X504856Y-63063D01*
X504540Y-62688D01*
X504233Y-62305D01*
X503936Y-61914D01*
X503648Y-61516D01*
X503371Y-61111D01*
X503103Y-60700D01*
X502845Y-60282D01*
X502598Y-59858D01*
X502362Y-59428D01*
X502136Y-58992D01*
X501920Y-58551D01*
X501716Y-58105D01*
X501522Y-57654D01*
X501340Y-57198D01*
X501169Y-56738D01*
X501009Y-56274D01*
X500861Y-55806D01*
X500724Y-55334D01*
X500599Y-54860D01*
X500486Y-54382D01*
X500384Y-53902D01*
X500294Y-53419D01*
X500216Y-52935D01*
X500150Y-52448D01*
X500096Y-51960D01*
X500054Y-51471D01*
X500024Y-50981D01*
X500006Y-50491D01*
X500000Y-50000D01*
X20000Y900000D02*
X20006Y900483D01*
X20023Y900966D01*
X20053Y901449D01*
X20093Y901930D01*
X20146Y902411D01*
X20210Y902890D01*
X20285Y903367D01*
X20373Y903843D01*
X20471Y904316D01*
X20581Y904786D01*
X20702Y905254D01*
X20835Y905719D01*
X20979Y906180D01*
X21134Y906638D01*
X21300Y907092D01*
X21477Y907542D01*
X21664Y907987D01*
X21863Y908428D01*
X22071Y908864D01*
X22291Y909294D01*
X22521Y909720D01*
X22761Y910139D01*
X23011Y910553D01*
X23271Y910960D01*
X23540Y911361D01*
X23820Y911756D01*
X24108Y912143D01*
X24407Y912524D01*
X24714Y912897D01*
X25030Y913262D01*
X25355Y913620D01*
X25688Y913970D01*
X26030Y914312D01*
X26380Y914645D01*
X26738Y914970D01*
X27103Y915286D01*
X27476Y915593D01*
X27857Y915892D01*
X28244Y916180D01*
X28639Y916460D01*
X29040Y916729D01*
X29447Y916989D01*
X29861Y917239D01*
X30280Y917479D01*
X30706Y917709D01*
X31136Y917929D01*
X31572Y918137D01*
X32013Y918336D01*
X32458Y918523D01*
X32908Y918700D01*
X33362Y918866D01*
X33820Y919021D01*
X34281Y919165D01*
X34746Y919298D01*
X35214Y919419D01*
X35684Y919529D01*
X36157Y919627D01*
X36633Y919715D01*
X37110Y919790D01*
X37589Y919854D01*
X38070Y919907D01*
X38551Y919947D01*
X39034Y919977D01*
X39517Y919994D01*
X40000Y920000D01*
X50000Y920000D01*
X50483Y919994D01*
X50966Y919977D01*
X51449Y919947D01*
X51930Y919907D01*
X52411Y919854D01*
X52890Y919790D01*
X53367Y919715D01*
X53843Y919627D01*
X54316Y919529D01*
X54786Y919419D01*
X55254Y919298D01*
X55719Y919165D01*
X56180Y919021D01*
X56638Y918866D01*
X57092Y918700D01*
X57542Y918523D01*
X57987Y918336D01*
X58428Y918137D01*
X58864Y917929D01*
X59294Y917709D01*
X59720Y917479D01*
X60139Y917239D01*
X60553Y916989D01*
X60960Y916729D01*
X61361Y916460D01*
X61756Y916180D01*
X62143Y915892D01*
X62524Y915593D01*
X62897Y915286D01*
X63262Y914970D01*
X63620Y914645D01*
X63970Y914312D01*
X64312Y913970D01*
X64645Y913620D01*
X64970Y913262D01*
X65286Y912897D01*
X65593Y912524D01*
X65892Y912143D01*
X66180Y911756D01*
X66460Y911361D01*
X66729Y910960D01*
X66989Y910553D01*
X67239Y910139D01*
X67479Y909720D01*
X67709Y909294D01*
X67929Y908864D01*
X68137Y908428D01*
X68336Y907987D01*
X68523Y907542D01*
X68700Y907092D01*
X68866Y906638D01*
X69021Y906180D01*
X69165Y905719D01*
X69298Y905254D01*
X69419Y904786D01*
X69529Y904316D01*
X69627Y903843D01*
X69715Y903367D01*
X69790Y902890D01*
X69854Y902411D01*
X69907Y901930D01*
X69947Y901449D01*
X69977Y900966D01*
X69994Y900483D01*
X70000Y900000D01*
X69994Y899517D01*
X69977Y899034D01*
X69947Y898551D01*
X69907Y898070D01*
X69854Y897589D01*
X69790Y897110D01*
X69715Y896633D01*
X69627Y896157D01*
X69529Y895684D01*
X69419Y895214D01*
X69298Y894746D01*
X69165Y894281D01*
X69021Y893820D01*
X68866Y893362D01*
X68700Y892908D01*
X68523Y892458D01*
X68336Y892013D01*
X68137Y891572D01*
X67929Y891136D01*
X67709Y890706D01*
X67479Y890280D01*
X67239Y889861D01*
X66989Y889447D01*
X66729Y889040D01*
X66460Y888639D01*
X66180Y888244D01*
X65892Y887857D01*
X65593Y887476D01*
X65286Y887103D01*
X64970Y886738D01*
X64645Y886380D01*
X64312Y886030D01*
X63970Y885688D01*
X63620Y885355D01*
X63262Y885030D01*
X62897Y884714D01*
X62524Y884407D01*
X62143Y884108D01*
X61756Y883820D01*
X61361Y883540D01*
X60960Y883271D01*
X60553Y883011D01*
X60139Y882761D01*
X59720Y882521D01*
X59294Y882291D01*
X58864Y882071D01*
X58428Y881863D01*
X57987Y881664D01*
X57542Y881477D01*
X57092Y881300D01*
X56638Y881134D01*
X56180Y880979D01*
X55719Y880835D01*
X55254Y880702D01*
X54786Y880581D01*
X54316Y880471D01*
X53843Y880373D01*
X53367Y880285D01*
X52890Y880210D01*
X52411Y880146D01*
X51930Y880093D01*
X51449Y880053D01*
X50966Y880023D01*
X50483Y880006D01*
X50000Y880000D01*
X40000Y880000D01*
X39517Y880006D01*
X39034Y880023D01*
X38551Y880053D01*
X38070Y880093D01*
X37589Y880146D01*
X37110Y880210D01*
X36633Y880285D01*
X36157Y880373D01*
X35684Y880471D01*
X35214Y880581D01*
X34746Y880702D01*
X34281Y880835D01*
X33820Y880979D01*
X33362Y881134D01*
X32908Y881300D01*
X32458Y881477D01*
X32013Y881664D01*
X31572Y881863D01*
X31136Y882071D01*
X30706Y882291D01*
X30280Y882521D01*
X29861Y882761D01*
X29447Y883011D01*
X29040Y883271D01*
X28639Y883540D01*
X28244Y883820D01*
X27857Y884108D01*
X27476Y884407D01*
X27103Y884714D01*
X26738Y885030D01*
X26380Y885355D01*
X26030Y885688D01*
X25688Y886030D01*
X25355Y886380D01*
X25030Y886738D01*
X24714Y887103D01*
X24407Y887476D01*
X24108Y887857D01*
X23820Y888244D01*
X23540Y888639D01*
X23271Y889040D01*
X23011Y889447D01*
X22761Y889861D01*
X22521Y890280D01*
X22291Y890706D01*
X22071Y891136D01*
X21863Y891572D01*
X21664Y892013D01*
X21477Y892458D01*
X21300Y892908D01*
X21134Y893362D01*
X20979Y893820D01*
X20835Y894281D01*
X20702Y894746D01*
X20581Y895214D01*
X20471Y895684D01*
X20373Y896157D01*
X20285Y896633D01*
X20210Y897110D01*
X20146Y897589D01*
X20093Y898070D01*
X20053Y898551D01*
X20023Y899034D01*
X20006Y899517D01*
X20000Y900000D01*
X40000Y-30000D02*
X39517Y-30006D01*
X39034Y-30023D01*
X38551Y-30053D01*
X38070Y-30093D01*
X37589Y-30146D01*
X37110Y-30210D01*
X36633Y-30285D01*
X36157Y-30373D01*
X35684Y-30471D01*
X35214Y-30581D01*
X34746Y-30702D01*
X34281Y-30835D01*
X33820Y-30979D01*
X33362Y-31134D01*
X32908Y-31300D01*
X32458Y-31477D01*
X32013Y-31664D01*
X31572Y-31863D01*
X31136Y-32071D01*
X30706Y-32291D01*
X30280Y-32521D01*
X29861Y-32761D01*
X29447Y-33011D01*
X29040Y-33271D01*
X28639Y-33540D01*
X28244Y-33820D01*
X27857Y-34108D01*
X27476Y-34407D01*
X27103Y-34714D01*
X26738Y-35030D01*
X26380Y-35355D01*
X26030Y-35688D01*
X25688Y-36030D01*
X25355Y-36380D01*
X25030Y-36738D01*
X24714Y-37103D01*
X24407Y-37476D01*
X24108Y-37857D01*
X23820Y-38244D01*
X23540Y-38639D01*
X23271Y-39040D01*
X23011Y-39447D01*
X22761Y-39861D01*
X22521Y-40280D01*
X22291Y-40706D01*
X22071Y-41136D01*
X21863Y-41572D01*
X21664Y-42013D01*
X21477Y-42458D01*
X21300Y-42908D01*
X21134Y-43362D01*
X20979Y-43820D01*
X20835Y-44281D01*
X20702Y-44746D01*
X20581Y-45214D01*
X20471Y-45684D01*
X20373Y-46157D01*
X20285Y-46633D01*
X20210Y-47110D01*
X20146Y-47589D01*
X20093Y-48070D01*
X20053Y-48551D01*
X20023Y-49034D01*
X20006Y-49517D01*
X20000Y-50000D01*
X40000Y-30000D02*
X50000Y-30000D01*
X50483Y-30006D01*
X50966Y-30023D01*
X51449Y-30053D01*
X51930Y-30093D01*
X52411Y-30146D01*
X52890Y-30210D01*
X53367Y-30285D01*
X53843Y-30373D01*
X54316Y-30471D01*
X54786Y-30581D01*
X55254Y-30702D01*
X55719Y-30835D01*
X56180Y-30979D01*
X56638Y-31134D01*
X57092Y-31300D01*
X57542Y-31477D01*
X57987Y-31664D01*
X58428Y-31863D01*
X58864Y-32071D01*
X59294Y-32291D01*
X59720Y-32521D01*
X60139Y-32761D01*
X60553Y-33011D01*
X60960Y-33271D01*
X61361Y-33540D01*
X61756Y-33820D01*
X62143Y-34108D01*
X62524Y-34407D01*
X62897Y-34714D01*
X63262Y-35030D01*
X63620Y-35355D01*
X63970Y-35688D01*
X64312Y-36030D01*
X64645Y-36380D01*
X64970Y-36738D01*
X65286Y-37103D01*
X65593Y-37476D01*
X65892Y-37857D01*
X66180Y-38244D01*
X66460Y-38639D01*
X66729Y-39040D01*
X66989Y-39447D01*
X67239Y-39861D01*
X67479Y-40280D01*
X67709Y-40706D01*
X67929Y-41136D01*
X68137Y-41572D01*
X68336Y-42013D01*
X68523Y-42458D01*
X68700Y-42908D01*
X68866Y-43362D01*
X69021Y-43820D01*
X69165Y-44281D01*
X69298Y-44746D01*
X69419Y-45214D01*
X69529Y-45684D01*
X69627Y-46157D01*
X69715Y-46633D01*
X69790Y-47110D01*
X69854Y-47589D01*
X69907Y-48070D01*
X69947Y-48551D01*
X69977Y-49034D01*
X69994Y-49517D01*
X70000Y-50000D01*
X69994Y-50483D01*
X69977Y-50966D01*
X69947Y-51449D01*
X69907Y-51930D01*
X69854Y-52411D01*
X69790Y-52890D01*
X69715Y-53367D01*
X69627Y-53843D01*
X69529Y-54316D01*
X69419Y-54786D01*
X69298Y-55254D01*
X69165Y-55719D01*
X69021Y-56180D01*
X68866Y-56638D01*
X68700Y-57092D01*
X68523Y-57542D01*
X68336Y-57987D01*
X68137Y-58428D01*
X67929Y-58864D01*
X67709Y-59294D01*
X67479Y-59720D01*
X67239Y-60139D01*
X66989Y-60553D01*
X66729Y-60960D01*
X66460Y-61361D01*
X66180Y-61756D01*
X65892Y-62143D01*
X65593Y-62524D01*
X65286Y-62897D01*
X64970Y-63262D01*
X64645Y-63620D01*
X64312Y-63970D01*
X63970Y-64312D01*
X63620Y-64645D01*
X63262Y-64970D01*
X62897Y-65286D01*
X62524Y-65593D01*
X62143Y-65892D01*
X61756Y-66180D01*
X61361Y-66460D01*
X60960Y-66729D01*
X60553Y-66989D01*
X60139Y-67239D01*
X59720Y-67479D01*
X59294Y-67709D01*
X58864Y-67929D01*
X58428Y-68137D01*
X57987Y-68336D01*
X57542Y-68523D01*
X57092Y-68700D01*
X56638Y-68866D01*
X56180Y-69021D01*
X55719Y-69165D01*
X55254Y-69298D01*
X54786Y-69419D01*
X54316Y-69529D01*
X53843Y-69627D01*
X53367Y-69715D01*
X52890Y-69790D01*
X52411Y-69854D01*
X51930Y-69907D01*
X51449Y-69947D01*
X50966Y-69977D01*
X50483Y-69994D01*
X50000Y-70000D01*
X40000Y-70000D01*
X39517Y-69994D01*
X39034Y-69977D01*
X38551Y-69947D01*
X38070Y-69907D01*
X37589Y-69854D01*
X37110Y-69790D01*
X36633Y-69715D01*
X36157Y-69627D01*
X35684Y-69529D01*
X35214Y-69419D01*
X34746Y-69298D01*
X34281Y-69165D01*
X33820Y-69021D01*
X33362Y-68866D01*
X32908Y-68700D01*
X32458Y-68523D01*
X32013Y-68336D01*
X31572Y-68137D01*
X31136Y-67929D01*
X30706Y-67709D01*
X30280Y-67479D01*
X29861Y-67239D01*
X29447Y-66989D01*
X29040Y-66729D01*
X28639Y-66460D01*
X28244Y-66180D01*
X27857Y-65892D01*
X27476Y-65593D01*
X27103Y-65286D01*
X26738Y-64970D01*
X26380Y-64645D01*
X26030Y-64312D01*
X25688Y-63970D01*
X25355Y-63620D01*
X25030Y-63262D01*
X24714Y-62897D01*
X24407Y-62524D01*
X24108Y-62143D01*
X23820Y-61756D01*
X23540Y-61361D01*
X23271Y-60960D01*
X23011Y-60553D01*
X22761Y-60139D01*
X22521Y-59720D01*
X22291Y-59294D01*
X22071Y-58864D01*
X21863Y-58428D01*
X21664Y-57987D01*
X21477Y-57542D01*
X21300Y-57092D01*
X21134Y-56638D01*
X20979Y-56180D01*
X20835Y-55719D01*
X20702Y-55254D01*
X20581Y-54786D01*
X20471Y-54316D01*
X20373Y-53843D01*
X20285Y-53367D01*
X20210Y-52890D01*
X20146Y-52411D01*
X20093Y-51930D01*
X20053Y-51449D01*
X20023Y-50966D01*
X20006Y-50483D01*
X20000Y-50000D01*
X20000Y900000D02*
X20006Y900483D01*
X20023Y900966D01*
X20053Y901449D01*
X20093Y901930D01*
X20146Y902411D01*
X20210Y902890D01*
X20285Y903367D01*
X20373Y903843D01*
X20471Y904316D01*
X20581Y904786D01*
X20702Y905254D01*
X20835Y905719D01*
X20979Y906180D01*
X21134Y906638D01*
X21300Y907092D01*
X21477Y907542D01*
X21664Y907987D01*
X21863Y908428D01*
X22071Y908864D01*
X22291Y909294D01*
X22521Y909720D01*
X22761Y910139D01*
X23011Y910553D01*
X23271Y910960D01*
X23540Y911361D01*
X23820Y911756D01*
X24108Y912143D01*
X24407Y912524D01*
X24714Y912897D01*
X25030Y913262D01*
X25355Y913620D01*
X25688Y913970D01*
X26030Y914312D01*
X26380Y914645D01*
X26738Y914970D01*
X27103Y915286D01*
X27476Y915593D01*
X27857Y915892D01*
X28244Y916180D01*
X28639Y916460D01*
X29040Y916729D01*
X29447Y916989D01*
X29861Y917239D01*
X30280Y917479D01*
X30706Y917709D01*
X31136Y917929D01*
X31572Y918137D01*
X32013Y918336D01*
X32458Y918523D01*
X32908Y918700D01*
X33362Y918866D01*
X33820Y919021D01*
X34281Y919165D01*
X34746Y919298D01*
X35214Y919419D01*
X35684Y919529D01*
X36157Y919627D01*
X36633Y919715D01*
X37110Y919790D01*
X37589Y919854D01*
X38070Y919907D01*
X38551Y919947D01*
X39034Y919977D01*
X39517Y919994D01*
X40000Y920000D01*
X50000Y920000D01*
X50483Y919994D01*
X50966Y919977D01*
X51449Y919947D01*
X51930Y919907D01*
X52411Y919854D01*
X52890Y919790D01*
X53367Y919715D01*
X53843Y919627D01*
X54316Y919529D01*
X54786Y919419D01*
X55254Y919298D01*
X55719Y919165D01*
X56180Y919021D01*
X56638Y918866D01*
X57092Y918700D01*
X57542Y918523D01*
X57987Y918336D01*
X58428Y918137D01*
X58864Y917929D01*
X59294Y917709D01*
X59720Y917479D01*
X60139Y917239D01*
X60553Y916989D01*
X60960Y916729D01*
X61361Y916460D01*
X61756Y916180D01*
X62143Y915892D01*
X62524Y915593D01*
X62897Y915286D01*
X63262Y914970D01*
X63620Y914645D01*
X63970Y914312D01*
X64312Y913970D01*
X64645Y913620D01*
X64970Y913262D01*
X65286Y912897D01*
X65593Y912524D01*
X65892Y912143D01*
X66180Y911756D01*
X66460Y911361D01*
X66729Y910960D01*
X66989Y910553D01*
X67239Y910139D01*
X67479Y909720D01*
X67709Y909294D01*
X67929Y908864D01*
X68137Y908428D01*
X68336Y907987D01*
X68523Y907542D01*
X68700Y907092D01*
X68866Y906638D01*
X69021Y906180D01*
X69165Y905719D01*
X69298Y905254D01*
X69419Y904786D01*
X69529Y904316D01*
X69627Y903843D01*
X69715Y903367D01*
X69790Y902890D01*
X69854Y902411D01*
X69907Y901930D01*
X69947Y901449D01*
X69977Y900966D01*
X69994Y900483D01*
X70000Y900000D01*
X69994Y899517D01*
X69977Y899034D01*
X69947Y898551D01*
X69907Y898070D01*
X69854Y897589D01*
X69790Y897110D01*
X69715Y896633D01*
X69627Y896157D01*
X69529Y895684D01*
X69419Y895214D01*
X69298Y894746D01*
X69165Y894281D01*
X69021Y893820D01*
X68866Y893362D01*
X68700Y892908D01*
X68523Y892458D01*
X68336Y892013D01*
X68137Y891572D01*
X67929Y891136D01*
X67709Y890706D01*
X67479Y890280D01*
X67239Y889861D01*
X66989Y889447D01*
X66729Y889040D01*
X66460Y888639D01*
X66180Y888244D01*
X65892Y887857D01*
X65593Y887476D01*
X65286Y887103D01*
X64970Y886738D01*
X64645Y886380D01*
X64312Y886030D01*
X63970Y885688D01*
X63620Y885355D01*
X63262Y885030D01*
X62897Y884714D01*
X62524Y884407D01*
X62143Y884108D01*
X61756Y883820D01*
X61361Y883540D01*
X60960Y883271D01*
X60553Y883011D01*
X60139Y882761D01*
X59720Y882521D01*
X59294Y882291D01*
X58864Y882071D01*
X58428Y881863D01*
X57987Y881664D01*
X57542Y881477D01*
X57092Y881300D01*
X56638Y881134D01*
X56180Y880979D01*
X55719Y880835D01*
X55254Y880702D01*
X54786Y880581D01*
X54316Y880471D01*
X53843Y880373D01*
X53367Y880285D01*
X52890Y880210D01*
X52411Y880146D01*
X51930Y880093D01*
X51449Y880053D01*
X50966Y880023D01*
X50483Y880006D01*
X50000Y880000D01*
X40000Y880000D01*
X39517Y880006D01*
X39034Y880023D01*
X38551Y880053D01*
X38070Y880093D01*
X37589Y880146D01*
X37110Y880210D01*
X36633Y880285D01*
X36157Y880373D01*
X35684Y880471D01*
X35214Y880581D01*
X34746Y880702D01*
X34281Y880835D01*
X33820Y880979D01*
X33362Y881134D01*
X32908Y881300D01*
X32458Y881477D01*
X32013Y881664D01*
X31572Y881863D01*
X31136Y882071D01*
X30706Y882291D01*
X30280Y882521D01*
X29861Y882761D01*
X29447Y883011D01*
X29040Y883271D01*
X28639Y883540D01*
X28244Y883820D01*
X27857Y884108D01*
X27476Y884407D01*
X27103Y884714D01*
X26738Y885030D01*
X26380Y885355D01*
X26030Y885688D01*
X25688Y886030D01*
X25355Y886380D01*
X25030Y886738D01*
X24714Y887103D01*
X24407Y887476D01*
X24108Y887857D01*
X23820Y888244D01*
X23540Y888639D01*
X23271Y889040D01*
X23011Y889447D01*
X22761Y889861D01*
X22521Y890280D01*
X22291Y890706D01*
X22071Y891136D01*
X21863Y891572D01*
X21664Y892013D01*
X21477Y892458D01*
X21300Y892908D01*
X21134Y893362D01*
X20979Y893820D01*
X20835Y894281D01*
X20702Y894746D01*
X20581Y895214D01*
X20471Y895684D01*
X20373Y896157D01*
X20285Y896633D01*
X20210Y897110D01*
X20146Y897589D01*
X20093Y898070D01*
X20053Y898551D01*
X20023Y899034D01*
X20006Y899517D01*
X20000Y900000D01*
X40000Y-30000D02*
X39517Y-30006D01*
X39034Y-30023D01*
X38551Y-30053D01*
X38070Y-30093D01*
X37589Y-30146D01*
X37110Y-30210D01*
X36633Y-30285D01*
X36157Y-30373D01*
X35684Y-30471D01*
X35214Y-30581D01*
X34746Y-30702D01*
X34281Y-30835D01*
X33820Y-30979D01*
X33362Y-31134D01*
X32908Y-31300D01*
X32458Y-31477D01*
X32013Y-31664D01*
X31572Y-31863D01*
X31136Y-32071D01*
X30706Y-32291D01*
X30280Y-32521D01*
X29861Y-32761D01*
X29447Y-33011D01*
X29040Y-33271D01*
X28639Y-33540D01*
X28244Y-33820D01*
X27857Y-34108D01*
X27476Y-34407D01*
X27103Y-34714D01*
X26738Y-35030D01*
X26380Y-35355D01*
X26030Y-35688D01*
X25688Y-36030D01*
X25355Y-36380D01*
X25030Y-36738D01*
X24714Y-37103D01*
X24407Y-37476D01*
X24108Y-37857D01*
X23820Y-38244D01*
X23540Y-38639D01*
X23271Y-39040D01*
X23011Y-39447D01*
X22761Y-39861D01*
X22521Y-40280D01*
X22291Y-40706D01*
X22071Y-41136D01*
X21863Y-41572D01*
X21664Y-42013D01*
X21477Y-42458D01*
X21300Y-42908D01*
X21134Y-43362D01*
X20979Y-43820D01*
X20835Y-44281D01*
X20702Y-44746D01*
X20581Y-45214D01*
X20471Y-45684D01*
X20373Y-46157D01*
X20285Y-46633D01*
X20210Y-47110D01*
X20146Y-47589D01*
X20093Y-48070D01*
X20053Y-48551D01*
X20023Y-49034D01*
X20006Y-49517D01*
X20000Y-50000D01*
X40000Y-30000D02*
X50000Y-30000D01*
X50483Y-30006D01*
X50966Y-30023D01*
X51449Y-30053D01*
X51930Y-30093D01*
X52411Y-30146D01*
X52890Y-30210D01*
X53367Y-30285D01*
X53843Y-30373D01*
X54316Y-30471D01*
X54786Y-30581D01*
X55254Y-30702D01*
X55719Y-30835D01*
X56180Y-30979D01*
X56638Y-31134D01*
X57092Y-31300D01*
X57542Y-31477D01*
X57987Y-31664D01*
X58428Y-31863D01*
X58864Y-32071D01*
X59294Y-32291D01*
X59720Y-32521D01*
X60139Y-32761D01*
X60553Y-33011D01*
X60960Y-33271D01*
X61361Y-33540D01*
X61756Y-33820D01*
X62143Y-34108D01*
X62524Y-34407D01*
X62897Y-34714D01*
X63262Y-35030D01*
X63620Y-35355D01*
X63970Y-35688D01*
X64312Y-36030D01*
X64645Y-36380D01*
X64970Y-36738D01*
X65286Y-37103D01*
X65593Y-37476D01*
X65892Y-37857D01*
X66180Y-38244D01*
X66460Y-38639D01*
X66729Y-39040D01*
X66989Y-39447D01*
X67239Y-39861D01*
X67479Y-40280D01*
X67709Y-40706D01*
X67929Y-41136D01*
X68137Y-41572D01*
X68336Y-42013D01*
X68523Y-42458D01*
X68700Y-42908D01*
X68866Y-43362D01*
X69021Y-43820D01*
X69165Y-44281D01*
X69298Y-44746D01*
X69419Y-45214D01*
X69529Y-45684D01*
X69627Y-46157D01*
X69715Y-46633D01*
X69790Y-47110D01*
X69854Y-47589D01*
X69907Y-48070D01*
X69947Y-48551D01*
X69977Y-49034D01*
X69994Y-49517D01*
X70000Y-50000D01*
X69994Y-50483D01*
X69977Y-50966D01*
X69947Y-51449D01*
X69907Y-51930D01*
X69854Y-52411D01*
X69790Y-52890D01*
X69715Y-53367D01*
X69627Y-53843D01*
X69529Y-54316D01*
X69419Y-54786D01*
X69298Y-55254D01*
X69165Y-55719D01*
X69021Y-56180D01*
X68866Y-56638D01*
X68700Y-57092D01*
X68523Y-57542D01*
X68336Y-57987D01*
X68137Y-58428D01*
X67929Y-58864D01*
X67709Y-59294D01*
X67479Y-59720D01*
X67239Y-60139D01*
X66989Y-60553D01*
X66729Y-60960D01*
X66460Y-61361D01*
X66180Y-61756D01*
X65892Y-62143D01*
X65593Y-62524D01*
X65286Y-62897D01*
X64970Y-63262D01*
X64645Y-63620D01*
X64312Y-63970D01*
X63970Y-64312D01*
X63620Y-64645D01*
X63262Y-64970D01*
X62897Y-65286D01*
X62524Y-65593D01*
X62143Y-65892D01*
X61756Y-66180D01*
X61361Y-66460D01*
X60960Y-66729D01*
X60553Y-66989D01*
X60139Y-67239D01*
X59720Y-67479D01*
X59294Y-67709D01*
X58864Y-67929D01*
X58428Y-68137D01*
X57987Y-68336D01*
X57542Y-68523D01*
X57092Y-68700D01*
X56638Y-68866D01*
X56180Y-69021D01*
X55719Y-69165D01*
X55254Y-69298D01*
X54786Y-69419D01*
X54316Y-69529D01*
X53843Y-69627D01*
X53367Y-69715D01*
X52890Y-69790D01*
X52411Y-69854D01*
X51930Y-69907D01*
X51449Y-69947D01*
X50966Y-69977D01*
X50483Y-69994D01*
X50000Y-70000D01*
X40000Y-70000D01*
X39517Y-69994D01*
X39034Y-69977D01*
X38551Y-69947D01*
X38070Y-69907D01*
X37589Y-69854D01*
X37110Y-69790D01*
X36633Y-69715D01*
X36157Y-69627D01*
X35684Y-69529D01*
X35214Y-69419D01*
X34746Y-69298D01*
X34281Y-69165D01*
X33820Y-69021D01*
X33362Y-68866D01*
X32908Y-68700D01*
X32458Y-68523D01*
X32013Y-68336D01*
X31572Y-68137D01*
X31136Y-67929D01*
X30706Y-67709D01*
X30280Y-67479D01*
X29861Y-67239D01*
X29447Y-66989D01*
X29040Y-66729D01*
X28639Y-66460D01*
X28244Y-66180D01*
X27857Y-65892D01*
X27476Y-65593D01*
X27103Y-65286D01*
X26738Y-64970D01*
X26380Y-64645D01*
X26030Y-64312D01*
X25688Y-63970D01*
X25355Y-63620D01*
X25030Y-63262D01*
X24714Y-62897D01*
X24407Y-62524D01*
X24108Y-62143D01*
X23820Y-61756D01*
X23540Y-61361D01*
X23271Y-60960D01*
X23011Y-60553D01*
X22761Y-60139D01*
X22521Y-59720D01*
X22291Y-59294D01*
X22071Y-58864D01*
X21863Y-58428D01*
X21664Y-57987D01*
X21477Y-57542D01*
X21300Y-57092D01*
X21134Y-56638D01*
X20979Y-56180D01*
X20835Y-55719D01*
X20702Y-55254D01*
X20581Y-54786D01*
X20471Y-54316D01*
X20373Y-53843D01*
X20285Y-53367D01*
X20210Y-52890D01*
X20146Y-52411D01*
X20093Y-51930D01*
X20053Y-51449D01*
X20023Y-50966D01*
X20006Y-50483D01*
X20000Y-50000D01*
D11*
X564642Y849465D02*
X564642Y860312D01*
X564642Y849465D02*
X570065Y844042D01*
X575489Y849465D01*
X575489Y860312D01*
X581014Y852177D02*
X591860Y852177D01*
X600097Y854889D02*
X608232Y854889D01*
X600097Y854889D02*
X597385Y852177D01*
X597385Y846754D01*
X600097Y844042D01*
X608232Y844042D01*
X613757Y846754D02*
X613757Y854889D01*
X613757Y846754D02*
X616468Y844042D01*
X624603Y844042D01*
X624603Y854889D01*
X632840Y857600D02*
X632840Y846754D01*
X635552Y844042D01*
X635552Y854889D02*
X630128Y854889D01*
X564642Y6872D02*
X564642Y-3975D01*
X570065Y-9398D01*
X575489Y-3975D01*
X575489Y6872D01*
X581014Y-1263D02*
X591860Y-1263D01*
X600097Y1449D02*
X608232Y1449D01*
X600097Y1449D02*
X597385Y-1263D01*
X597385Y-6686D01*
X600097Y-9398D01*
X608232Y-9398D01*
X613757Y-6686D02*
X613757Y1449D01*
X613757Y-6686D02*
X616468Y-9398D01*
X624603Y-9398D01*
X624603Y1449D01*
X632840Y4160D02*
X632840Y-6686D01*
X635552Y-9398D01*
X635552Y1449D02*
X630128Y1449D01*
D12*
X0Y-70000D02*
X114Y-72615D01*
X456Y-75209D01*
X1022Y-77765D01*
X1809Y-80261D01*
X2811Y-82679D01*
X4019Y-85000D01*
X5425Y-87207D01*
X7019Y-89284D01*
X8787Y-91213D01*
X10716Y-92981D01*
X12793Y-94575D01*
X15000Y-95981D01*
X17321Y-97189D01*
X19739Y-98191D01*
X22235Y-98978D01*
X24791Y-99544D01*
X27385Y-99886D01*
X30000Y-100000D01*
X530000Y-100000D01*
X532615Y-99886D01*
X535209Y-99544D01*
X537765Y-98978D01*
X540261Y-98191D01*
X542679Y-97189D01*
X545000Y-95981D01*
X547207Y-94575D01*
X549284Y-92981D01*
X551213Y-91213D01*
X552981Y-89284D01*
X554575Y-87207D01*
X555981Y-85000D01*
X557189Y-82679D01*
X558191Y-80261D01*
X558978Y-77765D01*
X559544Y-75209D01*
X559886Y-72615D01*
X560000Y-70000D01*
X560000Y-30000D01*
X559886Y-27385D01*
X559544Y-24791D01*
X558978Y-22235D01*
X558191Y-19739D01*
X557189Y-17321D01*
X555981Y-15000D01*
X554575Y-12793D01*
X552981Y-10716D01*
X551213Y-8787D01*
X549284Y-7019D01*
X547207Y-5425D01*
X545000Y-4019D01*
X542679Y-2811D01*
X540261Y-1809D01*
X537765Y-1022D01*
X535209Y-456D01*
X532615Y-114D01*
X530000Y0D01*
X532615Y114D01*
X535209Y456D01*
X537765Y1022D01*
X540261Y1809D01*
X542679Y2811D01*
X545000Y4019D01*
X547207Y5425D01*
X549284Y7019D01*
X551213Y8787D01*
X552981Y10716D01*
X554575Y12793D01*
X555981Y15000D01*
X557189Y17321D01*
X558191Y19739D01*
X558978Y22235D01*
X559544Y24791D01*
X559886Y27385D01*
X560000Y30000D01*
X560000Y820000D01*
X559886Y822615D01*
X559544Y825209D01*
X558978Y827765D01*
X558191Y830261D01*
X557189Y832679D01*
X555981Y835000D01*
X554575Y837207D01*
X552981Y839284D01*
X551213Y841213D01*
X549284Y842981D01*
X547207Y844575D01*
X545000Y845981D01*
X542679Y847189D01*
X540261Y848191D01*
X537765Y848978D01*
X535209Y849544D01*
X532615Y849886D01*
X530000Y850000D01*
X532615Y850114D01*
X535209Y850456D01*
X537765Y851022D01*
X540261Y851809D01*
X542679Y852811D01*
X545000Y854019D01*
X547207Y855425D01*
X549284Y857019D01*
X551213Y858787D01*
X552981Y860716D01*
X554575Y862793D01*
X555981Y865000D01*
X557189Y867321D01*
X558191Y869739D01*
X558978Y872235D01*
X559544Y874791D01*
X559886Y877385D01*
X560000Y880000D01*
X560000Y920000D01*
X559886Y922615D01*
X559544Y925209D01*
X558978Y927765D01*
X558191Y930261D01*
X557189Y932679D01*
X555981Y935000D01*
X554575Y937207D01*
X552981Y939284D01*
X551213Y941213D01*
X549284Y942981D01*
X547207Y944575D01*
X545000Y945981D01*
X542679Y947189D01*
X540261Y948191D01*
X537765Y948978D01*
X535209Y949544D01*
X532615Y949886D01*
X530000Y950000D01*
X30000Y950000D01*
X27385Y949886D01*
X24791Y949544D01*
X22235Y948978D01*
X19739Y948191D01*
X17321Y947189D01*
X15000Y945981D01*
X12793Y944575D01*
X10716Y942981D01*
X8787Y941213D01*
X7019Y939284D01*
X5425Y937207D01*
X4019Y935000D01*
X2811Y932679D01*
X1809Y930261D01*
X1022Y927765D01*
X456Y925209D01*
X114Y922615D01*
X0Y920000D01*
X0Y880000D01*
X114Y877385D01*
X456Y874791D01*
X1022Y872235D01*
X1809Y869739D01*
X2811Y867321D01*
X4019Y865000D01*
X5425Y862793D01*
X7019Y860716D01*
X8787Y858787D01*
X10716Y857019D01*
X12793Y855425D01*
X15000Y854019D01*
X17321Y852811D01*
X19739Y851809D01*
X22235Y851022D01*
X24791Y850456D01*
X27385Y850114D01*
X30000Y850000D01*
X27385Y849886D01*
X24791Y849544D01*
X22235Y848978D01*
X19739Y848191D01*
X17321Y847189D01*
X15000Y845981D01*
X12793Y844575D01*
X10716Y842981D01*
X8787Y841213D01*
X7019Y839284D01*
X5425Y837207D01*
X4019Y835000D01*
X2811Y832679D01*
X1809Y830261D01*
X1022Y827765D01*
X456Y825209D01*
X114Y822615D01*
X0Y820000D01*
X0Y30000D01*
X114Y27385D01*
X456Y24791D01*
X1022Y22235D01*
X1809Y19739D01*
X2811Y17321D01*
X4019Y15000D01*
X5425Y12793D01*
X7019Y10716D01*
X8787Y8787D01*
X10716Y7019D01*
X12793Y5425D01*
X15000Y4019D01*
X17321Y2811D01*
X19739Y1809D01*
X22235Y1022D01*
X24791Y456D01*
X27385Y114D01*
X30000Y0D01*
X27385Y-114D01*
X24791Y-456D01*
X22235Y-1022D01*
X19739Y-1809D01*
X17321Y-2811D01*
X15000Y-4019D01*
X12793Y-5425D01*
X10716Y-7019D01*
X8787Y-8787D01*
X7019Y-10716D01*
X5425Y-12793D01*
X4019Y-15000D01*
X2811Y-17321D01*
X1809Y-19739D01*
X1022Y-22235D01*
X456Y-24791D01*
X114Y-27385D01*
X0Y-30000D01*
X0Y-70000D01*
X20000Y-50000D02*
X20076Y-51743D01*
X20304Y-53473D01*
X20681Y-55176D01*
X21206Y-56840D01*
X21874Y-58452D01*
X22680Y-60000D01*
X23617Y-61472D01*
X24679Y-62856D01*
X25858Y-64142D01*
X27144Y-65321D01*
X28528Y-66383D01*
X30000Y-67321D01*
X31548Y-68126D01*
X33160Y-68794D01*
X34824Y-69319D01*
X36527Y-69696D01*
X38257Y-69924D01*
X40000Y-70000D01*
X50000Y-70000D01*
X51743Y-69924D01*
X53473Y-69696D01*
X55176Y-69319D01*
X56840Y-68794D01*
X58452Y-68126D01*
X60000Y-67321D01*
X61472Y-66383D01*
X62856Y-65321D01*
X64142Y-64142D01*
X65321Y-62856D01*
X66383Y-61472D01*
X67321Y-60000D01*
X68126Y-58452D01*
X68794Y-56840D01*
X69319Y-55176D01*
X69696Y-53473D01*
X69924Y-51743D01*
X70000Y-50000D01*
X69924Y-48257D01*
X69696Y-46527D01*
X69319Y-44824D01*
X68794Y-43160D01*
X68126Y-41548D01*
X67321Y-40000D01*
X66383Y-38528D01*
X65321Y-37144D01*
X64142Y-35858D01*
X62856Y-34679D01*
X61472Y-33617D01*
X60000Y-32680D01*
X58452Y-31874D01*
X56840Y-31206D01*
X55176Y-30681D01*
X53473Y-30304D01*
X51743Y-30076D01*
X50000Y-30000D01*
X40000Y-30000D01*
X38257Y-30076D01*
X36527Y-30304D01*
X34824Y-30681D01*
X33160Y-31206D01*
X31548Y-31874D01*
X30000Y-32680D01*
X28528Y-33617D01*
X27144Y-34679D01*
X25858Y-35858D01*
X24679Y-37144D01*
X23617Y-38528D01*
X22680Y-40000D01*
X21874Y-41548D01*
X21206Y-43160D01*
X20681Y-44824D01*
X20304Y-46527D01*
X20076Y-48257D01*
X20000Y-50000D01*
X20000Y900000D02*
X20076Y898257D01*
X20304Y896527D01*
X20681Y894824D01*
X21206Y893160D01*
X21874Y891548D01*
X22680Y890000D01*
X23617Y888528D01*
X24679Y887144D01*
X25858Y885858D01*
X27144Y884679D01*
X28528Y883617D01*
X30000Y882680D01*
X31548Y881874D01*
X33160Y881206D01*
X34824Y880681D01*
X36527Y880304D01*
X38257Y880076D01*
X40000Y880000D01*
X50000Y880000D01*
X51743Y880076D01*
X53473Y880304D01*
X55176Y880681D01*
X56840Y881206D01*
X58452Y881874D01*
X60000Y882680D01*
X61472Y883617D01*
X62856Y884679D01*
X64142Y885858D01*
X65321Y887144D01*
X66383Y888528D01*
X67321Y890000D01*
X68126Y891548D01*
X68794Y893160D01*
X69319Y894824D01*
X69696Y896527D01*
X69924Y898257D01*
X70000Y900000D01*
X69924Y901743D01*
X69696Y903473D01*
X69319Y905176D01*
X68794Y906840D01*
X68126Y908452D01*
X67321Y910000D01*
X66383Y911472D01*
X65321Y912856D01*
X64142Y914142D01*
X62856Y915321D01*
X61472Y916383D01*
X60000Y917321D01*
X58452Y918126D01*
X56840Y918794D01*
X55176Y919319D01*
X53473Y919696D01*
X51743Y919924D01*
X50000Y920000D01*
X40000Y920000D01*
X38257Y919924D01*
X36527Y919696D01*
X34824Y919319D01*
X33160Y918794D01*
X31548Y918126D01*
X30000Y917321D01*
X28528Y916383D01*
X27144Y915321D01*
X25858Y914142D01*
X24679Y912856D01*
X23617Y911472D01*
X22680Y910000D01*
X21874Y908452D01*
X21206Y906840D01*
X20681Y905176D01*
X20304Y903473D01*
X20076Y901743D01*
X20000Y900000D01*
X20000Y-50000D02*
X20076Y-51743D01*
X20304Y-53473D01*
X20681Y-55176D01*
X21206Y-56840D01*
X21874Y-58452D01*
X22680Y-60000D01*
X23617Y-61472D01*
X24679Y-62856D01*
X25858Y-64142D01*
X27144Y-65321D01*
X28528Y-66383D01*
X30000Y-67321D01*
X31548Y-68126D01*
X33160Y-68794D01*
X34824Y-69319D01*
X36527Y-69696D01*
X38257Y-69924D01*
X40000Y-70000D01*
X50000Y-70000D01*
X51743Y-69924D01*
X53473Y-69696D01*
X55176Y-69319D01*
X56840Y-68794D01*
X58452Y-68126D01*
X60000Y-67321D01*
X61472Y-66383D01*
X62856Y-65321D01*
X64142Y-64142D01*
X65321Y-62856D01*
X66383Y-61472D01*
X67321Y-60000D01*
X68126Y-58452D01*
X68794Y-56840D01*
X69319Y-55176D01*
X69696Y-53473D01*
X69924Y-51743D01*
X70000Y-50000D01*
X69924Y-48257D01*
X69696Y-46527D01*
X69319Y-44824D01*
X68794Y-43160D01*
X68126Y-41548D01*
X67321Y-40000D01*
X66383Y-38528D01*
X65321Y-37144D01*
X64142Y-35858D01*
X62856Y-34679D01*
X61472Y-33617D01*
X60000Y-32680D01*
X58452Y-31874D01*
X56840Y-31206D01*
X55176Y-30681D01*
X53473Y-30304D01*
X51743Y-30076D01*
X50000Y-30000D01*
X40000Y-30000D01*
X38257Y-30076D01*
X36527Y-30304D01*
X34824Y-30681D01*
X33160Y-31206D01*
X31548Y-31874D01*
X30000Y-32680D01*
X28528Y-33617D01*
X27144Y-34679D01*
X25858Y-35858D01*
X24679Y-37144D01*
X23617Y-38528D01*
X22680Y-40000D01*
X21874Y-41548D01*
X21206Y-43160D01*
X20681Y-44824D01*
X20304Y-46527D01*
X20076Y-48257D01*
X20000Y-50000D01*
X20000Y900000D02*
X20076Y898257D01*
X20304Y896527D01*
X20681Y894824D01*
X21206Y893160D01*
X21874Y891548D01*
X22680Y890000D01*
X23617Y888528D01*
X24679Y887144D01*
X25858Y885858D01*
X27144Y884679D01*
X28528Y883617D01*
X30000Y882680D01*
X31548Y881874D01*
X33160Y881206D01*
X34824Y880681D01*
X36527Y880304D01*
X38257Y880076D01*
X40000Y880000D01*
X50000Y880000D01*
X51743Y880076D01*
X53473Y880304D01*
X55176Y880681D01*
X56840Y881206D01*
X58452Y881874D01*
X60000Y882680D01*
X61472Y883617D01*
X62856Y884679D01*
X64142Y885858D01*
X65321Y887144D01*
X66383Y888528D01*
X67321Y890000D01*
X68126Y891548D01*
X68794Y893160D01*
X69319Y894824D01*
X69696Y896527D01*
X69924Y898257D01*
X70000Y900000D01*
X69924Y901743D01*
X69696Y903473D01*
X69319Y905176D01*
X68794Y906840D01*
X68126Y908452D01*
X67321Y910000D01*
X66383Y911472D01*
X65321Y912856D01*
X64142Y914142D01*
X62856Y915321D01*
X61472Y916383D01*
X60000Y917321D01*
X58452Y918126D01*
X56840Y918794D01*
X55176Y919319D01*
X53473Y919696D01*
X51743Y919924D01*
X50000Y920000D01*
X40000Y920000D01*
X38257Y919924D01*
X36527Y919696D01*
X34824Y919319D01*
X33160Y918794D01*
X31548Y918126D01*
X30000Y917321D01*
X28528Y916383D01*
X27144Y915321D01*
X25858Y914142D01*
X24679Y912856D01*
X23617Y911472D01*
X22680Y910000D01*
X21874Y908452D01*
X21206Y906840D01*
X20681Y905176D01*
X20304Y903473D01*
X20076Y901743D01*
X20000Y900000D01*
X540000Y899396D02*
X539927Y898189D01*
X539781Y896989D01*
X539563Y895800D01*
X539274Y894627D01*
X538915Y893473D01*
X538486Y892343D01*
X537990Y891241D01*
X537428Y890170D01*
X536803Y889136D01*
X536116Y888141D01*
X535371Y887190D01*
X534569Y886285D01*
X533715Y885431D01*
X532810Y884629D01*
X531859Y883884D01*
X530864Y883197D01*
X529830Y882572D01*
X528759Y882010D01*
X527657Y881514D01*
X526527Y881085D01*
X525373Y880726D01*
X524200Y880437D01*
X523011Y880219D01*
X521811Y880073D01*
X520604Y880000D01*
X519396Y880000D01*
X518189Y880073D01*
X516989Y880219D01*
X515800Y880437D01*
X514627Y880726D01*
X513473Y881085D01*
X512343Y881514D01*
X511241Y882010D01*
X510170Y882572D01*
X509136Y883197D01*
X508141Y883884D01*
X507190Y884629D01*
X506285Y885431D01*
X505431Y886285D01*
X504629Y887190D01*
X503884Y888141D01*
X503197Y889136D01*
X502572Y890170D01*
X502010Y891241D01*
X501514Y892343D01*
X501085Y893473D01*
X500726Y894627D01*
X500437Y895800D01*
X500219Y896989D01*
X500073Y898189D01*
X500000Y899396D01*
X500000Y900604D01*
X500073Y901811D01*
X500219Y903011D01*
X500437Y904200D01*
X500726Y905373D01*
X501085Y906527D01*
X501514Y907657D01*
X502010Y908759D01*
X502572Y909830D01*
X503197Y910864D01*
X503884Y911859D01*
X504629Y912810D01*
X505431Y913715D01*
X506285Y914569D01*
X507190Y915371D01*
X508141Y916116D01*
X509136Y916803D01*
X510170Y917428D01*
X511241Y917990D01*
X512343Y918486D01*
X513473Y918915D01*
X514627Y919274D01*
X515800Y919563D01*
X516989Y919781D01*
X518189Y919927D01*
X519396Y920000D01*
X520604Y920000D01*
X521811Y919927D01*
X523011Y919781D01*
X524200Y919563D01*
X525373Y919274D01*
X526527Y918915D01*
X527657Y918486D01*
X528759Y917990D01*
X529830Y917428D01*
X530864Y916803D01*
X531859Y916116D01*
X532810Y915371D01*
X533715Y914569D01*
X534569Y913715D01*
X535371Y912810D01*
X536116Y911859D01*
X536803Y910864D01*
X537428Y909830D01*
X537990Y908759D01*
X538486Y907657D01*
X538915Y906527D01*
X539274Y905373D01*
X539563Y904200D01*
X539781Y903011D01*
X539927Y901811D01*
X540000Y900604D01*
X540000Y899396D01*
X540000Y-50604D02*
X539927Y-51811D01*
X539781Y-53011D01*
X539563Y-54200D01*
X539274Y-55373D01*
X538915Y-56527D01*
X538486Y-57657D01*
X537990Y-58759D01*
X537428Y-59830D01*
X536803Y-60864D01*
X536116Y-61859D01*
X535371Y-62810D01*
X534569Y-63715D01*
X533715Y-64569D01*
X532810Y-65371D01*
X531859Y-66116D01*
X530864Y-66803D01*
X529830Y-67428D01*
X528759Y-67990D01*
X527657Y-68486D01*
X526527Y-68915D01*
X525373Y-69274D01*
X524200Y-69563D01*
X523011Y-69781D01*
X521811Y-69927D01*
X520604Y-70000D01*
X519396Y-70000D01*
X518189Y-69927D01*
X516989Y-69781D01*
X515800Y-69563D01*
X514627Y-69274D01*
X513473Y-68915D01*
X512343Y-68486D01*
X511241Y-67990D01*
X510170Y-67428D01*
X509136Y-66803D01*
X508141Y-66116D01*
X507190Y-65371D01*
X506285Y-64569D01*
X505431Y-63715D01*
X504629Y-62810D01*
X503884Y-61859D01*
X503197Y-60864D01*
X502572Y-59830D01*
X502010Y-58759D01*
X501514Y-57657D01*
X501085Y-56527D01*
X500726Y-55373D01*
X500437Y-54200D01*
X500219Y-53011D01*
X500073Y-51811D01*
X500000Y-50604D01*
X500000Y-49396D01*
X500073Y-48189D01*
X500219Y-46989D01*
X500437Y-45800D01*
X500726Y-44627D01*
X501085Y-43473D01*
X501514Y-42343D01*
X502010Y-41241D01*
X502572Y-40170D01*
X503197Y-39136D01*
X503884Y-38141D01*
X504629Y-37190D01*
X505431Y-36285D01*
X506285Y-35431D01*
X507190Y-34629D01*
X508141Y-33884D01*
X509136Y-33197D01*
X510170Y-32572D01*
X511241Y-32010D01*
X512343Y-31514D01*
X513473Y-31085D01*
X514627Y-30726D01*
X515800Y-30437D01*
X516989Y-30219D01*
X518189Y-30073D01*
X519396Y-30000D01*
X520604Y-30000D01*
X521811Y-30073D01*
X523011Y-30219D01*
X524200Y-30437D01*
X525373Y-30726D01*
X526527Y-31085D01*
X527657Y-31514D01*
X528759Y-32010D01*
X529830Y-32572D01*
X530864Y-33197D01*
X531859Y-33884D01*
X532810Y-34629D01*
X533715Y-35431D01*
X534569Y-36285D01*
X535371Y-37190D01*
X536116Y-38141D01*
X536803Y-39136D01*
X537428Y-40170D01*
X537990Y-41241D01*
X538486Y-42343D01*
X538915Y-43473D01*
X539274Y-44627D01*
X539563Y-45800D01*
X539781Y-46989D01*
X539927Y-48189D01*
X540000Y-49396D01*
X540000Y-50604D01*
M02*
