G04 EAGLE Gerber RS-274X export*
G75*
%MOMM*%
%FSLAX34Y34*%
%LPD*%
%INSoldermask Top*%
%IPPOS*%
%AMOC8*
5,1,8,0,0,1.08239X$1,22.5*%
G01*
%ADD10C,4.203200*%
%ADD11C,3.000000*%
%ADD12C,5.003200*%
%ADD13R,1.727200X1.727200*%
%ADD14C,1.727200*%
%ADD15C,5.203200*%
%ADD16R,0.803200X2.403200*%
%ADD17R,1.303200X1.203200*%
%ADD18R,2.303200X1.603200*%
%ADD19R,1.203200X1.803200*%
%ADD20R,1.003200X1.003200*%
%ADD21P,2.556822X8X202.500000*%
%ADD22R,1.753200X0.803200*%
%ADD23R,1.203200X1.303200*%
%ADD24C,1.403200*%
%ADD25R,1.330400X0.987100*%
%ADD26R,1.203200X1.603200*%
%ADD27R,0.452400X1.008000*%
%ADD28R,1.008000X0.452400*%
%ADD29R,1.753200X1.753200*%
%ADD30R,1.524000X1.524000*%
%ADD31C,1.524000*%
%ADD32C,1.981200*%
%ADD33C,2.870200*%
%ADD34P,2.556822X8X292.500000*%
%ADD35R,0.762000X1.524000*%
%ADD36R,1.803200X2.003200*%
%ADD37P,2.556822X8X22.500000*%
%ADD38P,2.556822X8X112.500000*%


D10*
X520000Y900000D03*
X520000Y-50000D03*
D11*
X490000Y80000D03*
X98840Y659120D03*
X449360Y750560D03*
D12*
X180700Y106080D03*
X133700Y136080D03*
X133700Y77080D03*
D13*
X47700Y83700D03*
D14*
X22282Y83566D03*
X47682Y108966D03*
X22282Y108966D03*
X47682Y134366D03*
X22282Y134366D03*
X47682Y159766D03*
X22282Y159766D03*
X47682Y185166D03*
X22282Y185166D03*
X47682Y210566D03*
X22282Y210566D03*
X47682Y235966D03*
X22282Y235966D03*
X47682Y261366D03*
X22282Y261366D03*
X47682Y286766D03*
X22282Y286766D03*
X47682Y312166D03*
X22282Y312166D03*
X47682Y337566D03*
X22282Y337566D03*
X47682Y362966D03*
X22282Y362966D03*
X47682Y388366D03*
X22282Y388366D03*
X47682Y413766D03*
X22282Y413766D03*
X47682Y439166D03*
X22282Y439166D03*
X47682Y464566D03*
X22282Y464566D03*
X47682Y489966D03*
X22282Y489966D03*
X47682Y515366D03*
X22282Y515366D03*
X47682Y540766D03*
X22282Y540766D03*
X47682Y566166D03*
X22282Y566166D03*
D15*
X35000Y35000D03*
X525000Y35000D03*
X525000Y615000D03*
X35000Y615000D03*
D16*
X402670Y381680D03*
X402670Y329680D03*
X415370Y381680D03*
X389970Y381680D03*
X377270Y381680D03*
X415370Y329680D03*
X389970Y329680D03*
X377270Y329680D03*
D17*
X442040Y379260D03*
X442040Y362260D03*
D18*
X25700Y804900D03*
X25700Y759900D03*
X116700Y759900D03*
X116700Y804900D03*
D19*
X188040Y786240D03*
X213040Y786240D03*
X163040Y786240D03*
X163040Y758240D03*
X188040Y758240D03*
X213040Y758240D03*
D17*
X396240Y733180D03*
X396240Y750180D03*
X304800Y733180D03*
X304800Y750180D03*
X365760Y733180D03*
X365760Y750180D03*
D20*
X396240Y774070D03*
X396240Y790570D03*
X304800Y774070D03*
X304800Y790570D03*
X365760Y774070D03*
X365760Y790570D03*
D21*
X447040Y40640D03*
X345440Y40640D03*
X396240Y40640D03*
X370840Y40640D03*
X421640Y40640D03*
D22*
X179200Y443230D03*
X179200Y455930D03*
X179200Y468630D03*
X179200Y481330D03*
X125800Y481330D03*
X125800Y468630D03*
X125800Y455930D03*
X125800Y443230D03*
X179200Y494030D03*
X179200Y506730D03*
X179200Y519430D03*
X179200Y532130D03*
X125800Y532130D03*
X125800Y519430D03*
X125800Y506730D03*
X125800Y494030D03*
D23*
X472440Y379340D03*
X472440Y362340D03*
D17*
X486020Y340360D03*
X469020Y340360D03*
X452120Y348860D03*
X452120Y331860D03*
D24*
X457200Y284480D03*
X431800Y284480D03*
X482600Y284480D03*
D16*
X417830Y219040D03*
X417830Y167040D03*
X430530Y219040D03*
X405130Y219040D03*
X392430Y219040D03*
X430530Y167040D03*
X405130Y167040D03*
X392430Y167040D03*
D23*
X397900Y132080D03*
X414900Y132080D03*
D25*
X499815Y233680D03*
X465385Y233680D03*
X499815Y208280D03*
X465385Y208280D03*
D17*
X536820Y208280D03*
X519820Y208280D03*
D23*
X536820Y182880D03*
X519820Y182880D03*
D26*
X533400Y143080D03*
X542900Y121080D03*
X523900Y121080D03*
D27*
X327780Y579836D03*
X332780Y579836D03*
X337780Y579836D03*
X342780Y579836D03*
D28*
X349804Y586860D03*
X349804Y591860D03*
X349804Y596860D03*
X349804Y601860D03*
D27*
X342780Y608884D03*
X337780Y608884D03*
X332780Y608884D03*
X327780Y608884D03*
D28*
X320756Y601860D03*
X320756Y596860D03*
X320756Y591860D03*
X320756Y586860D03*
D29*
X335280Y594360D03*
D30*
X167640Y213360D03*
D31*
X167640Y238760D03*
X167640Y264160D03*
X167640Y289560D03*
D32*
X523240Y734060D03*
X523240Y759460D03*
X523240Y784860D03*
X523240Y810260D03*
X523240Y708660D03*
X523240Y683260D03*
D17*
X274320Y733180D03*
X274320Y750180D03*
D20*
X274320Y774070D03*
X274320Y790570D03*
D23*
X267580Y670560D03*
X250580Y670560D03*
X303140Y670560D03*
X286140Y670560D03*
X287900Y543560D03*
X270900Y543560D03*
X298060Y502920D03*
X281060Y502920D03*
X298060Y477520D03*
X281060Y477520D03*
D16*
X300990Y432400D03*
X300990Y380400D03*
X313690Y432400D03*
X288290Y432400D03*
X275590Y432400D03*
X313690Y380400D03*
X288290Y380400D03*
X275590Y380400D03*
D33*
X477520Y462280D03*
X477520Y411480D03*
X528320Y411480D03*
X528320Y462280D03*
X502920Y436880D03*
D17*
X441960Y504580D03*
X441960Y521580D03*
X441960Y469020D03*
X441960Y486020D03*
X441960Y433460D03*
X441960Y450460D03*
D23*
X441960Y414900D03*
X441960Y397900D03*
D17*
X414900Y447040D03*
X397900Y447040D03*
X414900Y482600D03*
X397900Y482600D03*
D23*
X396240Y601100D03*
X396240Y618100D03*
D17*
X250580Y650240D03*
X267580Y650240D03*
X270900Y568960D03*
X287900Y568960D03*
D34*
X533400Y238760D03*
X533400Y86360D03*
D23*
X501260Y121920D03*
X484260Y121920D03*
D17*
X335280Y733180D03*
X335280Y750180D03*
D20*
X335280Y774070D03*
X335280Y790570D03*
D35*
X248260Y505714D03*
X238760Y505714D03*
X229260Y505714D03*
X229260Y479806D03*
X238760Y479806D03*
X248260Y479806D03*
D23*
X270900Y619760D03*
X287900Y619760D03*
D17*
X360680Y662060D03*
X360680Y679060D03*
D23*
X330200Y662060D03*
X330200Y679060D03*
X287900Y594360D03*
X270900Y594360D03*
D36*
X407640Y553720D03*
X435640Y553720D03*
X435640Y579120D03*
X407640Y579120D03*
X468600Y508000D03*
X496600Y508000D03*
D17*
X326780Y462280D03*
X343780Y462280D03*
D37*
X497840Y172720D03*
X447040Y71120D03*
X345440Y71120D03*
X370840Y71120D03*
X396240Y71120D03*
X421640Y71120D03*
D38*
X533400Y309880D03*
M02*
