G04 EAGLE Gerber RS-274X export*
G75*
%MOMM*%
%FSLAX34Y34*%
%LPD*%
%INSilkscreen Bottom*%
%IPPOS*%
%AMOC8*
5,1,8,0,0,1.08239X$1,22.5*%
G01*
%ADD10C,0.152400*%
%ADD11C,0.101600*%
%ADD12C,0.127000*%
%ADD13C,0.076200*%


D10*
X138952Y275082D02*
X125394Y275082D01*
X122682Y277794D01*
X122682Y283217D01*
X125394Y285929D01*
X138952Y285929D01*
X138952Y291454D02*
X138952Y302300D01*
X136240Y302300D01*
X125394Y291454D01*
X122682Y291454D01*
X442722Y630682D02*
X458992Y630682D01*
X442722Y630682D02*
X442722Y641529D01*
X456280Y647054D02*
X458992Y649765D01*
X458992Y655189D01*
X456280Y657900D01*
X453569Y657900D01*
X450857Y655189D01*
X450857Y652477D01*
X450857Y655189D02*
X448145Y657900D01*
X445434Y657900D01*
X442722Y655189D01*
X442722Y649765D01*
X445434Y647054D01*
D11*
X387092Y93298D02*
X375398Y93298D01*
X387092Y93298D02*
X387092Y99145D01*
X385143Y101094D01*
X381245Y101094D01*
X379296Y99145D01*
X379296Y93298D01*
X379296Y97196D02*
X375398Y101094D01*
X383194Y104992D02*
X387092Y108890D01*
X375398Y108890D01*
X375398Y104992D02*
X375398Y112788D01*
X385143Y120584D02*
X387092Y124482D01*
X385143Y120584D02*
X381245Y116686D01*
X377347Y116686D01*
X375398Y118635D01*
X375398Y122533D01*
X377347Y124482D01*
X379296Y124482D01*
X381245Y122533D01*
X381245Y116686D01*
X351532Y93298D02*
X339838Y93298D01*
X351532Y93298D02*
X351532Y99145D01*
X349583Y101094D01*
X345685Y101094D01*
X343736Y99145D01*
X343736Y93298D01*
X343736Y97196D02*
X339838Y101094D01*
X347634Y104992D02*
X351532Y108890D01*
X339838Y108890D01*
X339838Y104992D02*
X339838Y112788D01*
X351532Y116686D02*
X351532Y124482D01*
X349583Y124482D01*
X341787Y116686D01*
X339838Y116686D01*
X219810Y273478D02*
X219810Y285172D01*
X219810Y273478D02*
X212014Y273478D01*
X208116Y273478D02*
X200320Y273478D01*
X208116Y273478D02*
X200320Y281274D01*
X200320Y283223D01*
X202269Y285172D01*
X206167Y285172D01*
X208116Y283223D01*
X256713Y265402D02*
X258662Y263453D01*
X258662Y259555D01*
X256713Y257606D01*
X248917Y257606D01*
X246968Y259555D01*
X246968Y263453D01*
X248917Y265402D01*
X246968Y269300D02*
X246968Y277096D01*
X246968Y269300D02*
X254764Y277096D01*
X256713Y277096D01*
X258662Y275147D01*
X258662Y271249D01*
X256713Y269300D01*
X248917Y280994D02*
X246968Y282943D01*
X246968Y286841D01*
X248917Y288790D01*
X256713Y288790D01*
X258662Y286841D01*
X258662Y282943D01*
X256713Y280994D01*
X254764Y280994D01*
X252815Y282943D01*
X252815Y288790D01*
X185002Y415215D02*
X183053Y417164D01*
X185002Y415215D02*
X185002Y411317D01*
X183053Y409368D01*
X175257Y409368D01*
X173308Y411317D01*
X173308Y415215D01*
X175257Y417164D01*
X173308Y421062D02*
X173308Y428858D01*
X173308Y421062D02*
X181104Y428858D01*
X183053Y428858D01*
X185002Y426909D01*
X185002Y423011D01*
X183053Y421062D01*
X183053Y432756D02*
X185002Y434705D01*
X185002Y438603D01*
X183053Y440552D01*
X181104Y440552D01*
X179155Y438603D01*
X179155Y436654D01*
X179155Y438603D02*
X177206Y440552D01*
X175257Y440552D01*
X173308Y438603D01*
X173308Y434705D01*
X175257Y432756D01*
D12*
X9982Y582390D02*
X9982Y67390D01*
X49982Y67390D01*
X59982Y77390D01*
X59982Y582390D01*
X9982Y582390D01*
D11*
X62728Y66849D02*
X64677Y64900D01*
X62728Y66849D02*
X62728Y68798D01*
X64677Y70747D01*
X74422Y70747D01*
X74422Y68798D02*
X74422Y72696D01*
X62728Y76594D02*
X62728Y84390D01*
X62728Y76594D02*
X70524Y84390D01*
X72473Y84390D01*
X74422Y82441D01*
X74422Y78543D01*
X72473Y76594D01*
X429273Y397004D02*
X431222Y395055D01*
X431222Y391157D01*
X429273Y389208D01*
X421477Y389208D01*
X419528Y391157D01*
X419528Y395055D01*
X421477Y397004D01*
X427324Y400902D02*
X431222Y404800D01*
X419528Y404800D01*
X419528Y400902D02*
X419528Y408698D01*
X427324Y412596D02*
X431222Y416494D01*
X419528Y416494D01*
X419528Y412596D02*
X419528Y420392D01*
X453563Y304612D02*
X455512Y302663D01*
X455512Y298765D01*
X453563Y296816D01*
X445767Y296816D01*
X443818Y298765D01*
X443818Y302663D01*
X445767Y304612D01*
X451614Y308510D02*
X455512Y312408D01*
X443818Y312408D01*
X443818Y308510D02*
X443818Y316306D01*
X443818Y320204D02*
X443818Y328000D01*
X443818Y320204D02*
X451614Y328000D01*
X453563Y328000D01*
X455512Y326051D01*
X455512Y322153D01*
X453563Y320204D01*
X389472Y452045D02*
X387523Y453994D01*
X389472Y452045D02*
X389472Y448147D01*
X387523Y446198D01*
X379727Y446198D01*
X377778Y448147D01*
X377778Y452045D01*
X379727Y453994D01*
X385574Y457892D02*
X389472Y461790D01*
X377778Y461790D01*
X377778Y457892D02*
X377778Y465688D01*
X377778Y475433D02*
X389472Y475433D01*
X383625Y469586D01*
X383625Y477382D01*
X362025Y477102D02*
X360076Y475153D01*
X362025Y477102D02*
X365923Y477102D01*
X367872Y475153D01*
X367872Y467357D01*
X365923Y465408D01*
X362025Y465408D01*
X360076Y467357D01*
X356178Y473204D02*
X352280Y477102D01*
X352280Y465408D01*
X356178Y465408D02*
X348382Y465408D01*
X344484Y475153D02*
X342535Y477102D01*
X338637Y477102D01*
X336688Y475153D01*
X336688Y473204D01*
X338637Y471255D01*
X340586Y471255D01*
X338637Y471255D02*
X336688Y469306D01*
X336688Y467357D01*
X338637Y465408D01*
X342535Y465408D01*
X344484Y467357D01*
X170952Y452125D02*
X169003Y454074D01*
X170952Y452125D02*
X170952Y448227D01*
X169003Y446278D01*
X161207Y446278D01*
X159258Y448227D01*
X159258Y452125D01*
X161207Y454074D01*
X159258Y457972D02*
X159258Y465768D01*
X159258Y457972D02*
X167054Y465768D01*
X169003Y465768D01*
X170952Y463819D01*
X170952Y459921D01*
X169003Y457972D01*
X170952Y475513D02*
X159258Y475513D01*
X165105Y469666D02*
X170952Y475513D01*
X165105Y477462D02*
X165105Y469666D01*
X426813Y107842D02*
X428762Y105893D01*
X428762Y101995D01*
X426813Y100046D01*
X419017Y100046D01*
X417068Y101995D01*
X417068Y105893D01*
X419017Y107842D01*
X424864Y111740D02*
X428762Y115638D01*
X417068Y115638D01*
X417068Y111740D02*
X417068Y119536D01*
X428762Y123434D02*
X428762Y131230D01*
X428762Y123434D02*
X422915Y123434D01*
X424864Y127332D01*
X424864Y129281D01*
X422915Y131230D01*
X419017Y131230D01*
X417068Y129281D01*
X417068Y125383D01*
X419017Y123434D01*
X489043Y126892D02*
X490992Y124943D01*
X490992Y121045D01*
X489043Y119096D01*
X481247Y119096D01*
X479298Y121045D01*
X479298Y124943D01*
X481247Y126892D01*
X487094Y130790D02*
X490992Y134688D01*
X479298Y134688D01*
X479298Y130790D02*
X479298Y138586D01*
X489043Y146382D02*
X490992Y150280D01*
X489043Y146382D02*
X485145Y142484D01*
X481247Y142484D01*
X479298Y144433D01*
X479298Y148331D01*
X481247Y150280D01*
X483196Y150280D01*
X485145Y148331D01*
X485145Y142484D01*
X365755Y206512D02*
X363806Y204563D01*
X365755Y206512D02*
X369653Y206512D01*
X371602Y204563D01*
X371602Y196767D01*
X369653Y194818D01*
X365755Y194818D01*
X363806Y196767D01*
X359908Y202614D02*
X356010Y206512D01*
X356010Y194818D01*
X359908Y194818D02*
X352112Y194818D01*
X348214Y204563D02*
X346265Y206512D01*
X342367Y206512D01*
X340418Y204563D01*
X340418Y202614D01*
X342367Y200665D01*
X340418Y198716D01*
X340418Y196767D01*
X342367Y194818D01*
X346265Y194818D01*
X348214Y196767D01*
X348214Y198716D01*
X346265Y200665D01*
X348214Y202614D01*
X348214Y204563D01*
X346265Y200665D02*
X342367Y200665D01*
X314276Y246473D02*
X316225Y248422D01*
X320123Y248422D01*
X322072Y246473D01*
X322072Y238677D01*
X320123Y236728D01*
X316225Y236728D01*
X314276Y238677D01*
X310378Y244524D02*
X306480Y248422D01*
X306480Y236728D01*
X310378Y236728D02*
X302582Y236728D01*
X298684Y248422D02*
X290888Y248422D01*
X290888Y246473D01*
X298684Y238677D01*
X298684Y236728D01*
D10*
X115062Y192532D02*
X115062Y312420D01*
X180086Y312420D01*
X180086Y192532D01*
X115062Y192532D01*
D13*
X163662Y186146D02*
X171628Y178181D01*
X171628Y186146D02*
X163662Y178181D01*
X167645Y178181D02*
X167645Y186146D01*
X163662Y182164D02*
X171628Y182164D01*
D11*
X222836Y246473D02*
X224785Y248422D01*
X228683Y248422D01*
X230632Y246473D01*
X230632Y238677D01*
X228683Y236728D01*
X224785Y236728D01*
X222836Y238677D01*
X218938Y236728D02*
X211142Y236728D01*
X218938Y236728D02*
X211142Y244524D01*
X211142Y246473D01*
X213091Y248422D01*
X216989Y248422D01*
X218938Y246473D01*
X207244Y246473D02*
X205295Y248422D01*
X201397Y248422D01*
X199448Y246473D01*
X199448Y244524D01*
X201397Y242575D01*
X199448Y240626D01*
X199448Y238677D01*
X201397Y236728D01*
X205295Y236728D01*
X207244Y238677D01*
X207244Y240626D01*
X205295Y242575D01*
X207244Y244524D01*
X207244Y246473D01*
X205295Y242575D02*
X201397Y242575D01*
X240050Y191272D02*
X240050Y179578D01*
X232254Y179578D01*
X228356Y187374D02*
X224458Y191272D01*
X224458Y179578D01*
X228356Y179578D02*
X220560Y179578D01*
D10*
X410464Y641858D02*
X410464Y648462D01*
X432816Y648462D02*
X432816Y641858D01*
X421640Y620522D02*
X421586Y620520D01*
X421532Y620514D01*
X421478Y620505D01*
X421425Y620491D01*
X421374Y620474D01*
X421323Y620453D01*
X421275Y620429D01*
X421228Y620401D01*
X421183Y620370D01*
X421141Y620336D01*
X421101Y620299D01*
X421064Y620259D01*
X421030Y620217D01*
X420999Y620172D01*
X420971Y620125D01*
X420947Y620077D01*
X420926Y620026D01*
X420909Y619975D01*
X420895Y619922D01*
X420886Y619868D01*
X420880Y619814D01*
X420878Y619760D01*
X420880Y619706D01*
X420886Y619652D01*
X420895Y619598D01*
X420909Y619545D01*
X420926Y619494D01*
X420947Y619443D01*
X420971Y619395D01*
X420999Y619348D01*
X421030Y619303D01*
X421064Y619261D01*
X421101Y619221D01*
X421141Y619184D01*
X421183Y619150D01*
X421228Y619119D01*
X421275Y619091D01*
X421323Y619067D01*
X421374Y619046D01*
X421425Y619029D01*
X421478Y619015D01*
X421532Y619006D01*
X421586Y619000D01*
X421640Y618998D01*
X421694Y619000D01*
X421748Y619006D01*
X421802Y619015D01*
X421855Y619029D01*
X421906Y619046D01*
X421957Y619067D01*
X422005Y619091D01*
X422052Y619119D01*
X422097Y619150D01*
X422139Y619184D01*
X422179Y619221D01*
X422216Y619261D01*
X422250Y619303D01*
X422281Y619348D01*
X422309Y619395D01*
X422333Y619443D01*
X422354Y619494D01*
X422371Y619545D01*
X422385Y619598D01*
X422394Y619652D01*
X422400Y619706D01*
X422402Y619760D01*
X422400Y619814D01*
X422394Y619868D01*
X422385Y619922D01*
X422371Y619975D01*
X422354Y620026D01*
X422333Y620077D01*
X422309Y620125D01*
X422281Y620172D01*
X422250Y620217D01*
X422216Y620259D01*
X422179Y620299D01*
X422139Y620336D01*
X422097Y620370D01*
X422052Y620401D01*
X422005Y620429D01*
X421957Y620453D01*
X421906Y620474D01*
X421855Y620491D01*
X421802Y620505D01*
X421748Y620514D01*
X421694Y620520D01*
X421640Y620522D01*
D11*
X471278Y675733D02*
X473227Y677682D01*
X477125Y677682D01*
X479074Y675733D01*
X479074Y667937D01*
X477125Y665988D01*
X473227Y665988D01*
X471278Y667937D01*
X467380Y675733D02*
X465431Y677682D01*
X461533Y677682D01*
X459584Y675733D01*
X459584Y673784D01*
X461533Y671835D01*
X463482Y671835D01*
X461533Y671835D02*
X459584Y669886D01*
X459584Y667937D01*
X461533Y665988D01*
X465431Y665988D01*
X467380Y667937D01*
X455686Y673784D02*
X451788Y677682D01*
X451788Y665988D01*
X455686Y665988D02*
X447890Y665988D01*
X462388Y702403D02*
X464337Y704352D01*
X468235Y704352D01*
X470184Y702403D01*
X470184Y694607D01*
X468235Y692658D01*
X464337Y692658D01*
X462388Y694607D01*
X458490Y702403D02*
X456541Y704352D01*
X452643Y704352D01*
X450694Y702403D01*
X450694Y700454D01*
X452643Y698505D01*
X454592Y698505D01*
X452643Y698505D02*
X450694Y696556D01*
X450694Y694607D01*
X452643Y692658D01*
X456541Y692658D01*
X458490Y694607D01*
X446796Y692658D02*
X439000Y692658D01*
X446796Y692658D02*
X439000Y700454D01*
X439000Y702403D01*
X440949Y704352D01*
X444847Y704352D01*
X446796Y702403D01*
X259867Y520202D02*
X257918Y518253D01*
X259867Y520202D02*
X263765Y520202D01*
X265714Y518253D01*
X265714Y510457D01*
X263765Y508508D01*
X259867Y508508D01*
X257918Y510457D01*
X254020Y508508D02*
X246224Y508508D01*
X254020Y508508D02*
X246224Y516304D01*
X246224Y518253D01*
X248173Y520202D01*
X252071Y520202D01*
X254020Y518253D01*
X242326Y520202D02*
X234530Y520202D01*
X242326Y520202D02*
X242326Y514355D01*
X238428Y516304D01*
X236479Y516304D01*
X234530Y514355D01*
X234530Y510457D01*
X236479Y508508D01*
X240377Y508508D01*
X242326Y510457D01*
X238868Y580483D02*
X240817Y582432D01*
X244715Y582432D01*
X246664Y580483D01*
X246664Y572687D01*
X244715Y570738D01*
X240817Y570738D01*
X238868Y572687D01*
X234970Y570738D02*
X227174Y570738D01*
X234970Y570738D02*
X227174Y578534D01*
X227174Y580483D01*
X229123Y582432D01*
X233021Y582432D01*
X234970Y580483D01*
X219378Y580483D02*
X215480Y582432D01*
X219378Y580483D02*
X223276Y576585D01*
X223276Y572687D01*
X221327Y570738D01*
X217429Y570738D01*
X215480Y572687D01*
X215480Y574636D01*
X217429Y576585D01*
X223276Y576585D01*
X290825Y380502D02*
X288876Y378553D01*
X290825Y380502D02*
X294723Y380502D01*
X296672Y378553D01*
X296672Y370757D01*
X294723Y368808D01*
X290825Y368808D01*
X288876Y370757D01*
X284978Y376604D02*
X281080Y380502D01*
X281080Y368808D01*
X284978Y368808D02*
X277182Y368808D01*
X273284Y370757D02*
X271335Y368808D01*
X267437Y368808D01*
X265488Y370757D01*
X265488Y378553D01*
X267437Y380502D01*
X271335Y380502D01*
X273284Y378553D01*
X273284Y376604D01*
X271335Y374655D01*
X265488Y374655D01*
X307926Y438243D02*
X309875Y440192D01*
X313773Y440192D01*
X315722Y438243D01*
X315722Y430447D01*
X313773Y428498D01*
X309875Y428498D01*
X307926Y430447D01*
X304028Y428498D02*
X296232Y428498D01*
X304028Y428498D02*
X296232Y436294D01*
X296232Y438243D01*
X298181Y440192D01*
X302079Y440192D01*
X304028Y438243D01*
X292334Y438243D02*
X292334Y430447D01*
X292334Y438243D02*
X290385Y440192D01*
X286487Y440192D01*
X284538Y438243D01*
X284538Y430447D01*
X286487Y428498D01*
X290385Y428498D01*
X292334Y430447D01*
X284538Y438243D01*
X224785Y446542D02*
X222836Y444593D01*
X224785Y446542D02*
X228683Y446542D01*
X230632Y444593D01*
X230632Y436797D01*
X228683Y434848D01*
X224785Y434848D01*
X222836Y436797D01*
X218938Y434848D02*
X211142Y434848D01*
X218938Y434848D02*
X211142Y442644D01*
X211142Y444593D01*
X213091Y446542D01*
X216989Y446542D01*
X218938Y444593D01*
X207244Y442644D02*
X203346Y446542D01*
X203346Y434848D01*
X207244Y434848D02*
X199448Y434848D01*
X238755Y384312D02*
X236806Y382363D01*
X238755Y384312D02*
X242653Y384312D01*
X244602Y382363D01*
X244602Y374567D01*
X242653Y372618D01*
X238755Y372618D01*
X236806Y374567D01*
X232908Y372618D02*
X225112Y372618D01*
X232908Y372618D02*
X225112Y380414D01*
X225112Y382363D01*
X227061Y384312D01*
X230959Y384312D01*
X232908Y382363D01*
X221214Y372618D02*
X213418Y372618D01*
X221214Y372618D02*
X213418Y380414D01*
X213418Y382363D01*
X215367Y384312D01*
X219265Y384312D01*
X221214Y382363D01*
M02*
